M48
; DRILL file {KiCad 7.0.2-0} date 2023 June 06, Tuesday 22:37:28
; FORMAT={3:3/ absolute / metric / suppress leading zeros}
; #@! TF.CreationDate,2023-06-06T22:37:28+02:00
; #@! TF.GenerationSoftware,Kicad,Pcbnew,7.0.2-0
; #@! TF.FileFunction,Plated,1,2,PTH
FMAT,2
METRIC,TZ
; #@! TA.AperFunction,Plated,PTH,ViaDrill
T1C0.400
; #@! TA.AperFunction,Plated,PTH,ComponentDrill
T2C0.600
; #@! TA.AperFunction,Plated,PTH,ComponentDrill
T3C0.800
; #@! TA.AperFunction,Plated,PTH,ComponentDrill
T4C1.000
; #@! TA.AperFunction,Plated,PTH,ComponentDrill
T5C1.400
; #@! TA.AperFunction,Plated,PTH,ComponentDrill
T6C3.200
%
G90
G05
T1
X49660Y-46590
X50930Y-84588
X63340Y-138849
X64138Y-84588
X64240Y-46640
X65880Y-106976
X68202Y-45726
X68202Y-49536
X68202Y-83826
X68202Y-87636
X73500Y-139103
X76040Y-106849
X83660Y-139103
X86200Y-106849
X87252Y-83826
X87252Y-87636
X87506Y-45726
X87506Y-49536
X93820Y-139103
X96360Y-106849
X106302Y-83826
X106302Y-87636
X106520Y-106849
X106556Y-45726
X106556Y-49536
X119256Y-106969
X124844Y-131324
X125098Y-45726
X125098Y-49536
X125098Y-83826
X125098Y-87636
X130305Y-107829
X130419Y-138826
X131969Y-139326
X133018Y-139325
X134068Y-139325
X135055Y-86953
X135107Y-84283
X135117Y-139325
X135966Y-84886
X135969Y-86438
X136731Y-85604
X136795Y-107829
X136795Y-139105
X140523Y-103841
X141717Y-103765
X142767Y-103765
X143816Y-103765
X144892Y-103765
X145942Y-103765
T2
X53800Y-38000
X53800Y-57000
X53800Y-76000
X53800Y-95000
X57000Y-34800
X57000Y-41200
X57000Y-53800
X57000Y-60200
X57000Y-72800
X57000Y-79200
X57000Y-91800
X57000Y-98200
X60200Y-38000
X60200Y-57000
X60200Y-76000
X60200Y-95000
X72800Y-38000
X72800Y-57000
X72800Y-76000
X72800Y-95000
X76000Y-34800
X76000Y-41200
X76000Y-53800
X76000Y-60200
X76000Y-72800
X76000Y-79200
X76000Y-91800
X76000Y-98200
X79200Y-38000
X79200Y-57000
X79200Y-76000
X79200Y-95000
X91800Y-38000
X91800Y-57000
X91800Y-76000
X91800Y-95000
X95000Y-34800
X95000Y-41200
X95000Y-53800
X95000Y-60200
X95000Y-72800
X95000Y-79200
X95000Y-91800
X95000Y-98200
X98200Y-38000
X98200Y-57000
X98200Y-76000
X98200Y-95000
X110800Y-38000
X110800Y-57000
X110800Y-76000
X110800Y-95000
X114000Y-34800
X114000Y-41200
X114000Y-53800
X114000Y-60200
X114000Y-72800
X114000Y-79200
X114000Y-91800
X114000Y-98200
X117200Y-38000
X117200Y-57000
X117200Y-76000
X117200Y-95000
X129800Y-38000
X129800Y-57000
X129800Y-76000
X129800Y-95000
X133000Y-34800
X133000Y-41200
X133000Y-53800
X133000Y-60200
X133000Y-72800
X133000Y-79200
X133000Y-91800
X133000Y-98200
X136200Y-38000
X136200Y-57000
X136200Y-76000
X136200Y-95000
T3
X46725Y-34280
X46725Y-41900
X46725Y-72380
X46725Y-80000
X46735Y-53350
X46735Y-60970
X46735Y-91450
X46735Y-99070
X49265Y-34280
X49265Y-41900
X49265Y-72380
X49265Y-80000
X49275Y-53350
X49275Y-60970
X49275Y-91450
X49275Y-99070
X60785Y-108515
X60785Y-116135
X60785Y-129720
X60785Y-137340
X63325Y-108515
X63325Y-116135
X63325Y-129720
X63325Y-137340
X65781Y-34280
X65781Y-41900
X65781Y-72380
X65781Y-80000
X65791Y-53350
X65791Y-60970
X65791Y-91450
X65791Y-99070
X65865Y-108515
X65865Y-116135
X65865Y-129720
X65865Y-137340
X68321Y-34280
X68321Y-41900
X68321Y-72380
X68321Y-80000
X68331Y-53350
X68331Y-60970
X68331Y-91450
X68331Y-99070
X68405Y-108515
X68405Y-116135
X68405Y-129720
X68405Y-137340
X70945Y-108515
X70945Y-116135
X70945Y-129720
X70945Y-137340
X73485Y-108515
X73485Y-116135
X73485Y-129720
X73485Y-137340
X76025Y-108515
X76025Y-116135
X76025Y-129720
X76025Y-137340
X78565Y-108515
X78565Y-116135
X78565Y-129720
X78565Y-137340
X81105Y-108515
X81105Y-116135
X81105Y-129720
X81105Y-137340
X83645Y-108515
X83645Y-116135
X83645Y-129720
X83645Y-137340
X84831Y-34280
X84831Y-41900
X84831Y-72380
X84831Y-80000
X84841Y-53350
X84841Y-60970
X84841Y-91450
X84841Y-99070
X86185Y-108515
X86185Y-116135
X86185Y-129720
X86185Y-137340
X87371Y-34280
X87371Y-41900
X87371Y-72380
X87371Y-80000
X87381Y-53350
X87381Y-60970
X87381Y-91450
X87381Y-99070
X88725Y-108515
X88725Y-116135
X88725Y-129720
X88725Y-137340
X91265Y-108515
X91265Y-116135
X91265Y-129720
X91265Y-137340
X93805Y-108515
X93805Y-116135
X93805Y-129720
X93805Y-137340
X96345Y-108515
X96345Y-116135
X96345Y-129720
X96345Y-137340
X98885Y-108515
X98885Y-116135
X98885Y-129720
X98885Y-137340
X101425Y-108515
X101425Y-116135
X101425Y-129720
X101425Y-137340
X103881Y-34280
X103881Y-41900
X103881Y-72380
X103881Y-80000
X103891Y-53350
X103891Y-60970
X103891Y-91450
X103891Y-99070
X103965Y-108515
X103965Y-116135
X103965Y-129720
X103965Y-137340
X106421Y-34280
X106421Y-41900
X106421Y-72380
X106421Y-80000
X106431Y-53350
X106431Y-60970
X106431Y-91450
X106431Y-99070
X106505Y-108515
X106505Y-116135
X106505Y-129720
X106505Y-137340
X109045Y-108515
X109045Y-116135
X109045Y-129720
X109045Y-137340
X112901Y-129720
X112901Y-137340
X112906Y-108515
X112906Y-116135
X115441Y-129720
X115441Y-137340
X115446Y-108515
X115446Y-116135
X119251Y-129720
X119251Y-137340
X119256Y-108515
X119256Y-116135
X121791Y-129720
X121791Y-137340
X121796Y-108515
X121796Y-116135
X122677Y-34280
X122677Y-41900
X122677Y-72380
X122677Y-80000
X122687Y-53350
X122687Y-60970
X122814Y-91450
X122814Y-99070
X125217Y-34280
X125217Y-41900
X125217Y-72380
X125217Y-80000
X125227Y-53350
X125227Y-60970
X125354Y-91450
X125354Y-99070
T4
X83574Y-121550
X83574Y-124090
X86114Y-121550
X86114Y-124090
X88654Y-121550
X88654Y-124090
X91194Y-121550
X91194Y-124090
X93734Y-121550
X93734Y-124090
X96274Y-121550
X96274Y-124090
X98814Y-121550
X98814Y-124090
X101354Y-121550
X101354Y-124090
X103894Y-121550
X103894Y-124090
X106434Y-121550
X106434Y-124090
X143622Y-63760
X143622Y-66300
X143622Y-68840
X143622Y-71380
X143622Y-73920
X143622Y-76460
X143622Y-79000
X143622Y-81540
X143622Y-84080
X143622Y-86620
X143622Y-89160
X143622Y-91700
X143622Y-94240
X146162Y-63760
X146162Y-66300
X146162Y-68840
X146162Y-71380
X146162Y-73920
X146162Y-76460
X146162Y-79000
X146162Y-81540
X146162Y-84080
X146162Y-86620
X146162Y-89160
X146162Y-91700
X146162Y-94240
T5
X146213Y-112020
X146213Y-117100
X146213Y-126230
X146213Y-131310
T6
X57000Y-38000
X57000Y-57000
X57000Y-76000
X57000Y-95000
X76000Y-38000
X76000Y-57000
X76000Y-76000
X76000Y-95000
X95000Y-38000
X95000Y-57000
X95000Y-76000
X95000Y-95000
X114000Y-38000
X114000Y-57000
X114000Y-76000
X114000Y-95000
X133000Y-38000
X133000Y-57000
X133000Y-76000
X133000Y-95000
T0
M30
