%TF.GenerationSoftware,KiCad,Pcbnew,7.0.2-0*%
%TF.CreationDate,2023-06-06T22:37:24+02:00*%
%TF.ProjectId,scan2000_breakout,7363616e-3230-4303-905f-627265616b6f,rev?*%
%TF.SameCoordinates,Original*%
%TF.FileFunction,Soldermask,Bot*%
%TF.FilePolarity,Negative*%
%FSLAX46Y46*%
G04 Gerber Fmt 4.6, Leading zero omitted, Abs format (unit mm)*
G04 Created by KiCad (PCBNEW 7.0.2-0) date 2023-06-06 22:37:24*
%MOMM*%
%LPD*%
G01*
G04 APERTURE LIST*
G04 Aperture macros list*
%AMRoundRect*
0 Rectangle with rounded corners*
0 $1 Rounding radius*
0 $2 $3 $4 $5 $6 $7 $8 $9 X,Y pos of 4 corners*
0 Add a 4 corners polygon primitive as box body*
4,1,4,$2,$3,$4,$5,$6,$7,$8,$9,$2,$3,0*
0 Add four circle primitives for the rounded corners*
1,1,$1+$1,$2,$3*
1,1,$1+$1,$4,$5*
1,1,$1+$1,$6,$7*
1,1,$1+$1,$8,$9*
0 Add four rect primitives between the rounded corners*
20,1,$1+$1,$2,$3,$4,$5,0*
20,1,$1+$1,$4,$5,$6,$7,0*
20,1,$1+$1,$6,$7,$8,$9,0*
20,1,$1+$1,$8,$9,$2,$3,0*%
G04 Aperture macros list end*
%ADD10C,1.524000*%
%ADD11C,8.000000*%
%ADD12R,1.600000X1.600000*%
%ADD13O,1.600000X1.600000*%
%ADD14RoundRect,0.249999X1.550001X-0.790001X1.550001X0.790001X-1.550001X0.790001X-1.550001X-0.790001X0*%
%ADD15O,3.600000X2.080000*%
%ADD16RoundRect,0.250000X-0.600000X-0.600000X0.600000X-0.600000X0.600000X0.600000X-0.600000X0.600000X0*%
%ADD17C,1.700000*%
%ADD18R,1.700000X1.700000*%
%ADD19O,1.700000X1.700000*%
G04 APERTURE END LIST*
D10*
%TO.C,J10*%
X129800000Y-57000000D03*
X133000000Y-53800000D03*
D11*
X133000000Y-57000000D03*
D10*
X133000000Y-60200000D03*
X136200000Y-57000000D03*
%TD*%
D12*
%TO.C,U3*%
X46725000Y-41900000D03*
D13*
X49265000Y-41900000D03*
X49265000Y-34280000D03*
X46725000Y-34280000D03*
%TD*%
D10*
%TO.C,J9*%
X129800000Y-38000000D03*
X133000000Y-34800000D03*
D11*
X133000000Y-38000000D03*
D10*
X133000000Y-41200000D03*
X136200000Y-38000000D03*
%TD*%
D14*
%TO.C,J23*%
X146212500Y-131310000D03*
D15*
X146212500Y-126230000D03*
%TD*%
D12*
%TO.C,U1*%
X112901000Y-137340000D03*
D13*
X115441000Y-137340000D03*
X115441000Y-129720000D03*
X112901000Y-129720000D03*
%TD*%
D12*
%TO.C,U8*%
X87381000Y-53350000D03*
D13*
X84841000Y-53350000D03*
X84841000Y-60970000D03*
X87381000Y-60970000D03*
%TD*%
D10*
%TO.C,J12*%
X53800000Y-95000000D03*
X57000000Y-91800000D03*
D11*
X57000000Y-95000000D03*
D10*
X57000000Y-98200000D03*
X60200000Y-95000000D03*
%TD*%
D14*
%TO.C,J24*%
X146212500Y-117100000D03*
D15*
X146212500Y-112020000D03*
%TD*%
D10*
%TO.C,J13*%
X72800000Y-76000000D03*
X76000000Y-72800000D03*
D11*
X76000000Y-76000000D03*
D10*
X76000000Y-79200000D03*
X79200000Y-76000000D03*
%TD*%
D12*
%TO.C,U22*%
X106505200Y-137340000D03*
D13*
X109045200Y-137340000D03*
X109045200Y-129720000D03*
X106505200Y-129720000D03*
%TD*%
D10*
%TO.C,J7*%
X110800000Y-38000000D03*
X114000000Y-34800000D03*
D11*
X114000000Y-38000000D03*
D10*
X114000000Y-41200000D03*
X117200000Y-38000000D03*
%TD*%
D12*
%TO.C,U35*%
X63325200Y-108514800D03*
D13*
X60785200Y-108514800D03*
X60785200Y-116134800D03*
X63325200Y-116134800D03*
%TD*%
D12*
%TO.C,U29*%
X84831000Y-80000000D03*
D13*
X87371000Y-80000000D03*
X87371000Y-72380000D03*
X84831000Y-72380000D03*
%TD*%
D12*
%TO.C,U9*%
X103881000Y-41900000D03*
D13*
X106421000Y-41900000D03*
X106421000Y-34280000D03*
X103881000Y-34280000D03*
%TD*%
D12*
%TO.C,U42*%
X98885200Y-108514800D03*
D13*
X96345200Y-108514800D03*
X96345200Y-116134800D03*
X98885200Y-116134800D03*
%TD*%
D12*
%TO.C,U31*%
X103881000Y-80000000D03*
D13*
X106421000Y-80000000D03*
X106421000Y-72380000D03*
X103881000Y-72380000D03*
%TD*%
D12*
%TO.C,U17*%
X81105200Y-137340000D03*
D13*
X83645200Y-137340000D03*
X83645200Y-129720000D03*
X81105200Y-129720000D03*
%TD*%
D12*
%TO.C,U44*%
X109045200Y-108514800D03*
D13*
X106505200Y-108514800D03*
X106505200Y-116134800D03*
X109045200Y-116134800D03*
%TD*%
D12*
%TO.C,U38*%
X78565200Y-108514800D03*
D13*
X76025200Y-108514800D03*
X76025200Y-116134800D03*
X78565200Y-116134800D03*
%TD*%
D10*
%TO.C,J1*%
X53800000Y-38000000D03*
X57000000Y-34800000D03*
D11*
X57000000Y-38000000D03*
D10*
X57000000Y-41200000D03*
X60200000Y-38000000D03*
%TD*%
%TO.C,J6*%
X91800000Y-57000000D03*
X95000000Y-53800000D03*
D11*
X95000000Y-57000000D03*
D10*
X95000000Y-60200000D03*
X98200000Y-57000000D03*
%TD*%
D12*
%TO.C,U41*%
X93805200Y-108514800D03*
D13*
X91265200Y-108514800D03*
X91265200Y-116134800D03*
X93805200Y-116134800D03*
%TD*%
D12*
%TO.C,U43*%
X103965200Y-108514800D03*
D13*
X101425200Y-108514800D03*
X101425200Y-116134800D03*
X103965200Y-116134800D03*
%TD*%
D12*
%TO.C,U40*%
X88725200Y-108514800D03*
D13*
X86185200Y-108514800D03*
X86185200Y-116134800D03*
X88725200Y-116134800D03*
%TD*%
D10*
%TO.C,J11*%
X53800000Y-76000000D03*
X57000000Y-72800000D03*
D11*
X57000000Y-76000000D03*
D10*
X57000000Y-79200000D03*
X60200000Y-76000000D03*
%TD*%
D12*
%TO.C,U6*%
X68331000Y-53350000D03*
D13*
X65791000Y-53350000D03*
X65791000Y-60970000D03*
X68331000Y-60970000D03*
%TD*%
D10*
%TO.C,J18*%
X110800000Y-95000000D03*
X114000000Y-91800000D03*
D11*
X114000000Y-95000000D03*
D10*
X114000000Y-98200000D03*
X117200000Y-95000000D03*
%TD*%
D12*
%TO.C,U11*%
X122677000Y-41900000D03*
D13*
X125217000Y-41900000D03*
X125217000Y-34280000D03*
X122677000Y-34280000D03*
%TD*%
D12*
%TO.C,U7*%
X84831000Y-41900000D03*
D13*
X87371000Y-41900000D03*
X87371000Y-34280000D03*
X84831000Y-34280000D03*
%TD*%
D12*
%TO.C,U27*%
X65781000Y-80000000D03*
D13*
X68321000Y-80000000D03*
X68321000Y-72380000D03*
X65781000Y-72380000D03*
%TD*%
D12*
%TO.C,U18*%
X86185200Y-137340000D03*
D13*
X88725200Y-137340000D03*
X88725200Y-129720000D03*
X86185200Y-129720000D03*
%TD*%
D10*
%TO.C,J15*%
X91800000Y-76000000D03*
X95000000Y-72800000D03*
D11*
X95000000Y-76000000D03*
D10*
X95000000Y-79200000D03*
X98200000Y-76000000D03*
%TD*%
D12*
%TO.C,U25*%
X46725000Y-80000000D03*
D13*
X49265000Y-80000000D03*
X49265000Y-72380000D03*
X46725000Y-72380000D03*
%TD*%
D12*
%TO.C,U26*%
X49275000Y-91450000D03*
D13*
X46735000Y-91450000D03*
X46735000Y-99070000D03*
X49275000Y-99070000D03*
%TD*%
D12*
%TO.C,U12*%
X125227000Y-53350000D03*
D13*
X122687000Y-53350000D03*
X122687000Y-60970000D03*
X125227000Y-60970000D03*
%TD*%
D10*
%TO.C,J2*%
X53800000Y-57000000D03*
X57000000Y-53800000D03*
D11*
X57000000Y-57000000D03*
D10*
X57000000Y-60200000D03*
X60200000Y-57000000D03*
%TD*%
D16*
%TO.C,J21*%
X143622415Y-63760000D03*
D17*
X146162415Y-63760000D03*
X143622415Y-66300000D03*
X146162415Y-66300000D03*
X143622415Y-68840000D03*
X146162415Y-68840000D03*
X143622415Y-71380000D03*
X146162415Y-71380000D03*
X143622415Y-73920000D03*
X146162415Y-73920000D03*
X143622415Y-76460000D03*
X146162415Y-76460000D03*
X143622415Y-79000000D03*
X146162415Y-79000000D03*
X143622415Y-81540000D03*
X146162415Y-81540000D03*
X143622415Y-84080000D03*
X146162415Y-84080000D03*
X143622415Y-86620000D03*
X146162415Y-86620000D03*
X143622415Y-89160000D03*
X146162415Y-89160000D03*
X143622415Y-91700000D03*
X146162415Y-91700000D03*
X143622415Y-94240000D03*
X146162415Y-94240000D03*
%TD*%
D12*
%TO.C,U5*%
X65781000Y-41900000D03*
D13*
X68321000Y-41900000D03*
X68321000Y-34280000D03*
X65781000Y-34280000D03*
%TD*%
D12*
%TO.C,U33*%
X122677000Y-80000000D03*
D13*
X125217000Y-80000000D03*
X125217000Y-72380000D03*
X122677000Y-72380000D03*
%TD*%
D12*
%TO.C,U28*%
X68331000Y-91450000D03*
D13*
X65791000Y-91450000D03*
X65791000Y-99070000D03*
X68331000Y-99070000D03*
%TD*%
D12*
%TO.C,U21*%
X101425200Y-137340000D03*
D13*
X103965200Y-137340000D03*
X103965200Y-129720000D03*
X101425200Y-129720000D03*
%TD*%
D12*
%TO.C,U10*%
X106431000Y-53350000D03*
D13*
X103891000Y-53350000D03*
X103891000Y-60970000D03*
X106431000Y-60970000D03*
%TD*%
D12*
%TO.C,U13*%
X60785200Y-137340000D03*
D13*
X63325200Y-137340000D03*
X63325200Y-129720000D03*
X60785200Y-129720000D03*
%TD*%
D12*
%TO.C,U39*%
X83645200Y-108514800D03*
D13*
X81105200Y-108514800D03*
X81105200Y-116134800D03*
X83645200Y-116134800D03*
%TD*%
D12*
%TO.C,U16*%
X76025200Y-137340000D03*
D13*
X78565200Y-137340000D03*
X78565200Y-129720000D03*
X76025200Y-129720000D03*
%TD*%
D12*
%TO.C,U34*%
X125354000Y-91450000D03*
D13*
X122814000Y-91450000D03*
X122814000Y-99070000D03*
X125354000Y-99070000D03*
%TD*%
D12*
%TO.C,U4*%
X49275000Y-53350000D03*
D13*
X46735000Y-53350000D03*
X46735000Y-60970000D03*
X49275000Y-60970000D03*
%TD*%
D10*
%TO.C,J3*%
X72800000Y-38000000D03*
X76000000Y-34800000D03*
D11*
X76000000Y-38000000D03*
D10*
X76000000Y-41200000D03*
X79200000Y-38000000D03*
%TD*%
D12*
%TO.C,U36*%
X68405200Y-108514800D03*
D13*
X65865200Y-108514800D03*
X65865200Y-116134800D03*
X68405200Y-116134800D03*
%TD*%
D12*
%TO.C,U24*%
X121796000Y-108514800D03*
D13*
X119256000Y-108514800D03*
X119256000Y-116134800D03*
X121796000Y-116134800D03*
%TD*%
D10*
%TO.C,J5*%
X91800000Y-38000000D03*
X95000000Y-34800000D03*
D11*
X95000000Y-38000000D03*
D10*
X95000000Y-41200000D03*
X98200000Y-38000000D03*
%TD*%
D12*
%TO.C,U32*%
X106431000Y-91450000D03*
D13*
X103891000Y-91450000D03*
X103891000Y-99070000D03*
X106431000Y-99070000D03*
%TD*%
D10*
%TO.C,J17*%
X110800000Y-76000000D03*
X114000000Y-72800000D03*
D11*
X114000000Y-76000000D03*
D10*
X114000000Y-79200000D03*
X117200000Y-76000000D03*
%TD*%
%TO.C,J20*%
X129800000Y-95000000D03*
X133000000Y-91800000D03*
D11*
X133000000Y-95000000D03*
D10*
X133000000Y-98200000D03*
X136200000Y-95000000D03*
%TD*%
D12*
%TO.C,U19*%
X91265200Y-137340000D03*
D13*
X93805200Y-137340000D03*
X93805200Y-129720000D03*
X91265200Y-129720000D03*
%TD*%
D10*
%TO.C,J19*%
X129800000Y-76000000D03*
X133000000Y-72800000D03*
D11*
X133000000Y-76000000D03*
D10*
X133000000Y-79200000D03*
X136200000Y-76000000D03*
%TD*%
%TO.C,J8*%
X110800000Y-57000000D03*
X114000000Y-53800000D03*
D11*
X114000000Y-57000000D03*
D10*
X114000000Y-60200000D03*
X117200000Y-57000000D03*
%TD*%
%TO.C,J14*%
X72800000Y-95000000D03*
X76000000Y-91800000D03*
D11*
X76000000Y-95000000D03*
D10*
X76000000Y-98200000D03*
X79200000Y-95000000D03*
%TD*%
D12*
%TO.C,U14*%
X65865200Y-137340000D03*
D13*
X68405200Y-137340000D03*
X68405200Y-129720000D03*
X65865200Y-129720000D03*
%TD*%
D12*
%TO.C,U2*%
X119251000Y-137340000D03*
D13*
X121791000Y-137340000D03*
X121791000Y-129720000D03*
X119251000Y-129720000D03*
%TD*%
D12*
%TO.C,U15*%
X70945200Y-137340000D03*
D13*
X73485200Y-137340000D03*
X73485200Y-129720000D03*
X70945200Y-129720000D03*
%TD*%
D10*
%TO.C,J4*%
X72800000Y-57000000D03*
X76000000Y-53800000D03*
D11*
X76000000Y-57000000D03*
D10*
X76000000Y-60200000D03*
X79200000Y-57000000D03*
%TD*%
D18*
%TO.C,J22*%
X83573600Y-121550400D03*
D19*
X83573600Y-124090400D03*
X86113600Y-121550400D03*
X86113600Y-124090400D03*
X88653600Y-121550400D03*
X88653600Y-124090400D03*
X91193600Y-121550400D03*
X91193600Y-124090400D03*
X93733600Y-121550400D03*
X93733600Y-124090400D03*
X96273600Y-121550400D03*
X96273600Y-124090400D03*
X98813600Y-121550400D03*
X98813600Y-124090400D03*
X101353600Y-121550400D03*
X101353600Y-124090400D03*
X103893600Y-121550400D03*
X103893600Y-124090400D03*
X106433600Y-121550400D03*
X106433600Y-124090400D03*
%TD*%
D12*
%TO.C,U37*%
X73485200Y-108514800D03*
D13*
X70945200Y-108514800D03*
X70945200Y-116134800D03*
X73485200Y-116134800D03*
%TD*%
D12*
%TO.C,U20*%
X96345200Y-137340000D03*
D13*
X98885200Y-137340000D03*
X98885200Y-129720000D03*
X96345200Y-129720000D03*
%TD*%
D12*
%TO.C,U23*%
X115446000Y-108514800D03*
D13*
X112906000Y-108514800D03*
X112906000Y-116134800D03*
X115446000Y-116134800D03*
%TD*%
D10*
%TO.C,J16*%
X91800000Y-95000000D03*
X95000000Y-91800000D03*
D11*
X95000000Y-95000000D03*
D10*
X95000000Y-98200000D03*
X98200000Y-95000000D03*
%TD*%
D12*
%TO.C,U30*%
X87381000Y-91450000D03*
D13*
X84841000Y-91450000D03*
X84841000Y-99070000D03*
X87381000Y-99070000D03*
%TD*%
M02*
