%TF.GenerationSoftware,KiCad,Pcbnew,7.0.2-0*%
%TF.CreationDate,2023-06-06T22:37:24+02:00*%
%TF.ProjectId,scan2000_breakout,7363616e-3230-4303-905f-627265616b6f,rev?*%
%TF.SameCoordinates,Original*%
%TF.FileFunction,Copper,L1,Top*%
%TF.FilePolarity,Positive*%
%FSLAX46Y46*%
G04 Gerber Fmt 4.6, Leading zero omitted, Abs format (unit mm)*
G04 Created by KiCad (PCBNEW 7.0.2-0) date 2023-06-06 22:37:24*
%MOMM*%
%LPD*%
G01*
G04 APERTURE LIST*
G04 Aperture macros list*
%AMRoundRect*
0 Rectangle with rounded corners*
0 $1 Rounding radius*
0 $2 $3 $4 $5 $6 $7 $8 $9 X,Y pos of 4 corners*
0 Add a 4 corners polygon primitive as box body*
4,1,4,$2,$3,$4,$5,$6,$7,$8,$9,$2,$3,0*
0 Add four circle primitives for the rounded corners*
1,1,$1+$1,$2,$3*
1,1,$1+$1,$4,$5*
1,1,$1+$1,$6,$7*
1,1,$1+$1,$8,$9*
0 Add four rect primitives between the rounded corners*
20,1,$1+$1,$2,$3,$4,$5,0*
20,1,$1+$1,$4,$5,$6,$7,0*
20,1,$1+$1,$6,$7,$8,$9,0*
20,1,$1+$1,$8,$9,$2,$3,0*%
G04 Aperture macros list end*
%TA.AperFunction,ComponentPad*%
%ADD10C,1.524000*%
%TD*%
%TA.AperFunction,ComponentPad*%
%ADD11C,8.000000*%
%TD*%
%TA.AperFunction,ComponentPad*%
%ADD12R,1.600000X1.600000*%
%TD*%
%TA.AperFunction,ComponentPad*%
%ADD13O,1.600000X1.600000*%
%TD*%
%TA.AperFunction,ComponentPad*%
%ADD14RoundRect,0.249999X1.550001X-0.790001X1.550001X0.790001X-1.550001X0.790001X-1.550001X-0.790001X0*%
%TD*%
%TA.AperFunction,ComponentPad*%
%ADD15O,3.600000X2.080000*%
%TD*%
%TA.AperFunction,SMDPad,CuDef*%
%ADD16RoundRect,0.200000X0.275000X-0.200000X0.275000X0.200000X-0.275000X0.200000X-0.275000X-0.200000X0*%
%TD*%
%TA.AperFunction,SMDPad,CuDef*%
%ADD17RoundRect,0.200000X-0.200000X-0.275000X0.200000X-0.275000X0.200000X0.275000X-0.200000X0.275000X0*%
%TD*%
%TA.AperFunction,SMDPad,CuDef*%
%ADD18RoundRect,0.200000X0.200000X0.275000X-0.200000X0.275000X-0.200000X-0.275000X0.200000X-0.275000X0*%
%TD*%
%TA.AperFunction,SMDPad,CuDef*%
%ADD19RoundRect,0.200000X-0.275000X0.200000X-0.275000X-0.200000X0.275000X-0.200000X0.275000X0.200000X0*%
%TD*%
%TA.AperFunction,SMDPad,CuDef*%
%ADD20R,1.100000X1.750000*%
%TD*%
%TA.AperFunction,ComponentPad*%
%ADD21RoundRect,0.250000X-0.600000X-0.600000X0.600000X-0.600000X0.600000X0.600000X-0.600000X0.600000X0*%
%TD*%
%TA.AperFunction,ComponentPad*%
%ADD22C,1.700000*%
%TD*%
%TA.AperFunction,ComponentPad*%
%ADD23R,1.700000X1.700000*%
%TD*%
%TA.AperFunction,ComponentPad*%
%ADD24O,1.700000X1.700000*%
%TD*%
%TA.AperFunction,ViaPad*%
%ADD25C,0.800000*%
%TD*%
%TA.AperFunction,Conductor*%
%ADD26C,0.500000*%
%TD*%
%TA.AperFunction,Conductor*%
%ADD27C,0.250000*%
%TD*%
%TA.AperFunction,Conductor*%
%ADD28C,1.000000*%
%TD*%
G04 APERTURE END LIST*
D10*
%TO.P,J10,1,Pin_1*%
%TO.N,/CH5_LOW*%
X129800000Y-57000000D03*
X133000000Y-53800000D03*
D11*
X133000000Y-57000000D03*
D10*
X133000000Y-60200000D03*
X136200000Y-57000000D03*
%TD*%
D12*
%TO.P,U3,1*%
%TO.N,Net-(R4-Pad1)*%
X46725000Y-41900000D03*
D13*
%TO.P,U3,2*%
%TO.N,GND*%
X49265000Y-41900000D03*
%TO.P,U3,3*%
%TO.N,Net-(R1-Pad2)*%
X49265000Y-34280000D03*
%TO.P,U3,4*%
%TO.N,/Out_HIGH*%
X46725000Y-34280000D03*
%TD*%
D10*
%TO.P,J9,1,Pin_1*%
%TO.N,/CH5_HIGH*%
X129800000Y-38000000D03*
X133000000Y-34800000D03*
D11*
X133000000Y-38000000D03*
D10*
X133000000Y-41200000D03*
X136200000Y-38000000D03*
%TD*%
D14*
%TO.P,J23,1,Pin_1*%
%TO.N,/Out_HIGH*%
X146212500Y-131310000D03*
D15*
%TO.P,J23,2,Pin_2*%
%TO.N,/Out_LOW*%
X146212500Y-126230000D03*
%TD*%
D16*
%TO.P,R29,1*%
%TO.N,Net-(R29-Pad1)*%
X47882000Y-89223000D03*
%TO.P,R29,2*%
%TO.N,/CH11*%
X47882000Y-87573000D03*
%TD*%
D12*
%TO.P,U1,1*%
%TO.N,Net-(R2-Pad1)*%
X112901000Y-137340000D03*
D13*
%TO.P,U1,2*%
%TO.N,GND*%
X115441000Y-137340000D03*
%TO.P,U1,3*%
%TO.N,/Out_HIGH*%
X115441000Y-129720000D03*
%TO.P,U1,4*%
%TO.N,/Bus_HIGH*%
X112901000Y-129720000D03*
%TD*%
D12*
%TO.P,U8,1*%
%TO.N,Net-(R9-Pad1)*%
X87381000Y-53350000D03*
D13*
%TO.P,U8,2*%
%TO.N,GND*%
X84841000Y-53350000D03*
%TO.P,U8,3*%
%TO.N,/Out_LOW*%
X84841000Y-60970000D03*
%TO.P,U8,4*%
%TO.N,/CH3_LOW*%
X87381000Y-60970000D03*
%TD*%
D10*
%TO.P,J12,1,Pin_1*%
%TO.N,/CH11_LOW*%
X53800000Y-95000000D03*
X57000000Y-91800000D03*
D11*
X57000000Y-95000000D03*
D10*
X57000000Y-98200000D03*
X60200000Y-95000000D03*
%TD*%
D17*
%TO.P,R47,1*%
%TO.N,Net-(R47-Pad1)*%
X103965200Y-105974800D03*
%TO.P,R47,2*%
%TO.N,/CH20*%
X105615200Y-105974800D03*
%TD*%
D14*
%TO.P,J24,1,Pin_1*%
%TO.N,/Sense_HIGH*%
X146212500Y-117100000D03*
D15*
%TO.P,J24,2,Pin_2*%
%TO.N,/Sense_LOW*%
X146212500Y-112020000D03*
%TD*%
D10*
%TO.P,J13,1,Pin_1*%
%TO.N,/CH12_HIGH*%
X72800000Y-76000000D03*
X76000000Y-72800000D03*
D11*
X76000000Y-76000000D03*
D10*
X76000000Y-79200000D03*
X79200000Y-76000000D03*
%TD*%
D18*
%TO.P,R18,1*%
%TO.N,Net-(R18-Pad1)*%
X76025200Y-139880000D03*
%TO.P,R18,2*%
%TO.N,/CH7*%
X74375200Y-139880000D03*
%TD*%
D12*
%TO.P,U22,1*%
%TO.N,Net-(R24-Pad1)*%
X106505200Y-137340000D03*
D13*
%TO.P,U22,2*%
%TO.N,GND*%
X109045200Y-137340000D03*
%TO.P,U22,3*%
%TO.N,/CH10_LOW*%
X109045200Y-129720000D03*
%TO.P,U22,4*%
%TO.N,/Out_LOW*%
X106505200Y-129720000D03*
%TD*%
D10*
%TO.P,J7,1,Pin_1*%
%TO.N,/CH4_HIGH*%
X110800000Y-38000000D03*
X114000000Y-34800000D03*
D11*
X114000000Y-38000000D03*
D10*
X114000000Y-41200000D03*
X117200000Y-38000000D03*
%TD*%
D17*
%TO.P,R21,1*%
%TO.N,Net-(R21-Pad1)*%
X91265200Y-139880000D03*
%TO.P,R21,2*%
%TO.N,/CH9*%
X92915200Y-139880000D03*
%TD*%
D18*
%TO.P,R42,1*%
%TO.N,Net-(R42-Pad1)*%
X78565200Y-105974800D03*
%TO.P,R42,2*%
%TO.N,/CH17*%
X76915200Y-105974800D03*
%TD*%
D17*
%TO.P,R2,1*%
%TO.N,Net-(R2-Pad1)*%
X112906000Y-139880000D03*
%TO.P,R2,2*%
%TO.N,/Bus2_input_enable*%
X114556000Y-139880000D03*
%TD*%
D19*
%TO.P,R12,1*%
%TO.N,Net-(R12-Pad1)*%
X123828000Y-44139000D03*
%TO.P,R12,2*%
%TO.N,/CH5*%
X123828000Y-45789000D03*
%TD*%
D12*
%TO.P,U35,1*%
%TO.N,Net-(R39-Pad1)*%
X63325200Y-108514800D03*
D13*
%TO.P,U35,2*%
%TO.N,GND*%
X60785200Y-108514800D03*
%TO.P,U35,3*%
%TO.N,/Bus_HIGH*%
X60785200Y-116134800D03*
%TO.P,U35,4*%
%TO.N,/CH16_HIGH*%
X63325200Y-116134800D03*
%TD*%
D12*
%TO.P,U29,1*%
%TO.N,Net-(R32-Pad1)*%
X84831000Y-80000000D03*
D13*
%TO.P,U29,2*%
%TO.N,GND*%
X87371000Y-80000000D03*
%TO.P,U29,3*%
%TO.N,/CH13_HIGH*%
X87371000Y-72380000D03*
%TO.P,U29,4*%
%TO.N,/Bus_HIGH*%
X84831000Y-72380000D03*
%TD*%
D12*
%TO.P,U9,1*%
%TO.N,Net-(R10-Pad1)*%
X103881000Y-41900000D03*
D13*
%TO.P,U9,2*%
%TO.N,GND*%
X106421000Y-41900000D03*
%TO.P,U9,3*%
%TO.N,/CH4_HIGH*%
X106421000Y-34280000D03*
%TO.P,U9,4*%
%TO.N,/Out_HIGH*%
X103881000Y-34280000D03*
%TD*%
D12*
%TO.P,U42,1*%
%TO.N,Net-(R46-Pad1)*%
X98885200Y-108514800D03*
D13*
%TO.P,U42,2*%
%TO.N,GND*%
X96345200Y-108514800D03*
%TO.P,U42,3*%
%TO.N,/Bus_LOW*%
X96345200Y-116134800D03*
%TO.P,U42,4*%
%TO.N,/CH19_LOW*%
X98885200Y-116134800D03*
%TD*%
D19*
%TO.P,R36,1*%
%TO.N,Net-(R36-Pad1)*%
X123828000Y-82239000D03*
%TO.P,R36,2*%
%TO.N,/CH15*%
X123828000Y-83889000D03*
%TD*%
D12*
%TO.P,U31,1*%
%TO.N,Net-(R34-Pad1)*%
X103881000Y-80000000D03*
D13*
%TO.P,U31,2*%
%TO.N,GND*%
X106421000Y-80000000D03*
%TO.P,U31,3*%
%TO.N,/CH14_HIGH*%
X106421000Y-72380000D03*
%TO.P,U31,4*%
%TO.N,/Bus_HIGH*%
X103881000Y-72380000D03*
%TD*%
D19*
%TO.P,R34,1*%
%TO.N,Net-(R34-Pad1)*%
X105032000Y-82176000D03*
%TO.P,R34,2*%
%TO.N,/CH14*%
X105032000Y-83826000D03*
%TD*%
D12*
%TO.P,U17,1*%
%TO.N,Net-(R19-Pad1)*%
X81105200Y-137340000D03*
D13*
%TO.P,U17,2*%
%TO.N,GND*%
X83645200Y-137340000D03*
%TO.P,U17,3*%
%TO.N,/CH8_HIGH*%
X83645200Y-129720000D03*
%TO.P,U17,4*%
%TO.N,/Out_HIGH*%
X81105200Y-129720000D03*
%TD*%
D12*
%TO.P,U44,1*%
%TO.N,Net-(R48-Pad1)*%
X109045200Y-108514800D03*
D13*
%TO.P,U44,2*%
%TO.N,GND*%
X106505200Y-108514800D03*
%TO.P,U44,3*%
%TO.N,/Bus_LOW*%
X106505200Y-116134800D03*
%TO.P,U44,4*%
%TO.N,/CH20_LOW*%
X109045200Y-116134800D03*
%TD*%
D19*
%TO.P,R30,1*%
%TO.N,Net-(R30-Pad1)*%
X66932000Y-82239000D03*
%TO.P,R30,2*%
%TO.N,/CH12*%
X66932000Y-83889000D03*
%TD*%
D12*
%TO.P,U38,1*%
%TO.N,Net-(R42-Pad1)*%
X78565200Y-108514800D03*
D13*
%TO.P,U38,2*%
%TO.N,GND*%
X76025200Y-108514800D03*
%TO.P,U38,3*%
%TO.N,/Bus_LOW*%
X76025200Y-116134800D03*
%TO.P,U38,4*%
%TO.N,/CH17_LOW*%
X78565200Y-116134800D03*
%TD*%
D19*
%TO.P,R28,1*%
%TO.N,Net-(R28-Pad1)*%
X47882000Y-82239000D03*
%TO.P,R28,2*%
%TO.N,/CH11*%
X47882000Y-83889000D03*
%TD*%
%TO.P,R8,1*%
%TO.N,Net-(R8-Pad1)*%
X86236000Y-44139000D03*
%TO.P,R8,2*%
%TO.N,/CH3*%
X86236000Y-45789000D03*
%TD*%
D10*
%TO.P,J1,1,Pin_1*%
%TO.N,/CH1_HIGH*%
X53800000Y-38000000D03*
X57000000Y-34800000D03*
D11*
X57000000Y-38000000D03*
D10*
X57000000Y-41200000D03*
X60200000Y-38000000D03*
%TD*%
%TO.P,J6,1,Pin_1*%
%TO.N,/CH3_LOW*%
X91800000Y-57000000D03*
X95000000Y-53800000D03*
D11*
X95000000Y-57000000D03*
D10*
X95000000Y-60200000D03*
X98200000Y-57000000D03*
%TD*%
D12*
%TO.P,U41,1*%
%TO.N,Net-(R45-Pad1)*%
X93805200Y-108514800D03*
D13*
%TO.P,U41,2*%
%TO.N,GND*%
X91265200Y-108514800D03*
%TO.P,U41,3*%
%TO.N,/Bus_HIGH*%
X91265200Y-116134800D03*
%TO.P,U41,4*%
%TO.N,/CH19_HIGH*%
X93805200Y-116134800D03*
%TD*%
D12*
%TO.P,U43,1*%
%TO.N,Net-(R47-Pad1)*%
X103965200Y-108514800D03*
D13*
%TO.P,U43,2*%
%TO.N,GND*%
X101425200Y-108514800D03*
%TO.P,U43,3*%
%TO.N,/Bus_HIGH*%
X101425200Y-116134800D03*
%TO.P,U43,4*%
%TO.N,/CH20_HIGH*%
X103965200Y-116134800D03*
%TD*%
D12*
%TO.P,U40,1*%
%TO.N,Net-(R44-Pad1)*%
X88725200Y-108514800D03*
D13*
%TO.P,U40,2*%
%TO.N,GND*%
X86185200Y-108514800D03*
%TO.P,U40,3*%
%TO.N,/Bus_LOW*%
X86185200Y-116134800D03*
%TO.P,U40,4*%
%TO.N,/CH18_LOW*%
X88725200Y-116134800D03*
%TD*%
D18*
%TO.P,R40,1*%
%TO.N,Net-(R40-Pad1)*%
X68405200Y-105974800D03*
%TO.P,R40,2*%
%TO.N,/CH16*%
X66755200Y-105974800D03*
%TD*%
D10*
%TO.P,J11,1,Pin_1*%
%TO.N,/CH11_HIGH*%
X53800000Y-76000000D03*
X57000000Y-72800000D03*
D11*
X57000000Y-76000000D03*
D10*
X57000000Y-79200000D03*
X60200000Y-76000000D03*
%TD*%
D12*
%TO.P,U6,1*%
%TO.N,Net-(R7-Pad1)*%
X68331000Y-53350000D03*
D13*
%TO.P,U6,2*%
%TO.N,GND*%
X65791000Y-53350000D03*
%TO.P,U6,3*%
%TO.N,/Out_LOW*%
X65791000Y-60970000D03*
%TO.P,U6,4*%
%TO.N,/CH2_LOW*%
X68331000Y-60970000D03*
%TD*%
D10*
%TO.P,J18,1,Pin_1*%
%TO.N,/CH14_LOW*%
X110800000Y-95000000D03*
X114000000Y-91800000D03*
D11*
X114000000Y-95000000D03*
D10*
X114000000Y-98200000D03*
X117200000Y-95000000D03*
%TD*%
D12*
%TO.P,U11,1*%
%TO.N,Net-(R12-Pad1)*%
X122677000Y-41900000D03*
D13*
%TO.P,U11,2*%
%TO.N,GND*%
X125217000Y-41900000D03*
%TO.P,U11,3*%
%TO.N,/CH5_HIGH*%
X125217000Y-34280000D03*
%TO.P,U11,4*%
%TO.N,/Out_HIGH*%
X122677000Y-34280000D03*
%TD*%
D18*
%TO.P,R3,1*%
%TO.N,Net-(R3-Pad1)*%
X119256000Y-139880000D03*
%TO.P,R3,2*%
%TO.N,/Bus2_input_enable*%
X117606000Y-139880000D03*
%TD*%
D12*
%TO.P,U7,1*%
%TO.N,Net-(R8-Pad1)*%
X84831000Y-41900000D03*
D13*
%TO.P,U7,2*%
%TO.N,GND*%
X87371000Y-41900000D03*
%TO.P,U7,3*%
%TO.N,/CH3_HIGH*%
X87371000Y-34280000D03*
%TO.P,U7,4*%
%TO.N,/Out_HIGH*%
X84831000Y-34280000D03*
%TD*%
D16*
%TO.P,R35,1*%
%TO.N,Net-(R35-Pad1)*%
X105032000Y-89223000D03*
%TO.P,R35,2*%
%TO.N,/CH14*%
X105032000Y-87573000D03*
%TD*%
D12*
%TO.P,U27,1*%
%TO.N,Net-(R30-Pad1)*%
X65781000Y-80000000D03*
D13*
%TO.P,U27,2*%
%TO.N,GND*%
X68321000Y-80000000D03*
%TO.P,U27,3*%
%TO.N,/CH12_HIGH*%
X68321000Y-72380000D03*
%TO.P,U27,4*%
%TO.N,/Bus_HIGH*%
X65781000Y-72380000D03*
%TD*%
D12*
%TO.P,U18,1*%
%TO.N,Net-(R20-Pad1)*%
X86185200Y-137340000D03*
D13*
%TO.P,U18,2*%
%TO.N,GND*%
X88725200Y-137340000D03*
%TO.P,U18,3*%
%TO.N,/CH8_LOW*%
X88725200Y-129720000D03*
%TO.P,U18,4*%
%TO.N,/Out_LOW*%
X86185200Y-129720000D03*
%TD*%
D18*
%TO.P,R44,1*%
%TO.N,Net-(R44-Pad1)*%
X88725200Y-105974800D03*
%TO.P,R44,2*%
%TO.N,/CH18*%
X87075200Y-105974800D03*
%TD*%
D10*
%TO.P,J15,1,Pin_1*%
%TO.N,/CH13_HIGH*%
X91800000Y-76000000D03*
X95000000Y-72800000D03*
D11*
X95000000Y-76000000D03*
D10*
X95000000Y-79200000D03*
X98200000Y-76000000D03*
%TD*%
D20*
%TO.P,R1,1,1*%
%TO.N,/CH1_HIGH*%
X57726000Y-45875000D03*
%TO.P,R1,2,2*%
%TO.N,Net-(R1-Pad2)*%
X56326000Y-45875000D03*
%TO.P,R1,3,3*%
%TO.N,Net-(R1-Pad3)*%
X56326000Y-48625000D03*
%TO.P,R1,4,4*%
%TO.N,/CH1_LOW*%
X57726000Y-48625000D03*
%TD*%
D12*
%TO.P,U25,1*%
%TO.N,Net-(R28-Pad1)*%
X46725000Y-80000000D03*
D13*
%TO.P,U25,2*%
%TO.N,GND*%
X49265000Y-80000000D03*
%TO.P,U25,3*%
%TO.N,Net-(R14-Pad2)*%
X49265000Y-72380000D03*
%TO.P,U25,4*%
%TO.N,/Bus_HIGH*%
X46725000Y-72380000D03*
%TD*%
D18*
%TO.P,R24,1*%
%TO.N,Net-(R24-Pad1)*%
X106505200Y-139880000D03*
%TO.P,R24,2*%
%TO.N,/CH10*%
X104855200Y-139880000D03*
%TD*%
D12*
%TO.P,U26,1*%
%TO.N,Net-(R29-Pad1)*%
X49275000Y-91450000D03*
D13*
%TO.P,U26,2*%
%TO.N,GND*%
X46735000Y-91450000D03*
%TO.P,U26,3*%
%TO.N,/Bus_LOW*%
X46735000Y-99070000D03*
%TO.P,U26,4*%
%TO.N,Net-(R14-Pad3)*%
X49275000Y-99070000D03*
%TD*%
D12*
%TO.P,U12,1*%
%TO.N,Net-(R13-Pad1)*%
X125227000Y-53350000D03*
D13*
%TO.P,U12,2*%
%TO.N,GND*%
X122687000Y-53350000D03*
%TO.P,U12,3*%
%TO.N,/Out_LOW*%
X122687000Y-60970000D03*
%TO.P,U12,4*%
%TO.N,/CH5_LOW*%
X125227000Y-60970000D03*
%TD*%
D10*
%TO.P,J2,1,Pin_1*%
%TO.N,/CH1_LOW*%
X53800000Y-57000000D03*
X57000000Y-53800000D03*
D11*
X57000000Y-57000000D03*
D10*
X57000000Y-60200000D03*
X60200000Y-57000000D03*
%TD*%
D21*
%TO.P,J21,1,Pin_1*%
%TO.N,/CH10*%
X143622415Y-63760000D03*
D22*
%TO.P,J21,2,Pin_2*%
%TO.N,/CH9*%
X146162415Y-63760000D03*
%TO.P,J21,3,Pin_3*%
%TO.N,/CH8*%
X143622415Y-66300000D03*
%TO.P,J21,4,Pin_4*%
%TO.N,/CH7*%
X146162415Y-66300000D03*
%TO.P,J21,5,Pin_5*%
%TO.N,/CH6*%
X143622415Y-68840000D03*
%TO.P,J21,6,Pin_6*%
%TO.N,/CH5*%
X146162415Y-68840000D03*
%TO.P,J21,7,Pin_7*%
%TO.N,/CH4*%
X143622415Y-71380000D03*
%TO.P,J21,8,Pin_8*%
%TO.N,/CH3*%
X146162415Y-71380000D03*
%TO.P,J21,9,Pin_9*%
%TO.N,/CH2*%
X143622415Y-73920000D03*
%TO.P,J21,10,Pin_10*%
%TO.N,/CH1*%
X146162415Y-73920000D03*
%TO.P,J21,11,Pin_11*%
%TO.N,/Bus2_input_enable*%
X143622415Y-76460000D03*
%TO.P,J21,12,Pin_12*%
%TO.N,/Bus2_sense_enable*%
X146162415Y-76460000D03*
%TO.P,J21,13,Pin_13*%
%TO.N,/CH11*%
X143622415Y-79000000D03*
%TO.P,J21,14,Pin_14*%
%TO.N,/CH12*%
X146162415Y-79000000D03*
%TO.P,J21,15,Pin_15*%
%TO.N,/CH13*%
X143622415Y-81540000D03*
%TO.P,J21,16,Pin_16*%
%TO.N,/CH14*%
X146162415Y-81540000D03*
%TO.P,J21,17,Pin_17*%
%TO.N,/CH15*%
X143622415Y-84080000D03*
%TO.P,J21,18,Pin_18*%
%TO.N,/CH16*%
X146162415Y-84080000D03*
%TO.P,J21,19,Pin_19*%
%TO.N,/CH17*%
X143622415Y-86620000D03*
%TO.P,J21,20,Pin_20*%
%TO.N,/CH18*%
X146162415Y-86620000D03*
%TO.P,J21,21,Pin_21*%
%TO.N,/CH19*%
X143622415Y-89160000D03*
%TO.P,J21,22,Pin_22*%
%TO.N,/CH20*%
X146162415Y-89160000D03*
%TO.P,J21,23,Pin_23*%
%TO.N,+3.3V*%
X143622415Y-91700000D03*
%TO.P,J21,24,Pin_24*%
X146162415Y-91700000D03*
%TO.P,J21,25,Pin_25*%
%TO.N,GND*%
X143622415Y-94240000D03*
%TO.P,J21,26,Pin_26*%
X146162415Y-94240000D03*
%TD*%
D16*
%TO.P,R5,1*%
%TO.N,Net-(R5-Pad1)*%
X47882000Y-51123000D03*
%TO.P,R5,2*%
%TO.N,/CH1*%
X47882000Y-49473000D03*
%TD*%
%TO.P,R11,1*%
%TO.N,Net-(R11-Pad1)*%
X105286000Y-51123000D03*
%TO.P,R11,2*%
%TO.N,/CH4*%
X105286000Y-49473000D03*
%TD*%
D12*
%TO.P,U5,1*%
%TO.N,Net-(R6-Pad1)*%
X65781000Y-41900000D03*
D13*
%TO.P,U5,2*%
%TO.N,GND*%
X68321000Y-41900000D03*
%TO.P,U5,3*%
%TO.N,/CH2_HIGH*%
X68321000Y-34280000D03*
%TO.P,U5,4*%
%TO.N,/Out_HIGH*%
X65781000Y-34280000D03*
%TD*%
D17*
%TO.P,R26,1*%
%TO.N,Net-(R26-Pad1)*%
X115446000Y-105974800D03*
%TO.P,R26,2*%
%TO.N,/Bus2_sense_enable*%
X117096000Y-105974800D03*
%TD*%
D16*
%TO.P,R13,1*%
%TO.N,Net-(R13-Pad1)*%
X123828000Y-51123000D03*
%TO.P,R13,2*%
%TO.N,/CH5*%
X123828000Y-49473000D03*
%TD*%
D12*
%TO.P,U33,1*%
%TO.N,Net-(R36-Pad1)*%
X122677000Y-80000000D03*
D13*
%TO.P,U33,2*%
%TO.N,GND*%
X125217000Y-80000000D03*
%TO.P,U33,3*%
%TO.N,/CH15_HIGH*%
X125217000Y-72380000D03*
%TO.P,U33,4*%
%TO.N,/Bus_HIGH*%
X122677000Y-72380000D03*
%TD*%
D18*
%TO.P,R27,1*%
%TO.N,Net-(R27-Pad1)*%
X121796000Y-105974800D03*
%TO.P,R27,2*%
%TO.N,/Bus2_sense_enable*%
X120146000Y-105974800D03*
%TD*%
D12*
%TO.P,U28,1*%
%TO.N,Net-(R31-Pad1)*%
X68331000Y-91450000D03*
D13*
%TO.P,U28,2*%
%TO.N,GND*%
X65791000Y-91450000D03*
%TO.P,U28,3*%
%TO.N,/Bus_LOW*%
X65791000Y-99070000D03*
%TO.P,U28,4*%
%TO.N,/CH12_LOW*%
X68331000Y-99070000D03*
%TD*%
D12*
%TO.P,U21,1*%
%TO.N,Net-(R23-Pad1)*%
X101425200Y-137340000D03*
D13*
%TO.P,U21,2*%
%TO.N,GND*%
X103965200Y-137340000D03*
%TO.P,U21,3*%
%TO.N,/CH10_HIGH*%
X103965200Y-129720000D03*
%TO.P,U21,4*%
%TO.N,/Out_HIGH*%
X101425200Y-129720000D03*
%TD*%
D18*
%TO.P,R20,1*%
%TO.N,Net-(R20-Pad1)*%
X86185200Y-139880000D03*
%TO.P,R20,2*%
%TO.N,/CH8*%
X84535200Y-139880000D03*
%TD*%
D12*
%TO.P,U10,1*%
%TO.N,Net-(R11-Pad1)*%
X106431000Y-53350000D03*
D13*
%TO.P,U10,2*%
%TO.N,GND*%
X103891000Y-53350000D03*
%TO.P,U10,3*%
%TO.N,/Out_LOW*%
X103891000Y-60970000D03*
%TO.P,U10,4*%
%TO.N,/CH4_LOW*%
X106431000Y-60970000D03*
%TD*%
D12*
%TO.P,U13,1*%
%TO.N,Net-(R15-Pad1)*%
X60785200Y-137340000D03*
D13*
%TO.P,U13,2*%
%TO.N,GND*%
X63325200Y-137340000D03*
%TO.P,U13,3*%
%TO.N,/CH6_HIGH*%
X63325200Y-129720000D03*
%TO.P,U13,4*%
%TO.N,/Out_HIGH*%
X60785200Y-129720000D03*
%TD*%
D20*
%TO.P,R14,1,1*%
%TO.N,/CH11_HIGH*%
X57726000Y-83975000D03*
%TO.P,R14,2,2*%
%TO.N,Net-(R14-Pad2)*%
X56326000Y-83975000D03*
%TO.P,R14,3,3*%
%TO.N,Net-(R14-Pad3)*%
X56326000Y-86725000D03*
%TO.P,R14,4,4*%
%TO.N,/CH11_LOW*%
X57726000Y-86725000D03*
%TD*%
D16*
%TO.P,R9,1*%
%TO.N,Net-(R9-Pad1)*%
X86236000Y-51123000D03*
%TO.P,R9,2*%
%TO.N,/CH3*%
X86236000Y-49473000D03*
%TD*%
D18*
%TO.P,R22,1*%
%TO.N,Net-(R22-Pad1)*%
X96345200Y-139880000D03*
%TO.P,R22,2*%
%TO.N,/CH9*%
X94695200Y-139880000D03*
%TD*%
D17*
%TO.P,R45,1*%
%TO.N,Net-(R45-Pad1)*%
X93805200Y-105974800D03*
%TO.P,R45,2*%
%TO.N,/CH19*%
X95455200Y-105974800D03*
%TD*%
%TO.P,R43,1*%
%TO.N,Net-(R43-Pad1)*%
X83645200Y-105974800D03*
%TO.P,R43,2*%
%TO.N,/CH18*%
X85295200Y-105974800D03*
%TD*%
D12*
%TO.P,U39,1*%
%TO.N,Net-(R43-Pad1)*%
X83645200Y-108514800D03*
D13*
%TO.P,U39,2*%
%TO.N,GND*%
X81105200Y-108514800D03*
%TO.P,U39,3*%
%TO.N,/Bus_HIGH*%
X81105200Y-116134800D03*
%TO.P,U39,4*%
%TO.N,/CH18_HIGH*%
X83645200Y-116134800D03*
%TD*%
D12*
%TO.P,U16,1*%
%TO.N,Net-(R18-Pad1)*%
X76025200Y-137340000D03*
D13*
%TO.P,U16,2*%
%TO.N,GND*%
X78565200Y-137340000D03*
%TO.P,U16,3*%
%TO.N,/CH7_LOW*%
X78565200Y-129720000D03*
%TO.P,U16,4*%
%TO.N,/Out_LOW*%
X76025200Y-129720000D03*
%TD*%
D17*
%TO.P,R19,1*%
%TO.N,Net-(R19-Pad1)*%
X81105200Y-139880000D03*
%TO.P,R19,2*%
%TO.N,/CH8*%
X82755200Y-139880000D03*
%TD*%
D12*
%TO.P,U34,1*%
%TO.N,Net-(R37-Pad1)*%
X125354000Y-91450000D03*
D13*
%TO.P,U34,2*%
%TO.N,GND*%
X122814000Y-91450000D03*
%TO.P,U34,3*%
%TO.N,/Bus_LOW*%
X122814000Y-99070000D03*
%TO.P,U34,4*%
%TO.N,/CH15_LOW*%
X125354000Y-99070000D03*
%TD*%
D12*
%TO.P,U4,1*%
%TO.N,Net-(R5-Pad1)*%
X49275000Y-53350000D03*
D13*
%TO.P,U4,2*%
%TO.N,GND*%
X46735000Y-53350000D03*
%TO.P,U4,3*%
%TO.N,/Out_LOW*%
X46735000Y-60970000D03*
%TO.P,U4,4*%
%TO.N,Net-(R1-Pad3)*%
X49275000Y-60970000D03*
%TD*%
D17*
%TO.P,R39,1*%
%TO.N,Net-(R39-Pad1)*%
X63325200Y-105974800D03*
%TO.P,R39,2*%
%TO.N,/CH16*%
X64975200Y-105974800D03*
%TD*%
D10*
%TO.P,J3,1,Pin_1*%
%TO.N,/CH2_HIGH*%
X72800000Y-38000000D03*
X76000000Y-34800000D03*
D11*
X76000000Y-38000000D03*
D10*
X76000000Y-41200000D03*
X79200000Y-38000000D03*
%TD*%
D19*
%TO.P,R32,1*%
%TO.N,Net-(R32-Pad1)*%
X85982000Y-82239000D03*
%TO.P,R32,2*%
%TO.N,/CH13*%
X85982000Y-83889000D03*
%TD*%
D12*
%TO.P,U36,1*%
%TO.N,Net-(R40-Pad1)*%
X68405200Y-108514800D03*
D13*
%TO.P,U36,2*%
%TO.N,GND*%
X65865200Y-108514800D03*
%TO.P,U36,3*%
%TO.N,/Bus_LOW*%
X65865200Y-116134800D03*
%TO.P,U36,4*%
%TO.N,/CH16_LOW*%
X68405200Y-116134800D03*
%TD*%
D16*
%TO.P,R7,1*%
%TO.N,Net-(R7-Pad1)*%
X66932000Y-51123000D03*
%TO.P,R7,2*%
%TO.N,/CH2*%
X66932000Y-49473000D03*
%TD*%
%TO.P,R37,1*%
%TO.N,Net-(R37-Pad1)*%
X123828000Y-89223000D03*
%TO.P,R37,2*%
%TO.N,/CH15*%
X123828000Y-87573000D03*
%TD*%
D12*
%TO.P,U24,1*%
%TO.N,Net-(R27-Pad1)*%
X121796000Y-108514800D03*
D13*
%TO.P,U24,2*%
%TO.N,GND*%
X119256000Y-108514800D03*
%TO.P,U24,3*%
%TO.N,/Bus_LOW*%
X119256000Y-116134800D03*
%TO.P,U24,4*%
%TO.N,/Sense_LOW*%
X121796000Y-116134800D03*
%TD*%
D19*
%TO.P,R6,1*%
%TO.N,Net-(R6-Pad1)*%
X66932000Y-44139000D03*
%TO.P,R6,2*%
%TO.N,/CH2*%
X66932000Y-45789000D03*
%TD*%
D10*
%TO.P,J5,1,Pin_1*%
%TO.N,/CH3_HIGH*%
X91800000Y-38000000D03*
X95000000Y-34800000D03*
D11*
X95000000Y-38000000D03*
D10*
X95000000Y-41200000D03*
X98200000Y-38000000D03*
%TD*%
D12*
%TO.P,U32,1*%
%TO.N,Net-(R35-Pad1)*%
X106431000Y-91450000D03*
D13*
%TO.P,U32,2*%
%TO.N,GND*%
X103891000Y-91450000D03*
%TO.P,U32,3*%
%TO.N,/Bus_LOW*%
X103891000Y-99070000D03*
%TO.P,U32,4*%
%TO.N,/CH14_LOW*%
X106431000Y-99070000D03*
%TD*%
D10*
%TO.P,J17,1,Pin_1*%
%TO.N,/CH14_HIGH*%
X110800000Y-76000000D03*
X114000000Y-72800000D03*
D11*
X114000000Y-76000000D03*
D10*
X114000000Y-79200000D03*
X117200000Y-76000000D03*
%TD*%
%TO.P,J20,1,Pin_1*%
%TO.N,/CH15_LOW*%
X129800000Y-95000000D03*
X133000000Y-91800000D03*
D11*
X133000000Y-95000000D03*
D10*
X133000000Y-98200000D03*
X136200000Y-95000000D03*
%TD*%
D12*
%TO.P,U19,1*%
%TO.N,Net-(R21-Pad1)*%
X91265200Y-137340000D03*
D13*
%TO.P,U19,2*%
%TO.N,GND*%
X93805200Y-137340000D03*
%TO.P,U19,3*%
%TO.N,/CH9_HIGH*%
X93805200Y-129720000D03*
%TO.P,U19,4*%
%TO.N,/Out_HIGH*%
X91265200Y-129720000D03*
%TD*%
D17*
%TO.P,R17,1*%
%TO.N,Net-(R17-Pad1)*%
X70945200Y-139880000D03*
%TO.P,R17,2*%
%TO.N,/CH7*%
X72595200Y-139880000D03*
%TD*%
D10*
%TO.P,J19,1,Pin_1*%
%TO.N,/CH15_HIGH*%
X129800000Y-76000000D03*
X133000000Y-72800000D03*
D11*
X133000000Y-76000000D03*
D10*
X133000000Y-79200000D03*
X136200000Y-76000000D03*
%TD*%
D16*
%TO.P,R33,1*%
%TO.N,Net-(R33-Pad1)*%
X85982000Y-89223000D03*
%TO.P,R33,2*%
%TO.N,/CH13*%
X85982000Y-87573000D03*
%TD*%
D10*
%TO.P,J8,1,Pin_1*%
%TO.N,/CH4_LOW*%
X110800000Y-57000000D03*
X114000000Y-53800000D03*
D11*
X114000000Y-57000000D03*
D10*
X114000000Y-60200000D03*
X117200000Y-57000000D03*
%TD*%
D17*
%TO.P,R15,1*%
%TO.N,Net-(R15-Pad1)*%
X60785200Y-139880000D03*
%TO.P,R15,2*%
%TO.N,/CH6*%
X62435200Y-139880000D03*
%TD*%
D18*
%TO.P,R48,1*%
%TO.N,Net-(R48-Pad1)*%
X109045200Y-105974800D03*
%TO.P,R48,2*%
%TO.N,/CH20*%
X107395200Y-105974800D03*
%TD*%
D16*
%TO.P,R31,1*%
%TO.N,Net-(R31-Pad1)*%
X66932000Y-89223000D03*
%TO.P,R31,2*%
%TO.N,/CH12*%
X66932000Y-87573000D03*
%TD*%
D19*
%TO.P,R10,1*%
%TO.N,Net-(R10-Pad1)*%
X105286000Y-44139000D03*
%TO.P,R10,2*%
%TO.N,/CH4*%
X105286000Y-45789000D03*
%TD*%
D10*
%TO.P,J14,1,Pin_1*%
%TO.N,/CH12_LOW*%
X72800000Y-95000000D03*
X76000000Y-91800000D03*
D11*
X76000000Y-95000000D03*
D10*
X76000000Y-98200000D03*
X79200000Y-95000000D03*
%TD*%
D18*
%TO.P,R46,1*%
%TO.N,Net-(R46-Pad1)*%
X98885200Y-105974800D03*
%TO.P,R46,2*%
%TO.N,/CH19*%
X97235200Y-105974800D03*
%TD*%
D12*
%TO.P,U14,1*%
%TO.N,Net-(R16-Pad1)*%
X65865200Y-137340000D03*
D13*
%TO.P,U14,2*%
%TO.N,GND*%
X68405200Y-137340000D03*
%TO.P,U14,3*%
%TO.N,/CH6_LOW*%
X68405200Y-129720000D03*
%TO.P,U14,4*%
%TO.N,/Out_LOW*%
X65865200Y-129720000D03*
%TD*%
D12*
%TO.P,U2,1*%
%TO.N,Net-(R3-Pad1)*%
X119251000Y-137340000D03*
D13*
%TO.P,U2,2*%
%TO.N,GND*%
X121791000Y-137340000D03*
%TO.P,U2,3*%
%TO.N,/Out_LOW*%
X121791000Y-129720000D03*
%TO.P,U2,4*%
%TO.N,/Bus_LOW*%
X119251000Y-129720000D03*
%TD*%
D12*
%TO.P,U15,1*%
%TO.N,Net-(R17-Pad1)*%
X70945200Y-137340000D03*
D13*
%TO.P,U15,2*%
%TO.N,GND*%
X73485200Y-137340000D03*
%TO.P,U15,3*%
%TO.N,/CH7_HIGH*%
X73485200Y-129720000D03*
%TO.P,U15,4*%
%TO.N,/Out_HIGH*%
X70945200Y-129720000D03*
%TD*%
D10*
%TO.P,J4,1,Pin_1*%
%TO.N,/CH2_LOW*%
X72800000Y-57000000D03*
X76000000Y-53800000D03*
D11*
X76000000Y-57000000D03*
D10*
X76000000Y-60200000D03*
X79200000Y-57000000D03*
%TD*%
D23*
%TO.P,J22,1,Pin_1*%
%TO.N,/CH16_HIGH*%
X83573600Y-121550400D03*
D24*
%TO.P,J22,2,Pin_2*%
%TO.N,/CH6_HIGH*%
X83573600Y-124090400D03*
%TO.P,J22,3,Pin_3*%
%TO.N,/CH16_LOW*%
X86113600Y-121550400D03*
%TO.P,J22,4,Pin_4*%
%TO.N,/CH6_LOW*%
X86113600Y-124090400D03*
%TO.P,J22,5,Pin_5*%
%TO.N,/CH17_HIGH*%
X88653600Y-121550400D03*
%TO.P,J22,6,Pin_6*%
%TO.N,/CH7_HIGH*%
X88653600Y-124090400D03*
%TO.P,J22,7,Pin_7*%
%TO.N,/CH17_LOW*%
X91193600Y-121550400D03*
%TO.P,J22,8,Pin_8*%
%TO.N,/CH7_LOW*%
X91193600Y-124090400D03*
%TO.P,J22,9,Pin_9*%
%TO.N,/CH18_HIGH*%
X93733600Y-121550400D03*
%TO.P,J22,10,Pin_10*%
%TO.N,/CH8_HIGH*%
X93733600Y-124090400D03*
%TO.P,J22,11,Pin_11*%
%TO.N,/CH18_LOW*%
X96273600Y-121550400D03*
%TO.P,J22,12,Pin_12*%
%TO.N,/CH8_LOW*%
X96273600Y-124090400D03*
%TO.P,J22,13,Pin_13*%
%TO.N,/CH19_HIGH*%
X98813600Y-121550400D03*
%TO.P,J22,14,Pin_14*%
%TO.N,/CH9_HIGH*%
X98813600Y-124090400D03*
%TO.P,J22,15,Pin_15*%
%TO.N,/CH19_LOW*%
X101353600Y-121550400D03*
%TO.P,J22,16,Pin_16*%
%TO.N,/CH9_LOW*%
X101353600Y-124090400D03*
%TO.P,J22,17,Pin_17*%
%TO.N,/CH20_HIGH*%
X103893600Y-121550400D03*
%TO.P,J22,18,Pin_18*%
%TO.N,/CH10_HIGH*%
X103893600Y-124090400D03*
%TO.P,J22,19,Pin_19*%
%TO.N,/CH20_LOW*%
X106433600Y-121550400D03*
%TO.P,J22,20,Pin_20*%
%TO.N,/CH10_LOW*%
X106433600Y-124090400D03*
%TD*%
D12*
%TO.P,U37,1*%
%TO.N,Net-(R41-Pad1)*%
X73485200Y-108514800D03*
D13*
%TO.P,U37,2*%
%TO.N,GND*%
X70945200Y-108514800D03*
%TO.P,U37,3*%
%TO.N,/Bus_HIGH*%
X70945200Y-116134800D03*
%TO.P,U37,4*%
%TO.N,/CH17_HIGH*%
X73485200Y-116134800D03*
%TD*%
D18*
%TO.P,R16,1*%
%TO.N,Net-(R16-Pad1)*%
X65865200Y-139880000D03*
%TO.P,R16,2*%
%TO.N,/CH6*%
X64215200Y-139880000D03*
%TD*%
D12*
%TO.P,U20,1*%
%TO.N,Net-(R22-Pad1)*%
X96345200Y-137340000D03*
D13*
%TO.P,U20,2*%
%TO.N,GND*%
X98885200Y-137340000D03*
%TO.P,U20,3*%
%TO.N,/CH9_LOW*%
X98885200Y-129720000D03*
%TO.P,U20,4*%
%TO.N,/Out_LOW*%
X96345200Y-129720000D03*
%TD*%
D12*
%TO.P,U23,1*%
%TO.N,Net-(R26-Pad1)*%
X115446000Y-108514800D03*
D13*
%TO.P,U23,2*%
%TO.N,GND*%
X112906000Y-108514800D03*
%TO.P,U23,3*%
%TO.N,/Bus_HIGH*%
X112906000Y-116134800D03*
%TO.P,U23,4*%
%TO.N,/Sense_HIGH*%
X115446000Y-116134800D03*
%TD*%
D17*
%TO.P,R23,1*%
%TO.N,Net-(R23-Pad1)*%
X101455200Y-139880000D03*
%TO.P,R23,2*%
%TO.N,/CH10*%
X103105200Y-139880000D03*
%TD*%
D10*
%TO.P,J16,1,Pin_1*%
%TO.N,/CH13_LOW*%
X91800000Y-95000000D03*
X95000000Y-91800000D03*
D11*
X95000000Y-95000000D03*
D10*
X95000000Y-98200000D03*
X98200000Y-95000000D03*
%TD*%
D19*
%TO.P,R4,1*%
%TO.N,Net-(R4-Pad1)*%
X47882000Y-44139000D03*
%TO.P,R4,2*%
%TO.N,/CH1*%
X47882000Y-45789000D03*
%TD*%
D12*
%TO.P,U30,1*%
%TO.N,Net-(R33-Pad1)*%
X87381000Y-91450000D03*
D13*
%TO.P,U30,2*%
%TO.N,GND*%
X84841000Y-91450000D03*
%TO.P,U30,3*%
%TO.N,/Bus_LOW*%
X84841000Y-99070000D03*
%TO.P,U30,4*%
%TO.N,/CH13_LOW*%
X87381000Y-99070000D03*
%TD*%
D17*
%TO.P,R41,1*%
%TO.N,Net-(R41-Pad1)*%
X73485200Y-105974800D03*
%TO.P,R41,2*%
%TO.N,/CH17*%
X75135200Y-105974800D03*
%TD*%
D25*
%TO.N,/CH9*%
X131968500Y-139326500D03*
X93820200Y-139103000D03*
%TO.N,/CH8*%
X133018001Y-139324931D03*
X83660200Y-139103000D03*
%TO.N,/CH7*%
X134067503Y-139325006D03*
X73500200Y-139103000D03*
%TO.N,/CH6*%
X135117005Y-139324998D03*
X63340200Y-138849000D03*
%TO.N,/CH5*%
X125098000Y-45726000D03*
X125098000Y-49536000D03*
%TO.N,/CH4*%
X106556000Y-45726000D03*
X106556000Y-49536000D03*
%TO.N,/CH3*%
X87506000Y-49536000D03*
X87506000Y-45726000D03*
%TO.N,/CH2*%
X68202000Y-49536000D03*
X68202000Y-45726000D03*
%TO.N,/CH1*%
X49660000Y-46589600D03*
X64239600Y-46640400D03*
%TO.N,/Bus2_sense_enable*%
X145941918Y-103765000D03*
X119256000Y-106969200D03*
%TO.N,/CH11*%
X64138000Y-84588000D03*
X50930000Y-84588000D03*
X135106889Y-84282769D03*
%TO.N,/CH12*%
X68202000Y-87636000D03*
X68202000Y-83826000D03*
X135965612Y-84886135D03*
%TO.N,/CH13*%
X87252000Y-83826000D03*
X87252000Y-87636000D03*
X136731200Y-85604000D03*
%TO.N,/CH14*%
X106302000Y-87636000D03*
X106302000Y-83826000D03*
X135969200Y-86438500D03*
%TO.N,/CH15*%
X135054717Y-86953453D03*
X125098000Y-87636000D03*
X125098000Y-83826000D03*
%TO.N,/CH16*%
X144892415Y-103765000D03*
X65880200Y-106975800D03*
%TO.N,/CH17*%
X76040200Y-106848800D03*
X143816421Y-103765000D03*
%TO.N,/CH18*%
X86200200Y-106848800D03*
X142766918Y-103765000D03*
%TO.N,/CH19*%
X141717415Y-103765000D03*
X96360200Y-106848800D03*
%TO.N,/CH20*%
X106520200Y-106848800D03*
X140523123Y-103840708D03*
%TO.N,GND*%
X130419500Y-138826500D03*
X136794500Y-139105200D03*
X130305000Y-107829000D03*
X136794500Y-107829000D03*
%TO.N,/Out_HIGH*%
X124844000Y-131324000D03*
%TD*%
D26*
%TO.N,/CH7_LOW*%
X78565200Y-128588630D02*
X81063430Y-126090400D01*
X78565200Y-129720000D02*
X78565200Y-128588630D01*
X89482028Y-126090400D02*
X91214400Y-124358028D01*
X81063430Y-126090400D02*
X89482028Y-126090400D01*
%TO.N,/CH17_LOW*%
X78565200Y-117266170D02*
X80849430Y-119550400D01*
X78565200Y-116134800D02*
X78565200Y-117266170D01*
X89482028Y-119550400D02*
X91214400Y-121282772D01*
X80849430Y-119550400D02*
X89482028Y-119550400D01*
%TO.N,/CH8_HIGH*%
X84743430Y-127490400D02*
X90628400Y-127490400D01*
X83645200Y-128588630D02*
X84743430Y-127490400D01*
X83645200Y-129720000D02*
X83645200Y-128588630D01*
X90628400Y-127490400D02*
X93754400Y-124364400D01*
%TO.N,/CH18_HIGH*%
X90639200Y-118150400D02*
X93754400Y-121265600D01*
X83645200Y-116134800D02*
X83645200Y-117303200D01*
X84492400Y-118150400D02*
X90639200Y-118150400D01*
X83645200Y-117303200D02*
X84492400Y-118150400D01*
D27*
%TO.N,/CH10*%
X140084000Y-100695694D02*
X139713986Y-101065708D01*
X131194000Y-140468000D02*
X130932000Y-140730000D01*
X138629970Y-101065708D02*
X131194000Y-108501678D01*
X118756000Y-140730000D02*
X118481000Y-140455000D01*
X141770262Y-65684260D02*
X143673215Y-63781307D01*
X139713986Y-101065708D02*
X138629970Y-101065708D01*
X104855200Y-139880000D02*
X105705200Y-140730000D01*
X118481000Y-140455000D02*
X118481000Y-139466827D01*
X114117827Y-139030000D02*
X113781000Y-139366827D01*
X141770262Y-66805954D02*
X141770262Y-65684260D01*
X130932000Y-140730000D02*
X118756000Y-140730000D01*
X131194000Y-108514800D02*
X131194000Y-140468000D01*
X113781000Y-139366827D02*
X113781000Y-140393173D01*
X140084000Y-68459000D02*
X140084000Y-100695694D01*
X141770262Y-66805954D02*
X140133215Y-68443001D01*
X103105200Y-139880000D02*
X104901200Y-139880000D01*
X118481000Y-139466827D02*
X118044173Y-139030000D01*
X113444173Y-140730000D02*
X105700400Y-140730000D01*
X118044173Y-139030000D02*
X114117827Y-139030000D01*
X113781000Y-140393173D02*
X113444173Y-140730000D01*
%TO.N,/CH9*%
X140633215Y-100853585D02*
X139921092Y-101565708D01*
X146213215Y-63760000D02*
X144988215Y-64985000D01*
X139921092Y-101565708D02*
X138837077Y-101565708D01*
X138837077Y-101565708D02*
X131956000Y-108446785D01*
X142352415Y-65837588D02*
X142352415Y-66930907D01*
X93805200Y-139880000D02*
X94567200Y-139880000D01*
X142352415Y-66930907D02*
X140633215Y-68650107D01*
X144988215Y-64985000D02*
X143205003Y-64985000D01*
X93820200Y-139865000D02*
X93820200Y-139103000D01*
X93805200Y-139880000D02*
X93820200Y-139865000D01*
X131956000Y-108464000D02*
X131956000Y-139325000D01*
X143205003Y-64985000D02*
X142352415Y-65837588D01*
X140633215Y-68650107D02*
X140633215Y-100853585D01*
X94567200Y-139880000D02*
X92915200Y-139880000D01*
%TO.N,/CH8*%
X140132292Y-102065708D02*
X139044184Y-102065708D01*
X83660200Y-139880000D02*
X82755200Y-139880000D01*
X141133215Y-101064785D02*
X140132292Y-102065708D01*
X143622415Y-66400482D02*
X141133215Y-68889682D01*
X141133215Y-68889682D02*
X141133215Y-101064785D01*
X132972000Y-108159200D02*
X132972000Y-139325000D01*
X139044184Y-102065708D02*
X132972000Y-108137892D01*
X84407200Y-139880000D02*
X83660200Y-139880000D01*
X83660200Y-139880000D02*
X83660200Y-139103000D01*
%TO.N,/CH7*%
X73500200Y-139880000D02*
X72595200Y-139880000D01*
X144892415Y-67570000D02*
X143160003Y-67570000D01*
X141633215Y-101316404D02*
X140383911Y-102565708D01*
X139251291Y-102565708D02*
X133988000Y-107828999D01*
X133988000Y-139198000D02*
X134115000Y-139325000D01*
X140383911Y-102565708D02*
X139251291Y-102565708D01*
X143160003Y-67570000D02*
X141641215Y-69088788D01*
X133988000Y-107829000D02*
X133988000Y-139198000D01*
X146162415Y-66300000D02*
X144892415Y-67570000D01*
X141633215Y-69104295D02*
X141633215Y-101316404D01*
X74247200Y-139880000D02*
X73500200Y-139880000D01*
X73500200Y-139880000D02*
X73500200Y-139103000D01*
%TO.N,/CH6*%
X62435200Y-139880000D02*
X64087200Y-139880000D01*
X142133215Y-101523510D02*
X142133215Y-69690107D01*
X140591017Y-103065708D02*
X142133215Y-101523510D01*
X135131000Y-107393106D02*
X135131000Y-139325000D01*
X135131000Y-107393106D02*
X139458398Y-103065708D01*
X63340200Y-138849000D02*
X63325200Y-139088000D01*
X142962015Y-68861307D02*
X142133215Y-69690107D01*
X139458398Y-103065708D02*
X140591017Y-103065708D01*
X63325200Y-139088000D02*
X63325200Y-139880000D01*
%TO.N,/CH5*%
X125993600Y-48640400D02*
X146554400Y-48640400D01*
X125098000Y-49536000D02*
X124781000Y-49473000D01*
X125098000Y-45726000D02*
X123828000Y-45726000D01*
X124781000Y-49473000D02*
X123828000Y-49473000D01*
X146554400Y-48640400D02*
X147602400Y-49688400D01*
X146162415Y-68937507D02*
X147635615Y-67464307D01*
X147635615Y-67464307D02*
X147635615Y-49688400D01*
X125098000Y-49536000D02*
X125993600Y-48640400D01*
%TO.N,/CH4*%
X106556000Y-49536000D02*
X107951600Y-48140400D01*
X148135615Y-68696719D02*
X148135615Y-49464918D01*
X143622415Y-71477507D02*
X144937415Y-70162507D01*
X107951600Y-48140400D02*
X146811098Y-48140400D01*
X106556000Y-45726000D02*
X105286000Y-45726000D01*
X148135615Y-68696719D02*
X146767334Y-70065000D01*
X146811098Y-48140400D02*
X148133149Y-49462451D01*
X105286000Y-49473000D02*
X106493000Y-49473000D01*
X146767334Y-70065000D02*
X145039015Y-70065000D01*
X145039015Y-70065000D02*
X144892415Y-70211600D01*
X106493000Y-49473000D02*
X106556000Y-49536000D01*
%TO.N,/CH3*%
X148635615Y-69004307D02*
X148635615Y-49257812D01*
X87506000Y-45726000D02*
X86236000Y-45726000D01*
X87443000Y-49473000D02*
X87506000Y-49536000D01*
X89401600Y-47640400D02*
X147018204Y-47640400D01*
X87506000Y-49536000D02*
X89401600Y-47640400D01*
X147018204Y-47640400D02*
X148635615Y-49257811D01*
X146162415Y-71477507D02*
X148635615Y-69004307D01*
X86236000Y-49473000D02*
X87443000Y-49473000D01*
%TO.N,/CH2*%
X147225310Y-47140400D02*
X149119655Y-49034745D01*
X70597600Y-47140400D02*
X147225310Y-47140400D01*
X68139000Y-49473000D02*
X68202000Y-49536000D01*
X149135615Y-49050706D02*
X149135615Y-70510907D01*
X149135615Y-70510907D02*
X146944015Y-72702507D01*
X144999815Y-72695000D02*
X144994015Y-72700800D01*
X68202000Y-49536000D02*
X70597600Y-47140400D01*
X66932000Y-49473000D02*
X68139000Y-49473000D01*
X68202000Y-45726000D02*
X66932000Y-45726000D01*
X146936508Y-72695000D02*
X144999815Y-72695000D01*
X146944015Y-72702507D02*
X146936508Y-72695000D01*
X143622415Y-74017507D02*
X144937415Y-72702507D01*
X144994015Y-72700800D02*
X144943215Y-72700800D01*
%TO.N,/CH1*%
X147432416Y-46640400D02*
X149634400Y-48842384D01*
X47882000Y-45789000D02*
X47882000Y-49282000D01*
X146162415Y-74017507D02*
X147364496Y-74017507D01*
X64239600Y-46640400D02*
X147432416Y-46640400D01*
X47932800Y-46589600D02*
X49660000Y-46589600D01*
X149635615Y-71746388D02*
X149635615Y-48843600D01*
X147364496Y-74017507D02*
X149635615Y-71746388D01*
%TO.N,/Bus2_input_enable*%
X114556000Y-139880000D02*
X117351000Y-139880000D01*
X136020000Y-107211212D02*
X138560000Y-104671212D01*
X143622415Y-76460000D02*
X144847415Y-75235000D01*
X118548893Y-141230000D02*
X134308019Y-141230000D01*
X117606000Y-140287106D02*
X118548893Y-141230000D01*
X138560000Y-104671212D02*
X146131722Y-104671212D01*
X144847415Y-75235000D02*
X146669827Y-75235000D01*
X134308019Y-141230000D02*
X136020000Y-139518019D01*
X150387415Y-96720600D02*
X150387415Y-86890787D01*
X147887415Y-84390788D02*
X150378815Y-86874000D01*
X146131722Y-104671212D02*
X146797415Y-104005519D01*
X146784715Y-100323300D02*
X150387415Y-96720600D01*
X146797415Y-104005519D02*
X146797415Y-100336000D01*
X147887415Y-76452588D02*
X147887415Y-84390788D01*
X117606000Y-139880000D02*
X117606000Y-140287106D01*
X136020000Y-139518019D02*
X136020000Y-107211212D01*
X146669827Y-75235000D02*
X147887415Y-76452588D01*
%TO.N,/Bus2_sense_enable*%
X119256000Y-106969200D02*
X119256000Y-106054800D01*
X145133215Y-102909784D02*
X145133215Y-101251318D01*
X149887415Y-87097894D02*
X149887415Y-96497118D01*
X147387415Y-84597894D02*
X149887415Y-87097894D01*
X145941918Y-103765000D02*
X145941918Y-103718487D01*
X145941918Y-103718487D02*
X145146415Y-102922984D01*
X146162415Y-76460000D02*
X147387415Y-77685000D01*
X147387415Y-77685000D02*
X147387415Y-84597894D01*
X145146415Y-102922984D02*
X145133215Y-102909784D01*
X117096000Y-105974800D02*
X120098000Y-105974800D01*
X145133215Y-101251318D02*
X149887415Y-96497118D01*
%TO.N,/CH11*%
X48657000Y-84664000D02*
X50854000Y-84664000D01*
X47882000Y-87573000D02*
X47882000Y-83826000D01*
X64214000Y-84664000D02*
X134725658Y-84664000D01*
X47882000Y-83889000D02*
X48657000Y-84664000D01*
X134725658Y-84664000D02*
X135106889Y-84282769D01*
X64138000Y-84588000D02*
X64214000Y-84664000D01*
X50854000Y-84664000D02*
X50930000Y-84588000D01*
%TO.N,/CH12*%
X135687747Y-85164000D02*
X135965612Y-84886135D01*
X66932000Y-87573000D02*
X68139000Y-87573000D01*
X70674000Y-85164000D02*
X135687747Y-85164000D01*
X68139000Y-87573000D02*
X68202000Y-87636000D01*
X68202000Y-83826000D02*
X66932000Y-83826000D01*
X68202000Y-87636000D02*
X70674000Y-85164000D01*
%TO.N,/CH13*%
X136671200Y-85664000D02*
X89224000Y-85664000D01*
X89224000Y-85664000D02*
X87252000Y-87636000D01*
X136731200Y-85604000D02*
X136671200Y-85664000D01*
X85982000Y-87573000D02*
X87189000Y-87573000D01*
X87252000Y-83826000D02*
X85982000Y-83826000D01*
X87189000Y-87573000D02*
X87252000Y-87636000D01*
%TO.N,/CH14*%
X106302000Y-83826000D02*
X105032000Y-83826000D01*
X106302000Y-87636000D02*
X107774000Y-86164000D01*
X105985000Y-87573000D02*
X105032000Y-87573000D01*
X135694700Y-86164000D02*
X135969200Y-86438500D01*
X107774000Y-86164000D02*
X135694700Y-86164000D01*
X106302000Y-87636000D02*
X105985000Y-87573000D01*
%TO.N,/CH15*%
X125098000Y-83826000D02*
X123828000Y-83826000D01*
X123828000Y-87573000D02*
X125035000Y-87573000D01*
X125098000Y-87636000D02*
X126070000Y-86664000D01*
X134765264Y-86664000D02*
X135054717Y-86953453D01*
X125035000Y-87573000D02*
X125098000Y-87636000D01*
X126070000Y-86664000D02*
X134765264Y-86664000D01*
%TO.N,/CH16*%
X144892415Y-103765000D02*
X144633215Y-103505800D01*
X65880200Y-105974800D02*
X64975200Y-105974800D01*
X144633215Y-103505800D02*
X144633215Y-101098000D01*
X65880200Y-105974800D02*
X65880200Y-106975800D01*
X146162415Y-84080000D02*
X149387415Y-87305000D01*
X66881200Y-105974800D02*
X65880200Y-105974800D01*
X149387415Y-96290012D02*
X144633215Y-101044212D01*
X149387415Y-87305000D02*
X149387415Y-96290012D01*
%TO.N,/CH17*%
X76040200Y-105974800D02*
X75135200Y-105974800D01*
X148887415Y-96082906D02*
X144133215Y-100837106D01*
X77041200Y-105974800D02*
X76040200Y-105974800D01*
X144847415Y-85395000D02*
X146669827Y-85395000D01*
X148887415Y-87612588D02*
X148887415Y-96082906D01*
X146669827Y-85395000D02*
X148887415Y-87612588D01*
X76040200Y-105974800D02*
X76040200Y-106848800D01*
X144133215Y-103448206D02*
X144133215Y-100844000D01*
X143622415Y-86620000D02*
X144847415Y-85395000D01*
X143816421Y-103765000D02*
X144133215Y-103448206D01*
%TO.N,/CH18*%
X143633215Y-102103200D02*
X143622415Y-102114000D01*
X143633215Y-100630000D02*
X143633215Y-102103200D01*
X148387415Y-95875800D02*
X143633215Y-100630000D01*
X148387415Y-88845000D02*
X148387415Y-95875800D01*
X86200200Y-105974800D02*
X85295200Y-105974800D01*
X142766918Y-103765000D02*
X142766918Y-103011125D01*
X87201200Y-105974800D02*
X86200200Y-105974800D01*
X142766918Y-103011125D02*
X143633215Y-102144828D01*
X146162415Y-86620000D02*
X148387415Y-88845000D01*
X86200200Y-105974800D02*
X86200200Y-106848800D01*
%TO.N,/CH19*%
X147887415Y-95558906D02*
X143133215Y-100313106D01*
X143133215Y-100313106D02*
X143133215Y-101937722D01*
X144847415Y-87935000D02*
X146669827Y-87935000D01*
X97107200Y-105974800D02*
X96360200Y-105974800D01*
X96360200Y-105974800D02*
X96360200Y-106848800D01*
X143622415Y-89160000D02*
X144847415Y-87935000D01*
X141717415Y-103765000D02*
X141717415Y-103353522D01*
X147887415Y-89152588D02*
X147887415Y-95558906D01*
X96360200Y-105974800D02*
X95455200Y-105974800D01*
X146669827Y-87935000D02*
X147887415Y-89152588D01*
X141717415Y-103353522D02*
X143133215Y-101937722D01*
%TO.N,/CH20*%
X147387415Y-95351800D02*
X142633215Y-100106000D01*
X146162415Y-89160000D02*
X147387415Y-90385000D01*
X142633215Y-101730616D02*
X140523123Y-103840708D01*
X106520200Y-105974800D02*
X105615200Y-105974800D01*
X106520200Y-105974800D02*
X106520200Y-106848800D01*
X107267200Y-105974800D02*
X106520200Y-105974800D01*
X142633215Y-100106000D02*
X142633215Y-101730616D01*
X147387415Y-90385000D02*
X147387415Y-95351800D01*
D28*
%TO.N,+3.3V*%
X143622415Y-91700000D02*
X146213215Y-91700000D01*
D26*
%TO.N,GND*%
X136794500Y-139105200D02*
X136794500Y-107829000D01*
X130419500Y-107943500D02*
X130305000Y-107829000D01*
X130419500Y-138826500D02*
X130419500Y-107943500D01*
D28*
X143622415Y-94240000D02*
X146213215Y-94240000D01*
D27*
%TO.N,Net-(R2-Pad1)*%
X112906000Y-139880000D02*
X112906000Y-137340000D01*
%TO.N,Net-(R3-Pad1)*%
X119256000Y-139880000D02*
X119256000Y-137340000D01*
%TO.N,Net-(R4-Pad1)*%
X46725000Y-42791000D02*
X47882000Y-43948000D01*
X46725000Y-41900000D02*
X46725000Y-42791000D01*
%TO.N,Net-(R5-Pad1)*%
X49275000Y-52707000D02*
X47882000Y-51314000D01*
%TO.N,Net-(R6-Pad1)*%
X65781000Y-41900000D02*
X65781000Y-42797000D01*
X65781000Y-42797000D02*
X66932000Y-43948000D01*
%TO.N,Net-(R7-Pad1)*%
X68331000Y-52459000D02*
X66932000Y-51060000D01*
X68331000Y-53350000D02*
X68331000Y-52459000D01*
%TO.N,Net-(R8-Pad1)*%
X86236000Y-44139000D02*
X84966000Y-42869000D01*
X84966000Y-42869000D02*
X84966000Y-41916000D01*
%TO.N,Net-(R9-Pad1)*%
X87506000Y-52393000D02*
X87506000Y-53346000D01*
X86236000Y-51123000D02*
X87506000Y-52393000D01*
%TO.N,Net-(R10-Pad1)*%
X105286000Y-44139000D02*
X104016000Y-42869000D01*
X104016000Y-42869000D02*
X104016000Y-41916000D01*
%TO.N,Net-(R11-Pad1)*%
X105286000Y-51123000D02*
X106556000Y-52393000D01*
X106556000Y-52393000D02*
X106556000Y-53346000D01*
%TO.N,Net-(R12-Pad1)*%
X122812000Y-43123000D02*
X122812000Y-41916000D01*
X123828000Y-44139000D02*
X122812000Y-43123000D01*
%TO.N,Net-(R13-Pad1)*%
X123828000Y-51123000D02*
X125352000Y-52647000D01*
X125352000Y-52647000D02*
X125352000Y-53346000D01*
%TO.N,Net-(R15-Pad1)*%
X60785200Y-137340000D02*
X60785200Y-139880000D01*
%TO.N,Net-(R16-Pad1)*%
X65865200Y-137340000D02*
X65865200Y-139880000D01*
%TO.N,Net-(R17-Pad1)*%
X70945200Y-137340000D02*
X70945200Y-139880000D01*
%TO.N,Net-(R18-Pad1)*%
X76025200Y-137340000D02*
X76025200Y-139880000D01*
%TO.N,Net-(R19-Pad1)*%
X81105200Y-137340000D02*
X81105200Y-139880000D01*
%TO.N,Net-(R20-Pad1)*%
X86185200Y-137340000D02*
X86185200Y-139626000D01*
%TO.N,Net-(R21-Pad1)*%
X91265200Y-137340000D02*
X91265200Y-139880000D01*
%TO.N,Net-(R22-Pad1)*%
X96345200Y-137340000D02*
X96345200Y-139880000D01*
%TO.N,Net-(R23-Pad1)*%
X101425200Y-137340000D02*
X101425200Y-139880000D01*
%TO.N,Net-(R24-Pad1)*%
X106505200Y-137340000D02*
X106505200Y-139880000D01*
%TO.N,Net-(R26-Pad1)*%
X115446000Y-109022800D02*
X115446000Y-106482800D01*
%TO.N,Net-(R27-Pad1)*%
X121796000Y-109022800D02*
X121796000Y-106482800D01*
%TO.N,Net-(R28-Pad1)*%
X46612000Y-80969000D02*
X46612000Y-80016000D01*
X47882000Y-82239000D02*
X46612000Y-80969000D01*
%TO.N,Net-(R29-Pad1)*%
X47882000Y-89223000D02*
X49406000Y-90747000D01*
X49406000Y-90747000D02*
X49406000Y-91446000D01*
%TO.N,Net-(R30-Pad1)*%
X65781000Y-80897000D02*
X66932000Y-82048000D01*
X65781000Y-80000000D02*
X65781000Y-80897000D01*
%TO.N,Net-(R31-Pad1)*%
X68456000Y-90747000D02*
X68456000Y-91446000D01*
X66932000Y-89223000D02*
X68456000Y-90747000D01*
%TO.N,Net-(R32-Pad1)*%
X84831000Y-81151000D02*
X85982000Y-82302000D01*
X84831000Y-80000000D02*
X84831000Y-81151000D01*
%TO.N,Net-(R33-Pad1)*%
X87381000Y-90559000D02*
X85982000Y-89160000D01*
X87381000Y-91450000D02*
X87381000Y-90559000D01*
%TO.N,Net-(R34-Pad1)*%
X103881000Y-80000000D02*
X103881000Y-80897000D01*
X103881000Y-80897000D02*
X105032000Y-82048000D01*
%TO.N,Net-(R35-Pad1)*%
X106556000Y-90747000D02*
X106556000Y-91700000D01*
X105032000Y-89223000D02*
X106556000Y-90747000D01*
%TO.N,Net-(R36-Pad1)*%
X122677000Y-81151000D02*
X123828000Y-82302000D01*
X122677000Y-80000000D02*
X122677000Y-81151000D01*
%TO.N,Net-(R37-Pad1)*%
X125354000Y-90686000D02*
X123828000Y-89160000D01*
X125354000Y-91450000D02*
X125354000Y-90686000D01*
%TO.N,Net-(R39-Pad1)*%
X63325200Y-105974800D02*
X63325200Y-108514800D01*
%TO.N,Net-(R40-Pad1)*%
X68405200Y-105974800D02*
X68405200Y-108514800D01*
%TO.N,Net-(R41-Pad1)*%
X73485200Y-105974800D02*
X73485200Y-108514800D01*
%TO.N,Net-(R42-Pad1)*%
X78565200Y-105974800D02*
X78565200Y-108514800D01*
%TO.N,Net-(R43-Pad1)*%
X83645200Y-108514800D02*
X83645200Y-105974800D01*
%TO.N,Net-(R44-Pad1)*%
X88725200Y-108514800D02*
X88725200Y-105974800D01*
%TO.N,Net-(R45-Pad1)*%
X93805200Y-108514800D02*
X93805200Y-105974800D01*
%TO.N,Net-(R46-Pad1)*%
X98885200Y-105974800D02*
X98885200Y-108260800D01*
%TO.N,Net-(R47-Pad1)*%
X103965200Y-108514800D02*
X103965200Y-105974800D01*
%TO.N,Net-(R48-Pad1)*%
X109045200Y-105974800D02*
X109045200Y-108514800D01*
D26*
%TO.N,/Out_HIGH*%
X91265200Y-129720000D02*
X91265200Y-131498000D01*
D28*
X41000000Y-125585000D02*
X47374000Y-131959000D01*
D26*
X60785200Y-129800000D02*
X60785200Y-131959000D01*
D28*
X41024000Y-40138000D02*
X41000000Y-40162000D01*
X124844000Y-131324000D02*
X123828000Y-131959000D01*
X120397000Y-32000000D02*
X48433730Y-32000000D01*
X84831000Y-34280000D02*
X84831000Y-32383000D01*
X41000000Y-40138000D02*
X41000000Y-125585000D01*
D26*
X81105200Y-129720000D02*
X81105200Y-131498000D01*
D28*
X103881000Y-34280000D02*
X103881000Y-32383000D01*
X122677000Y-34280000D02*
X120397000Y-32000000D01*
X123828000Y-131959000D02*
X115446000Y-131959000D01*
D26*
X70945200Y-129720000D02*
X70945200Y-131498000D01*
D28*
X46725000Y-34482108D02*
X41069108Y-40138000D01*
X46764400Y-33669330D02*
X46764400Y-34346800D01*
X65781000Y-34280000D02*
X65781000Y-32129000D01*
X115446000Y-131959000D02*
X115446000Y-130007000D01*
X65781000Y-32129000D02*
X65662000Y-32010000D01*
X47374000Y-131959000D02*
X115446000Y-131959000D01*
D26*
X101440200Y-131570000D02*
X101440200Y-129832000D01*
D28*
X48433730Y-32000000D02*
X46764400Y-33669330D01*
X41069108Y-40138000D02*
X41024000Y-40138000D01*
D26*
%TO.N,/Bus_HIGH*%
X60785200Y-114284800D02*
X60785200Y-116134800D01*
X101440200Y-114284800D02*
X101440200Y-116119800D01*
X81105200Y-114284800D02*
X81105200Y-116134800D01*
D28*
X112906000Y-116595800D02*
X112906000Y-113940800D01*
X84831000Y-72380000D02*
X84839000Y-69602000D01*
X51952000Y-113934800D02*
X51936400Y-113950400D01*
X121694000Y-69500000D02*
X122558000Y-70364000D01*
X44428000Y-69500000D02*
X121694000Y-69500000D01*
X51539600Y-113950400D02*
X43564000Y-105974800D01*
X65781000Y-72380000D02*
X65781000Y-69602000D01*
X43564000Y-70364000D02*
X44428000Y-69500000D01*
D26*
X91265200Y-114284800D02*
X91265200Y-116134800D01*
D28*
X112906000Y-117020000D02*
X112906000Y-129720000D01*
X122558000Y-70364000D02*
X122685000Y-72396000D01*
X51936400Y-113950400D02*
X51539600Y-113950400D01*
X43564000Y-105974800D02*
X43564000Y-70364000D01*
X46739000Y-72396000D02*
X46725000Y-69489000D01*
X103881000Y-72380000D02*
X103889000Y-69602000D01*
D26*
X70945200Y-114284800D02*
X70945200Y-116134800D01*
D28*
X112912000Y-113934800D02*
X51952000Y-113934800D01*
X112906000Y-113940800D02*
X112912000Y-113934800D01*
%TO.N,/Out_LOW*%
X46713600Y-62738377D02*
X46713600Y-60915200D01*
X84841000Y-60970000D02*
X84841000Y-63381000D01*
X122558000Y-61728000D02*
X122558000Y-60966000D01*
X120780000Y-63506000D02*
X122558000Y-61728000D01*
X65791000Y-60970000D02*
X65791000Y-63381000D01*
X47475600Y-63500377D02*
X46713600Y-62738377D01*
X120780000Y-63506000D02*
X47475600Y-63500377D01*
X103891000Y-60970000D02*
X103891000Y-62873000D01*
%TO.N,/Bus_LOW*%
X84841000Y-99070000D02*
X84841000Y-101223000D01*
X120378000Y-101500000D02*
X122812000Y-99066000D01*
X103891000Y-99070000D02*
X103891000Y-101223000D01*
X48593730Y-101500000D02*
X120378000Y-101500000D01*
X47221600Y-101504400D02*
X46713600Y-100996400D01*
X48589330Y-101504400D02*
X47221600Y-101504400D01*
X119256000Y-117020000D02*
X119256000Y-129720000D01*
X65791000Y-99070000D02*
X65791000Y-101477000D01*
X48593730Y-101500000D02*
X48589330Y-101504400D01*
X46713600Y-100996400D02*
X46713600Y-98964400D01*
D27*
%TO.N,Net-(R1-Pad2)*%
X51168000Y-34280000D02*
X51975000Y-35087000D01*
X53293020Y-41399444D02*
X56151000Y-44257424D01*
X49265000Y-34280000D02*
X51168000Y-34280000D01*
X56151000Y-44257424D02*
X56151000Y-45853000D01*
X51975000Y-35087000D02*
X51975000Y-38217463D01*
X51975027Y-38217463D02*
G75*
G03*
X53293021Y-41399443I4499973J-37D01*
G01*
%TO.N,Net-(R1-Pad3)*%
X56151000Y-50742576D02*
X56151000Y-48520000D01*
X49275000Y-60970000D02*
X51434000Y-60970000D01*
X53293020Y-53600556D02*
X56151000Y-50742576D01*
X51434000Y-60970000D02*
X51975000Y-60429000D01*
X51975000Y-60429000D02*
X51975000Y-56782537D01*
X53293001Y-53600537D02*
G75*
G03*
X51975000Y-56782537I3181999J-3181963D01*
G01*
%TO.N,Net-(R14-Pad2)*%
X53293020Y-79399444D02*
X56151000Y-82257424D01*
X51422000Y-72380000D02*
X51975000Y-72933000D01*
X49265000Y-72380000D02*
X51422000Y-72380000D01*
X56151000Y-82257424D02*
X56151000Y-83953000D01*
X51975000Y-72933000D02*
X51975000Y-76217463D01*
X51974998Y-76217463D02*
G75*
G03*
X53293020Y-79399444I4500002J3D01*
G01*
%TO.N,Net-(R14-Pad3)*%
X56151000Y-88742576D02*
X56151000Y-86620000D01*
X51975000Y-98075000D02*
X51975000Y-94782537D01*
X50984000Y-99066000D02*
X51975000Y-98075000D01*
X53293020Y-91600556D02*
X56151000Y-88742576D01*
X49279000Y-99066000D02*
X50984000Y-99066000D01*
X53293001Y-91600537D02*
G75*
G03*
X51975000Y-94782537I3181999J-3181963D01*
G01*
%TD*%
%TA.AperFunction,Conductor*%
%TO.N,/CH11_HIGH*%
G36*
X60450715Y-76037608D02*
G01*
X60481263Y-76100446D01*
X60482971Y-76119139D01*
X60581192Y-82503523D01*
X60562541Y-82570857D01*
X60544888Y-82593111D01*
X58332319Y-84805681D01*
X58270996Y-84839166D01*
X58244638Y-84842000D01*
X57900500Y-84842000D01*
X57833461Y-84822315D01*
X57787706Y-84769511D01*
X57776500Y-84718000D01*
X57776499Y-83039401D01*
X57776499Y-83036980D01*
X57770312Y-82958355D01*
X57721320Y-82775512D01*
X57635383Y-82606851D01*
X57516257Y-82459743D01*
X57369149Y-82340617D01*
X57240628Y-82275132D01*
X57189833Y-82227158D01*
X57173521Y-82176802D01*
X57161662Y-82056392D01*
X57161662Y-82056391D01*
X57103023Y-81863083D01*
X57007798Y-81684930D01*
X56879647Y-81528777D01*
X56845217Y-81500521D01*
X56836201Y-81492349D01*
X54827738Y-79483886D01*
X54802735Y-79447956D01*
X54188813Y-78111191D01*
X54178723Y-78042056D01*
X54207612Y-77978439D01*
X54263702Y-77941343D01*
X60321197Y-76002944D01*
X60391043Y-76001261D01*
X60450715Y-76037608D01*
G37*
%TD.AperFunction*%
%TD*%
%TA.AperFunction,Conductor*%
%TO.N,/CH11_LOW*%
G36*
X58304278Y-85877685D02*
G01*
X58333210Y-85903479D01*
X60553271Y-88616887D01*
X60580488Y-88681237D01*
X60581285Y-88697361D01*
X60482954Y-94941375D01*
X60462216Y-95008096D01*
X60408698Y-95053013D01*
X60339392Y-95061867D01*
X60324535Y-95058545D01*
X54115090Y-93263627D01*
X54056153Y-93226100D01*
X54026861Y-93162667D01*
X54036372Y-93093784D01*
X54665913Y-91689423D01*
X54691379Y-91652471D01*
X56836209Y-89507641D01*
X56845218Y-89499477D01*
X56879647Y-89471223D01*
X57007798Y-89315070D01*
X57103023Y-89136917D01*
X57161662Y-88943609D01*
X57176500Y-88792956D01*
X57181462Y-88742576D01*
X57177097Y-88698256D01*
X57176500Y-88686102D01*
X57176500Y-88533529D01*
X57196185Y-88466490D01*
X57244204Y-88423045D01*
X57369149Y-88359383D01*
X57516257Y-88240257D01*
X57635383Y-88093149D01*
X57721320Y-87924488D01*
X57770312Y-87741645D01*
X57776500Y-87663021D01*
X57776499Y-85981999D01*
X57796184Y-85914961D01*
X57848987Y-85869206D01*
X57900499Y-85858000D01*
X58237239Y-85858000D01*
X58304278Y-85877685D01*
G37*
%TD.AperFunction*%
%TD*%
%TA.AperFunction,Conductor*%
%TO.N,/CH1_LOW*%
G36*
X58260520Y-47758069D02*
G01*
X58289452Y-47783863D01*
X60509819Y-50497645D01*
X60537036Y-50561995D01*
X60537843Y-50577266D01*
X60481838Y-56892219D01*
X60461560Y-56959081D01*
X60408352Y-57004366D01*
X60339108Y-57013696D01*
X60324271Y-57010488D01*
X54114856Y-55264090D01*
X54055649Y-55226990D01*
X54025900Y-55163770D01*
X54034728Y-55095242D01*
X54631016Y-53725014D01*
X54657026Y-53686824D01*
X56836209Y-51507641D01*
X56845218Y-51499477D01*
X56879647Y-51471223D01*
X57007798Y-51315070D01*
X57103023Y-51136917D01*
X57161662Y-50943609D01*
X57176500Y-50792956D01*
X57181462Y-50742576D01*
X57177097Y-50698256D01*
X57176500Y-50686102D01*
X57176500Y-50433529D01*
X57196185Y-50366490D01*
X57244204Y-50323045D01*
X57369149Y-50259383D01*
X57516257Y-50140257D01*
X57635383Y-49993149D01*
X57721320Y-49824488D01*
X57770312Y-49641645D01*
X57776500Y-49563021D01*
X57776499Y-47862383D01*
X57796184Y-47795345D01*
X57848987Y-47749590D01*
X57900499Y-47738384D01*
X58193481Y-47738384D01*
X58260520Y-47758069D01*
G37*
%TD.AperFunction*%
%TD*%
%TA.AperFunction,Conductor*%
%TO.N,/CH1_HIGH*%
G36*
X60451658Y-37936655D02*
G01*
X60481466Y-37999848D01*
X60482940Y-38017102D01*
X60581192Y-44403523D01*
X60562541Y-44470857D01*
X60544888Y-44493111D01*
X58332319Y-46705681D01*
X58270996Y-46739166D01*
X58244638Y-46742000D01*
X57900500Y-46742000D01*
X57833461Y-46722315D01*
X57787706Y-46669511D01*
X57776500Y-46618000D01*
X57776499Y-44939401D01*
X57776499Y-44936980D01*
X57770312Y-44858355D01*
X57721320Y-44675512D01*
X57635383Y-44506851D01*
X57516257Y-44359743D01*
X57369149Y-44240617D01*
X57230259Y-44169849D01*
X57179463Y-44121874D01*
X57163151Y-44071514D01*
X57161662Y-44056392D01*
X57161662Y-44056391D01*
X57103023Y-43863083D01*
X57007798Y-43684930D01*
X56879647Y-43528777D01*
X56845217Y-43500521D01*
X56836201Y-43492349D01*
X54801212Y-41457360D01*
X54776696Y-41422480D01*
X54089676Y-39962562D01*
X54078943Y-39893525D01*
X54107239Y-39829641D01*
X54165473Y-39791229D01*
X60322555Y-37900471D01*
X60392418Y-37899610D01*
X60451658Y-37936655D01*
G37*
%TD.AperFunction*%
%TD*%
M02*
