<?xml version="1.0"?>
<!DOCTYPE svg PUBLIC "-//W3C//DTD SVG 1.1//EN" "http://www.w3.org/Graphics/SVG/1.1/DTD/svg11.dtd">
<svg width="88.95045354mm" height="94.83646653999978mm" viewBox="0 0 88.95045354 94.83646653999978" xmlns="http://www.w3.org/2000/svg" version="1.1">
<g id="Sketch003" transform="translate(-11.027937,111.474003) scale(1,-1)">
<path id="Sketch003_w0000"  d="M 23.099999999999987 106.75406592285384 A 6 6 0 0 1 11.9 106.754L 11.899999999999984 102.44593407714623 A 6 6 0 0 1 23.1 102.446L 23.099999999999987 106.75406592285384 " stroke="#000000" stroke-width="0.35 px" style="stroke-width:0.35;stroke-miterlimit:4;stroke-dasharray:none;stroke-linecap:square;fill:none;fill-opacity:1;fill-rule: evenodd"/>
<path id="Sketch003_w0001"  d="M 42.10121799999999 106.75455092285422 A 6 6 0 0 1 30.9012 106.755L 30.901217999999986 102.44641907714663 A 6 6 0 0 1 42.1012 102.446L 42.10121799999998 106.75455092285422 " stroke="#000000" stroke-width="0.35 px" style="stroke-width:0.35;stroke-miterlimit:4;stroke-dasharray:none;stroke-linecap:square;fill:none;fill-opacity:1;fill-rule: evenodd"/>
<path id="Sketch003_w0002"  d="M 61.10243599999999 106.75503592285364 A 6 6 0 0 1 49.9024 106.755L 49.90243599999998 102.44690407714604 A 6 6 0 0 1 61.1024 102.447L 61.10243599999999 106.75503592285364 " stroke="#000000" stroke-width="0.35 px" style="stroke-width:0.35;stroke-miterlimit:4;stroke-dasharray:none;stroke-linecap:square;fill:none;fill-opacity:1;fill-rule: evenodd"/>
<path id="Sketch003_w0003"  d="M 80.10365399999998 106.75552092285352 A 6 6 0 0 1 68.9037 106.756L 68.90365399999997 102.44738907714594 A 6 6 0 0 1 80.1037 102.447L 80.10365399999998 106.75552092285352 " stroke="#000000" stroke-width="0.35 px" style="stroke-width:0.35;stroke-miterlimit:4;stroke-dasharray:none;stroke-linecap:square;fill:none;fill-opacity:1;fill-rule: evenodd"/>
<path id="Sketch003_w0004"  d="M 99.10487199999999 106.7560059228534 A 6 6 0 0 1 87.9049 106.756L 87.90487199999998 102.44787407714581 A 6 6 0 0 1 99.1049 102.448L 99.10487199999999 106.7560059228534 " stroke="#000000" stroke-width="0.35 px" style="stroke-width:0.35;stroke-miterlimit:4;stroke-dasharray:none;stroke-linecap:square;fill:none;fill-opacity:1;fill-rule: evenodd"/>
<path id="Sketch003_w0005"  d="M 23.10048499999998 87.75284792285353 A 6 6 0 0 1 11.9005 87.7528L 11.900484999999982 83.44471607714593 A 6 6 0 0 1 23.1005 83.4447L 23.10048499999998 87.75284792285353 " stroke="#000000" stroke-width="0.35 px" style="stroke-width:0.35;stroke-miterlimit:4;stroke-dasharray:none;stroke-linecap:square;fill:none;fill-opacity:1;fill-rule: evenodd"/>
<path id="Sketch003_w0006"  d="M 42.101702999999986 87.75333292285376 A 6 6 0 0 1 30.9017 87.7533L 30.901702999999983 83.44520107714615 A 6 6 0 0 1 42.1017 83.4452L 42.101702999999986 87.75333292285376 " stroke="#000000" stroke-width="0.35 px" style="stroke-width:0.35;stroke-miterlimit:4;stroke-dasharray:none;stroke-linecap:square;fill:none;fill-opacity:1;fill-rule: evenodd"/>
<path id="Sketch003_w0007"  d="M 61.10292099999999 87.75381792285398 A 6 6 0 0 1 49.9029 87.7538L 49.902920999999985 83.44568607714638 A 6 6 0 0 1 61.1029 83.4457L 61.10292099999999 87.75381792285398 " stroke="#000000" stroke-width="0.35 px" style="stroke-width:0.35;stroke-miterlimit:4;stroke-dasharray:none;stroke-linecap:square;fill:none;fill-opacity:1;fill-rule: evenodd"/>
<path id="Sketch003_w0008"  d="M 80.10413899999998 87.75430292285373 A 6 6 0 0 1 68.9041 87.7543L 68.90413899999999 83.4461710771461 A 6 6 0 0 1 80.1041 83.4462L 80.10413899999998 87.75430292285373 " stroke="#000000" stroke-width="0.35 px" style="stroke-width:0.35;stroke-miterlimit:4;stroke-dasharray:none;stroke-linecap:square;fill:none;fill-opacity:1;fill-rule: evenodd"/>
<path id="Sketch003_w0009"  d="M 99.10535699999998 87.75478792285422 A 6 6 0 0 1 87.9054 87.7548L 87.90535699999998 83.4466560771466 A 6 6 0 0 1 99.1054 83.4467L 99.10535699999998 87.75478792285422 " stroke="#000000" stroke-width="0.35 px" style="stroke-width:0.35;stroke-miterlimit:4;stroke-dasharray:none;stroke-linecap:square;fill:none;fill-opacity:1;fill-rule: evenodd"/>
<path id="Sketch003_w0010"  d="M 23.100969999999982 68.75162992285365 A 6 6 0 0 1 11.901 68.7516L 11.900969999999981 64.44349807714606 A 6 6 0 0 1 23.101 64.4435L 23.10096999999998 68.75162992285365 " stroke="#000000" stroke-width="0.35 px" style="stroke-width:0.35;stroke-miterlimit:4;stroke-dasharray:none;stroke-linecap:square;fill:none;fill-opacity:1;fill-rule: evenodd"/>
<path id="Sketch003_w0011"  d="M 42.102187999999984 68.75211492285395 A 6 6 0 0 1 30.9022 68.7521L 30.902187999999985 64.44398307714634 A 6 6 0 0 1 42.1022 64.444L 42.102187999999984 68.75211492285395 " stroke="#000000" stroke-width="0.35 px" style="stroke-width:0.35;stroke-miterlimit:4;stroke-dasharray:none;stroke-linecap:square;fill:none;fill-opacity:1;fill-rule: evenodd"/>
<path id="Sketch003_w0012"  d="M 61.103405999999985 68.75259992285356 A 6 6 0 0 1 49.9034 68.7526L 49.90340599999999 64.44446807714596 A 6 6 0 0 1 61.1034 64.4445L 61.103405999999985 68.75259992285356 " stroke="#000000" stroke-width="0.35 px" style="stroke-width:0.35;stroke-miterlimit:4;stroke-dasharray:none;stroke-linecap:square;fill:none;fill-opacity:1;fill-rule: evenodd"/>
<path id="Sketch003_w0013"  d="M 80.10462399999999 68.75308492285457 A 6 6 0 0 1 68.9046 68.7531L 68.90462399999998 64.44495307714696 A 6 6 0 0 1 80.1046 64.445L 80.10462399999999 68.75308492285457 " stroke="#000000" stroke-width="0.35 px" style="stroke-width:0.35;stroke-miterlimit:4;stroke-dasharray:none;stroke-linecap:square;fill:none;fill-opacity:1;fill-rule: evenodd"/>
<path id="Sketch003_w0014"  d="M 99.10584199999998 68.75356992285369 A 6 6 0 0 1 87.9058 68.7536L 87.90584199999998 64.44543807714608 A 6 6 0 0 1 99.1058 64.4454L 99.10584199999998 68.75356992285369 " stroke="#000000" stroke-width="0.35 px" style="stroke-width:0.35;stroke-miterlimit:4;stroke-dasharray:none;stroke-linecap:square;fill:none;fill-opacity:1;fill-rule: evenodd"/>
<path id="Sketch003_w0015"  d="M 23.101454999999984 49.75041192285359 A 6 6 0 0 1 11.9015 49.7504L 11.901454999999984 45.44228007714598 A 6 6 0 0 1 23.1015 45.4423L 23.101454999999984 49.75041192285359 " stroke="#000000" stroke-width="0.35 px" style="stroke-width:0.35;stroke-miterlimit:4;stroke-dasharray:none;stroke-linecap:square;fill:none;fill-opacity:1;fill-rule: evenodd"/>
<path id="Sketch003_w0016"  d="M 42.10267299999998 49.750896922853926 A 6 6 0 0 1 30.9027 49.7509L 30.902672999999982 45.44276507714632 A 6 6 0 0 1 42.1027 45.4428L 42.10267299999998 49.750896922853926 " stroke="#000000" stroke-width="0.35 px" style="stroke-width:0.35;stroke-miterlimit:4;stroke-dasharray:none;stroke-linecap:square;fill:none;fill-opacity:1;fill-rule: evenodd"/>
<path id="Sketch003_w0017"  d="M 61.103890999999976 49.75138192285366 A 6 6 0 0 1 49.9039 49.7514L 49.90389099999999 45.44325007714604 A 6 6 0 0 1 61.1039 45.4433L 61.10389099999998 49.75138192285366 " stroke="#000000" stroke-width="0.35 px" style="stroke-width:0.35;stroke-miterlimit:4;stroke-dasharray:none;stroke-linecap:square;fill:none;fill-opacity:1;fill-rule: evenodd"/>
<path id="Sketch003_w0018"  d="M 80.10510899999998 49.75186692285332 A 6 6 0 0 1 68.9051 49.7519L 68.90510899999998 45.4437350771457 A 6 6 0 0 1 80.1051 45.4437L 80.10510899999998 49.75186692285332 " stroke="#000000" stroke-width="0.35 px" style="stroke-width:0.35;stroke-miterlimit:4;stroke-dasharray:none;stroke-linecap:square;fill:none;fill-opacity:1;fill-rule: evenodd"/>
<path id="Sketch003_w0019"  d="M 99.10632699999996 49.75235192285379 A 6 6 0 0 1 87.9063 49.7524L 87.90632699999998 45.44422007714617 A 6 6 0 0 1 99.1063 45.4442L 99.10632699999998 49.75235192285379 " stroke="#000000" stroke-width="0.35 px" style="stroke-width:0.35;stroke-miterlimit:4;stroke-dasharray:none;stroke-linecap:square;fill:none;fill-opacity:1;fill-rule: evenodd"/>
<circle cx="35.1836" cy="19.529600000000002" r="1.35" stroke="#000000" stroke-width="0.35 px" style="stroke-width:0.35;stroke-miterlimit:4;stroke-dasharray:none;stroke-linecap:square;fill:none"/>
<circle cx="75.8236" cy="19.529600000000002" r="1.35" stroke="#000000" stroke-width="0.35 px" style="stroke-width:0.35;stroke-miterlimit:4;stroke-dasharray:none;stroke-linecap:square;fill:none"/>
<path id="Sketch003_w0022"  d="M 44.0736 22.0496 A 1 1 0 0 1 43.0736 21.0496L 43.0736 18.509600000000002 A 1 1 0 0 1 44.0736 17.5096L 66.9336 17.509600000000002 A 1 1 0 0 1 67.9336 18.5096L 67.9336 21.0496 A 1 1 0 0 1 66.9336 22.0496L 44.0736 22.0496 " stroke="#000000" stroke-width="0.35 px" style="stroke-width:0.35;stroke-miterlimit:4;stroke-dasharray:none;stroke-linecap:square;fill:none;fill-opacity:1;fill-rule: evenodd"/>
<path id="Sketch003_w0023"  d="M 17.5 104.6 L 93.50632699999998 104.6 L 93.50632699999998 47.59828599999996 L 17.5 47.59828599999996 L 17.5 104.6 " stroke="#000000" stroke-width="0.35 px" style="stroke-width:0.35;stroke-miterlimit:4;stroke-dasharray:none;stroke-linecap:square;fill:none;fill-opacity:1;fill-rule: evenodd"/>
<path id="Sketch003_w0024"  d="M 44.0736 21.0496 L 66.9336 21.0496 L 66.9336 18.509600000000002 L 44.0736 18.509600000000002 L 44.0736 21.0496 " stroke="#000000" stroke-width="0.35 px" style="stroke-width:0.35;stroke-miterlimit:4;stroke-dasharray:none;stroke-linecap:square;fill:none;fill-opacity:1;fill-rule: evenodd"/>
<title>b'lid_cutout_cnc_with_markers'</title>
</g>
</svg>