%TF.GenerationSoftware,KiCad,Pcbnew,7.0.2-0*%
%TF.CreationDate,2023-06-06T22:34:11+02:00*%
%TF.ProjectId,SCAN2000_driver,5343414e-3230-4303-905f-647269766572,1.0*%
%TF.SameCoordinates,Original*%
%TF.FileFunction,Copper,L1,Top*%
%TF.FilePolarity,Positive*%
%FSLAX46Y46*%
G04 Gerber Fmt 4.6, Leading zero omitted, Abs format (unit mm)*
G04 Created by KiCad (PCBNEW 7.0.2-0) date 2023-06-06 22:34:11*
%MOMM*%
%LPD*%
G01*
G04 APERTURE LIST*
G04 Aperture macros list*
%AMRoundRect*
0 Rectangle with rounded corners*
0 $1 Rounding radius*
0 $2 $3 $4 $5 $6 $7 $8 $9 X,Y pos of 4 corners*
0 Add a 4 corners polygon primitive as box body*
4,1,4,$2,$3,$4,$5,$6,$7,$8,$9,$2,$3,0*
0 Add four circle primitives for the rounded corners*
1,1,$1+$1,$2,$3*
1,1,$1+$1,$4,$5*
1,1,$1+$1,$6,$7*
1,1,$1+$1,$8,$9*
0 Add four rect primitives between the rounded corners*
20,1,$1+$1,$2,$3,$4,$5,0*
20,1,$1+$1,$4,$5,$6,$7,0*
20,1,$1+$1,$6,$7,$8,$9,0*
20,1,$1+$1,$8,$9,$2,$3,0*%
G04 Aperture macros list end*
%TA.AperFunction,ComponentPad*%
%ADD10R,1.700000X1.700000*%
%TD*%
%TA.AperFunction,ComponentPad*%
%ADD11O,1.700000X1.700000*%
%TD*%
%TA.AperFunction,SMDPad,CuDef*%
%ADD12RoundRect,0.250000X-0.337500X-0.475000X0.337500X-0.475000X0.337500X0.475000X-0.337500X0.475000X0*%
%TD*%
%TA.AperFunction,SMDPad,CuDef*%
%ADD13RoundRect,0.100000X-0.637500X-0.100000X0.637500X-0.100000X0.637500X0.100000X-0.637500X0.100000X0*%
%TD*%
%TA.AperFunction,SMDPad,CuDef*%
%ADD14RoundRect,0.237500X-0.300000X-0.237500X0.300000X-0.237500X0.300000X0.237500X-0.300000X0.237500X0*%
%TD*%
%TA.AperFunction,SMDPad,CuDef*%
%ADD15R,0.650000X0.200000*%
%TD*%
%TA.AperFunction,SMDPad,CuDef*%
%ADD16R,0.800000X0.500000*%
%TD*%
%TA.AperFunction,SMDPad,CuDef*%
%ADD17R,0.800000X0.400000*%
%TD*%
%TA.AperFunction,SMDPad,CuDef*%
%ADD18RoundRect,0.250000X-0.400000X-0.625000X0.400000X-0.625000X0.400000X0.625000X-0.400000X0.625000X0*%
%TD*%
%TA.AperFunction,ComponentPad*%
%ADD19RoundRect,0.250000X-0.600000X-0.600000X0.600000X-0.600000X0.600000X0.600000X-0.600000X0.600000X0*%
%TD*%
%TA.AperFunction,ComponentPad*%
%ADD20C,1.700000*%
%TD*%
%TA.AperFunction,ViaPad*%
%ADD21C,0.800000*%
%TD*%
%TA.AperFunction,Conductor*%
%ADD22C,0.500000*%
%TD*%
%TA.AperFunction,Conductor*%
%ADD23C,0.200000*%
%TD*%
%TA.AperFunction,Conductor*%
%ADD24C,1.000000*%
%TD*%
%TA.AperFunction,Conductor*%
%ADD25C,0.250000*%
%TD*%
%TA.AperFunction,Conductor*%
%ADD26C,0.300000*%
%TD*%
G04 APERTURE END LIST*
D10*
%TO.P,J2,1,Pin_1*%
%TO.N,Net-(J2-Pin_1)*%
X84074000Y-54610000D03*
D11*
%TO.P,J2,2,Pin_2*%
%TO.N,Net-(J2-Pin_2)*%
X86614000Y-54610000D03*
%TO.P,J2,3,Pin_3*%
%TO.N,Net-(J2-Pin_3)*%
X84074000Y-57150000D03*
%TO.P,J2,4,Pin_4*%
%TO.N,Net-(J2-Pin_4)*%
X86614000Y-57150000D03*
%TO.P,J2,5,Pin_5*%
%TO.N,Net-(J2-Pin_5)*%
X84074000Y-59690000D03*
%TO.P,J2,6,Pin_6*%
%TO.N,Net-(J2-Pin_6)*%
X86614000Y-59690000D03*
%TO.P,J2,7,Pin_7*%
%TO.N,Net-(J2-Pin_7)*%
X84074000Y-62230000D03*
%TO.P,J2,8,Pin_8*%
%TO.N,Net-(J2-Pin_8)*%
X86614000Y-62230000D03*
%TO.P,J2,9,Pin_9*%
%TO.N,Net-(J2-Pin_9)*%
X84074000Y-64770000D03*
%TO.P,J2,10,Pin_10*%
%TO.N,Net-(J2-Pin_10)*%
X86614000Y-64770000D03*
%TO.P,J2,11,Pin_11*%
%TO.N,Net-(J2-Pin_11)*%
X84074000Y-67310000D03*
%TO.P,J2,12,Pin_12*%
%TO.N,Net-(J2-Pin_12)*%
X86614000Y-67310000D03*
%TO.P,J2,13,Pin_13*%
%TO.N,Net-(J2-Pin_13)*%
X84074000Y-69850000D03*
%TO.P,J2,14,Pin_14*%
%TO.N,Net-(J2-Pin_14)*%
X86614000Y-69850000D03*
%TO.P,J2,15,Pin_15*%
%TO.N,Net-(J2-Pin_15)*%
X84074000Y-72390000D03*
%TO.P,J2,16,Pin_16*%
%TO.N,Net-(J2-Pin_16)*%
X86614000Y-72390000D03*
%TO.P,J2,17,Pin_17*%
%TO.N,Net-(J2-Pin_17)*%
X84074000Y-74930000D03*
%TO.P,J2,18,Pin_18*%
%TO.N,Net-(J2-Pin_18)*%
X86614000Y-74930000D03*
%TO.P,J2,19,Pin_19*%
%TO.N,Net-(J2-Pin_19)*%
X84074000Y-77470000D03*
%TO.P,J2,20,Pin_20*%
%TO.N,Net-(J2-Pin_20)*%
X86614000Y-77470000D03*
%TO.P,J2,21,Pin_21*%
%TO.N,Net-(J2-Pin_21)*%
X84074000Y-80010000D03*
%TO.P,J2,22,Pin_22*%
%TO.N,Net-(J2-Pin_22)*%
X86614000Y-80010000D03*
%TO.P,J2,23,Pin_23*%
%TO.N,Net-(J2-Pin_23)*%
X84074000Y-82550000D03*
%TO.P,J2,24,Pin_24*%
X86614000Y-82550000D03*
%TO.P,J2,25,Pin_25*%
%TO.N,GND*%
X84074000Y-85090000D03*
%TO.P,J2,26,Pin_26*%
X86614000Y-85090000D03*
%TD*%
D12*
%TO.P,C4,1*%
%TO.N,+3.3V*%
X96858000Y-62611000D03*
%TO.P,C4,2*%
%TO.N,GND*%
X98933000Y-62611000D03*
%TD*%
D13*
%TO.P,U3,1,G1*%
%TO.N,GND*%
X92514500Y-76704000D03*
%TO.P,U3,2,A0*%
%TO.N,Net-(J2-Pin_17)*%
X92514500Y-77354000D03*
%TO.P,U3,3,A1*%
%TO.N,Net-(J2-Pin_18)*%
X92514500Y-78004000D03*
%TO.P,U3,4,A2*%
%TO.N,Net-(J2-Pin_19)*%
X92514500Y-78654000D03*
%TO.P,U3,5,A3*%
%TO.N,Net-(J2-Pin_20)*%
X92514500Y-79304000D03*
%TO.P,U3,6,A4*%
%TO.N,Net-(J2-Pin_21)*%
X92514500Y-79954000D03*
%TO.P,U3,7,A5*%
%TO.N,Net-(J2-Pin_22)*%
X92514500Y-80604000D03*
%TO.P,U3,8,A6*%
%TO.N,GND*%
X92514500Y-81254000D03*
%TO.P,U3,9,A7*%
X92514500Y-81904000D03*
%TO.P,U3,10,GND*%
X92514500Y-82554000D03*
%TO.P,U3,11,Y7*%
%TO.N,unconnected-(U3-Y7-Pad11)*%
X98239500Y-82554000D03*
%TO.P,U3,12,Y6*%
%TO.N,unconnected-(U3-Y6-Pad12)*%
X98239500Y-81904000D03*
%TO.P,U3,13,Y5*%
%TO.N,/P22*%
X98239500Y-81254000D03*
%TO.P,U3,14,Y4*%
%TO.N,/P21*%
X98239500Y-80604000D03*
%TO.P,U3,15,Y3*%
%TO.N,/P20*%
X98239500Y-79954000D03*
%TO.P,U3,16,Y2*%
%TO.N,/P19*%
X98239500Y-79304000D03*
%TO.P,U3,17,Y1*%
%TO.N,/P18*%
X98239500Y-78654000D03*
%TO.P,U3,18,Y0*%
%TO.N,/P17*%
X98239500Y-78004000D03*
%TO.P,U3,19,G2*%
%TO.N,GND*%
X98239500Y-77354000D03*
%TO.P,U3,20,VCC*%
%TO.N,+3.3V*%
X98239500Y-76704000D03*
%TD*%
%TO.P,U2,1,G1*%
%TO.N,GND*%
X92514500Y-65782000D03*
%TO.P,U2,2,A0*%
%TO.N,Net-(J2-Pin_9)*%
X92514500Y-66432000D03*
%TO.P,U2,3,A1*%
%TO.N,Net-(J2-Pin_10)*%
X92514500Y-67082000D03*
%TO.P,U2,4,A2*%
%TO.N,Net-(J2-Pin_11)*%
X92514500Y-67732000D03*
%TO.P,U2,5,A3*%
%TO.N,Net-(J2-Pin_12)*%
X92514500Y-68382000D03*
%TO.P,U2,6,A4*%
%TO.N,Net-(J2-Pin_13)*%
X92514500Y-69032000D03*
%TO.P,U2,7,A5*%
%TO.N,Net-(J2-Pin_14)*%
X92514500Y-69682000D03*
%TO.P,U2,8,A6*%
%TO.N,Net-(J2-Pin_15)*%
X92514500Y-70332000D03*
%TO.P,U2,9,A7*%
%TO.N,Net-(J2-Pin_16)*%
X92514500Y-70982000D03*
%TO.P,U2,10,GND*%
%TO.N,GND*%
X92514500Y-71632000D03*
%TO.P,U2,11,Y7*%
%TO.N,/P16*%
X98239500Y-71632000D03*
%TO.P,U2,12,Y6*%
%TO.N,/P15*%
X98239500Y-70982000D03*
%TO.P,U2,13,Y5*%
%TO.N,/P14*%
X98239500Y-70332000D03*
%TO.P,U2,14,Y4*%
%TO.N,/P13*%
X98239500Y-69682000D03*
%TO.P,U2,15,Y3*%
%TO.N,/P12*%
X98239500Y-69032000D03*
%TO.P,U2,16,Y2*%
%TO.N,/P11*%
X98239500Y-68382000D03*
%TO.P,U2,17,Y1*%
%TO.N,/P10*%
X98239500Y-67732000D03*
%TO.P,U2,18,Y0*%
%TO.N,/P9*%
X98239500Y-67082000D03*
%TO.P,U2,19,G2*%
%TO.N,GND*%
X98239500Y-66432000D03*
%TO.P,U2,20,VCC*%
%TO.N,+3.3V*%
X98239500Y-65782000D03*
%TD*%
%TO.P,U1,1,G1*%
%TO.N,GND*%
X92514500Y-51939000D03*
%TO.P,U1,2,A0*%
%TO.N,Net-(J2-Pin_1)*%
X92514500Y-52589000D03*
%TO.P,U1,3,A1*%
%TO.N,Net-(J2-Pin_2)*%
X92514500Y-53239000D03*
%TO.P,U1,4,A2*%
%TO.N,Net-(J2-Pin_3)*%
X92514500Y-53889000D03*
%TO.P,U1,5,A3*%
%TO.N,Net-(J2-Pin_4)*%
X92514500Y-54539000D03*
%TO.P,U1,6,A4*%
%TO.N,Net-(J2-Pin_5)*%
X92514500Y-55189000D03*
%TO.P,U1,7,A5*%
%TO.N,Net-(J2-Pin_6)*%
X92514500Y-55839000D03*
%TO.P,U1,8,A6*%
%TO.N,Net-(J2-Pin_7)*%
X92514500Y-56489000D03*
%TO.P,U1,9,A7*%
%TO.N,Net-(J2-Pin_8)*%
X92514500Y-57139000D03*
%TO.P,U1,10,GND*%
%TO.N,GND*%
X92514500Y-57789000D03*
%TO.P,U1,11,Y7*%
%TO.N,/P8*%
X98239500Y-57789000D03*
%TO.P,U1,12,Y6*%
%TO.N,/P7*%
X98239500Y-57139000D03*
%TO.P,U1,13,Y5*%
%TO.N,/P6*%
X98239500Y-56489000D03*
%TO.P,U1,14,Y4*%
%TO.N,/P5*%
X98239500Y-55839000D03*
%TO.P,U1,15,Y3*%
%TO.N,/P4*%
X98239500Y-55189000D03*
%TO.P,U1,16,Y2*%
%TO.N,/P3*%
X98239500Y-54539000D03*
%TO.P,U1,17,Y1*%
%TO.N,/P2*%
X98239500Y-53889000D03*
%TO.P,U1,18,Y0*%
%TO.N,/P1*%
X98239500Y-53239000D03*
%TO.P,U1,19,G2*%
%TO.N,GND*%
X98239500Y-52589000D03*
%TO.P,U1,20,VCC*%
%TO.N,+3.3V*%
X98239500Y-51939000D03*
%TD*%
D14*
%TO.P,C5,1*%
%TO.N,+3.3V*%
X96700000Y-75311000D03*
%TO.P,C5,2*%
%TO.N,GND*%
X98425000Y-75311000D03*
%TD*%
D15*
%TO.P,D2,1,I/O1*%
%TO.N,/P7*%
X102016000Y-61538000D03*
%TO.P,D2,2,GND*%
%TO.N,GND*%
X102016000Y-62338000D03*
%TO.P,D2,3,I/O2*%
%TO.N,/P10*%
X102016000Y-63138000D03*
%TO.P,D2,4,I/O3*%
%TO.N,/P12*%
X102016000Y-63938000D03*
%TO.P,D2,5,I/O4*%
%TO.N,/P8*%
X102616000Y-61938000D03*
%TO.P,D2,6,I/O5*%
%TO.N,/P9*%
X102616000Y-62738000D03*
%TO.P,D2,7,I/O6*%
%TO.N,/P11*%
X102616000Y-63538000D03*
%TD*%
%TO.P,D3,1,I/O1*%
%TO.N,/P13*%
X102016000Y-69850000D03*
%TO.P,D3,2,GND*%
%TO.N,GND*%
X102016000Y-70650000D03*
%TO.P,D3,3,I/O2*%
%TO.N,/P16*%
X102016000Y-71450000D03*
%TO.P,D3,4,I/O3*%
%TO.N,/P18*%
X102016000Y-72250000D03*
%TO.P,D3,5,I/O4*%
%TO.N,/P14*%
X102616000Y-70250000D03*
%TO.P,D3,6,I/O5*%
%TO.N,/P15*%
X102616000Y-71050000D03*
%TO.P,D3,7,I/O6*%
%TO.N,/P17*%
X102616000Y-71850000D03*
%TD*%
D16*
%TO.P,RN1,1,R1.1*%
%TO.N,/P1*%
X104626000Y-54610000D03*
D17*
%TO.P,RN1,2,R2.1*%
%TO.N,/P2*%
X104626000Y-55410000D03*
%TO.P,RN1,3,R3.1*%
%TO.N,/P3*%
X104626000Y-56210000D03*
D16*
%TO.P,RN1,4,R4.1*%
%TO.N,/P4*%
X104626000Y-57010000D03*
%TO.P,RN1,5,R4.2*%
%TO.N,Net-(J1-Pin_4)*%
X106426000Y-57010000D03*
D17*
%TO.P,RN1,6,R3.2*%
%TO.N,Net-(J1-Pin_3)*%
X106426000Y-56210000D03*
%TO.P,RN1,7,R2.2*%
%TO.N,Net-(J1-Pin_2)*%
X106426000Y-55410000D03*
D16*
%TO.P,RN1,8,R1.2*%
%TO.N,Net-(J1-Pin_1)*%
X106426000Y-54610000D03*
%TD*%
D18*
%TO.P,F1,1*%
%TO.N,Net-(J2-Pin_23)*%
X85064000Y-89408000D03*
%TO.P,F1,2*%
%TO.N,+3.3V*%
X88164000Y-89408000D03*
%TD*%
D19*
%TO.P,J1,1,Pin_1*%
%TO.N,Net-(J1-Pin_1)*%
X109220000Y-54610000D03*
D20*
%TO.P,J1,2,Pin_2*%
%TO.N,Net-(J1-Pin_2)*%
X111760000Y-54610000D03*
%TO.P,J1,3,Pin_3*%
%TO.N,Net-(J1-Pin_3)*%
X109220000Y-57150000D03*
%TO.P,J1,4,Pin_4*%
%TO.N,Net-(J1-Pin_4)*%
X111760000Y-57150000D03*
%TO.P,J1,5,Pin_5*%
%TO.N,Net-(J1-Pin_5)*%
X109220000Y-59690000D03*
%TO.P,J1,6,Pin_6*%
%TO.N,Net-(J1-Pin_6)*%
X111760000Y-59690000D03*
%TO.P,J1,7,Pin_7*%
%TO.N,Net-(J1-Pin_7)*%
X109220000Y-62230000D03*
%TO.P,J1,8,Pin_8*%
%TO.N,Net-(J1-Pin_8)*%
X111760000Y-62230000D03*
%TO.P,J1,9,Pin_9*%
%TO.N,Net-(J1-Pin_9)*%
X109220000Y-64770000D03*
%TO.P,J1,10,Pin_10*%
%TO.N,Net-(J1-Pin_10)*%
X111760000Y-64770000D03*
%TO.P,J1,11,Pin_11*%
%TO.N,Net-(J1-Pin_11)*%
X109220000Y-67310000D03*
%TO.P,J1,12,Pin_12*%
%TO.N,Net-(J1-Pin_12)*%
X111760000Y-67310000D03*
%TO.P,J1,13,Pin_13*%
%TO.N,Net-(J1-Pin_13)*%
X109220000Y-69850000D03*
%TO.P,J1,14,Pin_14*%
%TO.N,Net-(J1-Pin_14)*%
X111760000Y-69850000D03*
%TO.P,J1,15,Pin_15*%
%TO.N,Net-(J1-Pin_15)*%
X109220000Y-72390000D03*
%TO.P,J1,16,Pin_16*%
%TO.N,Net-(J1-Pin_16)*%
X111760000Y-72390000D03*
%TO.P,J1,17,Pin_17*%
%TO.N,Net-(J1-Pin_17)*%
X109220000Y-74930000D03*
%TO.P,J1,18,Pin_18*%
%TO.N,Net-(J1-Pin_18)*%
X111760000Y-74930000D03*
%TO.P,J1,19,Pin_19*%
%TO.N,Net-(J1-Pin_19)*%
X109220000Y-77470000D03*
%TO.P,J1,20,Pin_20*%
%TO.N,Net-(J1-Pin_20)*%
X111760000Y-77470000D03*
%TO.P,J1,21,Pin_21*%
%TO.N,Net-(J1-Pin_21)*%
X109220000Y-80010000D03*
%TO.P,J1,22,Pin_22*%
%TO.N,Net-(J1-Pin_22)*%
X111760000Y-80010000D03*
%TO.P,J1,23,Pin_23*%
%TO.N,+3.3V*%
X109220000Y-82550000D03*
%TO.P,J1,24,Pin_24*%
X111760000Y-82550000D03*
%TO.P,J1,25,Pin_25*%
%TO.N,GND*%
X109220000Y-85090000D03*
%TO.P,J1,26,Pin_26*%
X111760000Y-85090000D03*
%TD*%
D16*
%TO.P,RN5,1,R1.1*%
%TO.N,/P17*%
X104626000Y-74930000D03*
D17*
%TO.P,RN5,2,R2.1*%
%TO.N,/P18*%
X104626000Y-75730000D03*
%TO.P,RN5,3,R3.1*%
%TO.N,/P19*%
X104626000Y-76530000D03*
D16*
%TO.P,RN5,4,R4.1*%
%TO.N,/P20*%
X104626000Y-77330000D03*
%TO.P,RN5,5,R4.2*%
%TO.N,Net-(J1-Pin_20)*%
X106426000Y-77330000D03*
D17*
%TO.P,RN5,6,R3.2*%
%TO.N,Net-(J1-Pin_19)*%
X106426000Y-76530000D03*
%TO.P,RN5,7,R2.2*%
%TO.N,Net-(J1-Pin_18)*%
X106426000Y-75730000D03*
D16*
%TO.P,RN5,8,R1.2*%
%TO.N,Net-(J1-Pin_17)*%
X106426000Y-74930000D03*
%TD*%
%TO.P,RN4,1,R1.1*%
%TO.N,/P13*%
X104626000Y-69850000D03*
D17*
%TO.P,RN4,2,R2.1*%
%TO.N,/P14*%
X104626000Y-70650000D03*
%TO.P,RN4,3,R3.1*%
%TO.N,/P15*%
X104626000Y-71450000D03*
D16*
%TO.P,RN4,4,R4.1*%
%TO.N,/P16*%
X104626000Y-72250000D03*
%TO.P,RN4,5,R4.2*%
%TO.N,Net-(J1-Pin_16)*%
X106426000Y-72250000D03*
D17*
%TO.P,RN4,6,R3.2*%
%TO.N,Net-(J1-Pin_15)*%
X106426000Y-71450000D03*
%TO.P,RN4,7,R2.2*%
%TO.N,Net-(J1-Pin_14)*%
X106426000Y-70650000D03*
D16*
%TO.P,RN4,8,R1.2*%
%TO.N,Net-(J1-Pin_13)*%
X106426000Y-69850000D03*
%TD*%
D15*
%TO.P,D1,1,I/O1*%
%TO.N,/P1*%
X102016000Y-54680000D03*
%TO.P,D1,2,GND*%
%TO.N,GND*%
X102016000Y-55480000D03*
%TO.P,D1,3,I/O2*%
%TO.N,/P4*%
X102016000Y-56280000D03*
%TO.P,D1,4,I/O3*%
%TO.N,/P6*%
X102016000Y-57080000D03*
%TO.P,D1,5,I/O4*%
%TO.N,/P2*%
X102616000Y-55080000D03*
%TO.P,D1,6,I/O5*%
%TO.N,/P3*%
X102616000Y-55880000D03*
%TO.P,D1,7,I/O6*%
%TO.N,/P5*%
X102616000Y-56680000D03*
%TD*%
D14*
%TO.P,C1,1*%
%TO.N,+3.3V*%
X96700000Y-50546000D03*
%TO.P,C1,2*%
%TO.N,GND*%
X98425000Y-50546000D03*
%TD*%
D16*
%TO.P,RN2,1,R1.1*%
%TO.N,/P5*%
X104648000Y-59690000D03*
D17*
%TO.P,RN2,2,R2.1*%
%TO.N,/P6*%
X104648000Y-60490000D03*
%TO.P,RN2,3,R3.1*%
%TO.N,/P7*%
X104648000Y-61290000D03*
D16*
%TO.P,RN2,4,R4.1*%
%TO.N,/P8*%
X104648000Y-62090000D03*
%TO.P,RN2,5,R4.2*%
%TO.N,Net-(J1-Pin_8)*%
X106448000Y-62090000D03*
D17*
%TO.P,RN2,6,R3.2*%
%TO.N,Net-(J1-Pin_7)*%
X106448000Y-61290000D03*
%TO.P,RN2,7,R2.2*%
%TO.N,Net-(J1-Pin_6)*%
X106448000Y-60490000D03*
D16*
%TO.P,RN2,8,R1.2*%
%TO.N,Net-(J1-Pin_5)*%
X106448000Y-59690000D03*
%TD*%
%TO.P,RN3,1,R1.1*%
%TO.N,/P9*%
X104626000Y-64770000D03*
D17*
%TO.P,RN3,2,R2.1*%
%TO.N,/P10*%
X104626000Y-65570000D03*
%TO.P,RN3,3,R3.1*%
%TO.N,/P11*%
X104626000Y-66370000D03*
D16*
%TO.P,RN3,4,R4.1*%
%TO.N,/P12*%
X104626000Y-67170000D03*
%TO.P,RN3,5,R4.2*%
%TO.N,Net-(J1-Pin_12)*%
X106426000Y-67170000D03*
D17*
%TO.P,RN3,6,R3.2*%
%TO.N,Net-(J1-Pin_11)*%
X106426000Y-66370000D03*
%TO.P,RN3,7,R2.2*%
%TO.N,Net-(J1-Pin_10)*%
X106426000Y-65570000D03*
D16*
%TO.P,RN3,8,R1.2*%
%TO.N,Net-(J1-Pin_9)*%
X106426000Y-64770000D03*
%TD*%
D12*
%TO.P,C6,1*%
%TO.N,+3.3V*%
X96774000Y-73533000D03*
%TO.P,C6,2*%
%TO.N,GND*%
X98849000Y-73533000D03*
%TD*%
%TO.P,C2,1*%
%TO.N,+3.3V*%
X96731000Y-48768000D03*
%TO.P,C2,2*%
%TO.N,GND*%
X98806000Y-48768000D03*
%TD*%
D16*
%TO.P,RN6,1,R1.1*%
%TO.N,/P21*%
X104626000Y-80010000D03*
D17*
%TO.P,RN6,2,R2.1*%
%TO.N,/P22*%
X104626000Y-80810000D03*
%TO.P,RN6,3,R3.1*%
%TO.N,unconnected-(RN6-R3.1-Pad3)*%
X104626000Y-81610000D03*
D16*
%TO.P,RN6,4,R4.1*%
%TO.N,unconnected-(RN6-R4.1-Pad4)*%
X104626000Y-82410000D03*
%TO.P,RN6,5,R4.2*%
%TO.N,unconnected-(RN6-R4.2-Pad5)*%
X106426000Y-82410000D03*
D17*
%TO.P,RN6,6,R3.2*%
%TO.N,unconnected-(RN6-R3.2-Pad6)*%
X106426000Y-81610000D03*
%TO.P,RN6,7,R2.2*%
%TO.N,Net-(J1-Pin_22)*%
X106426000Y-80810000D03*
D16*
%TO.P,RN6,8,R1.2*%
%TO.N,Net-(J1-Pin_21)*%
X106426000Y-80010000D03*
%TD*%
D14*
%TO.P,C3,1*%
%TO.N,+3.3V*%
X96800500Y-64389000D03*
%TO.P,C3,2*%
%TO.N,GND*%
X98525500Y-64389000D03*
%TD*%
D15*
%TO.P,D4,1,I/O1*%
%TO.N,/P19*%
X101981000Y-78740000D03*
%TO.P,D4,2,GND*%
%TO.N,GND*%
X101981000Y-79540000D03*
%TO.P,D4,3,I/O2*%
%TO.N,/P22*%
X101981000Y-80340000D03*
%TO.P,D4,4,I/O3*%
%TO.N,+3.3V*%
X101981000Y-81140000D03*
%TO.P,D4,5,I/O4*%
%TO.N,/P20*%
X102581000Y-79140000D03*
%TO.P,D4,6,I/O5*%
%TO.N,/P21*%
X102581000Y-79940000D03*
%TO.P,D4,7,I/O6*%
%TO.N,+3.3V*%
X102581000Y-80740000D03*
%TD*%
D21*
%TO.N,GND*%
X98298000Y-63627000D03*
X98298000Y-74549000D03*
X93218000Y-75692000D03*
X103998286Y-79205431D03*
X92583000Y-83566000D03*
X92583000Y-72771000D03*
X100571878Y-55130122D03*
X100711000Y-79502000D03*
X99060000Y-63627000D03*
X99060000Y-49784000D03*
X92964000Y-50800000D03*
X100584000Y-70612000D03*
X100457000Y-62230000D03*
X93218000Y-64516000D03*
X92583000Y-58801000D03*
X98298000Y-49784000D03*
X99314000Y-74549000D03*
%TD*%
D22*
%TO.N,GND*%
X98806000Y-62484000D02*
X98806000Y-60452000D01*
X98933000Y-62611000D02*
X99314000Y-62230000D01*
X99314000Y-62230000D02*
X100330000Y-62230000D01*
X100076000Y-50546000D02*
X100330000Y-50292000D01*
X100330000Y-48768000D02*
X98806000Y-48768000D01*
X98425000Y-50546000D02*
X100076000Y-50546000D01*
X100330000Y-50292000D02*
X100330000Y-48768000D01*
X98298000Y-63246000D02*
X98298000Y-64008000D01*
X98933000Y-62611000D02*
X98298000Y-63246000D01*
X98298000Y-64008000D02*
X98552000Y-64262000D01*
X99060000Y-63627000D02*
X98933000Y-63500000D01*
X98933000Y-63500000D02*
X98933000Y-62611000D01*
X99060000Y-63627000D02*
X98552000Y-64135000D01*
X98552000Y-64135000D02*
X98552000Y-64389000D01*
D23*
%TO.N,/P9*%
X102616000Y-62738000D02*
X100938950Y-62738000D01*
X100334314Y-62930000D02*
X99803000Y-63461315D01*
X100938950Y-62738000D02*
X100746950Y-62930000D01*
X99060000Y-67056000D02*
X99803000Y-66312999D01*
X100746950Y-62930000D02*
X100334314Y-62930000D01*
X99803000Y-63461315D02*
X99803000Y-66312999D01*
D22*
%TO.N,GND*%
X99314000Y-75184000D02*
X98298000Y-75184000D01*
X99314000Y-74168000D02*
X99314000Y-75184000D01*
X98806000Y-73660000D02*
X99314000Y-74168000D01*
X98298000Y-75184000D02*
X98298000Y-74168000D01*
X98298000Y-74168000D02*
X98806000Y-73660000D01*
D23*
X98239500Y-52589000D02*
X100319000Y-52589000D01*
X100319000Y-52589000D02*
X100330000Y-52578000D01*
D24*
%TO.N,+3.3V*%
X102616000Y-81153000D02*
X102616000Y-83820000D01*
X88519000Y-89408000D02*
X91694000Y-89408000D01*
X91694000Y-89408000D02*
X97028000Y-84074000D01*
X97028000Y-84074000D02*
X107569000Y-84074000D01*
%TO.N,Net-(J2-Pin_23)*%
X82524000Y-87858000D02*
X82524000Y-84100000D01*
D25*
%TO.N,Net-(J2-Pin_22)*%
X89662000Y-80010000D02*
X90170000Y-80518000D01*
X86614000Y-80010000D02*
X89662000Y-80010000D01*
X90170000Y-80518000D02*
X92710000Y-80518000D01*
%TO.N,Net-(J2-Pin_21)*%
X84074000Y-80010000D02*
X85344000Y-78740000D01*
X85344000Y-78740000D02*
X89154000Y-78740000D01*
X89154000Y-78740000D02*
X90293000Y-79879000D01*
X90293000Y-79879000D02*
X92456000Y-79879000D01*
%TO.N,Net-(J2-Pin_20)*%
X86614000Y-77470000D02*
X88646000Y-77470000D01*
X88646000Y-77470000D02*
X90605000Y-79429000D01*
X90605000Y-79429000D02*
X92710000Y-79429000D01*
%TO.N,Net-(J2-Pin_19)*%
X84074000Y-77470000D02*
X85344000Y-76200000D01*
X85344000Y-76200000D02*
X88389208Y-76200000D01*
X88389208Y-76200000D02*
X90718208Y-78529000D01*
X90718208Y-78529000D02*
X92710000Y-78529000D01*
%TO.N,Net-(J2-Pin_18)*%
X89662000Y-75692000D02*
X88900000Y-74930000D01*
X90829604Y-78004000D02*
X89662000Y-76836396D01*
X92514500Y-78004000D02*
X90829604Y-78004000D01*
X89662000Y-76836396D02*
X89662000Y-75692000D01*
X88900000Y-74930000D02*
X86614000Y-74930000D01*
%TO.N,Net-(J2-Pin_17)*%
X85249000Y-73755000D02*
X88995000Y-73755000D01*
X88995000Y-73755000D02*
X90170000Y-74930000D01*
X90170000Y-74930000D02*
X90170000Y-76708000D01*
X90170000Y-76708000D02*
X90932000Y-77470000D01*
X84074000Y-74930000D02*
X85249000Y-73755000D01*
X90932000Y-77470000D02*
X92710000Y-77470000D01*
%TO.N,Net-(J2-Pin_16)*%
X89800000Y-70982000D02*
X88392000Y-72390000D01*
X88392000Y-72390000D02*
X86614000Y-72390000D01*
X92514500Y-70982000D02*
X89800000Y-70982000D01*
%TO.N,Net-(J2-Pin_15)*%
X88297000Y-71215000D02*
X89154000Y-70358000D01*
X85249000Y-71215000D02*
X88297000Y-71215000D01*
X89154000Y-70358000D02*
X92456000Y-70358000D01*
%TO.N,Net-(J2-Pin_14)*%
X92514500Y-69682000D02*
X86782000Y-69682000D01*
%TO.N,Net-(J2-Pin_13)*%
X89662000Y-68580000D02*
X90170000Y-69088000D01*
X85344000Y-68580000D02*
X89662000Y-68580000D01*
X90170000Y-69088000D02*
X92964000Y-69088000D01*
%TO.N,Net-(J2-Pin_12)*%
X90226000Y-68382000D02*
X89154000Y-67310000D01*
X89154000Y-67310000D02*
X86614000Y-67310000D01*
X92514500Y-68382000D02*
X90226000Y-68382000D01*
%TO.N,Net-(J2-Pin_11)*%
X88900000Y-66040000D02*
X90678000Y-67818000D01*
X85344000Y-66040000D02*
X88900000Y-66040000D01*
X90678000Y-67818000D02*
X92710000Y-67818000D01*
%TO.N,Net-(J2-Pin_10)*%
X90170000Y-65786000D02*
X89154000Y-64770000D01*
X91083604Y-67082000D02*
X90170000Y-66168396D01*
X92514500Y-67082000D02*
X91083604Y-67082000D01*
X90170000Y-66168396D02*
X90170000Y-65786000D01*
X89154000Y-64770000D02*
X86614000Y-64770000D01*
%TO.N,Net-(J2-Pin_9)*%
X90678000Y-66040000D02*
X90945000Y-66307000D01*
X90170000Y-63500000D02*
X90678000Y-64008000D01*
X90678000Y-64008000D02*
X90678000Y-66040000D01*
X90945000Y-66307000D02*
X92710000Y-66307000D01*
X85344000Y-63500000D02*
X90170000Y-63500000D01*
%TO.N,Net-(J2-Pin_7)*%
X92514500Y-56489000D02*
X89815000Y-56489000D01*
X89815000Y-56489000D02*
X89102198Y-57201802D01*
X89102198Y-59105406D02*
X87247604Y-60960000D01*
X89102198Y-57201802D02*
X89102198Y-59105406D01*
X85344000Y-60960000D02*
X87247604Y-60960000D01*
%TO.N,Net-(J2-Pin_8)*%
X89552198Y-57767802D02*
X89552198Y-59291802D01*
X92514500Y-57139000D02*
X90181000Y-57139000D01*
X89552198Y-59291802D02*
X86614000Y-62230000D01*
X90181000Y-57139000D02*
X89552198Y-57767802D01*
%TO.N,Net-(J2-Pin_6)*%
X86614000Y-59690000D02*
X88652198Y-57651802D01*
X88652198Y-57651802D02*
X88652198Y-56388000D01*
X92514500Y-55839000D02*
X89201198Y-55839000D01*
X89201198Y-55839000D02*
X88652198Y-56388000D01*
%TO.N,Net-(J2-Pin_3)*%
X84074000Y-57150000D02*
X85344000Y-55880000D01*
X87005701Y-55880000D02*
X89037701Y-53848000D01*
X85344000Y-55880000D02*
X87005701Y-55880000D01*
X89037701Y-53848000D02*
X92710000Y-53848000D01*
%TO.N,Net-(J2-Pin_5)*%
X88202198Y-57223503D02*
X87005701Y-58420000D01*
X88202198Y-56198198D02*
X88202198Y-57223503D01*
X92514500Y-55189000D02*
X89211396Y-55189000D01*
X89211396Y-55189000D02*
X88202198Y-56198198D01*
X85344000Y-58420000D02*
X87005701Y-58420000D01*
%TO.N,Net-(J2-Pin_4)*%
X92514500Y-54539000D02*
X89225000Y-54539000D01*
X89225000Y-54539000D02*
X86614000Y-57150000D01*
%TO.N,Net-(J2-Pin_2)*%
X87985000Y-53239000D02*
X86614000Y-54610000D01*
X92514500Y-53239000D02*
X87985000Y-53239000D01*
%TO.N,Net-(J2-Pin_1)*%
X84825000Y-52589000D02*
X84074000Y-53340000D01*
X92514500Y-52589000D02*
X84825000Y-52589000D01*
X84074000Y-53340000D02*
X84074000Y-54610000D01*
%TO.N,Net-(J2-Pin_7)*%
X85344000Y-60960000D02*
X84074000Y-62230000D01*
%TO.N,Net-(J2-Pin_5)*%
X85344000Y-58420000D02*
X84074000Y-59690000D01*
D23*
%TO.N,/P12*%
X98239500Y-69032000D02*
X99173686Y-69032000D01*
X99173686Y-69032000D02*
X101003000Y-67202686D01*
X101003000Y-67202686D02*
X101003000Y-64371006D01*
X101003000Y-64371006D02*
X101436006Y-63938000D01*
X101436006Y-63938000D02*
X101600000Y-63938000D01*
%TO.N,/P11*%
X100603000Y-63862000D02*
X100603000Y-67037000D01*
X101270322Y-63538000D02*
X101054321Y-63754000D01*
X101054321Y-63754000D02*
X100711000Y-63754000D01*
X100711000Y-63754000D02*
X100603000Y-63862000D01*
X99314000Y-68326000D02*
X100603000Y-67037000D01*
%TO.N,/P10*%
X100912636Y-63330000D02*
X100500000Y-63330000D01*
X98949686Y-67732000D02*
X98239500Y-67732000D01*
X101104636Y-63138000D02*
X100912636Y-63330000D01*
X100203000Y-63627000D02*
X100203000Y-66478685D01*
X101104636Y-63138000D02*
X102016000Y-63138000D01*
X100500000Y-63330000D02*
X100203000Y-63627000D01*
X100203000Y-66478685D02*
X98949686Y-67732000D01*
%TO.N,GND*%
X99277000Y-66273314D02*
X99277000Y-64987000D01*
X99118314Y-66432000D02*
X99277000Y-66273314D01*
X99277000Y-64987000D02*
X98679000Y-64389000D01*
X98239500Y-66432000D02*
X99118314Y-66432000D01*
D24*
%TO.N,+3.3V*%
X96731000Y-48768000D02*
X96731000Y-84412000D01*
D23*
%TO.N,GND*%
X99568000Y-75438000D02*
X99441000Y-75311000D01*
X99441000Y-75311000D02*
X98552000Y-75311000D01*
X99568000Y-76678685D02*
X99568000Y-75438000D01*
X98239500Y-77354000D02*
X98892685Y-77354000D01*
X98892685Y-77354000D02*
X99568000Y-76678685D01*
D22*
%TO.N,+3.3V*%
X98239500Y-76704000D02*
X96778000Y-76704000D01*
X98239500Y-51939000D02*
X96651000Y-51939000D01*
X98239500Y-65782000D02*
X96778000Y-65782000D01*
%TO.N,GND*%
X98806000Y-50165000D02*
X98425000Y-50546000D01*
X98806000Y-48768000D02*
X98806000Y-49784000D01*
X98806000Y-49784000D02*
X98806000Y-50165000D01*
X98425000Y-74889000D02*
X98425000Y-75311000D01*
D23*
%TO.N,/P22*%
X101981000Y-80340000D02*
X101428636Y-80340000D01*
X101428636Y-80340000D02*
X101123635Y-80645000D01*
X99822000Y-80645000D02*
X99187000Y-81280000D01*
X101123635Y-80645000D02*
X99822000Y-80645000D01*
X99187000Y-81280000D02*
X98171000Y-81280000D01*
%TO.N,/P21*%
X101262950Y-79940000D02*
X101000950Y-80202000D01*
X99630000Y-80202000D02*
X99187000Y-80645000D01*
X101000950Y-80202000D02*
X99630000Y-80202000D01*
X99187000Y-80645000D02*
X98298000Y-80645000D01*
%TO.N,/P17*%
X100184000Y-76712685D02*
X98918685Y-77978000D01*
X100184000Y-73216822D02*
X100184000Y-76712685D01*
X98918685Y-77978000D02*
X98298000Y-77978000D01*
%TO.N,/P18*%
X100603000Y-77197000D02*
X99187000Y-78613000D01*
X100603000Y-73363508D02*
X100603000Y-77197000D01*
X99187000Y-78613000D02*
X98171000Y-78613000D01*
%TO.N,/P19*%
X101981000Y-78740000D02*
X101504636Y-78740000D01*
X101504636Y-78740000D02*
X101166635Y-78402000D01*
X101166635Y-78402000D02*
X100160000Y-78402000D01*
X99314000Y-79248000D02*
X98171000Y-79248000D01*
X100160000Y-78402000D02*
X99314000Y-79248000D01*
%TO.N,/P20*%
X102581000Y-79140000D02*
X101338950Y-79140000D01*
X101338950Y-79140000D02*
X101000950Y-78802000D01*
X101000950Y-78802000D02*
X100395000Y-78802000D01*
X100395000Y-78802000D02*
X99187000Y-80010000D01*
X99187000Y-80010000D02*
X98298000Y-80010000D01*
%TO.N,/P12*%
X101543000Y-63938000D02*
X101854000Y-63938000D01*
%TO.N,/P11*%
X102616000Y-63538000D02*
X101270322Y-63538000D01*
X99314000Y-68326000D02*
X98298000Y-68326000D01*
%TO.N,/P9*%
X99060000Y-67056000D02*
X98171000Y-67056000D01*
%TO.N,/P13*%
X99779000Y-69512000D02*
X99568000Y-69723000D01*
X99568000Y-69723000D02*
X98044000Y-69723000D01*
X101473000Y-69850000D02*
X101135000Y-69512000D01*
X101135000Y-69512000D02*
X99779000Y-69512000D01*
%TO.N,/P14*%
X100141000Y-69912000D02*
X99695000Y-70358000D01*
X101211950Y-70250000D02*
X100873950Y-69912000D01*
X99695000Y-70358000D02*
X98171000Y-70358000D01*
X100873950Y-69912000D02*
X100141000Y-69912000D01*
%TO.N,/P16*%
X99525000Y-71712000D02*
X99441000Y-71628000D01*
X101385136Y-71450000D02*
X101123135Y-71712000D01*
X101123135Y-71712000D02*
X99525000Y-71712000D01*
X99441000Y-71628000D02*
X98171000Y-71628000D01*
%TO.N,/P15*%
X99760000Y-71312000D02*
X99441000Y-70993000D01*
X101219450Y-71050000D02*
X100957450Y-71312000D01*
X100957450Y-71312000D02*
X99760000Y-71312000D01*
X99441000Y-70993000D02*
X98171000Y-70993000D01*
%TO.N,/P1*%
X102016000Y-54680000D02*
X100549000Y-53213000D01*
X100549000Y-53213000D02*
X98044000Y-53213000D01*
%TO.N,/P2*%
X101511706Y-55080000D02*
X103467000Y-55080000D01*
X101511706Y-55080000D02*
X100279706Y-53848000D01*
X100279706Y-53848000D02*
X98044000Y-53848000D01*
%TO.N,/P7*%
X101092000Y-61087000D02*
X101092000Y-59182000D01*
X101092000Y-59182000D02*
X99060000Y-57150000D01*
X99071629Y-57150000D02*
X98298000Y-57150000D01*
%TO.N,/P6*%
X104648000Y-60490000D02*
X104048000Y-60490000D01*
X99567314Y-57080000D02*
X98875314Y-56388000D01*
X104048000Y-60490000D02*
X103251000Y-59693000D01*
X103251000Y-57531000D02*
X102800000Y-57080000D01*
X102800000Y-57080000D02*
X99567314Y-57080000D01*
X103251000Y-59693000D02*
X103251000Y-57531000D01*
X98875314Y-56388000D02*
X98044000Y-56388000D01*
%TO.N,/P5*%
X104648000Y-59690000D02*
X104140000Y-59690000D01*
X104140000Y-59690000D02*
X103759000Y-59309000D01*
X103759000Y-57392372D02*
X103046628Y-56680000D01*
X103046628Y-56680000D02*
X99733000Y-56680000D01*
X103759000Y-59309000D02*
X103759000Y-57392372D01*
X99733000Y-56680000D02*
X98806000Y-55753000D01*
%TO.N,/P4*%
X104626000Y-57010000D02*
X103942314Y-57010000D01*
X103212314Y-56280000D02*
X100166120Y-56280000D01*
X103942314Y-57010000D02*
X103212314Y-56280000D01*
X100166120Y-56280000D02*
X99004120Y-55118000D01*
X99004120Y-55118000D02*
X98044000Y-55118000D01*
%TO.N,/P3*%
X99871878Y-54840172D02*
X99514706Y-54483000D01*
X103378000Y-55880000D02*
X100331806Y-55880000D01*
X100331806Y-55880000D02*
X99871878Y-55420072D01*
X99871878Y-55420072D02*
X99871878Y-54840172D01*
X99514706Y-54483000D02*
X98044000Y-54483000D01*
%TO.N,/P7*%
X102016000Y-61538000D02*
X101543000Y-61538000D01*
X101543000Y-61538000D02*
X101092000Y-61087000D01*
%TO.N,/P8*%
X104648000Y-62090000D02*
X103492000Y-62090000D01*
X103492000Y-62090000D02*
X103340000Y-61938000D01*
X100584000Y-59309000D02*
X99060000Y-57785000D01*
X103340000Y-61938000D02*
X101181000Y-61938000D01*
X99060000Y-57785000D02*
X98298000Y-57785000D01*
X101181000Y-61938000D02*
X100584000Y-61341000D01*
X100584000Y-61341000D02*
X100584000Y-59309000D01*
%TO.N,/P1*%
X104626000Y-54610000D02*
X101854000Y-54610000D01*
%TO.N,/P2*%
X103797000Y-55410000D02*
X103467000Y-55080000D01*
X104626000Y-55410000D02*
X103797000Y-55410000D01*
%TO.N,/P3*%
X103708000Y-56210000D02*
X103378000Y-55880000D01*
X104626000Y-56210000D02*
X103708000Y-56210000D01*
%TO.N,/P7*%
X102667000Y-61290000D02*
X102419000Y-61538000D01*
X104648000Y-61290000D02*
X102667000Y-61290000D01*
%TO.N,/P9*%
X103378000Y-62738000D02*
X104648000Y-64008000D01*
X102616000Y-62738000D02*
X103378000Y-62738000D01*
X104648000Y-64008000D02*
X104648000Y-64770000D01*
%TO.N,/P10*%
X104626000Y-65570000D02*
X104026000Y-65570000D01*
X103759000Y-65303000D02*
X103759000Y-63684686D01*
X104026000Y-65570000D02*
X103759000Y-65303000D01*
X103759000Y-63684686D02*
X103212314Y-63138000D01*
X103212314Y-63138000D02*
X101981000Y-63138000D01*
%TO.N,/P11*%
X104311314Y-66421000D02*
X104648000Y-66421000D01*
X103359000Y-64281000D02*
X103359000Y-65468686D01*
X103359000Y-65468686D02*
X104311314Y-66421000D01*
X102616000Y-63538000D02*
X103359000Y-64281000D01*
%TO.N,/P12*%
X104626000Y-67170000D02*
X104026000Y-67170000D01*
X102743000Y-64389000D02*
X102292000Y-63938000D01*
X102743000Y-65887000D02*
X102743000Y-64389000D01*
X104026000Y-67170000D02*
X102743000Y-65887000D01*
X102292000Y-63938000D02*
X102108000Y-63938000D01*
%TO.N,/P13*%
X101473000Y-69850000D02*
X104648000Y-69850000D01*
%TO.N,/P14*%
X104626000Y-70650000D02*
X103905000Y-70650000D01*
X103505000Y-70250000D02*
X101211950Y-70250000D01*
X103905000Y-70650000D02*
X103505000Y-70250000D01*
%TO.N,/P15*%
X102616000Y-71050000D02*
X103926000Y-71050000D01*
X103926000Y-71050000D02*
X104377000Y-71501000D01*
X102616000Y-71050000D02*
X101219450Y-71050000D01*
%TO.N,/P16*%
X103454000Y-71450000D02*
X104267000Y-72263000D01*
X102016000Y-71450000D02*
X103454000Y-71450000D01*
X102016000Y-71450000D02*
X101385136Y-71450000D01*
X104267000Y-72263000D02*
X104648000Y-72263000D01*
%TO.N,/P17*%
X102616000Y-71850000D02*
X101550822Y-71850000D01*
X103886000Y-72447686D02*
X103288314Y-71850000D01*
X104394000Y-74930000D02*
X103886000Y-74422000D01*
X103886000Y-74422000D02*
X103886000Y-72447686D01*
X103288314Y-71850000D02*
X102489000Y-71850000D01*
X101550822Y-71850000D02*
X100184000Y-73216822D01*
%TO.N,/P18*%
X104626000Y-75730000D02*
X104026000Y-75730000D01*
X102870000Y-72263000D02*
X101981000Y-72263000D01*
X101716508Y-72250000D02*
X100603000Y-73363508D01*
X103378000Y-75082000D02*
X103378000Y-72771000D01*
X104026000Y-75730000D02*
X103378000Y-75082000D01*
X103378000Y-72771000D02*
X102870000Y-72263000D01*
X102016000Y-72250000D02*
X101716508Y-72250000D01*
%TO.N,/P19*%
X102362000Y-78740000D02*
X101981000Y-78740000D01*
X104626000Y-76530000D02*
X104026000Y-76530000D01*
X102997000Y-77559000D02*
X102997000Y-78105000D01*
X104026000Y-76530000D02*
X102997000Y-77559000D01*
X102997000Y-78105000D02*
X102362000Y-78740000D01*
%TO.N,/P20*%
X103086000Y-79121000D02*
X102489000Y-79121000D01*
X103397000Y-78848000D02*
X103105000Y-79140000D01*
X103918000Y-77330000D02*
X103918000Y-77692000D01*
X104626000Y-77330000D02*
X103918000Y-77330000D01*
X103918000Y-77692000D02*
X103397000Y-78213000D01*
X103397000Y-78213000D02*
X103397000Y-78848000D01*
X103105000Y-79140000D02*
X103086000Y-79121000D01*
%TO.N,/P21*%
X104556000Y-79940000D02*
X102489000Y-79940000D01*
X102581000Y-79940000D02*
X101262950Y-79940000D01*
%TO.N,/P22*%
X104626000Y-80810000D02*
X103543000Y-80810000D01*
X103073000Y-80340000D02*
X101956000Y-80340000D01*
X103543000Y-80810000D02*
X103073000Y-80340000D01*
D24*
%TO.N,+3.3V*%
X102616000Y-81153000D02*
X102603000Y-81140000D01*
X109093000Y-82550000D02*
X107569000Y-84074000D01*
X111760000Y-82550000D02*
X109093000Y-82550000D01*
X102603000Y-81140000D02*
X102235000Y-81140000D01*
D23*
%TO.N,GND*%
X101981000Y-79540000D02*
X100749000Y-79540000D01*
X100457000Y-62230000D02*
X100649752Y-62338000D01*
X100649752Y-62338000D02*
X102016000Y-62338000D01*
X103663717Y-79540000D02*
X103998286Y-79205431D01*
X100584000Y-70612000D02*
X100622000Y-70650000D01*
X101981000Y-79540000D02*
X103663717Y-79540000D01*
X102016000Y-55480000D02*
X100921756Y-55480000D01*
X100749000Y-79540000D02*
X100711000Y-79502000D01*
X100584000Y-70612000D02*
X100629500Y-70650000D01*
X100622000Y-70650000D02*
X102108000Y-70650000D01*
X100921756Y-55480000D02*
X100571878Y-55130122D01*
D25*
%TO.N,Net-(J2-Pin_9)*%
X85344000Y-63500000D02*
X84074000Y-64770000D01*
%TO.N,Net-(J2-Pin_11)*%
X85344000Y-66040000D02*
X84074000Y-67310000D01*
%TO.N,Net-(J2-Pin_13)*%
X84074000Y-69850000D02*
X85344000Y-68580000D01*
%TO.N,Net-(J2-Pin_15)*%
X85249000Y-71215000D02*
X84074000Y-72390000D01*
D24*
%TO.N,Net-(J2-Pin_23)*%
X82524000Y-84100000D02*
X84074000Y-82550000D01*
X84074000Y-89408000D02*
X82524000Y-87858000D01*
X84074000Y-82550000D02*
X86614000Y-82550000D01*
X85064000Y-89408000D02*
X84074000Y-89408000D01*
D25*
%TO.N,Net-(J1-Pin_1)*%
X109220000Y-54610000D02*
X106426000Y-54610000D01*
D26*
%TO.N,Net-(J1-Pin_2)*%
X110510000Y-55860000D02*
X111760000Y-54610000D01*
X107933472Y-55372000D02*
X106172000Y-55372000D01*
X108421472Y-55860000D02*
X107933472Y-55372000D01*
X110510000Y-55860000D02*
X108421472Y-55860000D01*
D25*
%TO.N,Net-(J1-Pin_3)*%
X107950000Y-57150000D02*
X107061000Y-56261000D01*
X107061000Y-56261000D02*
X106299000Y-56261000D01*
X109220000Y-57150000D02*
X107950000Y-57150000D01*
D26*
%TO.N,Net-(J1-Pin_4)*%
X110510000Y-58400000D02*
X108057000Y-58400000D01*
X110510000Y-58400000D02*
X111760000Y-57150000D01*
X108057000Y-58400000D02*
X106680000Y-57023000D01*
X106680000Y-57023000D02*
X106426000Y-57023000D01*
D25*
%TO.N,Net-(J1-Pin_5)*%
X109220000Y-59690000D02*
X106426000Y-59690000D01*
D26*
%TO.N,Net-(J1-Pin_6)*%
X110510000Y-60940000D02*
X111760000Y-59690000D01*
X106781752Y-60452000D02*
X106426000Y-60452000D01*
X110510000Y-60940000D02*
X107269752Y-60940000D01*
X107269752Y-60940000D02*
X106781752Y-60452000D01*
D25*
%TO.N,Net-(J1-Pin_7)*%
X106999000Y-61341000D02*
X106299000Y-61341000D01*
X107823000Y-62230000D02*
X107823000Y-62165000D01*
X107823000Y-62165000D02*
X106999000Y-61341000D01*
X109220000Y-62230000D02*
X107823000Y-62230000D01*
D26*
%TO.N,Net-(J1-Pin_8)*%
X110510000Y-63480000D02*
X111760000Y-62230000D01*
X108057000Y-63480000D02*
X106680000Y-62103000D01*
X110510000Y-63480000D02*
X108057000Y-63480000D01*
D25*
%TO.N,Net-(J1-Pin_9)*%
X109220000Y-64770000D02*
X106426000Y-64770000D01*
D26*
%TO.N,Net-(J1-Pin_10)*%
X110510000Y-66020000D02*
X111760000Y-64770000D01*
X106843752Y-65532000D02*
X106426000Y-65532000D01*
X107331752Y-66020000D02*
X106843752Y-65532000D01*
X110510000Y-66020000D02*
X107331752Y-66020000D01*
D25*
%TO.N,Net-(J1-Pin_11)*%
X107950000Y-67310000D02*
X107061000Y-66421000D01*
X109220000Y-67310000D02*
X107950000Y-67310000D01*
X107061000Y-66421000D02*
X106299000Y-66421000D01*
D26*
%TO.N,Net-(J1-Pin_12)*%
X110510000Y-68560000D02*
X111760000Y-67310000D01*
X110510000Y-68560000D02*
X108057000Y-68560000D01*
X108057000Y-68560000D02*
X106680000Y-67183000D01*
X106680000Y-67183000D02*
X106426000Y-67183000D01*
D25*
%TO.N,Net-(J1-Pin_13)*%
X109220000Y-69850000D02*
X106426000Y-69850000D01*
D26*
%TO.N,Net-(J1-Pin_14)*%
X107287752Y-71140000D02*
X106759752Y-70612000D01*
X110470000Y-71140000D02*
X107287752Y-71140000D01*
X106759752Y-70612000D02*
X106299000Y-70612000D01*
X110470000Y-71140000D02*
X111760000Y-69850000D01*
D25*
%TO.N,Net-(J1-Pin_15)*%
X109220000Y-72390000D02*
X107866000Y-72390000D01*
X107866000Y-72390000D02*
X106955500Y-71479500D01*
X106977000Y-71501000D02*
X106299000Y-71501000D01*
D26*
%TO.N,Net-(J1-Pin_16)*%
X107972000Y-73680000D02*
X106555000Y-72263000D01*
X110470000Y-73680000D02*
X111760000Y-72390000D01*
X107972000Y-73680000D02*
X110470000Y-73680000D01*
D25*
%TO.N,Net-(J1-Pin_17)*%
X109220000Y-74930000D02*
X106299000Y-74930000D01*
D26*
%TO.N,Net-(J1-Pin_18)*%
X108478000Y-76220000D02*
X107950000Y-75692000D01*
X107950000Y-75692000D02*
X106299000Y-75692000D01*
X111760000Y-74930000D02*
X110470000Y-76220000D01*
X110470000Y-76220000D02*
X108478000Y-76220000D01*
D25*
%TO.N,Net-(J1-Pin_19)*%
X109220000Y-77470000D02*
X108194695Y-77470000D01*
X108194695Y-77470000D02*
X107305695Y-76581000D01*
X107305695Y-76581000D02*
X106299000Y-76581000D01*
D26*
%TO.N,Net-(J1-Pin_20)*%
X107395943Y-77343000D02*
X106426000Y-77343000D01*
X110490000Y-78740000D02*
X108792943Y-78740000D01*
X110490000Y-78740000D02*
X111760000Y-77470000D01*
X108792943Y-78740000D02*
X107395943Y-77343000D01*
D25*
%TO.N,Net-(J1-Pin_21)*%
X109220000Y-80010000D02*
X106426000Y-80010000D01*
D26*
%TO.N,Net-(J1-Pin_22)*%
X108331000Y-81280000D02*
X107823000Y-80772000D01*
X110490000Y-81280000D02*
X111760000Y-80010000D01*
X110490000Y-81280000D02*
X108331000Y-81280000D01*
X107823000Y-80772000D02*
X106299000Y-80772000D01*
%TD*%
%TA.AperFunction,Conductor*%
%TO.N,GND*%
G36*
X110909208Y-83469407D02*
G01*
X110921020Y-83479496D01*
X110938145Y-83496620D01*
X110953123Y-83511598D01*
X111132361Y-83637102D01*
X111214455Y-83675383D01*
X111259202Y-83717111D01*
X111270877Y-83777172D01*
X111245019Y-83832625D01*
X111214455Y-83854831D01*
X111082423Y-83916399D01*
X110998626Y-83975072D01*
X111627467Y-84603913D01*
X111617685Y-84605320D01*
X111486900Y-84665048D01*
X111378239Y-84759202D01*
X111300507Y-84880156D01*
X111276922Y-84960476D01*
X110645072Y-84328626D01*
X110586399Y-84412423D01*
X110579724Y-84426738D01*
X110537995Y-84471486D01*
X110477934Y-84483160D01*
X110422481Y-84457301D01*
X110400276Y-84426738D01*
X110393600Y-84412423D01*
X110334926Y-84328626D01*
X109703076Y-84960475D01*
X109679493Y-84880156D01*
X109601761Y-84759202D01*
X109493100Y-84665048D01*
X109362315Y-84605320D01*
X109352533Y-84603913D01*
X109981373Y-83975073D01*
X109897576Y-83916398D01*
X109765545Y-83854831D01*
X109720797Y-83813103D01*
X109709122Y-83753042D01*
X109734980Y-83697589D01*
X109765540Y-83675384D01*
X109847639Y-83637102D01*
X110026877Y-83511598D01*
X110042928Y-83495546D01*
X110058980Y-83479496D01*
X110113497Y-83451719D01*
X110128983Y-83450500D01*
X110851017Y-83450500D01*
X110909208Y-83469407D01*
G37*
%TD.AperFunction*%
%TA.AperFunction,Conductor*%
G36*
X100810819Y-79321407D02*
G01*
X100822632Y-79331496D01*
X100923056Y-79431920D01*
X100950833Y-79486437D01*
X100941262Y-79546869D01*
X100917885Y-79576741D01*
X100880807Y-79608870D01*
X100876743Y-79615194D01*
X100863468Y-79631666D01*
X100822634Y-79672502D01*
X100768118Y-79700281D01*
X100752629Y-79701500D01*
X100442322Y-79701500D01*
X100384131Y-79682593D01*
X100348167Y-79633093D01*
X100348167Y-79571907D01*
X100372318Y-79532496D01*
X100573318Y-79331496D01*
X100627835Y-79303719D01*
X100643322Y-79302500D01*
X100752628Y-79302500D01*
X100810819Y-79321407D01*
G37*
%TD.AperFunction*%
%TA.AperFunction,Conductor*%
G36*
X99648574Y-74684556D02*
G01*
X99680696Y-74736631D01*
X99683499Y-74760023D01*
X99683499Y-76464363D01*
X99664592Y-76522554D01*
X99654503Y-76534366D01*
X99546503Y-76642367D01*
X99491986Y-76670145D01*
X99431554Y-76660574D01*
X99388290Y-76617309D01*
X99377499Y-76572364D01*
X99377499Y-76558775D01*
X99377499Y-76556128D01*
X99371091Y-76496517D01*
X99320796Y-76361669D01*
X99234546Y-76246454D01*
X99231920Y-76244488D01*
X99196669Y-76194478D01*
X99197545Y-76133299D01*
X99221249Y-76095233D01*
X99307443Y-76009039D01*
X99397953Y-75862300D01*
X99452181Y-75698649D01*
X99462242Y-75600167D01*
X99462500Y-75595116D01*
X99462500Y-75561001D01*
X99462499Y-75561000D01*
X98274000Y-75561000D01*
X98215809Y-75542093D01*
X98179845Y-75492593D01*
X98175000Y-75462000D01*
X98175000Y-75160000D01*
X98193907Y-75101809D01*
X98243407Y-75065845D01*
X98274000Y-75061000D01*
X99462498Y-75061000D01*
X99462499Y-75060999D01*
X99462499Y-75026884D01*
X99462242Y-75021849D01*
X99452180Y-74923347D01*
X99419639Y-74825142D01*
X99419283Y-74763958D01*
X99454958Y-74714249D01*
X99482477Y-74700026D01*
X99505624Y-74692356D01*
X99532526Y-74675763D01*
X99591979Y-74661306D01*
X99648574Y-74684556D01*
G37*
%TD.AperFunction*%
%TA.AperFunction,Conductor*%
G36*
X100683819Y-70431407D02*
G01*
X100695632Y-70441496D01*
X100812468Y-70558332D01*
X100825748Y-70574812D01*
X100837503Y-70593103D01*
X100836088Y-70594011D01*
X100858288Y-70630821D01*
X100853055Y-70691782D01*
X100843030Y-70705636D01*
X100845000Y-70706903D01*
X100833243Y-70725194D01*
X100819968Y-70741666D01*
X100779134Y-70782502D01*
X100724618Y-70810281D01*
X100709129Y-70811500D01*
X100188321Y-70811500D01*
X100130130Y-70792593D01*
X100094166Y-70743093D01*
X100094166Y-70681907D01*
X100118317Y-70642496D01*
X100319317Y-70441496D01*
X100373834Y-70413719D01*
X100389321Y-70412500D01*
X100625628Y-70412500D01*
X100683819Y-70431407D01*
G37*
%TD.AperFunction*%
%TA.AperFunction,Conductor*%
G36*
X98973868Y-58408406D02*
G01*
X98985681Y-58418495D01*
X100054503Y-59487317D01*
X100082280Y-59541834D01*
X100083499Y-59557321D01*
X100083499Y-61276545D01*
X100081238Y-61297582D01*
X100079641Y-61304925D01*
X100083248Y-61355355D01*
X100083500Y-61362418D01*
X100083500Y-61376799D01*
X100085547Y-61391041D01*
X100086302Y-61398061D01*
X100089909Y-61448486D01*
X100092532Y-61455518D01*
X100097765Y-61476017D01*
X100098835Y-61483457D01*
X100119835Y-61529442D01*
X100122539Y-61535970D01*
X100140203Y-61583330D01*
X100144706Y-61589345D01*
X100155504Y-61607544D01*
X100158622Y-61614372D01*
X100158623Y-61614373D01*
X100191725Y-61652575D01*
X100196147Y-61658062D01*
X100204779Y-61669593D01*
X100204782Y-61669596D01*
X100214962Y-61679777D01*
X100219776Y-61684948D01*
X100252872Y-61723143D01*
X100259182Y-61727198D01*
X100275666Y-61740480D01*
X100689853Y-62154667D01*
X100717630Y-62209184D01*
X100708059Y-62269616D01*
X100675420Y-62302254D01*
X100676331Y-62303305D01*
X100627379Y-62345720D01*
X100621886Y-62350147D01*
X100610356Y-62358779D01*
X100600181Y-62368953D01*
X100595018Y-62373760D01*
X100558602Y-62405317D01*
X100502244Y-62429137D01*
X100493768Y-62429500D01*
X100398767Y-62429500D01*
X100377722Y-62427237D01*
X100370386Y-62425641D01*
X100319957Y-62429248D01*
X100312895Y-62429500D01*
X100298514Y-62429500D01*
X100284271Y-62431547D01*
X100277252Y-62432302D01*
X100226828Y-62435909D01*
X100219787Y-62438535D01*
X100199296Y-62443764D01*
X100191859Y-62444833D01*
X100160624Y-62459098D01*
X100099837Y-62466072D01*
X100046561Y-62435984D01*
X100021144Y-62380328D01*
X100020499Y-62369044D01*
X100020499Y-62088552D01*
X100020242Y-62083517D01*
X100010005Y-61983302D01*
X99954857Y-61816877D01*
X99862818Y-61667658D01*
X99738841Y-61543681D01*
X99589621Y-61451642D01*
X99423194Y-61396493D01*
X99322999Y-61386257D01*
X99317949Y-61386000D01*
X99183000Y-61386000D01*
X99183000Y-62762000D01*
X99164093Y-62820191D01*
X99114593Y-62856155D01*
X99084000Y-62861000D01*
X98782000Y-62861000D01*
X98723809Y-62842093D01*
X98687845Y-62792593D01*
X98683000Y-62762000D01*
X98683000Y-61386001D01*
X98682999Y-61386000D01*
X98548053Y-61386000D01*
X98543016Y-61386257D01*
X98442802Y-61396494D01*
X98276377Y-61451642D01*
X98127158Y-61543681D01*
X98003180Y-61667659D01*
X97921307Y-61800396D01*
X97874666Y-61839997D01*
X97813656Y-61844620D01*
X97761580Y-61812499D01*
X97751836Y-61798822D01*
X97713581Y-61734135D01*
X97689386Y-61709940D01*
X97660496Y-61681049D01*
X97632719Y-61626532D01*
X97631500Y-61611046D01*
X97631500Y-58488499D01*
X97650407Y-58430308D01*
X97699907Y-58394344D01*
X97730500Y-58389499D01*
X98915677Y-58389499D01*
X98973868Y-58408406D01*
G37*
%TD.AperFunction*%
%TA.AperFunction,Conductor*%
G36*
X100524345Y-54805054D02*
G01*
X100544442Y-54820550D01*
X100934388Y-55210496D01*
X100962165Y-55265013D01*
X100952594Y-55325445D01*
X100909329Y-55368710D01*
X100864384Y-55379500D01*
X100580128Y-55379500D01*
X100521937Y-55360593D01*
X100510124Y-55350504D01*
X100401374Y-55241754D01*
X100373597Y-55187237D01*
X100372378Y-55171750D01*
X100372378Y-54904621D01*
X100374639Y-54883584D01*
X100376236Y-54876245D01*
X100376235Y-54876242D01*
X100377700Y-54869511D01*
X100408545Y-54816669D01*
X100464558Y-54792048D01*
X100524345Y-54805054D01*
G37*
%TD.AperFunction*%
%TA.AperFunction,Conductor*%
G36*
X115913691Y-43449407D02*
G01*
X115949655Y-43498907D01*
X115954500Y-43529500D01*
X115954500Y-96170500D01*
X115935593Y-96228691D01*
X115886093Y-96264655D01*
X115855500Y-96269500D01*
X81883500Y-96269500D01*
X81825309Y-96250593D01*
X81789345Y-96201093D01*
X81784500Y-96170500D01*
X81784500Y-91507765D01*
X102285787Y-91507765D01*
X102315413Y-91777015D01*
X102383928Y-92039089D01*
X102489869Y-92288388D01*
X102489870Y-92288390D01*
X102630982Y-92519610D01*
X102804255Y-92727820D01*
X102909241Y-92821888D01*
X103005996Y-92908581D01*
X103231913Y-93058046D01*
X103477175Y-93173020D01*
X103673112Y-93231968D01*
X103736569Y-93251060D01*
X103948668Y-93282274D01*
X104004560Y-93290500D01*
X104004561Y-93290500D01*
X104205824Y-93290500D01*
X104207631Y-93290500D01*
X104410156Y-93275677D01*
X104674553Y-93216780D01*
X104927558Y-93120014D01*
X105163777Y-92987441D01*
X105378177Y-92821888D01*
X105566186Y-92626881D01*
X105723799Y-92406579D01*
X105847656Y-92165675D01*
X105935118Y-91909305D01*
X105984319Y-91642933D01*
X105994212Y-91372235D01*
X105964586Y-91102982D01*
X105896072Y-90840912D01*
X105790130Y-90591610D01*
X105649018Y-90360390D01*
X105475745Y-90152180D01*
X105372516Y-90059687D01*
X105274003Y-89971418D01*
X105048086Y-89821953D01*
X104802824Y-89706979D01*
X104543433Y-89628940D01*
X104275440Y-89589500D01*
X104275439Y-89589500D01*
X104072369Y-89589500D01*
X104070590Y-89589630D01*
X104070568Y-89589631D01*
X103869847Y-89604322D01*
X103605446Y-89663220D01*
X103352438Y-89759987D01*
X103116222Y-89892559D01*
X102901825Y-90058109D01*
X102713814Y-90253118D01*
X102556200Y-90473421D01*
X102432341Y-90714329D01*
X102344882Y-90970692D01*
X102295681Y-91237064D01*
X102285787Y-91507765D01*
X81784500Y-91507765D01*
X81784500Y-88631007D01*
X81803407Y-88572816D01*
X81852907Y-88536852D01*
X81914093Y-88536852D01*
X81953504Y-88561003D01*
X83381628Y-89989127D01*
X83391717Y-90000940D01*
X83401113Y-90013872D01*
X83451987Y-90059679D01*
X83455748Y-90063247D01*
X83470620Y-90078119D01*
X83486941Y-90091336D01*
X83490878Y-90094699D01*
X83535622Y-90134984D01*
X83541784Y-90140533D01*
X83555619Y-90148520D01*
X83555626Y-90148524D01*
X83568429Y-90157324D01*
X83580851Y-90167383D01*
X83641884Y-90198480D01*
X83646401Y-90200933D01*
X83705716Y-90235179D01*
X83705718Y-90235180D01*
X83720919Y-90240119D01*
X83735272Y-90246064D01*
X83749512Y-90253320D01*
X83778428Y-90261068D01*
X83815655Y-90271044D01*
X83820615Y-90272512D01*
X83885744Y-90293674D01*
X83901631Y-90295343D01*
X83916907Y-90298173D01*
X83932354Y-90302313D01*
X84000739Y-90305896D01*
X84005895Y-90306302D01*
X84024613Y-90308270D01*
X84080507Y-90333158D01*
X84099474Y-90356332D01*
X84145916Y-90434861D01*
X84145917Y-90434862D01*
X84145919Y-90434865D01*
X84262135Y-90551081D01*
X84262137Y-90551082D01*
X84262138Y-90551083D01*
X84403600Y-90634743D01*
X84403602Y-90634744D01*
X84561431Y-90680598D01*
X84598306Y-90683500D01*
X84600256Y-90683500D01*
X85527744Y-90683500D01*
X85529694Y-90683500D01*
X85566569Y-90680598D01*
X85724398Y-90634744D01*
X85865865Y-90551081D01*
X85982081Y-90434865D01*
X86065744Y-90293398D01*
X86111598Y-90135569D01*
X86114500Y-90098694D01*
X87113500Y-90098694D01*
X87113651Y-90100617D01*
X87113652Y-90100633D01*
X87116402Y-90135569D01*
X87162256Y-90293399D01*
X87245916Y-90434861D01*
X87245917Y-90434862D01*
X87245919Y-90434865D01*
X87362135Y-90551081D01*
X87362137Y-90551082D01*
X87362138Y-90551083D01*
X87503600Y-90634743D01*
X87503602Y-90634744D01*
X87661431Y-90680598D01*
X87698306Y-90683500D01*
X87700256Y-90683500D01*
X88627744Y-90683500D01*
X88629694Y-90683500D01*
X88666569Y-90680598D01*
X88824398Y-90634744D01*
X88965865Y-90551081D01*
X89082081Y-90434865D01*
X89128069Y-90357102D01*
X89173963Y-90316642D01*
X89213281Y-90308500D01*
X91615340Y-90308500D01*
X91630827Y-90309718D01*
X91646612Y-90312219D01*
X91646612Y-90312218D01*
X91646613Y-90312219D01*
X91714986Y-90308636D01*
X91720167Y-90308500D01*
X91738592Y-90308500D01*
X91741192Y-90308500D01*
X91759754Y-90306548D01*
X91762103Y-90306302D01*
X91767256Y-90305896D01*
X91835646Y-90302313D01*
X91843207Y-90300286D01*
X91851084Y-90298176D01*
X91866370Y-90295343D01*
X91882256Y-90293674D01*
X91947409Y-90272503D01*
X91952302Y-90271054D01*
X92018488Y-90253320D01*
X92032725Y-90246064D01*
X92047087Y-90240116D01*
X92062284Y-90235179D01*
X92121600Y-90200931D01*
X92126097Y-90198489D01*
X92187149Y-90167383D01*
X92199576Y-90157318D01*
X92212370Y-90148526D01*
X92226216Y-90140533D01*
X92277116Y-90094701D01*
X92281047Y-90091345D01*
X92281058Y-90091336D01*
X92297380Y-90078119D01*
X92312257Y-90063240D01*
X92315978Y-90059709D01*
X92366888Y-90013871D01*
X92376282Y-90000940D01*
X92386365Y-89989132D01*
X97162858Y-85212639D01*
X97176193Y-85203486D01*
X97175309Y-85202269D01*
X97336871Y-85084888D01*
X97406772Y-85007256D01*
X97459760Y-84976663D01*
X97480343Y-84974500D01*
X107490340Y-84974500D01*
X107505827Y-84975718D01*
X107521612Y-84978219D01*
X107521612Y-84978218D01*
X107521613Y-84978219D01*
X107589986Y-84974636D01*
X107595167Y-84974500D01*
X107613592Y-84974500D01*
X107616192Y-84974500D01*
X107634754Y-84972548D01*
X107637103Y-84972302D01*
X107642256Y-84971896D01*
X107710646Y-84968313D01*
X107718207Y-84966286D01*
X107726084Y-84964176D01*
X107741371Y-84961343D01*
X107757918Y-84959605D01*
X107817765Y-84972330D01*
X107858703Y-85017802D01*
X107866882Y-85066691D01*
X107864842Y-85089999D01*
X107885430Y-85325318D01*
X107946570Y-85553495D01*
X108046398Y-85767576D01*
X108105072Y-85851372D01*
X108736922Y-85219522D01*
X108760507Y-85299844D01*
X108838239Y-85420798D01*
X108946900Y-85514952D01*
X109077685Y-85574680D01*
X109087466Y-85576086D01*
X108458626Y-86204926D01*
X108542423Y-86263601D01*
X108756504Y-86363429D01*
X108984681Y-86424569D01*
X109219999Y-86445157D01*
X109455318Y-86424569D01*
X109683495Y-86363429D01*
X109897576Y-86263601D01*
X109981373Y-86204926D01*
X109352533Y-85576086D01*
X109362315Y-85574680D01*
X109493100Y-85514952D01*
X109601761Y-85420798D01*
X109679493Y-85299844D01*
X109703076Y-85219523D01*
X110334926Y-85851373D01*
X110393598Y-85767581D01*
X110400275Y-85753263D01*
X110442003Y-85708515D01*
X110502064Y-85696840D01*
X110557517Y-85722698D01*
X110579725Y-85753263D01*
X110586401Y-85767581D01*
X110645072Y-85851372D01*
X111276922Y-85219521D01*
X111300507Y-85299844D01*
X111378239Y-85420798D01*
X111486900Y-85514952D01*
X111617685Y-85574680D01*
X111627466Y-85576086D01*
X110998626Y-86204926D01*
X111082423Y-86263601D01*
X111296504Y-86363429D01*
X111524681Y-86424569D01*
X111760000Y-86445157D01*
X111995318Y-86424569D01*
X112223495Y-86363429D01*
X112437576Y-86263601D01*
X112521373Y-86204926D01*
X111892533Y-85576086D01*
X111902315Y-85574680D01*
X112033100Y-85514952D01*
X112141761Y-85420798D01*
X112219493Y-85299844D01*
X112243076Y-85219523D01*
X112874926Y-85851373D01*
X112933601Y-85767576D01*
X113033429Y-85553495D01*
X113094569Y-85325318D01*
X113115157Y-85089999D01*
X113094569Y-84854681D01*
X113033429Y-84626504D01*
X112933601Y-84412425D01*
X112874926Y-84328626D01*
X112243076Y-84960475D01*
X112219493Y-84880156D01*
X112141761Y-84759202D01*
X112033100Y-84665048D01*
X111902315Y-84605320D01*
X111892530Y-84603913D01*
X112521372Y-83975072D01*
X112437576Y-83916398D01*
X112305545Y-83854831D01*
X112260797Y-83813103D01*
X112249122Y-83753042D01*
X112274980Y-83697589D01*
X112305540Y-83675384D01*
X112387639Y-83637102D01*
X112566877Y-83511598D01*
X112721598Y-83356877D01*
X112847102Y-83177639D01*
X112939575Y-82979330D01*
X112996207Y-82767977D01*
X113015277Y-82550000D01*
X112996207Y-82332023D01*
X112939575Y-82120670D01*
X112908718Y-82054498D01*
X112847103Y-81922364D01*
X112825654Y-81891732D01*
X112721598Y-81743123D01*
X112566877Y-81588402D01*
X112540031Y-81569604D01*
X112387641Y-81462899D01*
X112368557Y-81454000D01*
X112189330Y-81370425D01*
X112189325Y-81370423D01*
X112187827Y-81369725D01*
X112143079Y-81327996D01*
X112131404Y-81267935D01*
X112157262Y-81212482D01*
X112187827Y-81190275D01*
X112189325Y-81189576D01*
X112189330Y-81189575D01*
X112387639Y-81097102D01*
X112566877Y-80971598D01*
X112721598Y-80816877D01*
X112847102Y-80637639D01*
X112939575Y-80439330D01*
X112996207Y-80227977D01*
X113015277Y-80010000D01*
X112996207Y-79792023D01*
X112939575Y-79580670D01*
X112923813Y-79546869D01*
X112847103Y-79382364D01*
X112841494Y-79374354D01*
X112721598Y-79203123D01*
X112566877Y-79048402D01*
X112566873Y-79048399D01*
X112387641Y-78922899D01*
X112341832Y-78901538D01*
X112189330Y-78830425D01*
X112189325Y-78830423D01*
X112187827Y-78829725D01*
X112143079Y-78787996D01*
X112131404Y-78727935D01*
X112157262Y-78672482D01*
X112187827Y-78650275D01*
X112189325Y-78649576D01*
X112189330Y-78649575D01*
X112387639Y-78557102D01*
X112566877Y-78431598D01*
X112721598Y-78276877D01*
X112847102Y-78097639D01*
X112939575Y-77899330D01*
X112996207Y-77687977D01*
X113015277Y-77470000D01*
X112996207Y-77252023D01*
X112939575Y-77040670D01*
X112899484Y-76954696D01*
X112847103Y-76842364D01*
X112824584Y-76810204D01*
X112721598Y-76663123D01*
X112566877Y-76508402D01*
X112566873Y-76508399D01*
X112387641Y-76382899D01*
X112342113Y-76361669D01*
X112189330Y-76290425D01*
X112189325Y-76290423D01*
X112187827Y-76289725D01*
X112143079Y-76247996D01*
X112131404Y-76187935D01*
X112157262Y-76132482D01*
X112187827Y-76110275D01*
X112189325Y-76109576D01*
X112189330Y-76109575D01*
X112387639Y-76017102D01*
X112566877Y-75891598D01*
X112721598Y-75736877D01*
X112847102Y-75557639D01*
X112939575Y-75359330D01*
X112996207Y-75147977D01*
X113015277Y-74930000D01*
X112996207Y-74712023D01*
X112939575Y-74500670D01*
X112893361Y-74401565D01*
X112847103Y-74302364D01*
X112841494Y-74294354D01*
X112721598Y-74123123D01*
X112566877Y-73968402D01*
X112387639Y-73842898D01*
X112387638Y-73842897D01*
X112387636Y-73842896D01*
X112187827Y-73749723D01*
X112143079Y-73707995D01*
X112131404Y-73647934D01*
X112157262Y-73592481D01*
X112187827Y-73570274D01*
X112189320Y-73569577D01*
X112189330Y-73569575D01*
X112387639Y-73477102D01*
X112566877Y-73351598D01*
X112721598Y-73196877D01*
X112847102Y-73017639D01*
X112939575Y-72819330D01*
X112996207Y-72607977D01*
X113015277Y-72390000D01*
X112996207Y-72172023D01*
X112939575Y-71960670D01*
X112905982Y-71888631D01*
X112847103Y-71762364D01*
X112815406Y-71717096D01*
X112721598Y-71583123D01*
X112566877Y-71428402D01*
X112566873Y-71428399D01*
X112387641Y-71302899D01*
X112387635Y-71302896D01*
X112189330Y-71210425D01*
X112189325Y-71210423D01*
X112187827Y-71209725D01*
X112143079Y-71167996D01*
X112131404Y-71107935D01*
X112157262Y-71052482D01*
X112187827Y-71030275D01*
X112189325Y-71029576D01*
X112189330Y-71029575D01*
X112387639Y-70937102D01*
X112566877Y-70811598D01*
X112721598Y-70656877D01*
X112847102Y-70477639D01*
X112939575Y-70279330D01*
X112996207Y-70067977D01*
X113015277Y-69850000D01*
X112996207Y-69632023D01*
X112939575Y-69420670D01*
X112905819Y-69348281D01*
X112847103Y-69222364D01*
X112841494Y-69214354D01*
X112721598Y-69043123D01*
X112566877Y-68888402D01*
X112566873Y-68888399D01*
X112387641Y-68762899D01*
X112387635Y-68762896D01*
X112189330Y-68670425D01*
X112189325Y-68670423D01*
X112187827Y-68669725D01*
X112143079Y-68627996D01*
X112131404Y-68567935D01*
X112157262Y-68512482D01*
X112187827Y-68490275D01*
X112189325Y-68489576D01*
X112189330Y-68489575D01*
X112387639Y-68397102D01*
X112566877Y-68271598D01*
X112721598Y-68116877D01*
X112847102Y-67937639D01*
X112939575Y-67739330D01*
X112996207Y-67527977D01*
X113015277Y-67310000D01*
X112996207Y-67092023D01*
X112939575Y-66880670D01*
X112899484Y-66794696D01*
X112847103Y-66682364D01*
X112820602Y-66644517D01*
X112721598Y-66503123D01*
X112566877Y-66348402D01*
X112566873Y-66348399D01*
X112387641Y-66222899D01*
X112371973Y-66215593D01*
X112189330Y-66130425D01*
X112189325Y-66130423D01*
X112187827Y-66129725D01*
X112143079Y-66087996D01*
X112131404Y-66027935D01*
X112157262Y-65972482D01*
X112187827Y-65950275D01*
X112189325Y-65949576D01*
X112189330Y-65949575D01*
X112387639Y-65857102D01*
X112566877Y-65731598D01*
X112721598Y-65576877D01*
X112847102Y-65397639D01*
X112939575Y-65199330D01*
X112996207Y-64987977D01*
X113015277Y-64770000D01*
X112996207Y-64552023D01*
X112939575Y-64340670D01*
X112924170Y-64307635D01*
X112847103Y-64142364D01*
X112841494Y-64134354D01*
X112721598Y-63963123D01*
X112566877Y-63808402D01*
X112517653Y-63773935D01*
X112387641Y-63682899D01*
X112387635Y-63682896D01*
X112189330Y-63590425D01*
X112189325Y-63590423D01*
X112187827Y-63589725D01*
X112143079Y-63547996D01*
X112131404Y-63487935D01*
X112157262Y-63432482D01*
X112187827Y-63410275D01*
X112189325Y-63409576D01*
X112189330Y-63409575D01*
X112387639Y-63317102D01*
X112566877Y-63191598D01*
X112721598Y-63036877D01*
X112847102Y-62857639D01*
X112939575Y-62659330D01*
X112996207Y-62447977D01*
X113015277Y-62230000D01*
X112996207Y-62012023D01*
X112939575Y-61800670D01*
X112939447Y-61800396D01*
X112847103Y-61602364D01*
X112833775Y-61583330D01*
X112721598Y-61423123D01*
X112566877Y-61268402D01*
X112543527Y-61252052D01*
X112387641Y-61142899D01*
X112387635Y-61142896D01*
X112189330Y-61050425D01*
X112189325Y-61050423D01*
X112187827Y-61049725D01*
X112143079Y-61007996D01*
X112131404Y-60947935D01*
X112157262Y-60892482D01*
X112187827Y-60870275D01*
X112189325Y-60869576D01*
X112189330Y-60869575D01*
X112387639Y-60777102D01*
X112566877Y-60651598D01*
X112721598Y-60496877D01*
X112847102Y-60317639D01*
X112939575Y-60119330D01*
X112996207Y-59907977D01*
X113015277Y-59690000D01*
X112996207Y-59472023D01*
X112939575Y-59260670D01*
X112934225Y-59249198D01*
X112847103Y-59062364D01*
X112841494Y-59054354D01*
X112721598Y-58883123D01*
X112566877Y-58728402D01*
X112439875Y-58639474D01*
X112387641Y-58602899D01*
X112387635Y-58602896D01*
X112189330Y-58510425D01*
X112189325Y-58510423D01*
X112187827Y-58509725D01*
X112143079Y-58467996D01*
X112131404Y-58407935D01*
X112157262Y-58352482D01*
X112187827Y-58330275D01*
X112189325Y-58329576D01*
X112189330Y-58329575D01*
X112387639Y-58237102D01*
X112566877Y-58111598D01*
X112721598Y-57956877D01*
X112847102Y-57777639D01*
X112939575Y-57579330D01*
X112996207Y-57367977D01*
X113015277Y-57150000D01*
X112996207Y-56932023D01*
X112939575Y-56720670D01*
X112928296Y-56696483D01*
X112847103Y-56522364D01*
X112820602Y-56484517D01*
X112721598Y-56343123D01*
X112566877Y-56188402D01*
X112532027Y-56164000D01*
X112387636Y-56062896D01*
X112187827Y-55969723D01*
X112143079Y-55927995D01*
X112131404Y-55867934D01*
X112157262Y-55812481D01*
X112187827Y-55790274D01*
X112189320Y-55789577D01*
X112189330Y-55789575D01*
X112387639Y-55697102D01*
X112566877Y-55571598D01*
X112721598Y-55416877D01*
X112847102Y-55237639D01*
X112939575Y-55039330D01*
X112996207Y-54827977D01*
X113015277Y-54610000D01*
X112996207Y-54392023D01*
X112939575Y-54180670D01*
X112905819Y-54108281D01*
X112847103Y-53982364D01*
X112841494Y-53974354D01*
X112721598Y-53803123D01*
X112566877Y-53648402D01*
X112547304Y-53634697D01*
X112387636Y-53522896D01*
X112189334Y-53430426D01*
X112016917Y-53384227D01*
X111977977Y-53373793D01*
X111977976Y-53373792D01*
X111977973Y-53373792D01*
X111760000Y-53354722D01*
X111542026Y-53373792D01*
X111330665Y-53430426D01*
X111132364Y-53522896D01*
X110953126Y-53648399D01*
X110798399Y-53803126D01*
X110672897Y-53982362D01*
X110659224Y-54011685D01*
X110617495Y-54056433D01*
X110557434Y-54068107D01*
X110501982Y-54042248D01*
X110472319Y-53988734D01*
X110470500Y-53969845D01*
X110470500Y-53946255D01*
X110470500Y-53944306D01*
X110467598Y-53907431D01*
X110421744Y-53749602D01*
X110409253Y-53728480D01*
X110338083Y-53608138D01*
X110338082Y-53608137D01*
X110338081Y-53608135D01*
X110221865Y-53491919D01*
X110221862Y-53491917D01*
X110221861Y-53491916D01*
X110080399Y-53408256D01*
X109922569Y-53362402D01*
X109887633Y-53359652D01*
X109887617Y-53359651D01*
X109885694Y-53359500D01*
X108554306Y-53359500D01*
X108552383Y-53359651D01*
X108552366Y-53359652D01*
X108517430Y-53362402D01*
X108359600Y-53408256D01*
X108218138Y-53491916D01*
X108101916Y-53608138D01*
X108018256Y-53749600D01*
X107972402Y-53907430D01*
X107969652Y-53942366D01*
X107969651Y-53942383D01*
X107969500Y-53944306D01*
X107969500Y-53946255D01*
X107969500Y-53985500D01*
X107950593Y-54043691D01*
X107901093Y-54079655D01*
X107870500Y-54084500D01*
X107157900Y-54084500D01*
X107099709Y-54065593D01*
X107087897Y-54055505D01*
X107064342Y-54031950D01*
X106951304Y-53974354D01*
X106951303Y-53974353D01*
X106951302Y-53974353D01*
X106857519Y-53959500D01*
X105994478Y-53959500D01*
X105900696Y-53974352D01*
X105787660Y-54031948D01*
X105697949Y-54121659D01*
X105640353Y-54234697D01*
X105625500Y-54328480D01*
X105625500Y-54891521D01*
X105640353Y-54985304D01*
X105642775Y-54990058D01*
X105652345Y-55050491D01*
X105642776Y-55079940D01*
X105640354Y-55084693D01*
X105625500Y-55178480D01*
X105625500Y-55291320D01*
X105625269Y-55298078D01*
X105624268Y-55312707D01*
X105601432Y-55369472D01*
X105584787Y-55379907D01*
X105605591Y-55395022D01*
X105622427Y-55433063D01*
X105623428Y-55437878D01*
X105625500Y-55458027D01*
X105625500Y-55641521D01*
X105640353Y-55735305D01*
X105655512Y-55765057D01*
X105665083Y-55825489D01*
X105655513Y-55854943D01*
X105640354Y-55884696D01*
X105625500Y-55978480D01*
X105625500Y-56441521D01*
X105640353Y-56535304D01*
X105642774Y-56540056D01*
X105652345Y-56600488D01*
X105642777Y-56629938D01*
X105640354Y-56634692D01*
X105625500Y-56728480D01*
X105625500Y-57291521D01*
X105640352Y-57385303D01*
X105689282Y-57481331D01*
X105697950Y-57498342D01*
X105787658Y-57588050D01*
X105900696Y-57645646D01*
X105994481Y-57660500D01*
X106497966Y-57660499D01*
X106556157Y-57679406D01*
X106567970Y-57689495D01*
X107659889Y-58781413D01*
X107662237Y-58783843D01*
X107673402Y-58795798D01*
X107706320Y-58831044D01*
X107742525Y-58853060D01*
X107750892Y-58858755D01*
X107783029Y-58883126D01*
X107784658Y-58884361D01*
X107803346Y-58891730D01*
X107818454Y-58899234D01*
X107835618Y-58909672D01*
X107876422Y-58921104D01*
X107886010Y-58924328D01*
X107925436Y-58939876D01*
X107945415Y-58941929D01*
X107961992Y-58945080D01*
X107981335Y-58950500D01*
X108023700Y-58950500D01*
X108033811Y-58951018D01*
X108036631Y-58951307D01*
X108039500Y-58951602D01*
X108095455Y-58976353D01*
X108126175Y-59029268D01*
X108119926Y-59090133D01*
X108119114Y-59091920D01*
X108111926Y-59107336D01*
X108070199Y-59152086D01*
X108022200Y-59164500D01*
X107179900Y-59164500D01*
X107121709Y-59145593D01*
X107109897Y-59135505D01*
X107099327Y-59124935D01*
X107086342Y-59111950D01*
X106973304Y-59054354D01*
X106973303Y-59054353D01*
X106973302Y-59054353D01*
X106879519Y-59039500D01*
X106016478Y-59039500D01*
X105922696Y-59054352D01*
X105809660Y-59111948D01*
X105719949Y-59201659D01*
X105662353Y-59314697D01*
X105647500Y-59408480D01*
X105647500Y-59971521D01*
X105662353Y-60065304D01*
X105664775Y-60070058D01*
X105674345Y-60130491D01*
X105664776Y-60159940D01*
X105662354Y-60164693D01*
X105647500Y-60258480D01*
X105647500Y-60721521D01*
X105662353Y-60815305D01*
X105677512Y-60845057D01*
X105687083Y-60905489D01*
X105677513Y-60934943D01*
X105662354Y-60964696D01*
X105647500Y-61058480D01*
X105647500Y-61521521D01*
X105662353Y-61615304D01*
X105664775Y-61620058D01*
X105674345Y-61680491D01*
X105664776Y-61709940D01*
X105662354Y-61714693D01*
X105647500Y-61808480D01*
X105647500Y-62371521D01*
X105662352Y-62465303D01*
X105719948Y-62578339D01*
X105719950Y-62578342D01*
X105809658Y-62668050D01*
X105922696Y-62725646D01*
X106016481Y-62740500D01*
X106497966Y-62740499D01*
X106556157Y-62759406D01*
X106567970Y-62769495D01*
X107659889Y-63861413D01*
X107662237Y-63863843D01*
X107706320Y-63911044D01*
X107742525Y-63933060D01*
X107750892Y-63938755D01*
X107783029Y-63963126D01*
X107784658Y-63964361D01*
X107803346Y-63971730D01*
X107818454Y-63979234D01*
X107835618Y-63989672D01*
X107876422Y-64001104D01*
X107886010Y-64004328D01*
X107925436Y-64019876D01*
X107945415Y-64021929D01*
X107961992Y-64025080D01*
X107981335Y-64030500D01*
X108023700Y-64030500D01*
X108033811Y-64031018D01*
X108036631Y-64031307D01*
X108039500Y-64031602D01*
X108095455Y-64056353D01*
X108126175Y-64109268D01*
X108119926Y-64170133D01*
X108119114Y-64171920D01*
X108111926Y-64187336D01*
X108070199Y-64232086D01*
X108022200Y-64244500D01*
X107157900Y-64244500D01*
X107099709Y-64225593D01*
X107087897Y-64215505D01*
X107064342Y-64191950D01*
X106951304Y-64134354D01*
X106951303Y-64134353D01*
X106951302Y-64134353D01*
X106857519Y-64119500D01*
X105994478Y-64119500D01*
X105900696Y-64134352D01*
X105787660Y-64191948D01*
X105697949Y-64281659D01*
X105640353Y-64394697D01*
X105625500Y-64488480D01*
X105625500Y-65051521D01*
X105640353Y-65145304D01*
X105642775Y-65150058D01*
X105652345Y-65210491D01*
X105642776Y-65239940D01*
X105640354Y-65244693D01*
X105625500Y-65338480D01*
X105625500Y-65801521D01*
X105640353Y-65895305D01*
X105655512Y-65925057D01*
X105665083Y-65985489D01*
X105655513Y-66014943D01*
X105640354Y-66044696D01*
X105625500Y-66138480D01*
X105625500Y-66601521D01*
X105640353Y-66695304D01*
X105642774Y-66700056D01*
X105652345Y-66760488D01*
X105642777Y-66789938D01*
X105640354Y-66794692D01*
X105625500Y-66888480D01*
X105625500Y-67451521D01*
X105640352Y-67545303D01*
X105696331Y-67655165D01*
X105697950Y-67658342D01*
X105787658Y-67748050D01*
X105900696Y-67805646D01*
X105994481Y-67820500D01*
X106497966Y-67820499D01*
X106556157Y-67839406D01*
X106567970Y-67849495D01*
X107659889Y-68941413D01*
X107662237Y-68943843D01*
X107706320Y-68991044D01*
X107742525Y-69013060D01*
X107750892Y-69018755D01*
X107783029Y-69043126D01*
X107784658Y-69044361D01*
X107803346Y-69051730D01*
X107818454Y-69059234D01*
X107835618Y-69069672D01*
X107876422Y-69081104D01*
X107886010Y-69084328D01*
X107925436Y-69099876D01*
X107945415Y-69101929D01*
X107961992Y-69105080D01*
X107981335Y-69110500D01*
X108023700Y-69110500D01*
X108033811Y-69111018D01*
X108036631Y-69111307D01*
X108039500Y-69111602D01*
X108095455Y-69136353D01*
X108126175Y-69189268D01*
X108119926Y-69250133D01*
X108119114Y-69251920D01*
X108111926Y-69267336D01*
X108070199Y-69312086D01*
X108022200Y-69324500D01*
X107157900Y-69324500D01*
X107099709Y-69305593D01*
X107087897Y-69295505D01*
X107064342Y-69271950D01*
X106951304Y-69214354D01*
X106951303Y-69214353D01*
X106951302Y-69214353D01*
X106857519Y-69199500D01*
X105994478Y-69199500D01*
X105900696Y-69214352D01*
X105787660Y-69271948D01*
X105697949Y-69361659D01*
X105640353Y-69474697D01*
X105625500Y-69568480D01*
X105625500Y-70131521D01*
X105640353Y-70225304D01*
X105642775Y-70230058D01*
X105652345Y-70290491D01*
X105642776Y-70319940D01*
X105640354Y-70324693D01*
X105625500Y-70418480D01*
X105625500Y-70881521D01*
X105640353Y-70975305D01*
X105655512Y-71005057D01*
X105665083Y-71065489D01*
X105655513Y-71094943D01*
X105640354Y-71124696D01*
X105625500Y-71218480D01*
X105625500Y-71681521D01*
X105640353Y-71775304D01*
X105642774Y-71780056D01*
X105652345Y-71840488D01*
X105642777Y-71869938D01*
X105640354Y-71874692D01*
X105625500Y-71968480D01*
X105625500Y-72531521D01*
X105640352Y-72625303D01*
X105695991Y-72734498D01*
X105697950Y-72738342D01*
X105787658Y-72828050D01*
X105900696Y-72885646D01*
X105994481Y-72900500D01*
X106372966Y-72900499D01*
X106431157Y-72919406D01*
X106442970Y-72929495D01*
X107574903Y-74061428D01*
X107577252Y-74063859D01*
X107621320Y-74111044D01*
X107641183Y-74123123D01*
X107657519Y-74133057D01*
X107665900Y-74138761D01*
X107699658Y-74164361D01*
X107718340Y-74171728D01*
X107733461Y-74179239D01*
X107750616Y-74189671D01*
X107750618Y-74189672D01*
X107791422Y-74201104D01*
X107801024Y-74204334D01*
X107824021Y-74213403D01*
X107871218Y-74252340D01*
X107886515Y-74311582D01*
X107864069Y-74368501D01*
X107812453Y-74401356D01*
X107787702Y-74404500D01*
X107157900Y-74404500D01*
X107099709Y-74385593D01*
X107087897Y-74375505D01*
X107080893Y-74368501D01*
X107064342Y-74351950D01*
X106951304Y-74294354D01*
X106951303Y-74294353D01*
X106951302Y-74294353D01*
X106857519Y-74279500D01*
X105994478Y-74279500D01*
X105900696Y-74294352D01*
X105787660Y-74351948D01*
X105697949Y-74441659D01*
X105640353Y-74554697D01*
X105625500Y-74648480D01*
X105625500Y-75211521D01*
X105640353Y-75305304D01*
X105642775Y-75310058D01*
X105652345Y-75370491D01*
X105642776Y-75399940D01*
X105640354Y-75404693D01*
X105625500Y-75498480D01*
X105625500Y-75961521D01*
X105640353Y-76055305D01*
X105655512Y-76085057D01*
X105665083Y-76145489D01*
X105655513Y-76174943D01*
X105640354Y-76204696D01*
X105625500Y-76298480D01*
X105625500Y-76761521D01*
X105640353Y-76855304D01*
X105642774Y-76860056D01*
X105652345Y-76920488D01*
X105642777Y-76949938D01*
X105640354Y-76954692D01*
X105625500Y-77048480D01*
X105625500Y-77611521D01*
X105640352Y-77705303D01*
X105697948Y-77818339D01*
X105697950Y-77818342D01*
X105787658Y-77908050D01*
X105900696Y-77965646D01*
X105994481Y-77980500D01*
X106857518Y-77980499D01*
X106857521Y-77980499D01*
X106929608Y-77969082D01*
X106951304Y-77965646D01*
X107059471Y-77910532D01*
X107071720Y-77904291D01*
X107116666Y-77893500D01*
X107126910Y-77893500D01*
X107185101Y-77912407D01*
X107196914Y-77922496D01*
X108297967Y-79023549D01*
X108325744Y-79078066D01*
X108316173Y-79138498D01*
X108297968Y-79163555D01*
X108258402Y-79203121D01*
X108132897Y-79382362D01*
X108111924Y-79427340D01*
X108070196Y-79472088D01*
X108022200Y-79484500D01*
X107157900Y-79484500D01*
X107099709Y-79465593D01*
X107087897Y-79455505D01*
X107081619Y-79449227D01*
X107064342Y-79431950D01*
X106951304Y-79374354D01*
X106951303Y-79374353D01*
X106951302Y-79374353D01*
X106857519Y-79359500D01*
X105994478Y-79359500D01*
X105900696Y-79374352D01*
X105787660Y-79431948D01*
X105697949Y-79521659D01*
X105640353Y-79634697D01*
X105625500Y-79728480D01*
X105625500Y-80291521D01*
X105640353Y-80385304D01*
X105642775Y-80390058D01*
X105652345Y-80450491D01*
X105642776Y-80479940D01*
X105640354Y-80484693D01*
X105625500Y-80578480D01*
X105625500Y-81041521D01*
X105640353Y-81135305D01*
X105655512Y-81165057D01*
X105665083Y-81225489D01*
X105655513Y-81254943D01*
X105640354Y-81284696D01*
X105625500Y-81378480D01*
X105625500Y-81841521D01*
X105640353Y-81935304D01*
X105642774Y-81940056D01*
X105652345Y-82000488D01*
X105642777Y-82029938D01*
X105640354Y-82034692D01*
X105625500Y-82128480D01*
X105625500Y-82691521D01*
X105640352Y-82785303D01*
X105696925Y-82896331D01*
X105697950Y-82898342D01*
X105787658Y-82988050D01*
X105787660Y-82988051D01*
X105798746Y-82999137D01*
X105797898Y-82999984D01*
X105827469Y-83029554D01*
X105837041Y-83089986D01*
X105809265Y-83144503D01*
X105754748Y-83172281D01*
X105739260Y-83173500D01*
X105312741Y-83173500D01*
X105254550Y-83154593D01*
X105218586Y-83105093D01*
X105218586Y-83043907D01*
X105254550Y-82994407D01*
X105263418Y-82988972D01*
X105264337Y-82988052D01*
X105264342Y-82988050D01*
X105354050Y-82898342D01*
X105411646Y-82785304D01*
X105426500Y-82691519D01*
X105426499Y-82128482D01*
X105411646Y-82034696D01*
X105409225Y-82029945D01*
X105399652Y-81969516D01*
X105409224Y-81940055D01*
X105411646Y-81935304D01*
X105426500Y-81841519D01*
X105426499Y-81378482D01*
X105426499Y-81378480D01*
X105426499Y-81378478D01*
X105411647Y-81284698D01*
X105404931Y-81271518D01*
X105396486Y-81254944D01*
X105386915Y-81194514D01*
X105396484Y-81165059D01*
X105411646Y-81135304D01*
X105426500Y-81041519D01*
X105426499Y-80578482D01*
X105411646Y-80484696D01*
X105409224Y-80479944D01*
X105399653Y-80419513D01*
X105409225Y-80390053D01*
X105411646Y-80385304D01*
X105426500Y-80291519D01*
X105426499Y-79728482D01*
X105426499Y-79728480D01*
X105426499Y-79728478D01*
X105411647Y-79634696D01*
X105354051Y-79521660D01*
X105354050Y-79521658D01*
X105264342Y-79431950D01*
X105151304Y-79374354D01*
X105151303Y-79374353D01*
X105151302Y-79374353D01*
X105057519Y-79359500D01*
X104194478Y-79359500D01*
X104100694Y-79374353D01*
X103994017Y-79428709D01*
X103949072Y-79439500D01*
X103752319Y-79439500D01*
X103694128Y-79420593D01*
X103658164Y-79371093D01*
X103658164Y-79309907D01*
X103682314Y-79270498D01*
X103689120Y-79263692D01*
X103705328Y-79247483D01*
X103721804Y-79234206D01*
X103728128Y-79230143D01*
X103761250Y-79191915D01*
X103766039Y-79186772D01*
X103776220Y-79176593D01*
X103784841Y-79165075D01*
X103789261Y-79159589D01*
X103822377Y-79121373D01*
X103825493Y-79114548D01*
X103836290Y-79096349D01*
X103840796Y-79090331D01*
X103858466Y-79042952D01*
X103861159Y-79036450D01*
X103882165Y-78990457D01*
X103883233Y-78983022D01*
X103888467Y-78962517D01*
X103891091Y-78955483D01*
X103894698Y-78905043D01*
X103895453Y-78898032D01*
X103897500Y-78883800D01*
X103897500Y-78869418D01*
X103897752Y-78862356D01*
X103897814Y-78861483D01*
X103901359Y-78811927D01*
X103899762Y-78804585D01*
X103897500Y-78783543D01*
X103897500Y-78461319D01*
X103916407Y-78403128D01*
X103926490Y-78391322D01*
X104226329Y-78091482D01*
X104242804Y-78078206D01*
X104249128Y-78074143D01*
X104282250Y-78035915D01*
X104287039Y-78030772D01*
X104297220Y-78020593D01*
X104297222Y-78020589D01*
X104297225Y-78020587D01*
X104297539Y-78020168D01*
X104297896Y-78019916D01*
X104302231Y-78015582D01*
X104302980Y-78016331D01*
X104347548Y-77984916D01*
X104376790Y-77980499D01*
X105057521Y-77980499D01*
X105151303Y-77965647D01*
X105205892Y-77937832D01*
X105264342Y-77908050D01*
X105354050Y-77818342D01*
X105411646Y-77705304D01*
X105426500Y-77611519D01*
X105426499Y-77048482D01*
X105411646Y-76954696D01*
X105409225Y-76949945D01*
X105399652Y-76889516D01*
X105409224Y-76860055D01*
X105411646Y-76855304D01*
X105426500Y-76761519D01*
X105426499Y-76298482D01*
X105426499Y-76298480D01*
X105426499Y-76298478D01*
X105411647Y-76204698D01*
X105408678Y-76198872D01*
X105396486Y-76174944D01*
X105386915Y-76114514D01*
X105396484Y-76085059D01*
X105411646Y-76055304D01*
X105426500Y-75961519D01*
X105426499Y-75498482D01*
X105425566Y-75492593D01*
X105421061Y-75464143D01*
X105411646Y-75404696D01*
X105409224Y-75399944D01*
X105399653Y-75339513D01*
X105409225Y-75310053D01*
X105411646Y-75305304D01*
X105426500Y-75211519D01*
X105426499Y-74648482D01*
X105426499Y-74648480D01*
X105426499Y-74648478D01*
X105411647Y-74554696D01*
X105354051Y-74441660D01*
X105354050Y-74441658D01*
X105264342Y-74351950D01*
X105151304Y-74294354D01*
X105151303Y-74294353D01*
X105151302Y-74294353D01*
X105057519Y-74279500D01*
X104492322Y-74279500D01*
X104434131Y-74260593D01*
X104422318Y-74250504D01*
X104415495Y-74243681D01*
X104387718Y-74189164D01*
X104386499Y-74173689D01*
X104386499Y-72999498D01*
X104405406Y-72941308D01*
X104454906Y-72905344D01*
X104485499Y-72900499D01*
X105057521Y-72900499D01*
X105151303Y-72885647D01*
X105234571Y-72843219D01*
X105264342Y-72828050D01*
X105354050Y-72738342D01*
X105411646Y-72625304D01*
X105426500Y-72531519D01*
X105426499Y-71968482D01*
X105411646Y-71874696D01*
X105409224Y-71869944D01*
X105399653Y-71809513D01*
X105409225Y-71780053D01*
X105411646Y-71775304D01*
X105426500Y-71681519D01*
X105426499Y-71218482D01*
X105426499Y-71218480D01*
X105426499Y-71218478D01*
X105411647Y-71124698D01*
X105411646Y-71124696D01*
X105396486Y-71094944D01*
X105386915Y-71034514D01*
X105396484Y-71005059D01*
X105411646Y-70975304D01*
X105426500Y-70881519D01*
X105426499Y-70418482D01*
X105411646Y-70324696D01*
X105409224Y-70319944D01*
X105399653Y-70259513D01*
X105409225Y-70230053D01*
X105411646Y-70225304D01*
X105426500Y-70131519D01*
X105426499Y-69568482D01*
X105426499Y-69568480D01*
X105426499Y-69568478D01*
X105411647Y-69474696D01*
X105354051Y-69361660D01*
X105354050Y-69361658D01*
X105264342Y-69271950D01*
X105151304Y-69214354D01*
X105151303Y-69214353D01*
X105151302Y-69214353D01*
X105057519Y-69199500D01*
X104194478Y-69199500D01*
X104100696Y-69214352D01*
X103987657Y-69271949D01*
X103939103Y-69320504D01*
X103884586Y-69348281D01*
X103869100Y-69349500D01*
X101721322Y-69349500D01*
X101663131Y-69330593D01*
X101651318Y-69320504D01*
X101534480Y-69203666D01*
X101521198Y-69187182D01*
X101517142Y-69180871D01*
X101478948Y-69147776D01*
X101473777Y-69142962D01*
X101463596Y-69132782D01*
X101463593Y-69132779D01*
X101452062Y-69124147D01*
X101446575Y-69119725D01*
X101408373Y-69086623D01*
X101408372Y-69086622D01*
X101401544Y-69083504D01*
X101383345Y-69072706D01*
X101377330Y-69068203D01*
X101329970Y-69050539D01*
X101323442Y-69047835D01*
X101277457Y-69026835D01*
X101270017Y-69025765D01*
X101249518Y-69020532D01*
X101242486Y-69017909D01*
X101192061Y-69014302D01*
X101185041Y-69013547D01*
X101170799Y-69011500D01*
X101156418Y-69011500D01*
X101149356Y-69011248D01*
X101121240Y-69009237D01*
X101098927Y-69007641D01*
X101098926Y-69007641D01*
X101091591Y-69009237D01*
X101070546Y-69011500D01*
X100141008Y-69011500D01*
X100082817Y-68992593D01*
X100046853Y-68943093D01*
X100046853Y-68881907D01*
X100071004Y-68842496D01*
X100381002Y-68532498D01*
X101311335Y-67602163D01*
X101327816Y-67588885D01*
X101334128Y-67584829D01*
X101367258Y-67546593D01*
X101372033Y-67541465D01*
X101382221Y-67531279D01*
X101390858Y-67519739D01*
X101395284Y-67514249D01*
X101428375Y-67476062D01*
X101428375Y-67476060D01*
X101428377Y-67476059D01*
X101431493Y-67469234D01*
X101442290Y-67451035D01*
X101446796Y-67445017D01*
X101464466Y-67397638D01*
X101467159Y-67391136D01*
X101488165Y-67345143D01*
X101489233Y-67337708D01*
X101494467Y-67317203D01*
X101497091Y-67310169D01*
X101500698Y-67259729D01*
X101501453Y-67252718D01*
X101503500Y-67238486D01*
X101503500Y-67224104D01*
X101503752Y-67217042D01*
X101503789Y-67216518D01*
X101507359Y-67166613D01*
X101505762Y-67159271D01*
X101503500Y-67138229D01*
X101503500Y-64619327D01*
X101522407Y-64561136D01*
X101532497Y-64549323D01*
X101614325Y-64467496D01*
X101668842Y-64439719D01*
X101684328Y-64438500D01*
X101901322Y-64438500D01*
X101901330Y-64438499D01*
X102043678Y-64438499D01*
X102101869Y-64457406D01*
X102113681Y-64467495D01*
X102213503Y-64567316D01*
X102241281Y-64621832D01*
X102242500Y-64637320D01*
X102242500Y-65822543D01*
X102240238Y-65843585D01*
X102238641Y-65850925D01*
X102242248Y-65901356D01*
X102242500Y-65908418D01*
X102242500Y-65922799D01*
X102244547Y-65937041D01*
X102245302Y-65944061D01*
X102248909Y-65994486D01*
X102251532Y-66001518D01*
X102256765Y-66022017D01*
X102257835Y-66029457D01*
X102278835Y-66075442D01*
X102281539Y-66081970D01*
X102299203Y-66129330D01*
X102303706Y-66135345D01*
X102314504Y-66153544D01*
X102317622Y-66160372D01*
X102317623Y-66160373D01*
X102350725Y-66198575D01*
X102355147Y-66204062D01*
X102363779Y-66215593D01*
X102363782Y-66215596D01*
X102373962Y-66225777D01*
X102378776Y-66230948D01*
X102411872Y-66269143D01*
X102418182Y-66273198D01*
X102434666Y-66286480D01*
X103626518Y-67478332D01*
X103639798Y-67494812D01*
X103643858Y-67501130D01*
X103682058Y-67534230D01*
X103687228Y-67539043D01*
X103693488Y-67545302D01*
X103697407Y-67549221D01*
X103708936Y-67557851D01*
X103714407Y-67562259D01*
X103752627Y-67595377D01*
X103759460Y-67598497D01*
X103777652Y-67609292D01*
X103783669Y-67613796D01*
X103831063Y-67631472D01*
X103837544Y-67634157D01*
X103863836Y-67646165D01*
X103887969Y-67657187D01*
X103916840Y-67677232D01*
X103987658Y-67748050D01*
X104100696Y-67805646D01*
X104194481Y-67820500D01*
X105057518Y-67820499D01*
X105057521Y-67820499D01*
X105151303Y-67805647D01*
X105205707Y-67777926D01*
X105264342Y-67748050D01*
X105354050Y-67658342D01*
X105411646Y-67545304D01*
X105426500Y-67451519D01*
X105426499Y-66888482D01*
X105424287Y-66874517D01*
X105411646Y-66794697D01*
X105411646Y-66794696D01*
X105409225Y-66789945D01*
X105399652Y-66729516D01*
X105409224Y-66700055D01*
X105411646Y-66695304D01*
X105426500Y-66601519D01*
X105426499Y-66138482D01*
X105426499Y-66138480D01*
X105426499Y-66138478D01*
X105411647Y-66044698D01*
X105403881Y-66029457D01*
X105396486Y-66014944D01*
X105386915Y-65954514D01*
X105396484Y-65925059D01*
X105411646Y-65895304D01*
X105426500Y-65801519D01*
X105426499Y-65338482D01*
X105424277Y-65324454D01*
X105411646Y-65244697D01*
X105411646Y-65244696D01*
X105409225Y-65239945D01*
X105399652Y-65179516D01*
X105409224Y-65150055D01*
X105411646Y-65145304D01*
X105426500Y-65051519D01*
X105426499Y-64488482D01*
X105426499Y-64488480D01*
X105426499Y-64488478D01*
X105411647Y-64394696D01*
X105354051Y-64281660D01*
X105354050Y-64281658D01*
X105264342Y-64191950D01*
X105264339Y-64191948D01*
X105202592Y-64160486D01*
X105159328Y-64117221D01*
X105149757Y-64056789D01*
X105150794Y-64051265D01*
X105152359Y-64044073D01*
X105148752Y-63993642D01*
X105148500Y-63986580D01*
X105148500Y-63972199D01*
X105147195Y-63963126D01*
X105146452Y-63957959D01*
X105145698Y-63950957D01*
X105142091Y-63900517D01*
X105139466Y-63893481D01*
X105134233Y-63872975D01*
X105133165Y-63865543D01*
X105112165Y-63819560D01*
X105109460Y-63813029D01*
X105091796Y-63765670D01*
X105091796Y-63765669D01*
X105087292Y-63759652D01*
X105076497Y-63741460D01*
X105073377Y-63734627D01*
X105040259Y-63696407D01*
X105035851Y-63690936D01*
X105027221Y-63679407D01*
X105027219Y-63679405D01*
X105017043Y-63669228D01*
X105012230Y-63664058D01*
X104979130Y-63625858D01*
X104972812Y-63621798D01*
X104956332Y-63608518D01*
X104257317Y-62909503D01*
X104229540Y-62854986D01*
X104239111Y-62794554D01*
X104282376Y-62751289D01*
X104327317Y-62740499D01*
X105079518Y-62740499D01*
X105079521Y-62740499D01*
X105173303Y-62725647D01*
X105227707Y-62697926D01*
X105286342Y-62668050D01*
X105376050Y-62578342D01*
X105433646Y-62465304D01*
X105448500Y-62371519D01*
X105448499Y-61808482D01*
X105448499Y-61808480D01*
X105448499Y-61808478D01*
X105433647Y-61714696D01*
X105431226Y-61709945D01*
X105421654Y-61649513D01*
X105431227Y-61620051D01*
X105433646Y-61615304D01*
X105448500Y-61521519D01*
X105448499Y-61058482D01*
X105448499Y-61058480D01*
X105448499Y-61058478D01*
X105433647Y-60964697D01*
X105418487Y-60934945D01*
X105408915Y-60874513D01*
X105418486Y-60845055D01*
X105433646Y-60815304D01*
X105448500Y-60721519D01*
X105448499Y-60258482D01*
X105433646Y-60164696D01*
X105431225Y-60159945D01*
X105421652Y-60099516D01*
X105431224Y-60070055D01*
X105433646Y-60065304D01*
X105448500Y-59971519D01*
X105448499Y-59408482D01*
X105448499Y-59408480D01*
X105448499Y-59408478D01*
X105433647Y-59314696D01*
X105376051Y-59201660D01*
X105376050Y-59201658D01*
X105286342Y-59111950D01*
X105173304Y-59054354D01*
X105173303Y-59054353D01*
X105173302Y-59054353D01*
X105079519Y-59039500D01*
X104358500Y-59039500D01*
X104300309Y-59020593D01*
X104264345Y-58971093D01*
X104259500Y-58940500D01*
X104259500Y-57759499D01*
X104278407Y-57701308D01*
X104327907Y-57665344D01*
X104358500Y-57660499D01*
X105057521Y-57660499D01*
X105151303Y-57645647D01*
X105223722Y-57608747D01*
X105264342Y-57588050D01*
X105354050Y-57498342D01*
X105411646Y-57385304D01*
X105426500Y-57291519D01*
X105426499Y-56728482D01*
X105411646Y-56634696D01*
X105409225Y-56629945D01*
X105399652Y-56569516D01*
X105409224Y-56540055D01*
X105411646Y-56535304D01*
X105426500Y-56441519D01*
X105426499Y-55978482D01*
X105426499Y-55978480D01*
X105426499Y-55978478D01*
X105411647Y-55884698D01*
X105411646Y-55884696D01*
X105396486Y-55854944D01*
X105386915Y-55794514D01*
X105396484Y-55765059D01*
X105411646Y-55735304D01*
X105426500Y-55641519D01*
X105426499Y-55453212D01*
X105445406Y-55395023D01*
X105466722Y-55379535D01*
X105441621Y-55358536D01*
X105426499Y-55305949D01*
X105426499Y-55178480D01*
X105411646Y-55084697D01*
X105411646Y-55084696D01*
X105409225Y-55079945D01*
X105399652Y-55019516D01*
X105409224Y-54990055D01*
X105411646Y-54985304D01*
X105426500Y-54891519D01*
X105426499Y-54328482D01*
X105426499Y-54328480D01*
X105426499Y-54328478D01*
X105411647Y-54234696D01*
X105354051Y-54121660D01*
X105354050Y-54121658D01*
X105264342Y-54031950D01*
X105151304Y-53974354D01*
X105151303Y-53974353D01*
X105151302Y-53974353D01*
X105057519Y-53959500D01*
X104194478Y-53959500D01*
X104100696Y-53974352D01*
X103987657Y-54031949D01*
X103939103Y-54080504D01*
X103884586Y-54108281D01*
X103869100Y-54109500D01*
X102194321Y-54109500D01*
X102136130Y-54090593D01*
X102124317Y-54080504D01*
X101565471Y-53521658D01*
X100948475Y-52904661D01*
X100935199Y-52888184D01*
X100931143Y-52881872D01*
X100931142Y-52881870D01*
X100892948Y-52848776D01*
X100887777Y-52843962D01*
X100877596Y-52833782D01*
X100877593Y-52833779D01*
X100866062Y-52825147D01*
X100860575Y-52820725D01*
X100822373Y-52787623D01*
X100822372Y-52787622D01*
X100815544Y-52784504D01*
X100797345Y-52773706D01*
X100791330Y-52769203D01*
X100743970Y-52751539D01*
X100737442Y-52748835D01*
X100691457Y-52727835D01*
X100684017Y-52726765D01*
X100663518Y-52721532D01*
X100656486Y-52718909D01*
X100606061Y-52715302D01*
X100599041Y-52714547D01*
X100584799Y-52712500D01*
X100570418Y-52712500D01*
X100563356Y-52712248D01*
X100535240Y-52710237D01*
X100512927Y-52708641D01*
X100512926Y-52708641D01*
X100505591Y-52710237D01*
X100484546Y-52712500D01*
X99175387Y-52712500D01*
X99133187Y-52698788D01*
X99132669Y-52700178D01*
X99083281Y-52681758D01*
X99035366Y-52643708D01*
X99018968Y-52584762D01*
X99040349Y-52527434D01*
X99083281Y-52496242D01*
X99119331Y-52482796D01*
X99218248Y-52408747D01*
X99276162Y-52389010D01*
X99277577Y-52389000D01*
X99469011Y-52389000D01*
X99469011Y-52388999D01*
X99461555Y-52332368D01*
X99401098Y-52186411D01*
X99395142Y-52178648D01*
X99374717Y-52120973D01*
X99375249Y-52107803D01*
X99377500Y-52086873D01*
X99377499Y-51791128D01*
X99371091Y-51731517D01*
X99320796Y-51596669D01*
X99234546Y-51481454D01*
X99231920Y-51479488D01*
X99196669Y-51429478D01*
X99197545Y-51368299D01*
X99221249Y-51330233D01*
X99307443Y-51244039D01*
X99397953Y-51097300D01*
X99452181Y-50933649D01*
X99462242Y-50835167D01*
X99462500Y-50830116D01*
X99462500Y-50796000D01*
X98274000Y-50796000D01*
X98215809Y-50777093D01*
X98179845Y-50727593D01*
X98175000Y-50697000D01*
X98175000Y-50395000D01*
X98193907Y-50336809D01*
X98243407Y-50300845D01*
X98274000Y-50296000D01*
X99462498Y-50296000D01*
X99462499Y-50295999D01*
X99462499Y-50261884D01*
X99462242Y-50256849D01*
X99452180Y-50158347D01*
X99415022Y-50046210D01*
X99414666Y-49985026D01*
X99450341Y-49935317D01*
X99457025Y-49930809D01*
X99611841Y-49835318D01*
X99735818Y-49711341D01*
X99827857Y-49562121D01*
X99883006Y-49395694D01*
X99893242Y-49295499D01*
X99893500Y-49290448D01*
X99893500Y-49018000D01*
X98655000Y-49018000D01*
X98596809Y-48999093D01*
X98560845Y-48949593D01*
X98556000Y-48919000D01*
X98556000Y-48517998D01*
X99056000Y-48517998D01*
X99056001Y-48518000D01*
X99893498Y-48518000D01*
X99893499Y-48517998D01*
X99893499Y-48327765D01*
X102285787Y-48327765D01*
X102315413Y-48597015D01*
X102383928Y-48859089D01*
X102451458Y-49018000D01*
X102489870Y-49108390D01*
X102630982Y-49339610D01*
X102804255Y-49547820D01*
X102909241Y-49641888D01*
X103005996Y-49728581D01*
X103231913Y-49878046D01*
X103477175Y-49993020D01*
X103638130Y-50041444D01*
X103736569Y-50071060D01*
X103948668Y-50102274D01*
X104004560Y-50110500D01*
X104004561Y-50110500D01*
X104205824Y-50110500D01*
X104207631Y-50110500D01*
X104410156Y-50095677D01*
X104674553Y-50036780D01*
X104927558Y-49940014D01*
X105163777Y-49807441D01*
X105378177Y-49641888D01*
X105566186Y-49446881D01*
X105723799Y-49226579D01*
X105847656Y-48985675D01*
X105935118Y-48729305D01*
X105984319Y-48462933D01*
X105994212Y-48192235D01*
X105994013Y-48190430D01*
X105979339Y-48057064D01*
X105964586Y-47922982D01*
X105896072Y-47660912D01*
X105790130Y-47411610D01*
X105649018Y-47180390D01*
X105475745Y-46972180D01*
X105370755Y-46878109D01*
X105274003Y-46791418D01*
X105048086Y-46641953D01*
X104802824Y-46526979D01*
X104543433Y-46448940D01*
X104275440Y-46409500D01*
X104275439Y-46409500D01*
X104072369Y-46409500D01*
X104070590Y-46409630D01*
X104070568Y-46409631D01*
X103869847Y-46424322D01*
X103605446Y-46483220D01*
X103352438Y-46579987D01*
X103116222Y-46712559D01*
X102901825Y-46878109D01*
X102713814Y-47073118D01*
X102556200Y-47293421D01*
X102432341Y-47534329D01*
X102344882Y-47790692D01*
X102295681Y-48057064D01*
X102285787Y-48327765D01*
X99893499Y-48327765D01*
X99893499Y-48245552D01*
X99893242Y-48240517D01*
X99883005Y-48140302D01*
X99827857Y-47973877D01*
X99735818Y-47824658D01*
X99611841Y-47700681D01*
X99462621Y-47608642D01*
X99296194Y-47553493D01*
X99195999Y-47543257D01*
X99190949Y-47543000D01*
X99056001Y-47543000D01*
X99056000Y-47543001D01*
X99056000Y-48517998D01*
X98556000Y-48517998D01*
X98556000Y-47543001D01*
X98555999Y-47543000D01*
X98421053Y-47543000D01*
X98416016Y-47543257D01*
X98315802Y-47553494D01*
X98149377Y-47608642D01*
X98000158Y-47700681D01*
X97876180Y-47824659D01*
X97794307Y-47957396D01*
X97747666Y-47996997D01*
X97686656Y-48001620D01*
X97634580Y-47969499D01*
X97624836Y-47955822D01*
X97586581Y-47891135D01*
X97470365Y-47774919D01*
X97470362Y-47774917D01*
X97470361Y-47774916D01*
X97328899Y-47691256D01*
X97171069Y-47645402D01*
X97136133Y-47642652D01*
X97136117Y-47642651D01*
X97134194Y-47642500D01*
X96327806Y-47642500D01*
X96325883Y-47642651D01*
X96325866Y-47642652D01*
X96290930Y-47645402D01*
X96133100Y-47691256D01*
X95991638Y-47774916D01*
X95875416Y-47891138D01*
X95791756Y-48032600D01*
X95745902Y-48190430D01*
X95743152Y-48225366D01*
X95743151Y-48225383D01*
X95743000Y-48227306D01*
X95743000Y-49308694D01*
X95743151Y-49310617D01*
X95743152Y-49310633D01*
X95745902Y-49345569D01*
X95791754Y-49503394D01*
X95791755Y-49503396D01*
X95791756Y-49503398D01*
X95816714Y-49545599D01*
X95830500Y-49595992D01*
X95830500Y-49991052D01*
X95816715Y-50041444D01*
X95809819Y-50053104D01*
X95764846Y-50207901D01*
X95762152Y-50242123D01*
X95762151Y-50242144D01*
X95762000Y-50244065D01*
X95762000Y-50246013D01*
X95762000Y-50246014D01*
X95762000Y-50845982D01*
X95762000Y-50846007D01*
X95762001Y-50847934D01*
X95762154Y-50849877D01*
X95764846Y-50884098D01*
X95809819Y-51038895D01*
X95816713Y-51050552D01*
X95830500Y-51100947D01*
X95830500Y-72798161D01*
X95826569Y-72825781D01*
X95788902Y-72955430D01*
X95786152Y-72990366D01*
X95786151Y-72990383D01*
X95786000Y-72992306D01*
X95786000Y-74073694D01*
X95786151Y-74075615D01*
X95786152Y-74075635D01*
X95788902Y-74110568D01*
X95788902Y-74110569D01*
X95825155Y-74235352D01*
X95826569Y-74240217D01*
X95830500Y-74267838D01*
X95830500Y-74756052D01*
X95816715Y-74806444D01*
X95809819Y-74818104D01*
X95764846Y-74972901D01*
X95762152Y-75007123D01*
X95762151Y-75007144D01*
X95762000Y-75009065D01*
X95762000Y-75011013D01*
X95762000Y-75011014D01*
X95762000Y-75610982D01*
X95762000Y-75611007D01*
X95762001Y-75612934D01*
X95762154Y-75614877D01*
X95764846Y-75649098D01*
X95809819Y-75803895D01*
X95816713Y-75815552D01*
X95830500Y-75865947D01*
X95830500Y-83956992D01*
X95811593Y-84015183D01*
X95801504Y-84026996D01*
X91349997Y-88478504D01*
X91295480Y-88506281D01*
X91279993Y-88507500D01*
X89213281Y-88507500D01*
X89155090Y-88488593D01*
X89128070Y-88458898D01*
X89082081Y-88381135D01*
X88965865Y-88264919D01*
X88965862Y-88264917D01*
X88965861Y-88264916D01*
X88824399Y-88181256D01*
X88666569Y-88135402D01*
X88631633Y-88132652D01*
X88631617Y-88132651D01*
X88629694Y-88132500D01*
X87698306Y-88132500D01*
X87696383Y-88132651D01*
X87696366Y-88132652D01*
X87661430Y-88135402D01*
X87503600Y-88181256D01*
X87362138Y-88264916D01*
X87245916Y-88381138D01*
X87162256Y-88522600D01*
X87116402Y-88680430D01*
X87113652Y-88715366D01*
X87113651Y-88715383D01*
X87113500Y-88717306D01*
X87113500Y-90098694D01*
X86114500Y-90098694D01*
X86114500Y-88717306D01*
X86111598Y-88680431D01*
X86065744Y-88522602D01*
X86018687Y-88443033D01*
X85982083Y-88381138D01*
X85982082Y-88381137D01*
X85982081Y-88381135D01*
X85865865Y-88264919D01*
X85865862Y-88264917D01*
X85865861Y-88264916D01*
X85724399Y-88181256D01*
X85566569Y-88135402D01*
X85531633Y-88132652D01*
X85531617Y-88132651D01*
X85529694Y-88132500D01*
X84598306Y-88132500D01*
X84596383Y-88132651D01*
X84596366Y-88132652D01*
X84561430Y-88135402D01*
X84403601Y-88181255D01*
X84291964Y-88247277D01*
X84232252Y-88260624D01*
X84176100Y-88236323D01*
X84171566Y-88232067D01*
X83453496Y-87513997D01*
X83425719Y-87459480D01*
X83424500Y-87443993D01*
X83424500Y-87443992D01*
X83424500Y-86432088D01*
X83443406Y-86373901D01*
X83492906Y-86337937D01*
X83554092Y-86337937D01*
X83565338Y-86342367D01*
X83610509Y-86363430D01*
X83824000Y-86420634D01*
X83824000Y-85525501D01*
X83931685Y-85574680D01*
X84038237Y-85590000D01*
X84109763Y-85590000D01*
X84216315Y-85574680D01*
X84324000Y-85525501D01*
X84324000Y-86420633D01*
X84537495Y-86363429D01*
X84751576Y-86263601D01*
X84945074Y-86128112D01*
X85112112Y-85961074D01*
X85247599Y-85767579D01*
X85254273Y-85753267D01*
X85295999Y-85708517D01*
X85356060Y-85696839D01*
X85411514Y-85722695D01*
X85433722Y-85753260D01*
X85440398Y-85767577D01*
X85575887Y-85961074D01*
X85742925Y-86128112D01*
X85936423Y-86263601D01*
X86150504Y-86363429D01*
X86364000Y-86420634D01*
X86364000Y-85525501D01*
X86471685Y-85574680D01*
X86578237Y-85590000D01*
X86649763Y-85590000D01*
X86756315Y-85574680D01*
X86864000Y-85525501D01*
X86864000Y-86420633D01*
X87077495Y-86363429D01*
X87291576Y-86263601D01*
X87485074Y-86128112D01*
X87652112Y-85961074D01*
X87787601Y-85767576D01*
X87887429Y-85553495D01*
X87944636Y-85340000D01*
X87047686Y-85340000D01*
X87073493Y-85299844D01*
X87114000Y-85161889D01*
X87114000Y-85018111D01*
X87073493Y-84880156D01*
X87047686Y-84840000D01*
X87944636Y-84840000D01*
X87887429Y-84626505D01*
X87787601Y-84412424D01*
X87652112Y-84218925D01*
X87485074Y-84051887D01*
X87291576Y-83916398D01*
X87159545Y-83854831D01*
X87114797Y-83813103D01*
X87103122Y-83753042D01*
X87128980Y-83697589D01*
X87159540Y-83675384D01*
X87241639Y-83637102D01*
X87420877Y-83511598D01*
X87575598Y-83356877D01*
X87701102Y-83177639D01*
X87793575Y-82979330D01*
X87850207Y-82767977D01*
X87851430Y-82754000D01*
X91284989Y-82754000D01*
X91292444Y-82810631D01*
X91352901Y-82956588D01*
X91449074Y-83081925D01*
X91574409Y-83178098D01*
X91720369Y-83238556D01*
X91834463Y-83253576D01*
X91840917Y-83253999D01*
X92314498Y-83253999D01*
X92314499Y-83253998D01*
X92714500Y-83253998D01*
X92714501Y-83253999D01*
X93188080Y-83253999D01*
X93194537Y-83253575D01*
X93308630Y-83238556D01*
X93454590Y-83178098D01*
X93579925Y-83081925D01*
X93676098Y-82956590D01*
X93736556Y-82810630D01*
X93744011Y-82754000D01*
X92714501Y-82754000D01*
X92714500Y-82754001D01*
X92714500Y-83253998D01*
X92314499Y-83253998D01*
X92314500Y-83253997D01*
X92314500Y-82754001D01*
X92314499Y-82754000D01*
X91284989Y-82754000D01*
X87851430Y-82754000D01*
X87869277Y-82550000D01*
X87852130Y-82354000D01*
X91284988Y-82354000D01*
X92314499Y-82354000D01*
X92314500Y-82353999D01*
X92714500Y-82353999D01*
X92714501Y-82354000D01*
X93744011Y-82354000D01*
X93744011Y-82353999D01*
X93736556Y-82297371D01*
X93723929Y-82266887D01*
X93719128Y-82205890D01*
X93723930Y-82191113D01*
X93736556Y-82160632D01*
X93744012Y-82104000D01*
X92714501Y-82104000D01*
X92714500Y-82104001D01*
X92714500Y-82353999D01*
X92314500Y-82353999D01*
X92314500Y-82104000D01*
X91284989Y-82104000D01*
X91292444Y-82160631D01*
X91305070Y-82191114D01*
X91309870Y-82252111D01*
X91305071Y-82266883D01*
X91292443Y-82297369D01*
X91284988Y-82353999D01*
X91284988Y-82354000D01*
X87852130Y-82354000D01*
X87850207Y-82332023D01*
X87793575Y-82120670D01*
X87762718Y-82054498D01*
X87701103Y-81922364D01*
X87679654Y-81891732D01*
X87575598Y-81743123D01*
X87536475Y-81704000D01*
X91284988Y-81704000D01*
X92314499Y-81704000D01*
X92314500Y-81703999D01*
X92714500Y-81703999D01*
X92714501Y-81704000D01*
X93744011Y-81704000D01*
X93744011Y-81703999D01*
X93736556Y-81647371D01*
X93723929Y-81616887D01*
X93719128Y-81555890D01*
X93723930Y-81541113D01*
X93736556Y-81510632D01*
X93744012Y-81454000D01*
X92714501Y-81454000D01*
X92714500Y-81454001D01*
X92714500Y-81703999D01*
X92314500Y-81703999D01*
X92314500Y-81454001D01*
X92314499Y-81454000D01*
X91284989Y-81454000D01*
X91292443Y-81510630D01*
X91305070Y-81541113D01*
X91309871Y-81602110D01*
X91305071Y-81616883D01*
X91292443Y-81647369D01*
X91284988Y-81703999D01*
X91284988Y-81704000D01*
X87536475Y-81704000D01*
X87420877Y-81588402D01*
X87394031Y-81569604D01*
X87241641Y-81462899D01*
X87222557Y-81454000D01*
X87043330Y-81370425D01*
X87043325Y-81370423D01*
X87041827Y-81369725D01*
X86997079Y-81327996D01*
X86985404Y-81267935D01*
X87011262Y-81212482D01*
X87041827Y-81190275D01*
X87043325Y-81189576D01*
X87043330Y-81189575D01*
X87241639Y-81097102D01*
X87420877Y-80971598D01*
X87575598Y-80816877D01*
X87701102Y-80637639D01*
X87722075Y-80592659D01*
X87763804Y-80547913D01*
X87811800Y-80535500D01*
X89403323Y-80535500D01*
X89461514Y-80554407D01*
X89473326Y-80564496D01*
X89790855Y-80882024D01*
X89793205Y-80884455D01*
X89835245Y-80929469D01*
X89869609Y-80950366D01*
X89877979Y-80956063D01*
X89910024Y-80980364D01*
X89927502Y-80987256D01*
X89942626Y-80994768D01*
X89958672Y-81004526D01*
X89997392Y-81015375D01*
X90006994Y-81018604D01*
X90044410Y-81033359D01*
X90063108Y-81035280D01*
X90079679Y-81038430D01*
X90097772Y-81043500D01*
X90137985Y-81043500D01*
X90148108Y-81044019D01*
X90150716Y-81044287D01*
X90188109Y-81048131D01*
X90201429Y-81045834D01*
X90206625Y-81044939D01*
X90223443Y-81043500D01*
X91230922Y-81043500D01*
X91263238Y-81054000D01*
X91476423Y-81054000D01*
X91534614Y-81072907D01*
X91535752Y-81073747D01*
X91566952Y-81097103D01*
X91634669Y-81147796D01*
X91769517Y-81198091D01*
X91829127Y-81204500D01*
X93199872Y-81204499D01*
X93259483Y-81198091D01*
X93394331Y-81147796D01*
X93493247Y-81073747D01*
X93551162Y-81054010D01*
X93552577Y-81054000D01*
X93744011Y-81054000D01*
X93744011Y-81053999D01*
X93736555Y-80997368D01*
X93676098Y-80851411D01*
X93670142Y-80843648D01*
X93649717Y-80785973D01*
X93650249Y-80772803D01*
X93652500Y-80751873D01*
X93652499Y-80456128D01*
X93646091Y-80396517D01*
X93615162Y-80313594D01*
X93612543Y-80252467D01*
X93615154Y-80244427D01*
X93646091Y-80161483D01*
X93652500Y-80101873D01*
X93652499Y-79806128D01*
X93646091Y-79746517D01*
X93615162Y-79663594D01*
X93612543Y-79602467D01*
X93615154Y-79594427D01*
X93646091Y-79511483D01*
X93652500Y-79451873D01*
X93652499Y-79156128D01*
X93646091Y-79096517D01*
X93615162Y-79013594D01*
X93612543Y-78952467D01*
X93615154Y-78944427D01*
X93646091Y-78861483D01*
X93652500Y-78801873D01*
X93652499Y-78506128D01*
X93646091Y-78446517D01*
X93615162Y-78363594D01*
X93612543Y-78302467D01*
X93615154Y-78294427D01*
X93646091Y-78211483D01*
X93652500Y-78151873D01*
X93652499Y-77856128D01*
X93646091Y-77796517D01*
X93615162Y-77713594D01*
X93612543Y-77652467D01*
X93615154Y-77644427D01*
X93646091Y-77561483D01*
X93652500Y-77501873D01*
X93652499Y-77206128D01*
X93650249Y-77185202D01*
X93662827Y-77125326D01*
X93670143Y-77114350D01*
X93676099Y-77106587D01*
X93736556Y-76960631D01*
X93744011Y-76904000D01*
X93552577Y-76904000D01*
X93494386Y-76885093D01*
X93493248Y-76884253D01*
X93394330Y-76810203D01*
X93263829Y-76761530D01*
X93259483Y-76759909D01*
X93214476Y-76755070D01*
X93202498Y-76753782D01*
X93202493Y-76753781D01*
X93199873Y-76753500D01*
X93197227Y-76753500D01*
X91831775Y-76753500D01*
X91831756Y-76753500D01*
X91829128Y-76753501D01*
X91826513Y-76753782D01*
X91826496Y-76753783D01*
X91769515Y-76759909D01*
X91634669Y-76810203D01*
X91535752Y-76884253D01*
X91477838Y-76903990D01*
X91476423Y-76904000D01*
X91284989Y-76904000D01*
X91279047Y-76910776D01*
X91226463Y-76942059D01*
X91204615Y-76944500D01*
X91190678Y-76944500D01*
X91132487Y-76925593D01*
X91120674Y-76915504D01*
X90724496Y-76519326D01*
X90716687Y-76504000D01*
X91284988Y-76504000D01*
X92314499Y-76504000D01*
X92314500Y-76503999D01*
X92714500Y-76503999D01*
X92714501Y-76504000D01*
X93744011Y-76504000D01*
X93744011Y-76503999D01*
X93736555Y-76447368D01*
X93676098Y-76301411D01*
X93579925Y-76176074D01*
X93454590Y-76079901D01*
X93308630Y-76019443D01*
X93194536Y-76004423D01*
X93188082Y-76004000D01*
X92714501Y-76004000D01*
X92714500Y-76004001D01*
X92714500Y-76503999D01*
X92314500Y-76503999D01*
X92314500Y-76004000D01*
X91840920Y-76004000D01*
X91834462Y-76004424D01*
X91720369Y-76019443D01*
X91574409Y-76079901D01*
X91449074Y-76176074D01*
X91352901Y-76301409D01*
X91292443Y-76447369D01*
X91284988Y-76503999D01*
X91284988Y-76504000D01*
X90716687Y-76504000D01*
X90696719Y-76464809D01*
X90695500Y-76449322D01*
X90695500Y-74940665D01*
X90695558Y-74937284D01*
X90697660Y-74875756D01*
X90688139Y-74836689D01*
X90686246Y-74826727D01*
X90680771Y-74786889D01*
X90673285Y-74769655D01*
X90667903Y-74753654D01*
X90663457Y-74735406D01*
X90643751Y-74700359D01*
X90639242Y-74691280D01*
X90623219Y-74654391D01*
X90611363Y-74639818D01*
X90601864Y-74625861D01*
X90592657Y-74609487D01*
X90564216Y-74581045D01*
X90557425Y-74573520D01*
X90532054Y-74542334D01*
X90516708Y-74531502D01*
X90503797Y-74520627D01*
X89374129Y-73390960D01*
X89371781Y-73388529D01*
X89329755Y-73343531D01*
X89295398Y-73322638D01*
X89287018Y-73316935D01*
X89254974Y-73292635D01*
X89237493Y-73285741D01*
X89222380Y-73278234D01*
X89206330Y-73268474D01*
X89167608Y-73257625D01*
X89158000Y-73254394D01*
X89120589Y-73239641D01*
X89101894Y-73237718D01*
X89085314Y-73234567D01*
X89067228Y-73229500D01*
X89027014Y-73229500D01*
X89016891Y-73228981D01*
X89000718Y-73227318D01*
X88976890Y-73224869D01*
X88976889Y-73224869D01*
X88958374Y-73228061D01*
X88941556Y-73229500D01*
X87742932Y-73229500D01*
X87684741Y-73210593D01*
X87648777Y-73161093D01*
X87648777Y-73099907D01*
X87661836Y-73073716D01*
X87695830Y-73025168D01*
X87701102Y-73017639D01*
X87722075Y-72972659D01*
X87763804Y-72927913D01*
X87811800Y-72915500D01*
X88381334Y-72915500D01*
X88384712Y-72915557D01*
X88402128Y-72916152D01*
X88446242Y-72917660D01*
X88446242Y-72917659D01*
X88446245Y-72917660D01*
X88485326Y-72908135D01*
X88495260Y-72906247D01*
X88535111Y-72900771D01*
X88552348Y-72893283D01*
X88568348Y-72887903D01*
X88586594Y-72883457D01*
X88621654Y-72863742D01*
X88630715Y-72859243D01*
X88667609Y-72843219D01*
X88682182Y-72831362D01*
X88696135Y-72821865D01*
X88712512Y-72812658D01*
X88740956Y-72784212D01*
X88748460Y-72777440D01*
X88779665Y-72752054D01*
X88790498Y-72736705D01*
X88801363Y-72723805D01*
X89693169Y-71832000D01*
X91284989Y-71832000D01*
X91292444Y-71888631D01*
X91352901Y-72034588D01*
X91449074Y-72159925D01*
X91574409Y-72256098D01*
X91720369Y-72316556D01*
X91834463Y-72331576D01*
X91840917Y-72331999D01*
X92314498Y-72331999D01*
X92314500Y-72331998D01*
X92714500Y-72331998D01*
X92714501Y-72331999D01*
X93188080Y-72331999D01*
X93194537Y-72331575D01*
X93308630Y-72316556D01*
X93454590Y-72256098D01*
X93579925Y-72159925D01*
X93676098Y-72034590D01*
X93736556Y-71888630D01*
X93744011Y-71832000D01*
X92714501Y-71832000D01*
X92714500Y-71832001D01*
X92714500Y-72331998D01*
X92314500Y-72331998D01*
X92314500Y-71832001D01*
X92314499Y-71832000D01*
X91284989Y-71832000D01*
X89693169Y-71832000D01*
X89988673Y-71536496D01*
X90043191Y-71508719D01*
X90058678Y-71507500D01*
X91577278Y-71507500D01*
X91621001Y-71521706D01*
X91621331Y-71520822D01*
X91689330Y-71546183D01*
X91769517Y-71576091D01*
X91829127Y-71582500D01*
X93199872Y-71582499D01*
X93259483Y-71576091D01*
X93394331Y-71525796D01*
X93493247Y-71451747D01*
X93551162Y-71432010D01*
X93552577Y-71432000D01*
X93744011Y-71432000D01*
X93744011Y-71431999D01*
X93736555Y-71375368D01*
X93676098Y-71229411D01*
X93670142Y-71221648D01*
X93649717Y-71163973D01*
X93650249Y-71150803D01*
X93652500Y-71129873D01*
X93652499Y-70834128D01*
X93646091Y-70774517D01*
X93615162Y-70691594D01*
X93612543Y-70630467D01*
X93615154Y-70622427D01*
X93646091Y-70539483D01*
X93652500Y-70479873D01*
X93652499Y-70184128D01*
X93646091Y-70124517D01*
X93615162Y-70041594D01*
X93612543Y-69980467D01*
X93615154Y-69972427D01*
X93646091Y-69889483D01*
X93652500Y-69829873D01*
X93652499Y-69534128D01*
X93646091Y-69474517D01*
X93615162Y-69391594D01*
X93612543Y-69330467D01*
X93615154Y-69322427D01*
X93646091Y-69239483D01*
X93652500Y-69179873D01*
X93652499Y-68884128D01*
X93646091Y-68824517D01*
X93615162Y-68741594D01*
X93612543Y-68680467D01*
X93615154Y-68672427D01*
X93646091Y-68589483D01*
X93652500Y-68529873D01*
X93652499Y-68234128D01*
X93646091Y-68174517D01*
X93615162Y-68091594D01*
X93612543Y-68030467D01*
X93615154Y-68022427D01*
X93646091Y-67939483D01*
X93652500Y-67879873D01*
X93652499Y-67584128D01*
X93646091Y-67524517D01*
X93615162Y-67441594D01*
X93612543Y-67380467D01*
X93615154Y-67372427D01*
X93646091Y-67289483D01*
X93652500Y-67229873D01*
X93652499Y-66934128D01*
X93646091Y-66874517D01*
X93615162Y-66791594D01*
X93612543Y-66730467D01*
X93615154Y-66722427D01*
X93646091Y-66639483D01*
X93652500Y-66579873D01*
X93652499Y-66284128D01*
X93650249Y-66263202D01*
X93662827Y-66203326D01*
X93670143Y-66192350D01*
X93676099Y-66184587D01*
X93736556Y-66038631D01*
X93744011Y-65982000D01*
X93552577Y-65982000D01*
X93494386Y-65963093D01*
X93493248Y-65962253D01*
X93394330Y-65888203D01*
X93274701Y-65843585D01*
X93259483Y-65837909D01*
X93215334Y-65833162D01*
X93202498Y-65831782D01*
X93202493Y-65831781D01*
X93199873Y-65831500D01*
X93197227Y-65831500D01*
X92967198Y-65831500D01*
X92934905Y-65822452D01*
X92934431Y-65824146D01*
X92921330Y-65820475D01*
X92921328Y-65820474D01*
X92782228Y-65781500D01*
X92782227Y-65781500D01*
X92413500Y-65781500D01*
X92355309Y-65762593D01*
X92319345Y-65713093D01*
X92314500Y-65682500D01*
X92314500Y-65581999D01*
X92714500Y-65581999D01*
X92714501Y-65582000D01*
X93744011Y-65582000D01*
X93744011Y-65581999D01*
X93736555Y-65525368D01*
X93676098Y-65379411D01*
X93579925Y-65254074D01*
X93454590Y-65157901D01*
X93308630Y-65097443D01*
X93194536Y-65082423D01*
X93188082Y-65082000D01*
X92714501Y-65082000D01*
X92714500Y-65082001D01*
X92714500Y-65581999D01*
X92314500Y-65581999D01*
X92314500Y-65082001D01*
X92314499Y-65082000D01*
X91840920Y-65082000D01*
X91834462Y-65082424D01*
X91720369Y-65097443D01*
X91574409Y-65157901D01*
X91449074Y-65254074D01*
X91381042Y-65342736D01*
X91330617Y-65377392D01*
X91269453Y-65375790D01*
X91220911Y-65338543D01*
X91203500Y-65282469D01*
X91203500Y-64018665D01*
X91203558Y-64015284D01*
X91205660Y-63953757D01*
X91205660Y-63953755D01*
X91196134Y-63914669D01*
X91194248Y-63904740D01*
X91188771Y-63864889D01*
X91181286Y-63847658D01*
X91175902Y-63831649D01*
X91171457Y-63813405D01*
X91151747Y-63778351D01*
X91147243Y-63769283D01*
X91145673Y-63765669D01*
X91131219Y-63732391D01*
X91119360Y-63717814D01*
X91109862Y-63703859D01*
X91100656Y-63687486D01*
X91072221Y-63659051D01*
X91065430Y-63651526D01*
X91040054Y-63620335D01*
X91024705Y-63609500D01*
X91011794Y-63598625D01*
X90549129Y-63135960D01*
X90546781Y-63133529D01*
X90504755Y-63088531D01*
X90470398Y-63067638D01*
X90462018Y-63061935D01*
X90429974Y-63037635D01*
X90412493Y-63030741D01*
X90397380Y-63023234D01*
X90381330Y-63013474D01*
X90342608Y-63002625D01*
X90333000Y-62999394D01*
X90295589Y-62984641D01*
X90276894Y-62982718D01*
X90260314Y-62979567D01*
X90242228Y-62974500D01*
X90202014Y-62974500D01*
X90191891Y-62973981D01*
X90175718Y-62972318D01*
X90151890Y-62969869D01*
X90151889Y-62969869D01*
X90133374Y-62973061D01*
X90116556Y-62974500D01*
X87802008Y-62974500D01*
X87743817Y-62955593D01*
X87707853Y-62906093D01*
X87707853Y-62844907D01*
X87712283Y-62833661D01*
X87745699Y-62762000D01*
X87793575Y-62659330D01*
X87850207Y-62447977D01*
X87869277Y-62230000D01*
X87850207Y-62012023D01*
X87806872Y-61850295D01*
X87810074Y-61789198D01*
X87832493Y-61754674D01*
X89916263Y-59670904D01*
X89918667Y-59668583D01*
X89961540Y-59628543D01*
X89963667Y-59626557D01*
X89984567Y-59592186D01*
X89990247Y-59583840D01*
X90014562Y-59551777D01*
X90021457Y-59534289D01*
X90028959Y-59519185D01*
X90038724Y-59503130D01*
X90049573Y-59464405D01*
X90052799Y-59454812D01*
X90067557Y-59417392D01*
X90069478Y-59398691D01*
X90072631Y-59382111D01*
X90077698Y-59364030D01*
X90077698Y-59323816D01*
X90078217Y-59313693D01*
X90080371Y-59292737D01*
X90082329Y-59273693D01*
X90079137Y-59255177D01*
X90077698Y-59238359D01*
X90077698Y-58026479D01*
X90089875Y-57989000D01*
X91284989Y-57989000D01*
X91292444Y-58045631D01*
X91352901Y-58191588D01*
X91449074Y-58316925D01*
X91574409Y-58413098D01*
X91720369Y-58473556D01*
X91834463Y-58488576D01*
X91840917Y-58488999D01*
X92314498Y-58488999D01*
X92314500Y-58488997D01*
X92314500Y-57989001D01*
X92314499Y-57989000D01*
X92714500Y-57989000D01*
X92714500Y-58488998D01*
X92714501Y-58488999D01*
X93188080Y-58488999D01*
X93194537Y-58488575D01*
X93308630Y-58473556D01*
X93454590Y-58413098D01*
X93579925Y-58316925D01*
X93676098Y-58191590D01*
X93736556Y-58045630D01*
X93744011Y-57989000D01*
X92714500Y-57989000D01*
X92314499Y-57989000D01*
X91284989Y-57989000D01*
X90089875Y-57989000D01*
X90096605Y-57968288D01*
X90106694Y-57956475D01*
X90369673Y-57693496D01*
X90424190Y-57665719D01*
X90439677Y-57664500D01*
X91577278Y-57664500D01*
X91621001Y-57678706D01*
X91621331Y-57677822D01*
X91684302Y-57701308D01*
X91769517Y-57733091D01*
X91829127Y-57739500D01*
X93199872Y-57739499D01*
X93259483Y-57733091D01*
X93394331Y-57682796D01*
X93493247Y-57608747D01*
X93551162Y-57589010D01*
X93552577Y-57589000D01*
X93744011Y-57589000D01*
X93744011Y-57588999D01*
X93736555Y-57532368D01*
X93676098Y-57386411D01*
X93670142Y-57378648D01*
X93649717Y-57320973D01*
X93650249Y-57307803D01*
X93652500Y-57286873D01*
X93652499Y-56991128D01*
X93646091Y-56931517D01*
X93615162Y-56848594D01*
X93612543Y-56787467D01*
X93615154Y-56779427D01*
X93646091Y-56696483D01*
X93652500Y-56636873D01*
X93652499Y-56341128D01*
X93646091Y-56281517D01*
X93615162Y-56198594D01*
X93612543Y-56137467D01*
X93615154Y-56129427D01*
X93646091Y-56046483D01*
X93652500Y-55986873D01*
X93652499Y-55691128D01*
X93646091Y-55631517D01*
X93615162Y-55548594D01*
X93612543Y-55487467D01*
X93615154Y-55479427D01*
X93646091Y-55396483D01*
X93652500Y-55336873D01*
X93652499Y-55041128D01*
X93646091Y-54981517D01*
X93615162Y-54898594D01*
X93612543Y-54837467D01*
X93615154Y-54829427D01*
X93646091Y-54746483D01*
X93652500Y-54686873D01*
X93652499Y-54391128D01*
X93646091Y-54331517D01*
X93615162Y-54248594D01*
X93612543Y-54187467D01*
X93615154Y-54179427D01*
X93646091Y-54096483D01*
X93652500Y-54036873D01*
X93652499Y-53741128D01*
X93646091Y-53681517D01*
X93615162Y-53598594D01*
X93612543Y-53537467D01*
X93615154Y-53529427D01*
X93646091Y-53446483D01*
X93652500Y-53386873D01*
X93652499Y-53091128D01*
X93646091Y-53031517D01*
X93615162Y-52948594D01*
X93612543Y-52887467D01*
X93615154Y-52879427D01*
X93646091Y-52796483D01*
X93652500Y-52736873D01*
X93652499Y-52441128D01*
X93650249Y-52420202D01*
X93662827Y-52360326D01*
X93670143Y-52349350D01*
X93676099Y-52341587D01*
X93736556Y-52195631D01*
X93744011Y-52139000D01*
X93552577Y-52139000D01*
X93494386Y-52120093D01*
X93493248Y-52119253D01*
X93394330Y-52045203D01*
X93298366Y-52009411D01*
X93259483Y-51994909D01*
X93215334Y-51990162D01*
X93202498Y-51988782D01*
X93202493Y-51988781D01*
X93199873Y-51988500D01*
X93197227Y-51988500D01*
X91831775Y-51988500D01*
X91831756Y-51988500D01*
X91829128Y-51988501D01*
X91826513Y-51988782D01*
X91826496Y-51988783D01*
X91769515Y-51994909D01*
X91621331Y-52050178D01*
X91620927Y-52049096D01*
X91578696Y-52063490D01*
X91577278Y-52063500D01*
X84835666Y-52063500D01*
X84832287Y-52063442D01*
X84829968Y-52063362D01*
X84770756Y-52061339D01*
X84731685Y-52070860D01*
X84721731Y-52072752D01*
X84681887Y-52078229D01*
X84664653Y-52085715D01*
X84648657Y-52091094D01*
X84630406Y-52095542D01*
X84611942Y-52105923D01*
X84595352Y-52115250D01*
X84586295Y-52119750D01*
X84559352Y-52131454D01*
X84549386Y-52135783D01*
X84534806Y-52147644D01*
X84520859Y-52157137D01*
X84504486Y-52166344D01*
X84476054Y-52194775D01*
X84468532Y-52201564D01*
X84437332Y-52226948D01*
X84426499Y-52242294D01*
X84415626Y-52255203D01*
X83709945Y-52960884D01*
X83707515Y-52963232D01*
X83662531Y-53005245D01*
X83641635Y-53039605D01*
X83635934Y-53047980D01*
X83611636Y-53080023D01*
X83604742Y-53097504D01*
X83597236Y-53112616D01*
X83587473Y-53128671D01*
X83576623Y-53167394D01*
X83573394Y-53176998D01*
X83558641Y-53214411D01*
X83556719Y-53233102D01*
X83553568Y-53249678D01*
X83544830Y-53280871D01*
X83542127Y-53280113D01*
X83529593Y-53318691D01*
X83480093Y-53354655D01*
X83449500Y-53359500D01*
X83192478Y-53359500D01*
X83098696Y-53374352D01*
X82985660Y-53431948D01*
X82895949Y-53521659D01*
X82838353Y-53634697D01*
X82823500Y-53728480D01*
X82823500Y-55491521D01*
X82838352Y-55585303D01*
X82895317Y-55697100D01*
X82895950Y-55698342D01*
X82985658Y-55788050D01*
X83098696Y-55845646D01*
X83192481Y-55860500D01*
X83433848Y-55860499D01*
X83492036Y-55879406D01*
X83528000Y-55928906D01*
X83528001Y-55990091D01*
X83492037Y-56039591D01*
X83475687Y-56049223D01*
X83446360Y-56062898D01*
X83267126Y-56188399D01*
X83112399Y-56343126D01*
X82986896Y-56522364D01*
X82894426Y-56720665D01*
X82837792Y-56932026D01*
X82818722Y-57150000D01*
X82837792Y-57367973D01*
X82837792Y-57367976D01*
X82837793Y-57367977D01*
X82842436Y-57385304D01*
X82894426Y-57579334D01*
X82986896Y-57777636D01*
X83112120Y-57956475D01*
X83112402Y-57956877D01*
X83267123Y-58111598D01*
X83446361Y-58237102D01*
X83446362Y-58237102D01*
X83446363Y-58237103D01*
X83646172Y-58330276D01*
X83690920Y-58372004D01*
X83702595Y-58432065D01*
X83676737Y-58487518D01*
X83646172Y-58509724D01*
X83446364Y-58602896D01*
X83267126Y-58728399D01*
X83112399Y-58883126D01*
X82986896Y-59062364D01*
X82894426Y-59260665D01*
X82837792Y-59472026D01*
X82818722Y-59689999D01*
X82837792Y-59907973D01*
X82837792Y-59907976D01*
X82837793Y-59907977D01*
X82846734Y-59941345D01*
X82894426Y-60119334D01*
X82986896Y-60317636D01*
X83074719Y-60443061D01*
X83112402Y-60496877D01*
X83267123Y-60651598D01*
X83446361Y-60777102D01*
X83446362Y-60777102D01*
X83446363Y-60777103D01*
X83646172Y-60870276D01*
X83690920Y-60912004D01*
X83702595Y-60972065D01*
X83676737Y-61027518D01*
X83646172Y-61049724D01*
X83446364Y-61142896D01*
X83267126Y-61268399D01*
X83112399Y-61423126D01*
X82986896Y-61602364D01*
X82894426Y-61800665D01*
X82837792Y-62012026D01*
X82818722Y-62229999D01*
X82837792Y-62447973D01*
X82837792Y-62447976D01*
X82837793Y-62447977D01*
X82842436Y-62465304D01*
X82894426Y-62659334D01*
X82986896Y-62857636D01*
X83108105Y-63030741D01*
X83112402Y-63036877D01*
X83267123Y-63191598D01*
X83446361Y-63317102D01*
X83446362Y-63317102D01*
X83446363Y-63317103D01*
X83646172Y-63410276D01*
X83690920Y-63452004D01*
X83702595Y-63512065D01*
X83676737Y-63567518D01*
X83646172Y-63589724D01*
X83446364Y-63682896D01*
X83267126Y-63808399D01*
X83112399Y-63963126D01*
X82986896Y-64142364D01*
X82894426Y-64340665D01*
X82837792Y-64552026D01*
X82818722Y-64770000D01*
X82837792Y-64987973D01*
X82894426Y-65199334D01*
X82986896Y-65397636D01*
X83105930Y-65567635D01*
X83112402Y-65576877D01*
X83267123Y-65731598D01*
X83446361Y-65857102D01*
X83446362Y-65857102D01*
X83446363Y-65857103D01*
X83646172Y-65950276D01*
X83690920Y-65992004D01*
X83702595Y-66052065D01*
X83676737Y-66107518D01*
X83646172Y-66129724D01*
X83446364Y-66222896D01*
X83267126Y-66348399D01*
X83112399Y-66503126D01*
X82986896Y-66682364D01*
X82894426Y-66880665D01*
X82837792Y-67092026D01*
X82818722Y-67310000D01*
X82837792Y-67527973D01*
X82837792Y-67527976D01*
X82837793Y-67527977D01*
X82853027Y-67584830D01*
X82894426Y-67739334D01*
X82986896Y-67937636D01*
X83074719Y-68063061D01*
X83112402Y-68116877D01*
X83267123Y-68271598D01*
X83446361Y-68397102D01*
X83446362Y-68397102D01*
X83446363Y-68397103D01*
X83646172Y-68490276D01*
X83690920Y-68532004D01*
X83702595Y-68592065D01*
X83676737Y-68647518D01*
X83646172Y-68669724D01*
X83446364Y-68762896D01*
X83267126Y-68888399D01*
X83112399Y-69043126D01*
X82986896Y-69222364D01*
X82894426Y-69420665D01*
X82837792Y-69632026D01*
X82818722Y-69849999D01*
X82837792Y-70067973D01*
X82894426Y-70279334D01*
X82986896Y-70477636D01*
X82986897Y-70477637D01*
X82986898Y-70477639D01*
X82988462Y-70479873D01*
X83109861Y-70653249D01*
X83112402Y-70656877D01*
X83267123Y-70811598D01*
X83446361Y-70937102D01*
X83446362Y-70937102D01*
X83446363Y-70937103D01*
X83646172Y-71030276D01*
X83690920Y-71072004D01*
X83702595Y-71132065D01*
X83676737Y-71187518D01*
X83646172Y-71209724D01*
X83446364Y-71302896D01*
X83267126Y-71428399D01*
X83112399Y-71583126D01*
X82986896Y-71762364D01*
X82894426Y-71960665D01*
X82837792Y-72172026D01*
X82818722Y-72389999D01*
X82837792Y-72607973D01*
X82837792Y-72607976D01*
X82837793Y-72607977D01*
X82842436Y-72625304D01*
X82894426Y-72819334D01*
X82986896Y-73017636D01*
X82986897Y-73017637D01*
X82986898Y-73017639D01*
X82992170Y-73025168D01*
X83067133Y-73132227D01*
X83112402Y-73196877D01*
X83267123Y-73351598D01*
X83446361Y-73477102D01*
X83446362Y-73477102D01*
X83446363Y-73477103D01*
X83646172Y-73570276D01*
X83690920Y-73612004D01*
X83702595Y-73672065D01*
X83676737Y-73727518D01*
X83646172Y-73749724D01*
X83446364Y-73842896D01*
X83267126Y-73968399D01*
X83112399Y-74123126D01*
X82986896Y-74302364D01*
X82894426Y-74500665D01*
X82837792Y-74712026D01*
X82818722Y-74930000D01*
X82837792Y-75147973D01*
X82894426Y-75359334D01*
X82986896Y-75557636D01*
X82986897Y-75557638D01*
X82986898Y-75557639D01*
X83020826Y-75606093D01*
X83108105Y-75730741D01*
X83112402Y-75736877D01*
X83267123Y-75891598D01*
X83446361Y-76017102D01*
X83446362Y-76017102D01*
X83446363Y-76017103D01*
X83646172Y-76110276D01*
X83690920Y-76152004D01*
X83702595Y-76212065D01*
X83676737Y-76267518D01*
X83646172Y-76289724D01*
X83446364Y-76382896D01*
X83267126Y-76508399D01*
X83112399Y-76663126D01*
X82986896Y-76842364D01*
X82894426Y-77040665D01*
X82837792Y-77252026D01*
X82818722Y-77470000D01*
X82837792Y-77687973D01*
X82837792Y-77687976D01*
X82837793Y-77687977D01*
X82842436Y-77705304D01*
X82894426Y-77899334D01*
X82986896Y-78097636D01*
X83074719Y-78223061D01*
X83112402Y-78276877D01*
X83267123Y-78431598D01*
X83446361Y-78557102D01*
X83446362Y-78557102D01*
X83446363Y-78557103D01*
X83646172Y-78650276D01*
X83690920Y-78692004D01*
X83702595Y-78752065D01*
X83676737Y-78807518D01*
X83646172Y-78829724D01*
X83446364Y-78922896D01*
X83267126Y-79048399D01*
X83112399Y-79203126D01*
X82986896Y-79382364D01*
X82894426Y-79580665D01*
X82837792Y-79792026D01*
X82818722Y-80009999D01*
X82837792Y-80227973D01*
X82894426Y-80439334D01*
X82986896Y-80637636D01*
X82986897Y-80637638D01*
X82986898Y-80637639D01*
X83112402Y-80816877D01*
X83267123Y-80971598D01*
X83446361Y-81097102D01*
X83446362Y-81097102D01*
X83446363Y-81097103D01*
X83646172Y-81190276D01*
X83690920Y-81232004D01*
X83702595Y-81292065D01*
X83676737Y-81347518D01*
X83646172Y-81369724D01*
X83446364Y-81462896D01*
X83267126Y-81588399D01*
X83112399Y-81743126D01*
X82986896Y-81922364D01*
X82894426Y-82120665D01*
X82837792Y-82332025D01*
X82823610Y-82494133D01*
X82799703Y-82550454D01*
X82794991Y-82555508D01*
X81953504Y-83396995D01*
X81898987Y-83424772D01*
X81838555Y-83415201D01*
X81795290Y-83371936D01*
X81784500Y-83326991D01*
X81784500Y-51739000D01*
X91284988Y-51739000D01*
X92314499Y-51739000D01*
X92314500Y-51738999D01*
X92714500Y-51738999D01*
X92714501Y-51739000D01*
X93744011Y-51739000D01*
X93744011Y-51738999D01*
X93736555Y-51682368D01*
X93676098Y-51536411D01*
X93579925Y-51411074D01*
X93454590Y-51314901D01*
X93308630Y-51254443D01*
X93194536Y-51239423D01*
X93188082Y-51239000D01*
X92714501Y-51239000D01*
X92714500Y-51239001D01*
X92714500Y-51738999D01*
X92314500Y-51738999D01*
X92314500Y-51239001D01*
X92314499Y-51239000D01*
X91840920Y-51239000D01*
X91834462Y-51239424D01*
X91720369Y-51254443D01*
X91574409Y-51314901D01*
X91449074Y-51411074D01*
X91352901Y-51536409D01*
X91292443Y-51682369D01*
X91284988Y-51738999D01*
X91284988Y-51739000D01*
X81784500Y-51739000D01*
X81784500Y-43529500D01*
X81803407Y-43471309D01*
X81852907Y-43435345D01*
X81883500Y-43430500D01*
X115855500Y-43430500D01*
X115913691Y-43449407D01*
G37*
%TD.AperFunction*%
%TA.AperFunction,Conductor*%
G36*
X86154507Y-84880156D02*
G01*
X86114000Y-85018111D01*
X86114000Y-85161889D01*
X86154507Y-85299844D01*
X86180314Y-85340000D01*
X84507686Y-85340000D01*
X84533493Y-85299844D01*
X84574000Y-85161889D01*
X84574000Y-85018111D01*
X84533493Y-84880156D01*
X84507686Y-84840000D01*
X86180314Y-84840000D01*
X86154507Y-84880156D01*
G37*
%TD.AperFunction*%
%TD*%
M02*
