%TF.GenerationSoftware,KiCad,Pcbnew,7.0.2-0*%
%TF.CreationDate,2023-06-06T17:10:40+02:00*%
%TF.ProjectId,SCAN2000_driver,5343414e-3230-4303-905f-647269766572,1.0*%
%TF.SameCoordinates,Original*%
%TF.FileFunction,Copper,L1,Top*%
%TF.FilePolarity,Positive*%
%FSLAX46Y46*%
G04 Gerber Fmt 4.6, Leading zero omitted, Abs format (unit mm)*
G04 Created by KiCad (PCBNEW 7.0.2-0) date 2023-06-06 17:10:40*
%MOMM*%
%LPD*%
G01*
G04 APERTURE LIST*
G04 Aperture macros list*
%AMRoundRect*
0 Rectangle with rounded corners*
0 $1 Rounding radius*
0 $2 $3 $4 $5 $6 $7 $8 $9 X,Y pos of 4 corners*
0 Add a 4 corners polygon primitive as box body*
4,1,4,$2,$3,$4,$5,$6,$7,$8,$9,$2,$3,0*
0 Add four circle primitives for the rounded corners*
1,1,$1+$1,$2,$3*
1,1,$1+$1,$4,$5*
1,1,$1+$1,$6,$7*
1,1,$1+$1,$8,$9*
0 Add four rect primitives between the rounded corners*
20,1,$1+$1,$2,$3,$4,$5,0*
20,1,$1+$1,$4,$5,$6,$7,0*
20,1,$1+$1,$6,$7,$8,$9,0*
20,1,$1+$1,$8,$9,$2,$3,0*%
G04 Aperture macros list end*
%TA.AperFunction,SMDPad,CuDef*%
%ADD10RoundRect,0.237500X-0.300000X-0.237500X0.300000X-0.237500X0.300000X0.237500X-0.300000X0.237500X0*%
%TD*%
%TA.AperFunction,SMDPad,CuDef*%
%ADD11R,0.650000X0.200000*%
%TD*%
%TA.AperFunction,SMDPad,CuDef*%
%ADD12RoundRect,0.250000X0.337500X0.475000X-0.337500X0.475000X-0.337500X-0.475000X0.337500X-0.475000X0*%
%TD*%
%TA.AperFunction,SMDPad,CuDef*%
%ADD13R,1.500000X0.600000*%
%TD*%
%TA.AperFunction,SMDPad,CuDef*%
%ADD14R,0.800000X0.500000*%
%TD*%
%TA.AperFunction,SMDPad,CuDef*%
%ADD15R,0.800000X0.400000*%
%TD*%
%TA.AperFunction,SMDPad,CuDef*%
%ADD16RoundRect,0.250000X-0.400000X-0.625000X0.400000X-0.625000X0.400000X0.625000X-0.400000X0.625000X0*%
%TD*%
%TA.AperFunction,ComponentPad*%
%ADD17RoundRect,0.250000X-0.600000X-0.600000X0.600000X-0.600000X0.600000X0.600000X-0.600000X0.600000X0*%
%TD*%
%TA.AperFunction,ComponentPad*%
%ADD18C,1.700000*%
%TD*%
%TA.AperFunction,ComponentPad*%
%ADD19R,1.700000X1.700000*%
%TD*%
%TA.AperFunction,ComponentPad*%
%ADD20O,1.700000X1.700000*%
%TD*%
%TA.AperFunction,ViaPad*%
%ADD21C,0.800000*%
%TD*%
%TA.AperFunction,Conductor*%
%ADD22C,0.200000*%
%TD*%
%TA.AperFunction,Conductor*%
%ADD23C,1.000000*%
%TD*%
%TA.AperFunction,Conductor*%
%ADD24C,0.250000*%
%TD*%
%TA.AperFunction,Conductor*%
%ADD25C,0.300000*%
%TD*%
G04 APERTURE END LIST*
D10*
%TO.P,C5,1*%
%TO.N,+3.3V*%
X95983000Y-76708000D03*
%TO.P,C5,2*%
%TO.N,GND*%
X97708000Y-76708000D03*
%TD*%
D11*
%TO.P,D2,1,I/O1*%
%TO.N,/P7*%
X102016000Y-61538000D03*
%TO.P,D2,2,GND*%
%TO.N,GND*%
X102016000Y-62338000D03*
%TO.P,D2,3,I/O2*%
%TO.N,/P10*%
X102016000Y-63138000D03*
%TO.P,D2,4,I/O3*%
%TO.N,/P12*%
X102016000Y-63938000D03*
%TO.P,D2,5,I/O4*%
%TO.N,/P8*%
X102616000Y-61938000D03*
%TO.P,D2,6,I/O5*%
%TO.N,/P9*%
X102616000Y-62738000D03*
%TO.P,D2,7,I/O6*%
%TO.N,/P11*%
X102616000Y-63538000D03*
%TD*%
%TO.P,D3,1,I/O1*%
%TO.N,/P13*%
X102016000Y-69850000D03*
%TO.P,D3,2,GND*%
%TO.N,GND*%
X102016000Y-70650000D03*
%TO.P,D3,3,I/O2*%
%TO.N,/P16*%
X102016000Y-71450000D03*
%TO.P,D3,4,I/O3*%
%TO.N,/P18*%
X102016000Y-72250000D03*
%TO.P,D3,5,I/O4*%
%TO.N,/P14*%
X102616000Y-70250000D03*
%TO.P,D3,6,I/O5*%
%TO.N,/P15*%
X102616000Y-71050000D03*
%TO.P,D3,7,I/O6*%
%TO.N,/P17*%
X102616000Y-71850000D03*
%TD*%
D12*
%TO.P,C4,1*%
%TO.N,+3.3V*%
X94305500Y-60706000D03*
%TO.P,C4,2*%
%TO.N,GND*%
X92230500Y-60706000D03*
%TD*%
D13*
%TO.P,U3,1,G1*%
%TO.N,GND*%
X86690000Y-78740000D03*
%TO.P,U3,2,A0*%
%TO.N,Net-(J2-Pin_17)*%
X86690000Y-80010000D03*
%TO.P,U3,3,A1*%
%TO.N,Net-(J2-Pin_18)*%
X86690000Y-81280000D03*
%TO.P,U3,4,A2*%
%TO.N,Net-(J2-Pin_19)*%
X86690000Y-82550000D03*
%TO.P,U3,5,A3*%
%TO.N,Net-(J2-Pin_20)*%
X86690000Y-83820000D03*
%TO.P,U3,6,A4*%
%TO.N,Net-(J2-Pin_21)*%
X86690000Y-85090000D03*
%TO.P,U3,7,A5*%
%TO.N,Net-(J2-Pin_22)*%
X86690000Y-86360000D03*
%TO.P,U3,8,A6*%
%TO.N,GND*%
X86690000Y-87630000D03*
%TO.P,U3,9,A7*%
X86690000Y-88900000D03*
%TO.P,U3,10,GND*%
X86690000Y-90170000D03*
%TO.P,U3,11,Y7*%
%TO.N,unconnected-(U3-Y7-Pad11)*%
X96190000Y-90170000D03*
%TO.P,U3,12,Y6*%
%TO.N,unconnected-(U3-Y6-Pad12)*%
X96190000Y-88900000D03*
%TO.P,U3,13,Y5*%
%TO.N,/P22*%
X96190000Y-87630000D03*
%TO.P,U3,14,Y4*%
%TO.N,/P21*%
X96190000Y-86360000D03*
%TO.P,U3,15,Y3*%
%TO.N,/P20*%
X96190000Y-85090000D03*
%TO.P,U3,16,Y2*%
%TO.N,/P19*%
X96190000Y-83820000D03*
%TO.P,U3,17,Y1*%
%TO.N,/P18*%
X96190000Y-82550000D03*
%TO.P,U3,18,Y0*%
%TO.N,/P17*%
X96190000Y-81280000D03*
%TO.P,U3,19,G2*%
%TO.N,GND*%
X96190000Y-80010000D03*
%TO.P,U3,20,VCC*%
%TO.N,+3.3V*%
X96190000Y-78740000D03*
%TD*%
D14*
%TO.P,RN1,1,R1.1*%
%TO.N,/P1*%
X104626000Y-54610000D03*
D15*
%TO.P,RN1,2,R2.1*%
%TO.N,/P2*%
X104626000Y-55410000D03*
%TO.P,RN1,3,R3.1*%
%TO.N,/P3*%
X104626000Y-56210000D03*
D14*
%TO.P,RN1,4,R4.1*%
%TO.N,/P4*%
X104626000Y-57010000D03*
%TO.P,RN1,5,R4.2*%
%TO.N,Net-(J1-Pin_4)*%
X106426000Y-57010000D03*
D15*
%TO.P,RN1,6,R3.2*%
%TO.N,Net-(J1-Pin_3)*%
X106426000Y-56210000D03*
%TO.P,RN1,7,R2.2*%
%TO.N,Net-(J1-Pin_2)*%
X106426000Y-55410000D03*
D14*
%TO.P,RN1,8,R1.2*%
%TO.N,Net-(J1-Pin_1)*%
X106426000Y-54610000D03*
%TD*%
D16*
%TO.P,F1,1*%
%TO.N,Net-(J2-Pin_23)*%
X79730000Y-91440000D03*
%TO.P,F1,2*%
%TO.N,+3.3V*%
X82830000Y-91440000D03*
%TD*%
D17*
%TO.P,J1,1,Pin_1*%
%TO.N,Net-(J1-Pin_1)*%
X109220000Y-54610000D03*
D18*
%TO.P,J1,2,Pin_2*%
%TO.N,Net-(J1-Pin_2)*%
X111760000Y-54610000D03*
%TO.P,J1,3,Pin_3*%
%TO.N,Net-(J1-Pin_3)*%
X109220000Y-57150000D03*
%TO.P,J1,4,Pin_4*%
%TO.N,Net-(J1-Pin_4)*%
X111760000Y-57150000D03*
%TO.P,J1,5,Pin_5*%
%TO.N,Net-(J1-Pin_5)*%
X109220000Y-59690000D03*
%TO.P,J1,6,Pin_6*%
%TO.N,Net-(J1-Pin_6)*%
X111760000Y-59690000D03*
%TO.P,J1,7,Pin_7*%
%TO.N,Net-(J1-Pin_7)*%
X109220000Y-62230000D03*
%TO.P,J1,8,Pin_8*%
%TO.N,Net-(J1-Pin_8)*%
X111760000Y-62230000D03*
%TO.P,J1,9,Pin_9*%
%TO.N,Net-(J1-Pin_9)*%
X109220000Y-64770000D03*
%TO.P,J1,10,Pin_10*%
%TO.N,Net-(J1-Pin_10)*%
X111760000Y-64770000D03*
%TO.P,J1,11,Pin_11*%
%TO.N,Net-(J1-Pin_11)*%
X109220000Y-67310000D03*
%TO.P,J1,12,Pin_12*%
%TO.N,Net-(J1-Pin_12)*%
X111760000Y-67310000D03*
%TO.P,J1,13,Pin_13*%
%TO.N,Net-(J1-Pin_13)*%
X109220000Y-69850000D03*
%TO.P,J1,14,Pin_14*%
%TO.N,Net-(J1-Pin_14)*%
X111760000Y-69850000D03*
%TO.P,J1,15,Pin_15*%
%TO.N,Net-(J1-Pin_15)*%
X109220000Y-72390000D03*
%TO.P,J1,16,Pin_16*%
%TO.N,Net-(J1-Pin_16)*%
X111760000Y-72390000D03*
%TO.P,J1,17,Pin_17*%
%TO.N,Net-(J1-Pin_17)*%
X109220000Y-74930000D03*
%TO.P,J1,18,Pin_18*%
%TO.N,Net-(J1-Pin_18)*%
X111760000Y-74930000D03*
%TO.P,J1,19,Pin_19*%
%TO.N,Net-(J1-Pin_19)*%
X109220000Y-77470000D03*
%TO.P,J1,20,Pin_20*%
%TO.N,Net-(J1-Pin_20)*%
X111760000Y-77470000D03*
%TO.P,J1,21,Pin_21*%
%TO.N,Net-(J1-Pin_21)*%
X109220000Y-80010000D03*
%TO.P,J1,22,Pin_22*%
%TO.N,Net-(J1-Pin_22)*%
X111760000Y-80010000D03*
%TO.P,J1,23,Pin_23*%
%TO.N,+3.3V*%
X109220000Y-82550000D03*
%TO.P,J1,24,Pin_24*%
X111760000Y-82550000D03*
%TO.P,J1,25,Pin_25*%
%TO.N,GND*%
X109220000Y-85090000D03*
%TO.P,J1,26,Pin_26*%
X111760000Y-85090000D03*
%TD*%
D14*
%TO.P,RN5,1,R1.1*%
%TO.N,/P17*%
X104626000Y-74930000D03*
D15*
%TO.P,RN5,2,R2.1*%
%TO.N,/P18*%
X104626000Y-75730000D03*
%TO.P,RN5,3,R3.1*%
%TO.N,/P19*%
X104626000Y-76530000D03*
D14*
%TO.P,RN5,4,R4.1*%
%TO.N,/P20*%
X104626000Y-77330000D03*
%TO.P,RN5,5,R4.2*%
%TO.N,Net-(J1-Pin_20)*%
X106426000Y-77330000D03*
D15*
%TO.P,RN5,6,R3.2*%
%TO.N,Net-(J1-Pin_19)*%
X106426000Y-76530000D03*
%TO.P,RN5,7,R2.2*%
%TO.N,Net-(J1-Pin_18)*%
X106426000Y-75730000D03*
D14*
%TO.P,RN5,8,R1.2*%
%TO.N,Net-(J1-Pin_17)*%
X106426000Y-74930000D03*
%TD*%
%TO.P,RN4,1,R1.1*%
%TO.N,/P13*%
X104626000Y-69850000D03*
D15*
%TO.P,RN4,2,R2.1*%
%TO.N,/P14*%
X104626000Y-70650000D03*
%TO.P,RN4,3,R3.1*%
%TO.N,/P15*%
X104626000Y-71450000D03*
D14*
%TO.P,RN4,4,R4.1*%
%TO.N,/P16*%
X104626000Y-72250000D03*
%TO.P,RN4,5,R4.2*%
%TO.N,Net-(J1-Pin_16)*%
X106426000Y-72250000D03*
D15*
%TO.P,RN4,6,R3.2*%
%TO.N,Net-(J1-Pin_15)*%
X106426000Y-71450000D03*
%TO.P,RN4,7,R2.2*%
%TO.N,Net-(J1-Pin_14)*%
X106426000Y-70650000D03*
D14*
%TO.P,RN4,8,R1.2*%
%TO.N,Net-(J1-Pin_13)*%
X106426000Y-69850000D03*
%TD*%
D13*
%TO.P,U1,1,G1*%
%TO.N,GND*%
X86690000Y-46990000D03*
%TO.P,U1,2,A0*%
%TO.N,Net-(J2-Pin_1)*%
X86690000Y-48260000D03*
%TO.P,U1,3,A1*%
%TO.N,Net-(J2-Pin_2)*%
X86690000Y-49530000D03*
%TO.P,U1,4,A2*%
%TO.N,Net-(J2-Pin_3)*%
X86690000Y-50800000D03*
%TO.P,U1,5,A3*%
%TO.N,Net-(J2-Pin_4)*%
X86690000Y-52070000D03*
%TO.P,U1,6,A4*%
%TO.N,Net-(J2-Pin_5)*%
X86690000Y-53340000D03*
%TO.P,U1,7,A5*%
%TO.N,Net-(J2-Pin_6)*%
X86690000Y-54610000D03*
%TO.P,U1,8,A6*%
%TO.N,Net-(J2-Pin_7)*%
X86690000Y-55880000D03*
%TO.P,U1,9,A7*%
%TO.N,Net-(J2-Pin_8)*%
X86690000Y-57150000D03*
%TO.P,U1,10,GND*%
%TO.N,GND*%
X86690000Y-58420000D03*
%TO.P,U1,11,Y7*%
%TO.N,/P8*%
X96190000Y-58420000D03*
%TO.P,U1,12,Y6*%
%TO.N,/P7*%
X96190000Y-57150000D03*
%TO.P,U1,13,Y5*%
%TO.N,/P6*%
X96190000Y-55880000D03*
%TO.P,U1,14,Y4*%
%TO.N,/P5*%
X96190000Y-54610000D03*
%TO.P,U1,15,Y3*%
%TO.N,/P4*%
X96190000Y-53340000D03*
%TO.P,U1,16,Y2*%
%TO.N,/P3*%
X96190000Y-52070000D03*
%TO.P,U1,17,Y1*%
%TO.N,/P2*%
X96190000Y-50800000D03*
%TO.P,U1,18,Y0*%
%TO.N,/P1*%
X96190000Y-49530000D03*
%TO.P,U1,19,G2*%
%TO.N,GND*%
X96190000Y-48260000D03*
%TO.P,U1,20,VCC*%
%TO.N,+3.3V*%
X96190000Y-46990000D03*
%TD*%
D19*
%TO.P,J2,1,Pin_1*%
%TO.N,Net-(J2-Pin_1)*%
X78740000Y-54610000D03*
D20*
%TO.P,J2,2,Pin_2*%
%TO.N,Net-(J2-Pin_2)*%
X81280000Y-54610000D03*
%TO.P,J2,3,Pin_3*%
%TO.N,Net-(J2-Pin_3)*%
X78740000Y-57150000D03*
%TO.P,J2,4,Pin_4*%
%TO.N,Net-(J2-Pin_4)*%
X81280000Y-57150000D03*
%TO.P,J2,5,Pin_5*%
%TO.N,Net-(J2-Pin_5)*%
X78740000Y-59690000D03*
%TO.P,J2,6,Pin_6*%
%TO.N,Net-(J2-Pin_6)*%
X81280000Y-59690000D03*
%TO.P,J2,7,Pin_7*%
%TO.N,Net-(J2-Pin_7)*%
X78740000Y-62230000D03*
%TO.P,J2,8,Pin_8*%
%TO.N,Net-(J2-Pin_8)*%
X81280000Y-62230000D03*
%TO.P,J2,9,Pin_9*%
%TO.N,Net-(J2-Pin_9)*%
X78740000Y-64770000D03*
%TO.P,J2,10,Pin_10*%
%TO.N,Net-(J2-Pin_10)*%
X81280000Y-64770000D03*
%TO.P,J2,11,Pin_11*%
%TO.N,Net-(J2-Pin_11)*%
X78740000Y-67310000D03*
%TO.P,J2,12,Pin_12*%
%TO.N,Net-(J2-Pin_12)*%
X81280000Y-67310000D03*
%TO.P,J2,13,Pin_13*%
%TO.N,Net-(J2-Pin_13)*%
X78740000Y-69850000D03*
%TO.P,J2,14,Pin_14*%
%TO.N,Net-(J2-Pin_14)*%
X81280000Y-69850000D03*
%TO.P,J2,15,Pin_15*%
%TO.N,Net-(J2-Pin_15)*%
X78740000Y-72390000D03*
%TO.P,J2,16,Pin_16*%
%TO.N,Net-(J2-Pin_16)*%
X81280000Y-72390000D03*
%TO.P,J2,17,Pin_17*%
%TO.N,Net-(J2-Pin_17)*%
X78740000Y-74930000D03*
%TO.P,J2,18,Pin_18*%
%TO.N,Net-(J2-Pin_18)*%
X81280000Y-74930000D03*
%TO.P,J2,19,Pin_19*%
%TO.N,Net-(J2-Pin_19)*%
X78740000Y-77470000D03*
%TO.P,J2,20,Pin_20*%
%TO.N,Net-(J2-Pin_20)*%
X81280000Y-77470000D03*
%TO.P,J2,21,Pin_21*%
%TO.N,Net-(J2-Pin_21)*%
X78740000Y-80010000D03*
%TO.P,J2,22,Pin_22*%
%TO.N,Net-(J2-Pin_22)*%
X81280000Y-80010000D03*
%TO.P,J2,23,Pin_23*%
%TO.N,Net-(J2-Pin_23)*%
X78740000Y-82550000D03*
%TO.P,J2,24,Pin_24*%
X81280000Y-82550000D03*
%TO.P,J2,25,Pin_25*%
%TO.N,GND*%
X78740000Y-85090000D03*
%TO.P,J2,26,Pin_26*%
X81280000Y-85090000D03*
%TD*%
D11*
%TO.P,D1,1,I/O1*%
%TO.N,/P1*%
X102016000Y-54680000D03*
%TO.P,D1,2,GND*%
%TO.N,GND*%
X102016000Y-55480000D03*
%TO.P,D1,3,I/O2*%
%TO.N,/P4*%
X102016000Y-56280000D03*
%TO.P,D1,4,I/O3*%
%TO.N,/P6*%
X102016000Y-57080000D03*
%TO.P,D1,5,I/O4*%
%TO.N,/P2*%
X102616000Y-55080000D03*
%TO.P,D1,6,I/O5*%
%TO.N,/P3*%
X102616000Y-55880000D03*
%TO.P,D1,7,I/O6*%
%TO.N,/P5*%
X102616000Y-56680000D03*
%TD*%
D10*
%TO.P,C1,1*%
%TO.N,+3.3V*%
X95983000Y-44958000D03*
%TO.P,C1,2*%
%TO.N,GND*%
X97708000Y-44958000D03*
%TD*%
D14*
%TO.P,RN2,1,R1.1*%
%TO.N,/P5*%
X104648000Y-59690000D03*
D15*
%TO.P,RN2,2,R2.1*%
%TO.N,/P6*%
X104648000Y-60490000D03*
%TO.P,RN2,3,R3.1*%
%TO.N,/P7*%
X104648000Y-61290000D03*
D14*
%TO.P,RN2,4,R4.1*%
%TO.N,/P8*%
X104648000Y-62090000D03*
%TO.P,RN2,5,R4.2*%
%TO.N,Net-(J1-Pin_8)*%
X106448000Y-62090000D03*
D15*
%TO.P,RN2,6,R3.2*%
%TO.N,Net-(J1-Pin_7)*%
X106448000Y-61290000D03*
%TO.P,RN2,7,R2.2*%
%TO.N,Net-(J1-Pin_6)*%
X106448000Y-60490000D03*
D14*
%TO.P,RN2,8,R1.2*%
%TO.N,Net-(J1-Pin_5)*%
X106448000Y-59690000D03*
%TD*%
%TO.P,RN3,1,R1.1*%
%TO.N,/P9*%
X104626000Y-64770000D03*
D15*
%TO.P,RN3,2,R2.1*%
%TO.N,/P10*%
X104626000Y-65570000D03*
%TO.P,RN3,3,R3.1*%
%TO.N,/P11*%
X104626000Y-66370000D03*
D14*
%TO.P,RN3,4,R4.1*%
%TO.N,/P12*%
X104626000Y-67170000D03*
%TO.P,RN3,5,R4.2*%
%TO.N,Net-(J1-Pin_12)*%
X106426000Y-67170000D03*
D15*
%TO.P,RN3,6,R3.2*%
%TO.N,Net-(J1-Pin_11)*%
X106426000Y-66370000D03*
%TO.P,RN3,7,R2.2*%
%TO.N,Net-(J1-Pin_10)*%
X106426000Y-65570000D03*
D14*
%TO.P,RN3,8,R1.2*%
%TO.N,Net-(J1-Pin_9)*%
X106426000Y-64770000D03*
%TD*%
D12*
%TO.P,C6,1*%
%TO.N,+3.3V*%
X94305500Y-76708000D03*
%TO.P,C6,2*%
%TO.N,GND*%
X92230500Y-76708000D03*
%TD*%
%TO.P,C2,1*%
%TO.N,+3.3V*%
X94327000Y-44958000D03*
%TO.P,C2,2*%
%TO.N,GND*%
X92252000Y-44958000D03*
%TD*%
D14*
%TO.P,RN6,1,R1.1*%
%TO.N,/P21*%
X104626000Y-80010000D03*
D15*
%TO.P,RN6,2,R2.1*%
%TO.N,/P22*%
X104626000Y-80810000D03*
%TO.P,RN6,3,R3.1*%
%TO.N,unconnected-(RN6-R3.1-Pad3)*%
X104626000Y-81610000D03*
D14*
%TO.P,RN6,4,R4.1*%
%TO.N,unconnected-(RN6-R4.1-Pad4)*%
X104626000Y-82410000D03*
%TO.P,RN6,5,R4.2*%
%TO.N,unconnected-(RN6-R4.2-Pad5)*%
X106426000Y-82410000D03*
D15*
%TO.P,RN6,6,R3.2*%
%TO.N,unconnected-(RN6-R3.2-Pad6)*%
X106426000Y-81610000D03*
%TO.P,RN6,7,R2.2*%
%TO.N,Net-(J1-Pin_22)*%
X106426000Y-80810000D03*
D14*
%TO.P,RN6,8,R1.2*%
%TO.N,Net-(J1-Pin_21)*%
X106426000Y-80010000D03*
%TD*%
D13*
%TO.P,U2,1,G1*%
%TO.N,GND*%
X86690000Y-62865000D03*
%TO.P,U2,2,A0*%
%TO.N,Net-(J2-Pin_9)*%
X86690000Y-64135000D03*
%TO.P,U2,3,A1*%
%TO.N,Net-(J2-Pin_10)*%
X86690000Y-65405000D03*
%TO.P,U2,4,A2*%
%TO.N,Net-(J2-Pin_11)*%
X86690000Y-66675000D03*
%TO.P,U2,5,A3*%
%TO.N,Net-(J2-Pin_12)*%
X86690000Y-67945000D03*
%TO.P,U2,6,A4*%
%TO.N,Net-(J2-Pin_13)*%
X86690000Y-69215000D03*
%TO.P,U2,7,A5*%
%TO.N,Net-(J2-Pin_14)*%
X86690000Y-70485000D03*
%TO.P,U2,8,A6*%
%TO.N,Net-(J2-Pin_15)*%
X86690000Y-71755000D03*
%TO.P,U2,9,A7*%
%TO.N,Net-(J2-Pin_16)*%
X86690000Y-73025000D03*
%TO.P,U2,10,GND*%
%TO.N,GND*%
X86690000Y-74295000D03*
%TO.P,U2,11,Y7*%
%TO.N,/P16*%
X96190000Y-74295000D03*
%TO.P,U2,12,Y6*%
%TO.N,/P15*%
X96190000Y-73025000D03*
%TO.P,U2,13,Y5*%
%TO.N,/P14*%
X96190000Y-71755000D03*
%TO.P,U2,14,Y4*%
%TO.N,/P13*%
X96190000Y-70485000D03*
%TO.P,U2,15,Y3*%
%TO.N,/P12*%
X96190000Y-69215000D03*
%TO.P,U2,16,Y2*%
%TO.N,/P11*%
X96190000Y-67945000D03*
%TO.P,U2,17,Y1*%
%TO.N,/P10*%
X96190000Y-66675000D03*
%TO.P,U2,18,Y0*%
%TO.N,/P9*%
X96190000Y-65405000D03*
%TO.P,U2,19,G2*%
%TO.N,GND*%
X96190000Y-64135000D03*
%TO.P,U2,20,VCC*%
%TO.N,+3.3V*%
X96190000Y-62865000D03*
%TD*%
D10*
%TO.P,C3,1*%
%TO.N,+3.3V*%
X95961500Y-60706000D03*
%TO.P,C3,2*%
%TO.N,GND*%
X97686500Y-60706000D03*
%TD*%
D11*
%TO.P,D4,1,I/O1*%
%TO.N,/P19*%
X101981000Y-78740000D03*
%TO.P,D4,2,GND*%
%TO.N,GND*%
X101981000Y-79540000D03*
%TO.P,D4,3,I/O2*%
%TO.N,/P22*%
X101981000Y-80340000D03*
%TO.P,D4,4,I/O3*%
%TO.N,+3.3V*%
X101981000Y-81140000D03*
%TO.P,D4,5,I/O4*%
%TO.N,/P20*%
X102581000Y-79140000D03*
%TO.P,D4,6,I/O5*%
%TO.N,/P21*%
X102581000Y-79940000D03*
%TO.P,D4,7,I/O6*%
%TO.N,+3.3V*%
X102581000Y-80740000D03*
%TD*%
D21*
%TO.N,GND*%
X103998286Y-79205431D03*
X99187000Y-77216000D03*
X100571878Y-55130122D03*
X100711000Y-79502000D03*
X99314000Y-61214000D03*
X100584000Y-70612000D03*
X100457000Y-62230000D03*
X99187000Y-76200000D03*
X99314000Y-59944000D03*
%TD*%
D22*
%TO.N,/P1*%
X98552000Y-49530000D02*
X96139000Y-49530000D01*
X99568000Y-52324000D02*
X99568000Y-50546000D01*
X99568000Y-50546000D02*
X98552000Y-49530000D01*
X101854000Y-54610000D02*
X99568000Y-52324000D01*
X104626000Y-54610000D02*
X101854000Y-54610000D01*
%TO.N,/P2*%
X99060000Y-51435000D02*
X98425000Y-50800000D01*
X98425000Y-50800000D02*
X96139000Y-50800000D01*
X99060000Y-52629000D02*
X99060000Y-51435000D01*
X103797000Y-55410000D02*
X103467000Y-55080000D01*
X103467000Y-55080000D02*
X101511000Y-55080000D01*
X104626000Y-55410000D02*
X103797000Y-55410000D01*
X101511000Y-55080000D02*
X99060000Y-52629000D01*
%TO.N,/P3*%
X98425000Y-52705000D02*
X97790000Y-52070000D01*
X100331806Y-55880000D02*
X98425000Y-53973194D01*
X103708000Y-56210000D02*
X103378000Y-55880000D01*
X104626000Y-56210000D02*
X103708000Y-56210000D01*
X98425000Y-53973194D02*
X98425000Y-52705000D01*
X97790000Y-52070000D02*
X96139000Y-52070000D01*
X103378000Y-55880000D02*
X100331806Y-55880000D01*
%TO.N,/P4*%
X100166120Y-56280000D02*
X98025000Y-54138879D01*
X98025000Y-54138879D02*
X98025000Y-53702000D01*
X103942314Y-57010000D02*
X103212314Y-56280000D01*
X103212314Y-56280000D02*
X100166120Y-56280000D01*
X104626000Y-57010000D02*
X103942314Y-57010000D01*
X98025000Y-53702000D02*
X97663000Y-53340000D01*
X97663000Y-53340000D02*
X96012000Y-53340000D01*
%TO.N,/P5*%
X103759000Y-59309000D02*
X103759000Y-57392372D01*
X97790000Y-54610000D02*
X96139000Y-54610000D01*
X104648000Y-59690000D02*
X104140000Y-59690000D01*
X103046628Y-56680000D02*
X99860000Y-56680000D01*
X104140000Y-59690000D02*
X103759000Y-59309000D01*
X99860000Y-56680000D02*
X97790000Y-54610000D01*
X103759000Y-57392372D02*
X103046628Y-56680000D01*
%TO.N,/P6*%
X97790000Y-55880000D02*
X96139000Y-55880000D01*
X104048000Y-60490000D02*
X103251000Y-59693000D01*
X98990000Y-57080000D02*
X97790000Y-55880000D01*
X103251000Y-59693000D02*
X103251000Y-57531000D01*
X102800000Y-57080000D02*
X98990000Y-57080000D01*
X103251000Y-57531000D02*
X102800000Y-57080000D01*
X104648000Y-60490000D02*
X104048000Y-60490000D01*
%TO.N,/P7*%
X101092000Y-61087000D02*
X101092000Y-58547000D01*
X101543000Y-61538000D02*
X101092000Y-61087000D01*
X100025000Y-57480000D02*
X98247000Y-57480000D01*
X102667000Y-61290000D02*
X102419000Y-61538000D01*
X104648000Y-61290000D02*
X102667000Y-61290000D01*
X101092000Y-58547000D02*
X100025000Y-57480000D01*
X102016000Y-61538000D02*
X101543000Y-61538000D01*
X98247000Y-57480000D02*
X97917000Y-57150000D01*
X97917000Y-57150000D02*
X96012000Y-57150000D01*
%TO.N,/P8*%
X103340000Y-61938000D02*
X101181000Y-61938000D01*
X103492000Y-62090000D02*
X103340000Y-61938000D01*
X101181000Y-61938000D02*
X100584000Y-61341000D01*
X100584000Y-59309000D02*
X99695000Y-58420000D01*
X99695000Y-58420000D02*
X96139000Y-58420000D01*
X104648000Y-62090000D02*
X103492000Y-62090000D01*
X100584000Y-61341000D02*
X100584000Y-59309000D01*
%TO.N,/P9*%
X103378000Y-62738000D02*
X104648000Y-64008000D01*
X102616000Y-62738000D02*
X100938950Y-62738000D01*
X102616000Y-62738000D02*
X103378000Y-62738000D01*
X104648000Y-64008000D02*
X104648000Y-64770000D01*
X100938950Y-62738000D02*
X98271950Y-65405000D01*
X98271950Y-65405000D02*
X96139000Y-65405000D01*
%TO.N,/P10*%
X104626000Y-65570000D02*
X104026000Y-65570000D01*
X102016000Y-63138000D02*
X101396314Y-63138000D01*
X101396314Y-63138000D02*
X97859314Y-66675000D01*
X103759000Y-65303000D02*
X103759000Y-63684686D01*
X104026000Y-65570000D02*
X103759000Y-65303000D01*
X97859314Y-66675000D02*
X96139000Y-66675000D01*
X103759000Y-63684686D02*
X103212314Y-63138000D01*
X103212314Y-63138000D02*
X101981000Y-63138000D01*
%TO.N,/P11*%
X102616000Y-63538000D02*
X101562000Y-63538000D01*
X104311314Y-66421000D02*
X104648000Y-66421000D01*
X103359000Y-64281000D02*
X103359000Y-65468686D01*
X103359000Y-65468686D02*
X104311314Y-66421000D01*
X101562000Y-63538000D02*
X97155000Y-67945000D01*
X97155000Y-67945000D02*
X96139000Y-67945000D01*
X102616000Y-63538000D02*
X103359000Y-64281000D01*
%TO.N,/P12*%
X104626000Y-67170000D02*
X104026000Y-67170000D01*
X102016000Y-63938000D02*
X96739000Y-69215000D01*
X102743000Y-64389000D02*
X102292000Y-63938000D01*
X102743000Y-65887000D02*
X102743000Y-64389000D01*
X104026000Y-67170000D02*
X102743000Y-65887000D01*
X102292000Y-63938000D02*
X102108000Y-63938000D01*
%TO.N,/P13*%
X96139000Y-70485000D02*
X97409000Y-70485000D01*
X101135000Y-69512000D02*
X101473000Y-69850000D01*
X101473000Y-69850000D02*
X104648000Y-69850000D01*
X97409000Y-70485000D02*
X98382000Y-69512000D01*
X98382000Y-69512000D02*
X101135000Y-69512000D01*
%TO.N,/P14*%
X100873950Y-69912000D02*
X98998000Y-69912000D01*
X97155000Y-71755000D02*
X96139000Y-71755000D01*
X104626000Y-70650000D02*
X103905000Y-70650000D01*
X103505000Y-70250000D02*
X101211950Y-70250000D01*
X97155000Y-71755000D02*
X98998000Y-69912000D01*
X103905000Y-70650000D02*
X103505000Y-70250000D01*
X101211950Y-70250000D02*
X100873950Y-69912000D01*
%TO.N,/P15*%
X100619950Y-71649500D02*
X99970500Y-71649500D01*
X102616000Y-71050000D02*
X103926000Y-71050000D01*
X98595000Y-73025000D02*
X96139000Y-73025000D01*
X101219450Y-71050000D02*
X100619950Y-71649500D01*
X103926000Y-71050000D02*
X104377000Y-71501000D01*
X102616000Y-71050000D02*
X101219450Y-71050000D01*
X99970500Y-71649500D02*
X98595000Y-73025000D01*
%TO.N,/P16*%
X103454000Y-71450000D02*
X104267000Y-72263000D01*
X102016000Y-71450000D02*
X103454000Y-71450000D01*
X102016000Y-71450000D02*
X101385136Y-71450000D01*
X98540135Y-74295000D02*
X96139000Y-74295000D01*
X101385136Y-71450000D02*
X98540135Y-74295000D01*
X104267000Y-72263000D02*
X104648000Y-72263000D01*
%TO.N,/P17*%
X102616000Y-71850000D02*
X101550822Y-71850000D01*
X103886000Y-72447686D02*
X103288314Y-71850000D01*
X100184000Y-73216822D02*
X100184000Y-77315943D01*
X104394000Y-74930000D02*
X103886000Y-74422000D01*
X103886000Y-74422000D02*
X103886000Y-72447686D01*
X97155000Y-81280000D02*
X96139000Y-81280000D01*
X97663000Y-80772000D02*
X97155000Y-81280000D01*
X97663000Y-79836943D02*
X97663000Y-80772000D01*
X103288314Y-71850000D02*
X102489000Y-71850000D01*
X101550822Y-71850000D02*
X100184000Y-73216822D01*
X100184000Y-77315943D02*
X97663000Y-79836943D01*
%TO.N,/P18*%
X104626000Y-75730000D02*
X104026000Y-75730000D01*
X100584000Y-77481629D02*
X100584000Y-73406000D01*
X98425000Y-79640629D02*
X100584000Y-77481629D01*
X102870000Y-72263000D02*
X101981000Y-72263000D01*
X101716508Y-72250000D02*
X100603000Y-73363508D01*
X103378000Y-75082000D02*
X103378000Y-72771000D01*
X104026000Y-75730000D02*
X103378000Y-75082000D01*
X103378000Y-72771000D02*
X102870000Y-72263000D01*
X98425000Y-82042000D02*
X98425000Y-79640629D01*
X97917000Y-82550000D02*
X98425000Y-82042000D01*
X102016000Y-72250000D02*
X101716508Y-72250000D01*
X96139000Y-82550000D02*
X97917000Y-82550000D01*
%TO.N,/P19*%
X102362000Y-78740000D02*
X101981000Y-78740000D01*
X101504636Y-78740000D02*
X101166635Y-78402000D01*
X99041000Y-79590315D02*
X99041000Y-82569000D01*
X100229314Y-78402000D02*
X99041000Y-79590315D01*
X104626000Y-76530000D02*
X104026000Y-76530000D01*
X99025343Y-82584657D02*
X97790000Y-83820000D01*
X102997000Y-77559000D02*
X102997000Y-78105000D01*
X101981000Y-78740000D02*
X101504636Y-78740000D01*
X101166635Y-78402000D02*
X100229314Y-78402000D01*
X97790000Y-83820000D02*
X96139000Y-83820000D01*
X104026000Y-76530000D02*
X102997000Y-77559000D01*
X102997000Y-78105000D02*
X102362000Y-78740000D01*
%TO.N,/P20*%
X99441000Y-79756000D02*
X99441000Y-82734686D01*
X101000950Y-78802000D02*
X100395000Y-78802000D01*
X103086000Y-79121000D02*
X102489000Y-79121000D01*
X101338950Y-79140000D02*
X101000950Y-78802000D01*
X102581000Y-79140000D02*
X101338950Y-79140000D01*
X103397000Y-78848000D02*
X103105000Y-79140000D01*
X97085686Y-85090000D02*
X99441000Y-82734686D01*
X103918000Y-77330000D02*
X103918000Y-77692000D01*
X104626000Y-77330000D02*
X103918000Y-77330000D01*
X103918000Y-77692000D02*
X103397000Y-78213000D01*
X100395000Y-78802000D02*
X99441000Y-79756000D01*
X103397000Y-78213000D02*
X103397000Y-78848000D01*
X103105000Y-79140000D02*
X103086000Y-79121000D01*
X97085686Y-85090000D02*
X96139000Y-85090000D01*
%TO.N,/P21*%
X99841000Y-81361950D02*
X99841000Y-83674000D01*
X99825343Y-83689657D02*
X97155000Y-86360000D01*
X104556000Y-79940000D02*
X102489000Y-79940000D01*
X101262950Y-79940000D02*
X99841000Y-81361950D01*
X99841000Y-83674000D02*
X99822000Y-83693000D01*
X97155000Y-86360000D02*
X96139000Y-86360000D01*
X102581000Y-79940000D02*
X101262950Y-79940000D01*
%TO.N,/P22*%
X101428636Y-80340000D02*
X100584000Y-81184636D01*
X101981000Y-80340000D02*
X101428636Y-80340000D01*
X104626000Y-80810000D02*
X103543000Y-80810000D01*
X100584000Y-81184636D02*
X100584000Y-84074000D01*
X97028000Y-87630000D02*
X96139000Y-87630000D01*
X100584000Y-84074000D02*
X97028000Y-87630000D01*
X103073000Y-80340000D02*
X101956000Y-80340000D01*
X103543000Y-80810000D02*
X103073000Y-80340000D01*
D23*
%TO.N,+3.3V*%
X94234000Y-45212000D02*
X94488000Y-44958000D01*
X94742000Y-92964000D02*
X94234000Y-92456000D01*
X102616000Y-81153000D02*
X102603000Y-81140000D01*
X107569000Y-84074000D02*
X104240000Y-84074000D01*
X94742000Y-92964000D02*
X85344000Y-92964000D01*
X96190000Y-45390000D02*
X95758000Y-44958000D01*
X94234000Y-92456000D02*
X94234000Y-45212000D01*
X96424635Y-92964000D02*
X102573000Y-86815635D01*
X102573000Y-82253000D02*
X101610003Y-81290003D01*
X109093000Y-82550000D02*
X107569000Y-84074000D01*
X96190000Y-61138000D02*
X95758000Y-60706000D01*
X111760000Y-82550000D02*
X109093000Y-82550000D01*
X104240000Y-84074000D02*
X102616000Y-82450000D01*
X96190000Y-46990000D02*
X96190000Y-45390000D01*
X102573000Y-86815635D02*
X102573000Y-82253000D01*
X94488000Y-44958000D02*
X96012000Y-44958000D01*
X94334500Y-60706000D02*
X95758000Y-60706000D01*
X96190000Y-62865000D02*
X96190000Y-61138000D01*
X102616000Y-82450000D02*
X102616000Y-81153000D01*
X83820000Y-91440000D02*
X83185000Y-91440000D01*
X96190000Y-76886000D02*
X96012000Y-76708000D01*
X94742000Y-92964000D02*
X96424635Y-92964000D01*
X94313000Y-76708000D02*
X96012000Y-76708000D01*
X102603000Y-81140000D02*
X102235000Y-81140000D01*
X85344000Y-92964000D02*
X83820000Y-91440000D01*
X96190000Y-78740000D02*
X96190000Y-76886000D01*
D22*
%TO.N,GND*%
X101981000Y-79540000D02*
X100749000Y-79540000D01*
D24*
X96190000Y-48260000D02*
X97536000Y-48260000D01*
D22*
X100457000Y-62230000D02*
X100649752Y-62338000D01*
X100649752Y-62338000D02*
X102016000Y-62338000D01*
D25*
X99314000Y-76962000D02*
X99314000Y-77216000D01*
D22*
X103663717Y-79540000D02*
X103998286Y-79205431D01*
X100584000Y-70612000D02*
X100622000Y-70650000D01*
X101981000Y-79540000D02*
X103663717Y-79540000D01*
X102016000Y-55480000D02*
X100921756Y-55480000D01*
D24*
X97790000Y-48006000D02*
X97790000Y-44958000D01*
X96190000Y-64135000D02*
X98171000Y-64135000D01*
X97536000Y-48260000D02*
X97790000Y-48006000D01*
D22*
X100749000Y-79540000D02*
X100711000Y-79502000D01*
X100584000Y-70612000D02*
X100629500Y-70650000D01*
X100622000Y-70650000D02*
X102108000Y-70650000D01*
D25*
X96770000Y-80010000D02*
X99314000Y-76962000D01*
X99314000Y-77216000D02*
X99314000Y-77466000D01*
D22*
X100921756Y-55480000D02*
X100571878Y-55130122D01*
D24*
X98171000Y-64135000D02*
X99314000Y-62992000D01*
X99314000Y-62992000D02*
X99314000Y-61214000D01*
%TO.N,Net-(J2-Pin_1)*%
X78740000Y-52070000D02*
X78740000Y-54610000D01*
X86690000Y-48260000D02*
X82550000Y-48260000D01*
X82550000Y-48260000D02*
X78740000Y-52070000D01*
%TO.N,Net-(J2-Pin_2)*%
X86690000Y-49530000D02*
X83820000Y-49530000D01*
X81280000Y-52070000D02*
X81280000Y-54610000D01*
X83820000Y-49530000D02*
X81280000Y-52070000D01*
%TO.N,Net-(J2-Pin_3)*%
X82550000Y-52070000D02*
X82550000Y-55001701D01*
X82550000Y-55001701D02*
X81671701Y-55880000D01*
X80010000Y-55880000D02*
X78740000Y-57150000D01*
X86690000Y-50800000D02*
X83820000Y-50800000D01*
X81671701Y-55880000D02*
X80010000Y-55880000D01*
X83820000Y-50800000D02*
X82550000Y-52070000D01*
%TO.N,Net-(J2-Pin_4)*%
X86690000Y-52070000D02*
X85090000Y-52070000D01*
X85090000Y-52070000D02*
X83000000Y-54160000D01*
X83000000Y-54160000D02*
X83000000Y-55430000D01*
X83000000Y-55430000D02*
X81280000Y-57150000D01*
%TO.N,Net-(J2-Pin_5)*%
X83450000Y-54346396D02*
X83450000Y-56641701D01*
X86690000Y-53340000D02*
X84456396Y-53340000D01*
X83450000Y-56641701D02*
X81671701Y-58420000D01*
X80010000Y-58420000D02*
X78740000Y-59690000D01*
X84456396Y-53340000D02*
X83450000Y-54346396D01*
X81671701Y-58420000D02*
X80010000Y-58420000D01*
%TO.N,Net-(J2-Pin_6)*%
X85090000Y-54610000D02*
X83900000Y-55800000D01*
X86690000Y-54610000D02*
X85090000Y-54610000D01*
X83900000Y-55800000D02*
X83900000Y-57070000D01*
X83900000Y-57070000D02*
X81280000Y-59690000D01*
%TO.N,Net-(J2-Pin_7)*%
X82455000Y-59151396D02*
X82455000Y-60176701D01*
X85726396Y-55880000D02*
X82455000Y-59151396D01*
X82455000Y-60176701D02*
X81671701Y-60960000D01*
X86690000Y-55880000D02*
X85726396Y-55880000D01*
X80010000Y-60960000D02*
X78740000Y-62230000D01*
X81671701Y-60960000D02*
X80010000Y-60960000D01*
%TO.N,Net-(J2-Pin_8)*%
X83822792Y-58420000D02*
X83822792Y-59687208D01*
X85092792Y-57150000D02*
X83822792Y-58420000D01*
X83822792Y-59687208D02*
X81280000Y-62230000D01*
X86690000Y-57150000D02*
X85092792Y-57150000D01*
%TO.N,Net-(J2-Pin_9)*%
X80010000Y-63500000D02*
X78740000Y-64770000D01*
X86690000Y-64135000D02*
X86055000Y-63500000D01*
X86055000Y-63500000D02*
X80010000Y-63500000D01*
%TO.N,Net-(J2-Pin_10)*%
X86690000Y-65405000D02*
X85725000Y-65405000D01*
X85090000Y-64770000D02*
X81280000Y-64770000D01*
X85725000Y-65405000D02*
X85090000Y-64770000D01*
%TO.N,Net-(J2-Pin_11)*%
X80010000Y-66040000D02*
X78740000Y-67310000D01*
X86690000Y-66675000D02*
X85725000Y-66675000D01*
X85725000Y-66675000D02*
X85090000Y-66040000D01*
X85090000Y-66040000D02*
X80010000Y-66040000D01*
%TO.N,Net-(J2-Pin_12)*%
X86690000Y-67945000D02*
X85725000Y-67945000D01*
X85725000Y-67945000D02*
X85090000Y-67310000D01*
X85090000Y-67310000D02*
X81280000Y-67310000D01*
%TO.N,Net-(J2-Pin_13)*%
X80010000Y-68580000D02*
X85090000Y-68580000D01*
X86690000Y-69215000D02*
X85725000Y-69215000D01*
X85725000Y-69215000D02*
X85090000Y-68580000D01*
X78740000Y-69850000D02*
X80010000Y-68580000D01*
%TO.N,Net-(J2-Pin_14)*%
X85090000Y-69850000D02*
X81280000Y-69850000D01*
X85725000Y-70485000D02*
X85090000Y-69850000D01*
X86690000Y-70485000D02*
X85725000Y-70485000D01*
%TO.N,Net-(J2-Pin_15)*%
X86690000Y-71755000D02*
X85725000Y-71755000D01*
X85725000Y-71755000D02*
X85185000Y-71215000D01*
X85185000Y-71215000D02*
X79915000Y-71215000D01*
X79915000Y-71215000D02*
X78740000Y-72390000D01*
%TO.N,Net-(J2-Pin_16)*%
X85090000Y-72390000D02*
X81280000Y-72390000D01*
X85725000Y-73025000D02*
X85090000Y-72390000D01*
X86690000Y-73025000D02*
X85725000Y-73025000D01*
%TO.N,Net-(J2-Pin_17)*%
X85170000Y-79455000D02*
X85170000Y-77158299D01*
X79915000Y-73755000D02*
X78740000Y-74930000D01*
X86690000Y-80010000D02*
X85725000Y-80010000D01*
X85725000Y-80010000D02*
X85170000Y-79455000D01*
X81766701Y-73755000D02*
X79915000Y-73755000D01*
X85170000Y-77158299D02*
X81766701Y-73755000D01*
%TO.N,Net-(J2-Pin_18)*%
X86690000Y-81280000D02*
X85725000Y-81280000D01*
X84720000Y-77735000D02*
X81915000Y-74930000D01*
X85725000Y-81280000D02*
X84720000Y-80275000D01*
X84720000Y-80275000D02*
X84720000Y-77735000D01*
%TO.N,Net-(J2-Pin_19)*%
X80010000Y-76200000D02*
X78740000Y-77470000D01*
X84270000Y-78553604D02*
X81916396Y-76200000D01*
X81916396Y-76200000D02*
X80010000Y-76200000D01*
X85725000Y-82550000D02*
X86360000Y-82550000D01*
X84270000Y-78553604D02*
X84270000Y-81095000D01*
X84270000Y-81095000D02*
X85725000Y-82550000D01*
%TO.N,Net-(J2-Pin_20)*%
X83820000Y-78740000D02*
X83820000Y-82550000D01*
X82550000Y-77470000D02*
X81280000Y-77470000D01*
X83820000Y-82550000D02*
X85090000Y-83820000D01*
X85090000Y-83820000D02*
X86360000Y-83820000D01*
X83820000Y-78740000D02*
X82550000Y-77470000D01*
%TO.N,Net-(J2-Pin_21)*%
X83185000Y-80253299D02*
X83185000Y-83185000D01*
X81671701Y-78740000D02*
X80010000Y-78740000D01*
X83185000Y-80253299D02*
X81671701Y-78740000D01*
X85090000Y-85090000D02*
X86360000Y-85090000D01*
X83185000Y-83185000D02*
X85090000Y-85090000D01*
X80010000Y-78740000D02*
X78740000Y-80010000D01*
%TO.N,Net-(J2-Pin_22)*%
X82550000Y-81280000D02*
X81280000Y-80010000D01*
X85090000Y-86360000D02*
X86995000Y-86360000D01*
X82550000Y-83820000D02*
X85090000Y-86360000D01*
X82550000Y-81280000D02*
X82550000Y-83820000D01*
D23*
%TO.N,Net-(J2-Pin_23)*%
X77190000Y-89890000D02*
X77190000Y-84100000D01*
X77190000Y-84100000D02*
X78740000Y-82550000D01*
X78740000Y-91440000D02*
X77190000Y-89890000D01*
X78740000Y-82550000D02*
X81280000Y-82550000D01*
X79730000Y-91440000D02*
X78740000Y-91440000D01*
D24*
%TO.N,Net-(J1-Pin_1)*%
X109220000Y-54610000D02*
X106426000Y-54610000D01*
D25*
%TO.N,Net-(J1-Pin_2)*%
X110510000Y-55860000D02*
X111760000Y-54610000D01*
X107933472Y-55372000D02*
X106172000Y-55372000D01*
X108421472Y-55860000D02*
X107933472Y-55372000D01*
X110510000Y-55860000D02*
X108421472Y-55860000D01*
D24*
%TO.N,Net-(J1-Pin_3)*%
X107950000Y-57150000D02*
X107061000Y-56261000D01*
X107061000Y-56261000D02*
X106299000Y-56261000D01*
X109220000Y-57150000D02*
X107950000Y-57150000D01*
D25*
%TO.N,Net-(J1-Pin_4)*%
X110510000Y-58400000D02*
X108057000Y-58400000D01*
X110510000Y-58400000D02*
X111760000Y-57150000D01*
X108057000Y-58400000D02*
X106680000Y-57023000D01*
X106680000Y-57023000D02*
X106426000Y-57023000D01*
D24*
%TO.N,Net-(J1-Pin_5)*%
X109220000Y-59690000D02*
X106426000Y-59690000D01*
D25*
%TO.N,Net-(J1-Pin_6)*%
X110510000Y-60940000D02*
X111760000Y-59690000D01*
X106781752Y-60452000D02*
X106426000Y-60452000D01*
X110510000Y-60940000D02*
X107269752Y-60940000D01*
X107269752Y-60940000D02*
X106781752Y-60452000D01*
D24*
%TO.N,Net-(J1-Pin_7)*%
X106999000Y-61341000D02*
X106299000Y-61341000D01*
X107823000Y-62230000D02*
X107823000Y-62165000D01*
X107823000Y-62165000D02*
X106999000Y-61341000D01*
X109220000Y-62230000D02*
X107823000Y-62230000D01*
D25*
%TO.N,Net-(J1-Pin_8)*%
X110510000Y-63480000D02*
X111760000Y-62230000D01*
X108057000Y-63480000D02*
X106680000Y-62103000D01*
X110510000Y-63480000D02*
X108057000Y-63480000D01*
D24*
%TO.N,Net-(J1-Pin_9)*%
X109220000Y-64770000D02*
X106426000Y-64770000D01*
D25*
%TO.N,Net-(J1-Pin_10)*%
X110510000Y-66020000D02*
X111760000Y-64770000D01*
X106843752Y-65532000D02*
X106426000Y-65532000D01*
X107331752Y-66020000D02*
X106843752Y-65532000D01*
X110510000Y-66020000D02*
X107331752Y-66020000D01*
D24*
%TO.N,Net-(J1-Pin_11)*%
X107950000Y-67310000D02*
X107061000Y-66421000D01*
X109220000Y-67310000D02*
X107950000Y-67310000D01*
X107061000Y-66421000D02*
X106299000Y-66421000D01*
D25*
%TO.N,Net-(J1-Pin_12)*%
X110510000Y-68560000D02*
X111760000Y-67310000D01*
X110510000Y-68560000D02*
X108057000Y-68560000D01*
X108057000Y-68560000D02*
X106680000Y-67183000D01*
X106680000Y-67183000D02*
X106426000Y-67183000D01*
D24*
%TO.N,Net-(J1-Pin_13)*%
X109220000Y-69850000D02*
X106426000Y-69850000D01*
D25*
%TO.N,Net-(J1-Pin_14)*%
X107287752Y-71140000D02*
X106759752Y-70612000D01*
X110470000Y-71140000D02*
X107287752Y-71140000D01*
X106759752Y-70612000D02*
X106299000Y-70612000D01*
X110470000Y-71140000D02*
X111760000Y-69850000D01*
D24*
%TO.N,Net-(J1-Pin_15)*%
X109220000Y-72390000D02*
X107866000Y-72390000D01*
X107866000Y-72390000D02*
X106955500Y-71479500D01*
X106977000Y-71501000D02*
X106299000Y-71501000D01*
D25*
%TO.N,Net-(J1-Pin_16)*%
X107972000Y-73680000D02*
X106555000Y-72263000D01*
X110470000Y-73680000D02*
X111760000Y-72390000D01*
X107972000Y-73680000D02*
X110470000Y-73680000D01*
D24*
%TO.N,Net-(J1-Pin_17)*%
X109220000Y-74930000D02*
X106299000Y-74930000D01*
D25*
%TO.N,Net-(J1-Pin_18)*%
X108478000Y-76220000D02*
X107950000Y-75692000D01*
X107950000Y-75692000D02*
X106299000Y-75692000D01*
X111760000Y-74930000D02*
X110470000Y-76220000D01*
X110470000Y-76220000D02*
X108478000Y-76220000D01*
D24*
%TO.N,Net-(J1-Pin_19)*%
X109220000Y-77470000D02*
X108194695Y-77470000D01*
X108194695Y-77470000D02*
X107305695Y-76581000D01*
X107305695Y-76581000D02*
X106299000Y-76581000D01*
D25*
%TO.N,Net-(J1-Pin_20)*%
X107395943Y-77343000D02*
X106426000Y-77343000D01*
X110490000Y-78740000D02*
X108792943Y-78740000D01*
X110490000Y-78740000D02*
X111760000Y-77470000D01*
X108792943Y-78740000D02*
X107395943Y-77343000D01*
D24*
%TO.N,Net-(J1-Pin_21)*%
X109220000Y-80010000D02*
X106426000Y-80010000D01*
D25*
%TO.N,Net-(J1-Pin_22)*%
X108331000Y-81280000D02*
X107823000Y-80772000D01*
X110490000Y-81280000D02*
X111760000Y-80010000D01*
X110490000Y-81280000D02*
X108331000Y-81280000D01*
X107823000Y-80772000D02*
X106299000Y-80772000D01*
%TD*%
%TA.AperFunction,Conductor*%
%TO.N,GND*%
G36*
X110866281Y-83570185D02*
G01*
X110886923Y-83586819D01*
X110888599Y-83588495D01*
X111074596Y-83718732D01*
X111118219Y-83773307D01*
X111125412Y-83842806D01*
X111093890Y-83905160D01*
X111074594Y-83921881D01*
X110998626Y-83975073D01*
X111627466Y-84603913D01*
X111617685Y-84605320D01*
X111486900Y-84665048D01*
X111378239Y-84759202D01*
X111300507Y-84880156D01*
X111276923Y-84960475D01*
X110645073Y-84328625D01*
X110645071Y-84328626D01*
X110591574Y-84405030D01*
X110536998Y-84448655D01*
X110467499Y-84455849D01*
X110405144Y-84424326D01*
X110388424Y-84405030D01*
X110334925Y-84328626D01*
X110334925Y-84328625D01*
X109703076Y-84960475D01*
X109679493Y-84880156D01*
X109601761Y-84759202D01*
X109493100Y-84665048D01*
X109362315Y-84605320D01*
X109352532Y-84603913D01*
X109981373Y-83975073D01*
X109981373Y-83975072D01*
X109905405Y-83921880D01*
X109861780Y-83867304D01*
X109854586Y-83797805D01*
X109886108Y-83735451D01*
X109905399Y-83718734D01*
X110091401Y-83588495D01*
X110093077Y-83586819D01*
X110096334Y-83585040D01*
X110100288Y-83582272D01*
X110100596Y-83582712D01*
X110154400Y-83553334D01*
X110180758Y-83550500D01*
X110799242Y-83550500D01*
X110866281Y-83570185D01*
G37*
%TD.AperFunction*%
%TA.AperFunction,Conductor*%
G36*
X105613681Y-77866485D02*
G01*
X105625263Y-77879850D01*
X105668454Y-77937546D01*
X105783669Y-78023796D01*
X105918517Y-78074091D01*
X105978127Y-78080500D01*
X106873872Y-78080499D01*
X106933483Y-78074091D01*
X107058100Y-78027611D01*
X107127786Y-78022628D01*
X107189107Y-78056110D01*
X107189110Y-78056113D01*
X108145034Y-79012037D01*
X108178519Y-79073360D01*
X108173535Y-79143052D01*
X108158928Y-79170841D01*
X108081033Y-79282088D01*
X108057145Y-79316205D01*
X108046349Y-79331623D01*
X107991773Y-79375248D01*
X107944774Y-79384500D01*
X107200835Y-79384500D01*
X107133796Y-79364815D01*
X107126525Y-79359767D01*
X107068333Y-79316205D01*
X107068331Y-79316204D01*
X106933483Y-79265909D01*
X106873873Y-79259500D01*
X106870550Y-79259500D01*
X105981439Y-79259500D01*
X105981420Y-79259500D01*
X105978128Y-79259501D01*
X105974848Y-79259853D01*
X105974840Y-79259854D01*
X105918515Y-79265909D01*
X105783669Y-79316204D01*
X105668453Y-79402454D01*
X105625267Y-79460144D01*
X105569333Y-79502015D01*
X105499641Y-79506999D01*
X105438318Y-79473514D01*
X105426733Y-79460144D01*
X105383546Y-79402454D01*
X105268331Y-79316204D01*
X105133483Y-79265909D01*
X105077166Y-79259854D01*
X105077165Y-79259853D01*
X105073873Y-79259500D01*
X105070550Y-79259500D01*
X104181439Y-79259500D01*
X104181420Y-79259500D01*
X104178128Y-79259501D01*
X104174848Y-79259853D01*
X104174840Y-79259854D01*
X104118514Y-79265909D01*
X104096079Y-79274277D01*
X104026387Y-79279260D01*
X103965064Y-79245773D01*
X103931581Y-79184449D01*
X103936567Y-79114757D01*
X103938187Y-79110641D01*
X103982044Y-79004762D01*
X103984377Y-78987044D01*
X104002682Y-78848000D01*
X103998561Y-78816696D01*
X103997500Y-78800511D01*
X103997500Y-78513096D01*
X104017185Y-78446057D01*
X104033815Y-78425419D01*
X104309043Y-78150190D01*
X104321223Y-78139509D01*
X104346282Y-78120282D01*
X104346282Y-78120281D01*
X104359238Y-78110341D01*
X104361362Y-78113109D01*
X104396013Y-78087809D01*
X104437959Y-78080499D01*
X105070561Y-78080499D01*
X105073872Y-78080499D01*
X105133483Y-78074091D01*
X105268331Y-78023796D01*
X105383546Y-77937546D01*
X105426734Y-77879854D01*
X105482667Y-77837984D01*
X105552358Y-77833000D01*
X105613681Y-77866485D01*
G37*
%TD.AperFunction*%
%TA.AperFunction,Conductor*%
G36*
X99502834Y-74284049D02*
G01*
X99558767Y-74325921D01*
X99583184Y-74391385D01*
X99583500Y-74400231D01*
X99583500Y-77015845D01*
X99563815Y-77082884D01*
X99547181Y-77103526D01*
X97652180Y-78998526D01*
X97590857Y-79032011D01*
X97521165Y-79027027D01*
X97465232Y-78985155D01*
X97440815Y-78919691D01*
X97440499Y-78910865D01*
X97440499Y-78392128D01*
X97434091Y-78332517D01*
X97383796Y-78197669D01*
X97297546Y-78082454D01*
X97297544Y-78082452D01*
X97297543Y-78082451D01*
X97240189Y-78039515D01*
X97198318Y-77983581D01*
X97190500Y-77940249D01*
X97190500Y-77803114D01*
X97210185Y-77736075D01*
X97262989Y-77690320D01*
X97327104Y-77679756D01*
X97355725Y-77682680D01*
X97362000Y-77682999D01*
X97458000Y-77682998D01*
X97458000Y-76958000D01*
X97957999Y-76958000D01*
X97957999Y-77682998D01*
X97958000Y-77682999D01*
X98053997Y-77682999D01*
X98060279Y-77682678D01*
X98158150Y-77672681D01*
X98321801Y-77618453D01*
X98468540Y-77527943D01*
X98590443Y-77406040D01*
X98680953Y-77259301D01*
X98735181Y-77095651D01*
X98745180Y-76997777D01*
X98745500Y-76991499D01*
X98745500Y-76958000D01*
X97957999Y-76958000D01*
X97458000Y-76958000D01*
X97458000Y-75733000D01*
X97957999Y-75733000D01*
X97957999Y-76457999D01*
X97958001Y-76458000D01*
X98745499Y-76458000D01*
X98745499Y-76424502D01*
X98745178Y-76418220D01*
X98735181Y-76320349D01*
X98680953Y-76156698D01*
X98590443Y-76009959D01*
X98468540Y-75888056D01*
X98321801Y-75797546D01*
X98158151Y-75743318D01*
X98060277Y-75733319D01*
X98054000Y-75733000D01*
X97957999Y-75733000D01*
X97458000Y-75733000D01*
X97458000Y-75732999D01*
X97362004Y-75733000D01*
X97355719Y-75733321D01*
X97257849Y-75743318D01*
X97094198Y-75797546D01*
X96947458Y-75888057D01*
X96933532Y-75901983D01*
X96872209Y-75935467D01*
X96802517Y-75930481D01*
X96758172Y-75901981D01*
X96743852Y-75887661D01*
X96597015Y-75797091D01*
X96433253Y-75742825D01*
X96335309Y-75732819D01*
X96335290Y-75732818D01*
X96332177Y-75732500D01*
X96329028Y-75732500D01*
X96257088Y-75732500D01*
X96222975Y-75727715D01*
X96189420Y-75718113D01*
X96159075Y-75715802D01*
X96143534Y-75713622D01*
X96113742Y-75707500D01*
X96113741Y-75707500D01*
X96054758Y-75707500D01*
X96045344Y-75707142D01*
X96036198Y-75706445D01*
X95986524Y-75702663D01*
X95986523Y-75702663D01*
X95986522Y-75702663D01*
X95956349Y-75706506D01*
X95940683Y-75707500D01*
X95358500Y-75707500D01*
X95291461Y-75687815D01*
X95245706Y-75635011D01*
X95234500Y-75583500D01*
X95234500Y-75402032D01*
X95234500Y-75216595D01*
X95254183Y-75149560D01*
X95306987Y-75103805D01*
X95371751Y-75093309D01*
X95392127Y-75095500D01*
X96987872Y-75095499D01*
X97047483Y-75089091D01*
X97182331Y-75038796D01*
X97297546Y-74952546D01*
X97303053Y-74945188D01*
X97358986Y-74903319D01*
X97402320Y-74895500D01*
X98492648Y-74895500D01*
X98508832Y-74896560D01*
X98540135Y-74900682D01*
X98696897Y-74880044D01*
X98842976Y-74819536D01*
X98852977Y-74811862D01*
X98968417Y-74723282D01*
X98987644Y-74698223D01*
X98998325Y-74686043D01*
X99371820Y-74312549D01*
X99433142Y-74279065D01*
X99502834Y-74284049D01*
G37*
%TD.AperFunction*%
%TA.AperFunction,Conductor*%
G36*
X100640892Y-70532185D02*
G01*
X100661534Y-70548819D01*
X100678783Y-70566068D01*
X100712268Y-70627391D01*
X100707284Y-70697083D01*
X100678783Y-70741430D01*
X100407532Y-71012682D01*
X100346212Y-71046166D01*
X100319853Y-71049000D01*
X100017987Y-71049000D01*
X100001802Y-71047939D01*
X99997876Y-71047422D01*
X99970499Y-71043817D01*
X99765514Y-71070804D01*
X99742968Y-71093083D01*
X99731644Y-71098460D01*
X99667658Y-71124963D01*
X99542216Y-71221218D01*
X99522994Y-71246270D01*
X99512300Y-71258464D01*
X98382584Y-72388181D01*
X98321261Y-72421666D01*
X98294903Y-72424500D01*
X97634213Y-72424500D01*
X97567174Y-72404815D01*
X97521419Y-72352011D01*
X97511475Y-72282853D01*
X97540500Y-72219297D01*
X97558723Y-72202126D01*
X97583282Y-72183282D01*
X97602509Y-72158223D01*
X97613190Y-72146043D01*
X99210415Y-70548819D01*
X99271739Y-70515334D01*
X99298097Y-70512500D01*
X100573853Y-70512500D01*
X100640892Y-70532185D01*
G37*
%TD.AperFunction*%
%TA.AperFunction,Conductor*%
G36*
X99461942Y-59040185D02*
G01*
X99482584Y-59056819D01*
X99947181Y-59521416D01*
X99980666Y-59582739D01*
X99983500Y-59609097D01*
X99983500Y-61293511D01*
X99982439Y-61309696D01*
X99978317Y-61341000D01*
X99996919Y-61482292D01*
X99998955Y-61497762D01*
X100059464Y-61643841D01*
X100155716Y-61769281D01*
X100180768Y-61788503D01*
X100192964Y-61799199D01*
X100519786Y-62126022D01*
X100553271Y-62187345D01*
X100548287Y-62257037D01*
X100519523Y-62295941D01*
X100520604Y-62296770D01*
X100491440Y-62334774D01*
X100480748Y-62346965D01*
X98059534Y-64768181D01*
X97998211Y-64801666D01*
X97971853Y-64804500D01*
X97514425Y-64804500D01*
X97447386Y-64784815D01*
X97401631Y-64732011D01*
X97391687Y-64662853D01*
X97398243Y-64637167D01*
X97433599Y-64542373D01*
X97439645Y-64486132D01*
X97440000Y-64479518D01*
X97440000Y-64385000D01*
X96064000Y-64385000D01*
X95996961Y-64365315D01*
X95951206Y-64312511D01*
X95940000Y-64261000D01*
X95940000Y-64009000D01*
X95959685Y-63941961D01*
X96012489Y-63896206D01*
X96064000Y-63885000D01*
X97440000Y-63885000D01*
X97440000Y-63790481D01*
X97439645Y-63783867D01*
X97433599Y-63727628D01*
X97383351Y-63592908D01*
X97369740Y-63574726D01*
X97345323Y-63509262D01*
X97360175Y-63440989D01*
X97369736Y-63426111D01*
X97383796Y-63407331D01*
X97434091Y-63272483D01*
X97440500Y-63212873D01*
X97440499Y-62517128D01*
X97434091Y-62457517D01*
X97383796Y-62322669D01*
X97297546Y-62207454D01*
X97297544Y-62207452D01*
X97297543Y-62207451D01*
X97240189Y-62164515D01*
X97198318Y-62108581D01*
X97190500Y-62065249D01*
X97190500Y-61803310D01*
X97210185Y-61736271D01*
X97262989Y-61690516D01*
X97327112Y-61679953D01*
X97334226Y-61680680D01*
X97340500Y-61680999D01*
X97436500Y-61680998D01*
X97436500Y-60956000D01*
X97936500Y-60956000D01*
X97936500Y-61680999D01*
X98032497Y-61680999D01*
X98038779Y-61680678D01*
X98136650Y-61670681D01*
X98300301Y-61616453D01*
X98447040Y-61525943D01*
X98568943Y-61404040D01*
X98659453Y-61257301D01*
X98713681Y-61093651D01*
X98723680Y-60995777D01*
X98724000Y-60989499D01*
X98724000Y-60956000D01*
X97936500Y-60956000D01*
X97436500Y-60956000D01*
X97436500Y-59731000D01*
X97936500Y-59731000D01*
X97936500Y-60456000D01*
X98723999Y-60456000D01*
X98723999Y-60422502D01*
X98723678Y-60416220D01*
X98713681Y-60318349D01*
X98659453Y-60154698D01*
X98568943Y-60007959D01*
X98447040Y-59886056D01*
X98300301Y-59795546D01*
X98136651Y-59741318D01*
X98038777Y-59731319D01*
X98032500Y-59731000D01*
X97936500Y-59731000D01*
X97436500Y-59731000D01*
X97436500Y-59730999D01*
X97340504Y-59731000D01*
X97334219Y-59731321D01*
X97236349Y-59741318D01*
X97072698Y-59795546D01*
X96925958Y-59886057D01*
X96912032Y-59899983D01*
X96850709Y-59933467D01*
X96781017Y-59928481D01*
X96736672Y-59899981D01*
X96722352Y-59885661D01*
X96575515Y-59795091D01*
X96411753Y-59740825D01*
X96313809Y-59730819D01*
X96313790Y-59730818D01*
X96310677Y-59730500D01*
X96307528Y-59730500D01*
X96003090Y-59730500D01*
X95968979Y-59725716D01*
X95935418Y-59716113D01*
X95905075Y-59713802D01*
X95889534Y-59711622D01*
X95859742Y-59705500D01*
X95859741Y-59705500D01*
X95800758Y-59705500D01*
X95791344Y-59705142D01*
X95782198Y-59704445D01*
X95732524Y-59700663D01*
X95732523Y-59700663D01*
X95732522Y-59700663D01*
X95702349Y-59704506D01*
X95686683Y-59705500D01*
X95358500Y-59705500D01*
X95291461Y-59685815D01*
X95245706Y-59633011D01*
X95234500Y-59581500D01*
X95234500Y-59341599D01*
X95254185Y-59274560D01*
X95306989Y-59228805D01*
X95371751Y-59218309D01*
X95392127Y-59220500D01*
X96987872Y-59220499D01*
X97047483Y-59214091D01*
X97182331Y-59163796D01*
X97297546Y-59077546D01*
X97303053Y-59070188D01*
X97358986Y-59028319D01*
X97402320Y-59020500D01*
X99394903Y-59020500D01*
X99461942Y-59040185D01*
G37*
%TD.AperFunction*%
%TA.AperFunction,Conductor*%
G36*
X115897539Y-43450185D02*
G01*
X115943294Y-43502989D01*
X115954500Y-43554500D01*
X115954500Y-96145500D01*
X115934815Y-96212539D01*
X115882011Y-96258294D01*
X115830500Y-96269500D01*
X76578000Y-96269500D01*
X76510961Y-96249815D01*
X76465206Y-96197011D01*
X76454000Y-96145500D01*
X76454000Y-90868282D01*
X76473685Y-90801243D01*
X76526489Y-90755488D01*
X76595647Y-90745544D01*
X76659203Y-90774569D01*
X76665667Y-90780588D01*
X77392844Y-91507764D01*
X78022432Y-92137352D01*
X78024625Y-92139601D01*
X78084942Y-92203054D01*
X78133362Y-92236755D01*
X78140871Y-92242416D01*
X78186593Y-92279698D01*
X78213562Y-92293785D01*
X78226982Y-92301916D01*
X78251949Y-92319294D01*
X78306163Y-92342559D01*
X78314663Y-92346595D01*
X78366951Y-92373909D01*
X78396196Y-92382277D01*
X78410986Y-92387543D01*
X78418464Y-92390752D01*
X78438942Y-92399540D01*
X78496737Y-92411416D01*
X78505854Y-92413654D01*
X78562582Y-92429887D01*
X78592916Y-92432196D01*
X78608455Y-92434375D01*
X78633402Y-92439502D01*
X78695105Y-92472278D01*
X78713979Y-92495866D01*
X78737289Y-92533658D01*
X78861342Y-92657711D01*
X78861344Y-92657712D01*
X79010666Y-92749814D01*
X79122016Y-92786712D01*
X79177202Y-92804999D01*
X79276858Y-92815180D01*
X79276859Y-92815180D01*
X79279991Y-92815500D01*
X80180008Y-92815499D01*
X80282797Y-92804999D01*
X80449334Y-92749814D01*
X80598656Y-92657712D01*
X80722712Y-92533656D01*
X80814814Y-92384334D01*
X80869999Y-92217797D01*
X80880500Y-92115009D01*
X80880500Y-92111878D01*
X81679500Y-92111878D01*
X81679501Y-92115008D01*
X81679820Y-92118140D01*
X81679821Y-92118141D01*
X81690000Y-92217796D01*
X81745186Y-92384334D01*
X81837288Y-92533657D01*
X81961342Y-92657711D01*
X81961344Y-92657712D01*
X82110666Y-92749814D01*
X82222016Y-92786712D01*
X82277202Y-92804999D01*
X82376858Y-92815180D01*
X82376859Y-92815180D01*
X82379991Y-92815500D01*
X83280008Y-92815499D01*
X83382797Y-92804999D01*
X83549334Y-92749814D01*
X83568285Y-92738124D01*
X83635672Y-92719684D01*
X83702336Y-92740605D01*
X83721061Y-92755982D01*
X84626449Y-93661370D01*
X84628642Y-93663619D01*
X84688941Y-93727053D01*
X84737370Y-93760760D01*
X84744862Y-93766409D01*
X84790592Y-93803697D01*
X84810939Y-93814325D01*
X84817557Y-93817782D01*
X84830981Y-93825915D01*
X84855951Y-93843295D01*
X84910165Y-93866560D01*
X84918675Y-93870602D01*
X84970951Y-93897909D01*
X85000200Y-93906277D01*
X85014970Y-93911535D01*
X85042942Y-93923540D01*
X85042945Y-93923540D01*
X85042946Y-93923541D01*
X85100726Y-93935414D01*
X85109869Y-93937657D01*
X85166582Y-93953886D01*
X85196920Y-93956196D01*
X85212448Y-93958373D01*
X85242259Y-93964500D01*
X85301244Y-93964500D01*
X85310659Y-93964858D01*
X85314806Y-93965173D01*
X85369476Y-93969337D01*
X85396278Y-93965923D01*
X85399652Y-93965494D01*
X85415317Y-93964500D01*
X94640259Y-93964500D01*
X94699255Y-93964500D01*
X94708668Y-93964857D01*
X94767476Y-93969336D01*
X94793556Y-93966014D01*
X94797654Y-93965493D01*
X94813317Y-93964500D01*
X96410356Y-93964500D01*
X96413497Y-93964539D01*
X96500998Y-93966757D01*
X96559067Y-93956348D01*
X96568371Y-93955043D01*
X96627073Y-93949074D01*
X96656102Y-93939965D01*
X96671335Y-93936226D01*
X96701288Y-93930858D01*
X96756061Y-93908978D01*
X96764936Y-93905819D01*
X96782310Y-93900367D01*
X96821223Y-93888159D01*
X96847829Y-93873390D01*
X96861997Y-93866662D01*
X96890252Y-93855377D01*
X96939514Y-93822909D01*
X96947545Y-93818043D01*
X96999137Y-93789409D01*
X97022222Y-93769589D01*
X97034749Y-93760144D01*
X97060154Y-93743402D01*
X97101886Y-93701668D01*
X97108758Y-93695300D01*
X97153530Y-93656866D01*
X97172159Y-93632798D01*
X97182518Y-93621036D01*
X99295790Y-91507764D01*
X102285787Y-91507764D01*
X102315413Y-91777016D01*
X102349275Y-91906539D01*
X102383928Y-92039088D01*
X102469070Y-92239444D01*
X102489871Y-92288392D01*
X102630982Y-92519611D01*
X102797484Y-92719684D01*
X102804255Y-92727820D01*
X103005998Y-92908582D01*
X103231910Y-93058044D01*
X103338211Y-93107876D01*
X103477177Y-93173021D01*
X103736562Y-93251058D01*
X103736569Y-93251060D01*
X104004561Y-93290500D01*
X104004564Y-93290500D01*
X104205369Y-93290500D01*
X104207631Y-93290500D01*
X104410156Y-93275677D01*
X104674553Y-93216780D01*
X104927558Y-93120014D01*
X105163777Y-92987441D01*
X105378177Y-92821888D01*
X105566186Y-92626881D01*
X105723799Y-92406579D01*
X105847656Y-92165675D01*
X105935118Y-91909305D01*
X105984319Y-91642933D01*
X105994212Y-91372235D01*
X105964586Y-91102982D01*
X105896072Y-90840912D01*
X105790130Y-90591610D01*
X105649018Y-90360390D01*
X105649017Y-90360388D01*
X105475746Y-90152181D01*
X105461472Y-90139391D01*
X105274002Y-89971418D01*
X105048090Y-89821956D01*
X105041443Y-89818840D01*
X104802822Y-89706978D01*
X104543437Y-89628941D01*
X104543431Y-89628940D01*
X104275439Y-89589500D01*
X104072369Y-89589500D01*
X104070120Y-89589664D01*
X104070109Y-89589665D01*
X103869843Y-89604322D01*
X103605449Y-89663219D01*
X103352441Y-89759986D01*
X103116223Y-89892559D01*
X102901825Y-90058109D01*
X102713813Y-90253120D01*
X102556201Y-90473420D01*
X102432342Y-90714329D01*
X102344881Y-90970695D01*
X102295680Y-91237066D01*
X102285787Y-91507764D01*
X99295790Y-91507764D01*
X103270389Y-87533164D01*
X103272559Y-87531048D01*
X103336053Y-87470694D01*
X103369759Y-87422265D01*
X103375428Y-87414748D01*
X103412698Y-87369042D01*
X103426783Y-87342074D01*
X103434918Y-87328650D01*
X103441373Y-87319375D01*
X103452295Y-87303684D01*
X103475568Y-87249450D01*
X103479588Y-87240985D01*
X103506909Y-87188684D01*
X103515275Y-87159443D01*
X103520539Y-87144654D01*
X103532540Y-87116693D01*
X103544417Y-87058891D01*
X103546652Y-87049783D01*
X103562886Y-86993053D01*
X103565196Y-86962713D01*
X103567376Y-86947175D01*
X103573500Y-86917377D01*
X103573500Y-86858389D01*
X103573858Y-86848974D01*
X103574529Y-86840161D01*
X103578337Y-86790159D01*
X103574493Y-86759974D01*
X103573500Y-86744311D01*
X103573500Y-85064863D01*
X103593185Y-84997824D01*
X103645989Y-84952069D01*
X103715147Y-84942125D01*
X103746401Y-84950913D01*
X103751950Y-84953294D01*
X103751951Y-84953295D01*
X103771660Y-84961753D01*
X103806164Y-84976560D01*
X103814663Y-84980595D01*
X103848286Y-84998159D01*
X103866951Y-85007909D01*
X103896196Y-85016277D01*
X103910986Y-85021543D01*
X103918464Y-85024752D01*
X103938942Y-85033540D01*
X103996737Y-85045416D01*
X104005854Y-85047654D01*
X104062582Y-85063887D01*
X104092916Y-85066196D01*
X104108453Y-85068374D01*
X104138259Y-85074500D01*
X104197242Y-85074500D01*
X104206656Y-85074858D01*
X104265476Y-85079337D01*
X104295651Y-85075493D01*
X104311317Y-85074500D01*
X107554721Y-85074500D01*
X107557862Y-85074539D01*
X107645363Y-85076757D01*
X107703432Y-85066348D01*
X107712736Y-85065043D01*
X107736228Y-85062654D01*
X107804913Y-85075456D01*
X107855774Y-85123361D01*
X107872297Y-85175210D01*
X107885430Y-85325318D01*
X107946569Y-85553492D01*
X108046400Y-85767580D01*
X108105073Y-85851373D01*
X108736922Y-85219523D01*
X108760507Y-85299844D01*
X108838239Y-85420798D01*
X108946900Y-85514952D01*
X109077685Y-85574680D01*
X109087466Y-85576086D01*
X108458625Y-86204925D01*
X108542420Y-86263599D01*
X108756507Y-86363430D01*
X108984681Y-86424569D01*
X109219999Y-86445157D01*
X109455318Y-86424569D01*
X109683492Y-86363430D01*
X109897576Y-86263600D01*
X109981373Y-86204925D01*
X109352533Y-85576086D01*
X109362315Y-85574680D01*
X109493100Y-85514952D01*
X109601761Y-85420798D01*
X109679493Y-85299844D01*
X109703076Y-85219524D01*
X110334925Y-85851373D01*
X110388424Y-85774969D01*
X110443001Y-85731344D01*
X110512499Y-85724150D01*
X110574854Y-85755673D01*
X110591574Y-85774969D01*
X110645072Y-85851373D01*
X110645073Y-85851373D01*
X111276923Y-85219523D01*
X111300507Y-85299844D01*
X111378239Y-85420798D01*
X111486900Y-85514952D01*
X111617685Y-85574680D01*
X111627466Y-85576086D01*
X110998625Y-86204925D01*
X111082420Y-86263599D01*
X111296507Y-86363430D01*
X111524681Y-86424569D01*
X111760000Y-86445157D01*
X111995318Y-86424569D01*
X112223492Y-86363430D01*
X112437576Y-86263600D01*
X112521373Y-86204925D01*
X111892533Y-85576086D01*
X111902315Y-85574680D01*
X112033100Y-85514952D01*
X112141761Y-85420798D01*
X112219493Y-85299844D01*
X112243076Y-85219524D01*
X112874925Y-85851373D01*
X112933600Y-85767576D01*
X113033430Y-85553492D01*
X113094569Y-85325318D01*
X113115157Y-85090000D01*
X113094569Y-84854681D01*
X113033430Y-84626507D01*
X112933599Y-84412421D01*
X112874926Y-84328626D01*
X112874925Y-84328625D01*
X112243076Y-84960474D01*
X112219493Y-84880156D01*
X112141761Y-84759202D01*
X112033100Y-84665048D01*
X111902315Y-84605320D01*
X111892533Y-84603913D01*
X112521373Y-83975073D01*
X112521373Y-83975072D01*
X112445405Y-83921880D01*
X112401780Y-83867304D01*
X112394586Y-83797805D01*
X112426108Y-83735451D01*
X112445399Y-83718734D01*
X112631401Y-83588495D01*
X112798495Y-83421401D01*
X112934035Y-83227830D01*
X113033903Y-83013663D01*
X113095063Y-82785408D01*
X113115659Y-82550000D01*
X113095063Y-82314592D01*
X113033903Y-82086337D01*
X112934035Y-81872171D01*
X112798495Y-81678599D01*
X112631401Y-81511505D01*
X112445839Y-81381573D01*
X112402216Y-81326998D01*
X112395022Y-81257500D01*
X112426545Y-81195145D01*
X112445837Y-81178428D01*
X112631401Y-81048495D01*
X112798495Y-80881401D01*
X112934035Y-80687830D01*
X113033903Y-80473663D01*
X113095063Y-80245408D01*
X113115659Y-80010000D01*
X113095063Y-79774592D01*
X113033903Y-79546337D01*
X112934035Y-79332171D01*
X112798495Y-79138599D01*
X112631401Y-78971505D01*
X112445839Y-78841573D01*
X112402216Y-78786998D01*
X112395022Y-78717500D01*
X112426545Y-78655145D01*
X112445837Y-78638428D01*
X112631401Y-78508495D01*
X112798495Y-78341401D01*
X112934035Y-78147830D01*
X113033903Y-77933663D01*
X113095063Y-77705408D01*
X113115659Y-77470000D01*
X113109730Y-77402238D01*
X113095063Y-77234592D01*
X113071987Y-77148470D01*
X113033903Y-77006337D01*
X112934035Y-76792171D01*
X112798495Y-76598599D01*
X112631401Y-76431505D01*
X112445839Y-76301573D01*
X112402216Y-76246998D01*
X112395022Y-76177500D01*
X112426545Y-76115145D01*
X112445837Y-76098428D01*
X112631401Y-75968495D01*
X112798495Y-75801401D01*
X112934035Y-75607830D01*
X113033903Y-75393663D01*
X113095063Y-75165408D01*
X113115659Y-74930000D01*
X113095063Y-74694592D01*
X113033903Y-74466337D01*
X112934035Y-74252171D01*
X112798495Y-74058599D01*
X112631401Y-73891505D01*
X112445839Y-73761573D01*
X112402216Y-73706998D01*
X112395022Y-73637500D01*
X112426545Y-73575145D01*
X112445837Y-73558428D01*
X112631401Y-73428495D01*
X112798495Y-73261401D01*
X112934035Y-73067830D01*
X113033903Y-72853663D01*
X113095063Y-72625408D01*
X113115659Y-72390000D01*
X113095063Y-72154592D01*
X113033903Y-71926337D01*
X112934035Y-71712171D01*
X112798495Y-71518599D01*
X112631401Y-71351505D01*
X112445839Y-71221573D01*
X112402216Y-71166998D01*
X112395022Y-71097500D01*
X112426545Y-71035145D01*
X112445837Y-71018428D01*
X112631401Y-70888495D01*
X112798495Y-70721401D01*
X112934035Y-70527830D01*
X113033903Y-70313663D01*
X113095063Y-70085408D01*
X113115659Y-69850000D01*
X113095063Y-69614592D01*
X113033903Y-69386337D01*
X112934035Y-69172171D01*
X112798495Y-68978599D01*
X112631401Y-68811505D01*
X112445839Y-68681573D01*
X112402216Y-68626998D01*
X112395022Y-68557500D01*
X112426545Y-68495145D01*
X112445837Y-68478428D01*
X112631401Y-68348495D01*
X112798495Y-68181401D01*
X112934035Y-67987830D01*
X113033903Y-67773663D01*
X113095063Y-67545408D01*
X113115659Y-67310000D01*
X113095063Y-67074592D01*
X113033903Y-66846337D01*
X112934035Y-66632171D01*
X112798495Y-66438599D01*
X112631401Y-66271505D01*
X112445839Y-66141573D01*
X112402216Y-66086998D01*
X112395022Y-66017500D01*
X112426545Y-65955145D01*
X112445837Y-65938428D01*
X112631401Y-65808495D01*
X112798495Y-65641401D01*
X112934035Y-65447830D01*
X113033903Y-65233663D01*
X113095063Y-65005408D01*
X113115659Y-64770000D01*
X113113686Y-64747454D01*
X113095063Y-64534592D01*
X113054980Y-64385000D01*
X113033903Y-64306337D01*
X112934035Y-64092171D01*
X112798495Y-63898599D01*
X112631401Y-63731505D01*
X112445839Y-63601573D01*
X112402216Y-63546998D01*
X112395022Y-63477500D01*
X112426545Y-63415145D01*
X112445837Y-63398428D01*
X112631401Y-63268495D01*
X112798495Y-63101401D01*
X112934035Y-62907830D01*
X113033903Y-62693663D01*
X113095063Y-62465408D01*
X113115659Y-62230000D01*
X113095063Y-61994592D01*
X113033903Y-61766337D01*
X112934035Y-61552171D01*
X112798495Y-61358599D01*
X112631401Y-61191505D01*
X112445839Y-61061573D01*
X112402216Y-61006998D01*
X112395022Y-60937500D01*
X112426545Y-60875145D01*
X112445837Y-60858428D01*
X112631401Y-60728495D01*
X112798495Y-60561401D01*
X112934035Y-60367830D01*
X113033903Y-60153663D01*
X113095063Y-59925408D01*
X113115659Y-59690000D01*
X113100909Y-59521416D01*
X113095063Y-59454592D01*
X113062353Y-59332517D01*
X113033903Y-59226337D01*
X112934035Y-59012171D01*
X112798495Y-58818599D01*
X112631401Y-58651505D01*
X112445839Y-58521573D01*
X112402217Y-58466998D01*
X112395024Y-58397499D01*
X112426546Y-58335145D01*
X112445837Y-58318428D01*
X112631401Y-58188495D01*
X112798495Y-58021401D01*
X112934035Y-57827830D01*
X113033903Y-57613663D01*
X113095063Y-57385408D01*
X113115659Y-57150000D01*
X113095063Y-56914592D01*
X113033903Y-56686337D01*
X112934035Y-56472171D01*
X112798495Y-56278599D01*
X112631401Y-56111505D01*
X112445839Y-55981573D01*
X112402216Y-55926998D01*
X112395022Y-55857500D01*
X112426545Y-55795145D01*
X112445837Y-55778428D01*
X112631401Y-55648495D01*
X112798495Y-55481401D01*
X112934035Y-55287830D01*
X113033903Y-55073663D01*
X113095063Y-54845408D01*
X113115659Y-54610000D01*
X113095063Y-54374592D01*
X113033903Y-54146337D01*
X112934035Y-53932171D01*
X112798495Y-53738599D01*
X112631401Y-53571505D01*
X112437830Y-53435965D01*
X112223663Y-53336097D01*
X112162502Y-53319709D01*
X111995407Y-53274936D01*
X111759999Y-53254340D01*
X111524592Y-53274936D01*
X111296336Y-53336097D01*
X111082170Y-53435965D01*
X110888598Y-53571505D01*
X110713834Y-53746270D01*
X110711128Y-53743564D01*
X110672151Y-53774671D01*
X110602647Y-53781809D01*
X110540317Y-53750237D01*
X110507539Y-53698890D01*
X110504814Y-53690666D01*
X110412712Y-53541344D01*
X110412711Y-53541342D01*
X110288657Y-53417288D01*
X110139334Y-53325186D01*
X109972797Y-53270000D01*
X109873141Y-53259819D01*
X109873122Y-53259818D01*
X109870009Y-53259500D01*
X109866860Y-53259500D01*
X108573140Y-53259500D01*
X108573120Y-53259500D01*
X108569992Y-53259501D01*
X108566860Y-53259820D01*
X108566858Y-53259821D01*
X108467203Y-53270000D01*
X108300665Y-53325186D01*
X108151342Y-53417288D01*
X108027288Y-53541342D01*
X107935186Y-53690665D01*
X107880000Y-53857202D01*
X107878377Y-53873100D01*
X107851982Y-53937792D01*
X107794802Y-53977945D01*
X107755019Y-53984500D01*
X107200835Y-53984500D01*
X107133796Y-53964815D01*
X107126525Y-53959767D01*
X107068333Y-53916205D01*
X107068331Y-53916204D01*
X106933483Y-53865909D01*
X106873873Y-53859500D01*
X106870550Y-53859500D01*
X105981439Y-53859500D01*
X105981420Y-53859500D01*
X105978128Y-53859501D01*
X105974848Y-53859853D01*
X105974840Y-53859854D01*
X105918515Y-53865909D01*
X105783669Y-53916204D01*
X105668453Y-54002454D01*
X105625267Y-54060144D01*
X105569333Y-54102015D01*
X105499641Y-54106999D01*
X105438318Y-54073514D01*
X105426733Y-54060144D01*
X105383546Y-54002454D01*
X105268331Y-53916204D01*
X105133483Y-53865909D01*
X105077166Y-53859854D01*
X105077165Y-53859853D01*
X105073873Y-53859500D01*
X105070550Y-53859500D01*
X104181439Y-53859500D01*
X104181420Y-53859500D01*
X104178128Y-53859501D01*
X104174848Y-53859853D01*
X104174840Y-53859854D01*
X104118515Y-53865909D01*
X104025280Y-53900684D01*
X103983669Y-53916204D01*
X103892438Y-53984500D01*
X103892081Y-53984767D01*
X103826616Y-54009184D01*
X103817770Y-54009500D01*
X102154097Y-54009500D01*
X102087058Y-53989815D01*
X102066416Y-53973181D01*
X100204819Y-52111584D01*
X100171334Y-52050261D01*
X100168500Y-52023903D01*
X100168500Y-50593487D01*
X100169561Y-50577301D01*
X100173682Y-50545999D01*
X100161759Y-50455439D01*
X100153044Y-50389238D01*
X100092536Y-50243159D01*
X100089582Y-50239309D01*
X100039852Y-50174499D01*
X99996282Y-50117717D01*
X99971229Y-50098494D01*
X99959034Y-50087799D01*
X99010199Y-49138964D01*
X98999503Y-49126768D01*
X98980281Y-49101716D01*
X98854840Y-49005463D01*
X98708762Y-48944956D01*
X98591361Y-48929500D01*
X98552000Y-48924317D01*
X98524163Y-48927982D01*
X98520697Y-48928439D01*
X98504513Y-48929500D01*
X97514425Y-48929500D01*
X97447386Y-48909815D01*
X97401631Y-48857011D01*
X97391687Y-48787853D01*
X97398243Y-48762167D01*
X97433599Y-48667373D01*
X97439645Y-48611132D01*
X97440000Y-48604518D01*
X97440000Y-48510000D01*
X96064000Y-48510000D01*
X95996961Y-48490315D01*
X95951206Y-48437511D01*
X95940000Y-48386000D01*
X95940000Y-48327764D01*
X102285787Y-48327764D01*
X102315413Y-48597016D01*
X102351725Y-48735909D01*
X102383928Y-48859088D01*
X102487034Y-49101716D01*
X102489871Y-49108392D01*
X102630982Y-49339611D01*
X102720253Y-49446881D01*
X102804255Y-49547820D01*
X103005998Y-49728582D01*
X103231910Y-49878044D01*
X103338211Y-49927876D01*
X103477177Y-49993021D01*
X103736562Y-50071058D01*
X103736569Y-50071060D01*
X104004561Y-50110500D01*
X104004564Y-50110500D01*
X104205369Y-50110500D01*
X104207631Y-50110500D01*
X104410156Y-50095677D01*
X104674553Y-50036780D01*
X104927558Y-49940014D01*
X105163777Y-49807441D01*
X105378177Y-49641888D01*
X105566186Y-49446881D01*
X105723799Y-49226579D01*
X105847656Y-48985675D01*
X105935118Y-48729305D01*
X105984319Y-48462933D01*
X105994212Y-48192235D01*
X105964586Y-47922982D01*
X105896072Y-47660912D01*
X105790130Y-47411610D01*
X105649018Y-47180390D01*
X105649017Y-47180388D01*
X105475746Y-46972181D01*
X105370759Y-46878112D01*
X105274002Y-46791418D01*
X105048090Y-46641956D01*
X105041443Y-46638840D01*
X104802822Y-46526978D01*
X104543437Y-46448941D01*
X104543431Y-46448940D01*
X104275439Y-46409500D01*
X104072369Y-46409500D01*
X104070120Y-46409664D01*
X104070109Y-46409665D01*
X103869843Y-46424322D01*
X103605449Y-46483219D01*
X103352441Y-46579986D01*
X103116223Y-46712559D01*
X102901825Y-46878109D01*
X102713813Y-47073120D01*
X102556201Y-47293420D01*
X102432342Y-47534329D01*
X102344881Y-47790695D01*
X102295680Y-48057066D01*
X102285787Y-48327764D01*
X95940000Y-48327764D01*
X95940000Y-48134000D01*
X95959685Y-48066961D01*
X96012489Y-48021206D01*
X96064000Y-48010000D01*
X97440000Y-48010000D01*
X97440000Y-47915481D01*
X97439645Y-47908867D01*
X97433599Y-47852628D01*
X97383351Y-47717908D01*
X97369740Y-47699726D01*
X97345323Y-47634262D01*
X97360175Y-47565989D01*
X97369736Y-47551111D01*
X97383796Y-47532331D01*
X97434091Y-47397483D01*
X97440500Y-47337873D01*
X97440499Y-46642128D01*
X97434091Y-46582517D01*
X97383796Y-46447669D01*
X97297546Y-46332454D01*
X97297544Y-46332452D01*
X97297543Y-46332451D01*
X97240189Y-46289515D01*
X97198318Y-46233581D01*
X97190500Y-46190249D01*
X97190500Y-46053114D01*
X97210185Y-45986075D01*
X97262989Y-45940320D01*
X97327104Y-45929756D01*
X97355725Y-45932680D01*
X97362000Y-45932999D01*
X97458000Y-45932998D01*
X97458000Y-45208000D01*
X97957999Y-45208000D01*
X97957999Y-45932998D01*
X97958000Y-45932999D01*
X98053997Y-45932999D01*
X98060279Y-45932678D01*
X98158150Y-45922681D01*
X98321801Y-45868453D01*
X98468540Y-45777943D01*
X98590443Y-45656040D01*
X98680953Y-45509301D01*
X98735181Y-45345651D01*
X98745180Y-45247777D01*
X98745500Y-45241499D01*
X98745500Y-45208000D01*
X97957999Y-45208000D01*
X97458000Y-45208000D01*
X97458000Y-43983000D01*
X97957999Y-43983000D01*
X97957999Y-44707999D01*
X97958001Y-44708000D01*
X98745499Y-44708000D01*
X98745499Y-44674502D01*
X98745178Y-44668220D01*
X98735181Y-44570349D01*
X98680953Y-44406698D01*
X98590443Y-44259959D01*
X98468540Y-44138056D01*
X98321801Y-44047546D01*
X98158151Y-43993318D01*
X98060277Y-43983319D01*
X98054000Y-43983000D01*
X97957999Y-43983000D01*
X97458000Y-43983000D01*
X97458000Y-43982999D01*
X97362004Y-43983000D01*
X97355719Y-43983321D01*
X97257849Y-43993318D01*
X97094198Y-44047546D01*
X96947458Y-44138057D01*
X96933532Y-44151983D01*
X96872209Y-44185467D01*
X96802517Y-44180481D01*
X96758172Y-44151981D01*
X96743852Y-44137661D01*
X96597015Y-44047091D01*
X96433253Y-43992825D01*
X96335309Y-43982819D01*
X96335290Y-43982818D01*
X96332177Y-43982500D01*
X96329028Y-43982500D01*
X96248006Y-43982500D01*
X96223046Y-43979962D01*
X96113741Y-43957500D01*
X95800758Y-43957500D01*
X95791344Y-43957142D01*
X95782198Y-43956445D01*
X95732524Y-43952663D01*
X95732523Y-43952663D01*
X95732522Y-43952663D01*
X95702349Y-43956506D01*
X95686683Y-43957500D01*
X95251730Y-43957500D01*
X95184691Y-43937815D01*
X95164048Y-43921180D01*
X95133156Y-43890288D01*
X94983834Y-43798186D01*
X94817297Y-43743000D01*
X94717641Y-43732819D01*
X94717622Y-43732818D01*
X94714509Y-43732500D01*
X94711360Y-43732500D01*
X93942641Y-43732500D01*
X93942621Y-43732500D01*
X93939492Y-43732501D01*
X93936360Y-43732820D01*
X93936358Y-43732821D01*
X93836703Y-43743000D01*
X93670165Y-43798186D01*
X93520842Y-43890288D01*
X93396786Y-44014344D01*
X93394742Y-44017659D01*
X93342792Y-44064382D01*
X93273829Y-44075601D01*
X93209748Y-44047755D01*
X93183668Y-44017656D01*
X93181816Y-44014654D01*
X93057845Y-43890683D01*
X92908622Y-43798642D01*
X92742196Y-43743493D01*
X92642609Y-43733319D01*
X92636332Y-43733000D01*
X92502000Y-43733000D01*
X92502000Y-46182999D01*
X92636329Y-46182999D01*
X92642611Y-46182678D01*
X92742195Y-46172506D01*
X92908620Y-46117358D01*
X93044403Y-46033607D01*
X93111796Y-46015167D01*
X93178459Y-46036090D01*
X93223229Y-46089732D01*
X93233500Y-46139146D01*
X93233500Y-59538114D01*
X93213815Y-59605153D01*
X93161011Y-59650908D01*
X93091853Y-59660852D01*
X93044404Y-59643653D01*
X92887122Y-59546642D01*
X92720696Y-59491493D01*
X92621109Y-59481319D01*
X92614832Y-59481000D01*
X92480500Y-59481000D01*
X92480500Y-61930999D01*
X92614829Y-61930999D01*
X92621111Y-61930678D01*
X92720695Y-61920506D01*
X92887122Y-61865357D01*
X93044404Y-61768346D01*
X93111796Y-61749906D01*
X93178459Y-61770829D01*
X93223229Y-61824471D01*
X93233500Y-61873885D01*
X93233500Y-75540114D01*
X93213815Y-75607153D01*
X93161011Y-75652908D01*
X93091853Y-75662852D01*
X93044404Y-75645653D01*
X92887122Y-75548642D01*
X92720696Y-75493493D01*
X92621109Y-75483319D01*
X92614832Y-75483000D01*
X92480500Y-75483000D01*
X92480500Y-77932999D01*
X92614829Y-77932999D01*
X92621111Y-77932678D01*
X92720695Y-77922506D01*
X92887122Y-77867357D01*
X93044404Y-77770346D01*
X93111796Y-77751906D01*
X93178459Y-77772829D01*
X93223229Y-77826471D01*
X93233500Y-77875885D01*
X93233500Y-91839500D01*
X93213815Y-91906539D01*
X93161011Y-91952294D01*
X93109500Y-91963500D01*
X85809783Y-91963500D01*
X85742744Y-91943815D01*
X85722102Y-91927181D01*
X84537567Y-90742647D01*
X84535374Y-90740398D01*
X84475059Y-90676946D01*
X84426642Y-90643247D01*
X84419119Y-90637575D01*
X84373405Y-90600300D01*
X84346440Y-90586215D01*
X84333019Y-90578084D01*
X84308049Y-90560705D01*
X84308048Y-90560704D01*
X84308046Y-90560703D01*
X84253845Y-90537443D01*
X84245336Y-90533402D01*
X84193053Y-90506092D01*
X84187126Y-90504396D01*
X84163798Y-90497721D01*
X84149020Y-90492459D01*
X84121058Y-90480460D01*
X84063272Y-90468583D01*
X84054128Y-90466338D01*
X83997421Y-90450113D01*
X83967075Y-90447802D01*
X83951536Y-90445622D01*
X83926598Y-90440498D01*
X83888010Y-90420000D01*
X85440000Y-90420000D01*
X85440000Y-90514518D01*
X85440354Y-90521132D01*
X85446400Y-90577371D01*
X85496647Y-90712089D01*
X85582811Y-90827188D01*
X85697910Y-90913352D01*
X85832628Y-90963599D01*
X85888867Y-90969645D01*
X85895482Y-90970000D01*
X86440000Y-90970000D01*
X86440000Y-90420000D01*
X86940000Y-90420000D01*
X86940000Y-90970000D01*
X87484518Y-90970000D01*
X87491132Y-90969645D01*
X87547371Y-90963599D01*
X87682089Y-90913352D01*
X87797188Y-90827188D01*
X87883352Y-90712089D01*
X87933599Y-90577371D01*
X87939645Y-90521132D01*
X87940000Y-90514518D01*
X87940000Y-90420000D01*
X86940000Y-90420000D01*
X86440000Y-90420000D01*
X85440000Y-90420000D01*
X83888010Y-90420000D01*
X83864894Y-90407721D01*
X83846020Y-90384132D01*
X83822711Y-90346342D01*
X83698657Y-90222288D01*
X83549334Y-90130186D01*
X83382797Y-90075000D01*
X83283141Y-90064819D01*
X83283122Y-90064818D01*
X83280009Y-90064500D01*
X83276860Y-90064500D01*
X82383141Y-90064500D01*
X82383121Y-90064500D01*
X82379992Y-90064501D01*
X82376860Y-90064820D01*
X82376858Y-90064821D01*
X82277203Y-90075000D01*
X82110665Y-90130186D01*
X81961342Y-90222288D01*
X81837288Y-90346342D01*
X81745186Y-90495665D01*
X81690000Y-90662202D01*
X81679819Y-90761858D01*
X81679817Y-90761878D01*
X81679500Y-90764991D01*
X81679500Y-90768138D01*
X81679500Y-90768139D01*
X81679500Y-92111859D01*
X81679500Y-92111878D01*
X80880500Y-92111878D01*
X80880499Y-90764992D01*
X80869999Y-90662203D01*
X80814814Y-90495666D01*
X80731376Y-90360390D01*
X80722711Y-90346342D01*
X80598657Y-90222288D01*
X80449334Y-90130186D01*
X80282797Y-90075000D01*
X80183141Y-90064819D01*
X80183122Y-90064818D01*
X80180009Y-90064500D01*
X80176860Y-90064500D01*
X79283141Y-90064500D01*
X79283121Y-90064500D01*
X79279992Y-90064501D01*
X79276860Y-90064820D01*
X79276858Y-90064821D01*
X79177203Y-90075000D01*
X79010663Y-90130187D01*
X78991712Y-90141876D01*
X78924320Y-90160315D01*
X78857656Y-90139391D01*
X78838937Y-90124017D01*
X78540401Y-89825481D01*
X78226819Y-89511898D01*
X78193334Y-89450575D01*
X78190500Y-89424217D01*
X78190500Y-89150000D01*
X85440000Y-89150000D01*
X85440000Y-89244518D01*
X85440354Y-89251132D01*
X85446400Y-89307371D01*
X85496647Y-89442089D01*
X85510572Y-89460690D01*
X85534988Y-89526155D01*
X85520136Y-89594428D01*
X85510572Y-89609310D01*
X85496647Y-89627910D01*
X85446400Y-89762628D01*
X85440354Y-89818867D01*
X85440000Y-89825481D01*
X85440000Y-89920000D01*
X86440000Y-89920000D01*
X86440000Y-89150000D01*
X86940000Y-89150000D01*
X86940000Y-89920000D01*
X87940000Y-89920000D01*
X87940000Y-89825481D01*
X87939645Y-89818867D01*
X87933599Y-89762626D01*
X87883352Y-89627910D01*
X87869430Y-89609313D01*
X87845011Y-89543849D01*
X87859861Y-89475576D01*
X87869430Y-89460687D01*
X87883352Y-89442089D01*
X87933599Y-89307373D01*
X87939645Y-89251132D01*
X87940000Y-89244518D01*
X87940000Y-89150000D01*
X86940000Y-89150000D01*
X86440000Y-89150000D01*
X85440000Y-89150000D01*
X78190500Y-89150000D01*
X78190500Y-87880000D01*
X85440000Y-87880000D01*
X85440000Y-87974518D01*
X85440354Y-87981132D01*
X85446400Y-88037371D01*
X85496647Y-88172089D01*
X85510572Y-88190690D01*
X85534988Y-88256155D01*
X85520136Y-88324428D01*
X85510572Y-88339310D01*
X85496647Y-88357910D01*
X85446400Y-88492628D01*
X85440354Y-88548867D01*
X85440000Y-88555481D01*
X85440000Y-88650000D01*
X86440000Y-88650000D01*
X86440000Y-87880000D01*
X86940000Y-87880000D01*
X86940000Y-88650000D01*
X87940000Y-88650000D01*
X87940000Y-88555481D01*
X87939645Y-88548867D01*
X87933599Y-88492626D01*
X87883352Y-88357910D01*
X87869430Y-88339313D01*
X87845011Y-88273849D01*
X87859861Y-88205576D01*
X87869430Y-88190687D01*
X87883352Y-88172089D01*
X87933599Y-88037373D01*
X87939645Y-87981132D01*
X87940000Y-87974518D01*
X87940000Y-87880000D01*
X86940000Y-87880000D01*
X86440000Y-87880000D01*
X85440000Y-87880000D01*
X78190500Y-87880000D01*
X78190500Y-86501984D01*
X78210185Y-86434945D01*
X78262989Y-86389190D01*
X78332147Y-86379246D01*
X78346593Y-86382209D01*
X78490000Y-86420634D01*
X78490000Y-85525501D01*
X78597685Y-85574680D01*
X78704237Y-85590000D01*
X78775763Y-85590000D01*
X78882315Y-85574680D01*
X78990000Y-85525501D01*
X78990000Y-86420633D01*
X79203490Y-86363430D01*
X79417576Y-86263600D01*
X79611081Y-86128106D01*
X79778106Y-85961081D01*
X79908425Y-85774968D01*
X79963002Y-85731344D01*
X80032501Y-85724151D01*
X80094855Y-85755673D01*
X80111575Y-85774968D01*
X80241893Y-85961081D01*
X80408918Y-86128106D01*
X80602423Y-86263600D01*
X80816509Y-86363430D01*
X81030000Y-86420634D01*
X81030000Y-85525501D01*
X81137685Y-85574680D01*
X81244237Y-85590000D01*
X81315763Y-85590000D01*
X81422315Y-85574680D01*
X81530000Y-85525501D01*
X81530000Y-86420633D01*
X81743490Y-86363430D01*
X81957576Y-86263600D01*
X82151081Y-86128106D01*
X82318106Y-85961081D01*
X82453600Y-85767576D01*
X82553430Y-85553492D01*
X82610636Y-85340000D01*
X81713686Y-85340000D01*
X81739493Y-85299844D01*
X81780000Y-85161889D01*
X81780000Y-85018111D01*
X81739493Y-84880156D01*
X81713686Y-84840000D01*
X82634048Y-84840000D01*
X82701087Y-84859685D01*
X82721727Y-84876318D01*
X83663077Y-85817668D01*
X84589196Y-86743787D01*
X84602096Y-86759888D01*
X84653223Y-86807900D01*
X84656020Y-86810611D01*
X84675529Y-86830120D01*
X84678709Y-86832587D01*
X84687571Y-86840155D01*
X84719418Y-86870062D01*
X84736970Y-86879711D01*
X84753238Y-86890397D01*
X84769064Y-86902673D01*
X84809146Y-86920017D01*
X84819633Y-86925155D01*
X84857907Y-86946197D01*
X84866410Y-86948379D01*
X84877308Y-86951178D01*
X84895713Y-86957478D01*
X84914104Y-86965437D01*
X84957250Y-86972270D01*
X84968668Y-86974635D01*
X85010981Y-86985500D01*
X85031016Y-86985500D01*
X85050415Y-86987027D01*
X85070196Y-86990160D01*
X85113674Y-86986050D01*
X85125344Y-86985500D01*
X85356251Y-86985500D01*
X85423290Y-87005185D01*
X85469045Y-87057989D01*
X85478989Y-87127147D01*
X85472433Y-87152834D01*
X85446400Y-87222628D01*
X85440354Y-87278867D01*
X85440000Y-87285481D01*
X85440000Y-87380000D01*
X87940000Y-87380000D01*
X87940000Y-87285481D01*
X87939645Y-87278867D01*
X87933599Y-87222628D01*
X87883351Y-87087908D01*
X87869740Y-87069726D01*
X87845323Y-87004262D01*
X87860175Y-86935989D01*
X87869736Y-86921111D01*
X87883796Y-86902331D01*
X87934091Y-86767483D01*
X87940500Y-86707873D01*
X87940499Y-86012128D01*
X87934091Y-85952517D01*
X87883796Y-85817669D01*
X87870053Y-85799311D01*
X87845635Y-85733850D01*
X87860485Y-85665576D01*
X87870050Y-85650691D01*
X87883796Y-85632331D01*
X87934091Y-85497483D01*
X87940500Y-85437873D01*
X87940499Y-84742128D01*
X87934091Y-84682517D01*
X87883796Y-84547669D01*
X87870053Y-84529311D01*
X87845635Y-84463850D01*
X87860485Y-84395576D01*
X87870050Y-84380691D01*
X87883796Y-84362331D01*
X87934091Y-84227483D01*
X87940500Y-84167873D01*
X87940499Y-83472128D01*
X87934091Y-83412517D01*
X87883796Y-83277669D01*
X87870053Y-83259311D01*
X87845635Y-83193850D01*
X87860485Y-83125576D01*
X87870050Y-83110691D01*
X87883796Y-83092331D01*
X87934091Y-82957483D01*
X87940500Y-82897873D01*
X87940499Y-82202128D01*
X87934091Y-82142517D01*
X87883796Y-82007669D01*
X87870052Y-81989309D01*
X87845635Y-81923845D01*
X87860487Y-81855572D01*
X87870045Y-81840699D01*
X87883796Y-81822331D01*
X87934091Y-81687483D01*
X87940500Y-81627873D01*
X87940499Y-80932128D01*
X87934091Y-80872517D01*
X87883796Y-80737669D01*
X87870052Y-80719310D01*
X87845635Y-80653847D01*
X87860486Y-80585574D01*
X87870044Y-80570700D01*
X87883796Y-80552331D01*
X87934091Y-80417483D01*
X87940500Y-80357873D01*
X87940499Y-79662128D01*
X87934091Y-79602517D01*
X87883796Y-79467669D01*
X87869740Y-79448892D01*
X87845323Y-79383430D01*
X87860174Y-79315157D01*
X87869742Y-79300270D01*
X87883353Y-79282088D01*
X87933599Y-79147373D01*
X87939645Y-79091132D01*
X87940000Y-79084518D01*
X87940000Y-78990000D01*
X86564000Y-78990000D01*
X86496961Y-78970315D01*
X86451206Y-78917511D01*
X86440000Y-78866000D01*
X86440000Y-77940000D01*
X86940000Y-77940000D01*
X86940000Y-78490000D01*
X87940000Y-78490000D01*
X87940000Y-78395481D01*
X87939645Y-78388867D01*
X87933599Y-78332628D01*
X87883352Y-78197910D01*
X87797188Y-78082811D01*
X87682089Y-77996647D01*
X87547371Y-77946400D01*
X87491132Y-77940354D01*
X87484518Y-77940000D01*
X86940000Y-77940000D01*
X86440000Y-77940000D01*
X85919500Y-77940000D01*
X85852461Y-77920315D01*
X85806706Y-77867511D01*
X85795500Y-77816000D01*
X85795500Y-77241042D01*
X85797764Y-77220538D01*
X85795561Y-77150411D01*
X85795500Y-77146517D01*
X85795500Y-77122840D01*
X85795500Y-77118949D01*
X85794998Y-77114982D01*
X85794081Y-77103326D01*
X85793439Y-77082884D01*
X85792710Y-77059672D01*
X85787118Y-77040425D01*
X85783174Y-77021384D01*
X85780664Y-77001507D01*
X85764579Y-76960882D01*
X85763592Y-76958000D01*
X91143001Y-76958000D01*
X91143001Y-77229829D01*
X91143321Y-77236111D01*
X91153493Y-77335695D01*
X91208642Y-77502122D01*
X91300683Y-77651345D01*
X91424654Y-77775316D01*
X91573877Y-77867357D01*
X91740303Y-77922506D01*
X91839890Y-77932680D01*
X91846168Y-77932999D01*
X91980499Y-77932999D01*
X91980500Y-77932998D01*
X91980500Y-76958000D01*
X91143001Y-76958000D01*
X85763592Y-76958000D01*
X85760808Y-76949867D01*
X85748618Y-76907909D01*
X85738414Y-76890654D01*
X85729861Y-76873194D01*
X85722486Y-76854568D01*
X85722486Y-76854567D01*
X85696808Y-76819224D01*
X85690401Y-76809470D01*
X85668170Y-76771879D01*
X85654006Y-76757715D01*
X85641367Y-76742916D01*
X85629595Y-76726712D01*
X85595941Y-76698872D01*
X85587299Y-76691008D01*
X85354291Y-76458000D01*
X91143000Y-76458000D01*
X91980500Y-76458000D01*
X91980500Y-75483000D01*
X91846171Y-75483000D01*
X91839888Y-75483321D01*
X91740304Y-75493493D01*
X91573877Y-75548642D01*
X91424654Y-75640683D01*
X91300683Y-75764654D01*
X91208642Y-75913877D01*
X91153493Y-76080303D01*
X91143319Y-76179890D01*
X91143000Y-76186168D01*
X91143000Y-76458000D01*
X85354291Y-76458000D01*
X83930802Y-75034511D01*
X83441291Y-74545000D01*
X85440000Y-74545000D01*
X85440000Y-74639518D01*
X85440354Y-74646132D01*
X85446400Y-74702371D01*
X85496647Y-74837089D01*
X85582811Y-74952188D01*
X85697910Y-75038352D01*
X85832628Y-75088599D01*
X85888867Y-75094645D01*
X85895482Y-75095000D01*
X86440000Y-75095000D01*
X86440000Y-74545000D01*
X86940000Y-74545000D01*
X86940000Y-75095000D01*
X87484518Y-75095000D01*
X87491132Y-75094645D01*
X87547371Y-75088599D01*
X87682089Y-75038352D01*
X87797188Y-74952188D01*
X87883352Y-74837089D01*
X87933599Y-74702371D01*
X87939645Y-74646132D01*
X87940000Y-74639518D01*
X87940000Y-74545000D01*
X86940000Y-74545000D01*
X86440000Y-74545000D01*
X85440000Y-74545000D01*
X83441291Y-74545000D01*
X82325772Y-73429480D01*
X82292289Y-73368160D01*
X82297273Y-73298468D01*
X82314435Y-73271801D01*
X82312272Y-73270287D01*
X82318491Y-73261404D01*
X82318495Y-73261401D01*
X82453653Y-73068374D01*
X82508229Y-73024752D01*
X82555227Y-73015500D01*
X84779548Y-73015500D01*
X84846587Y-73035185D01*
X84867229Y-73051819D01*
X85224197Y-73408787D01*
X85237098Y-73424889D01*
X85239212Y-73426874D01*
X85239214Y-73426877D01*
X85286561Y-73471339D01*
X85288240Y-73472916D01*
X85291036Y-73475626D01*
X85310530Y-73495120D01*
X85313615Y-73497513D01*
X85313701Y-73497580D01*
X85322573Y-73505158D01*
X85354418Y-73535062D01*
X85371974Y-73544714D01*
X85388231Y-73555392D01*
X85404064Y-73567674D01*
X85435170Y-73581134D01*
X85488878Y-73625821D01*
X85509901Y-73692453D01*
X85502108Y-73738269D01*
X85446400Y-73887626D01*
X85440354Y-73943867D01*
X85440000Y-73950481D01*
X85440000Y-74045000D01*
X87940000Y-74045000D01*
X87940000Y-73950481D01*
X87939645Y-73943867D01*
X87933599Y-73887628D01*
X87883351Y-73752908D01*
X87869740Y-73734726D01*
X87845323Y-73669262D01*
X87860175Y-73600989D01*
X87869736Y-73586111D01*
X87883796Y-73567331D01*
X87934091Y-73432483D01*
X87940500Y-73372873D01*
X87940499Y-72677128D01*
X87934091Y-72617517D01*
X87883796Y-72482669D01*
X87870052Y-72464310D01*
X87845635Y-72398847D01*
X87860486Y-72330574D01*
X87870044Y-72315700D01*
X87883796Y-72297331D01*
X87934091Y-72162483D01*
X87940500Y-72102873D01*
X87940499Y-71407128D01*
X87934091Y-71347517D01*
X87883796Y-71212669D01*
X87870053Y-71194311D01*
X87845635Y-71128850D01*
X87860485Y-71060576D01*
X87870050Y-71045691D01*
X87883796Y-71027331D01*
X87934091Y-70892483D01*
X87940500Y-70832873D01*
X87940499Y-70137128D01*
X87934091Y-70077517D01*
X87883796Y-69942669D01*
X87870053Y-69924311D01*
X87845635Y-69858850D01*
X87860485Y-69790576D01*
X87870050Y-69775691D01*
X87883796Y-69757331D01*
X87934091Y-69622483D01*
X87940500Y-69562873D01*
X87940499Y-68867128D01*
X87934091Y-68807517D01*
X87883796Y-68672669D01*
X87870053Y-68654311D01*
X87845635Y-68588850D01*
X87860485Y-68520576D01*
X87870050Y-68505691D01*
X87883796Y-68487331D01*
X87934091Y-68352483D01*
X87940500Y-68292873D01*
X87940499Y-67597128D01*
X87934091Y-67537517D01*
X87883796Y-67402669D01*
X87870053Y-67384311D01*
X87845635Y-67318850D01*
X87860485Y-67250576D01*
X87870050Y-67235691D01*
X87883796Y-67217331D01*
X87934091Y-67082483D01*
X87940500Y-67022873D01*
X87940499Y-66327128D01*
X87934091Y-66267517D01*
X87883796Y-66132669D01*
X87870053Y-66114311D01*
X87845635Y-66048850D01*
X87860485Y-65980576D01*
X87870050Y-65965691D01*
X87883796Y-65947331D01*
X87934091Y-65812483D01*
X87940500Y-65752873D01*
X87940499Y-65057128D01*
X87934091Y-64997517D01*
X87883796Y-64862669D01*
X87870053Y-64844311D01*
X87845635Y-64778850D01*
X87860485Y-64710576D01*
X87870050Y-64695691D01*
X87883796Y-64677331D01*
X87934091Y-64542483D01*
X87940500Y-64482873D01*
X87940499Y-63787128D01*
X87934091Y-63727517D01*
X87883796Y-63592669D01*
X87869740Y-63573892D01*
X87845323Y-63508430D01*
X87860174Y-63440157D01*
X87869742Y-63425270D01*
X87883353Y-63407088D01*
X87933599Y-63272373D01*
X87939645Y-63216132D01*
X87940000Y-63209518D01*
X87940000Y-63115000D01*
X86607854Y-63115000D01*
X86540815Y-63095315D01*
X86522970Y-63081392D01*
X86491775Y-63052098D01*
X86488978Y-63049387D01*
X86476319Y-63036728D01*
X86442834Y-62975405D01*
X86440000Y-62949047D01*
X86440000Y-62065000D01*
X86940000Y-62065000D01*
X86940000Y-62615000D01*
X87940000Y-62615000D01*
X87940000Y-62520481D01*
X87939645Y-62513867D01*
X87933599Y-62457628D01*
X87883352Y-62322910D01*
X87797188Y-62207811D01*
X87682089Y-62121647D01*
X87547371Y-62071400D01*
X87491132Y-62065354D01*
X87484518Y-62065000D01*
X86940000Y-62065000D01*
X86440000Y-62065000D01*
X85895482Y-62065000D01*
X85888867Y-62065354D01*
X85832628Y-62071400D01*
X85697910Y-62121647D01*
X85582811Y-62207811D01*
X85496647Y-62322910D01*
X85446400Y-62457628D01*
X85440354Y-62513867D01*
X85440000Y-62520481D01*
X85440000Y-62750500D01*
X85420315Y-62817539D01*
X85367511Y-62863294D01*
X85316000Y-62874500D01*
X82664218Y-62874500D01*
X82597179Y-62854815D01*
X82551424Y-62802011D01*
X82541480Y-62732853D01*
X82551836Y-62698095D01*
X82552092Y-62697546D01*
X82553903Y-62693663D01*
X82615063Y-62465408D01*
X82635659Y-62230000D01*
X82615063Y-61994592D01*
X82588143Y-61894125D01*
X82589806Y-61824276D01*
X82620235Y-61774353D01*
X83438588Y-60956000D01*
X91143001Y-60956000D01*
X91143001Y-61227829D01*
X91143321Y-61234111D01*
X91153493Y-61333695D01*
X91208642Y-61500122D01*
X91300683Y-61649345D01*
X91424654Y-61773316D01*
X91573877Y-61865357D01*
X91740303Y-61920506D01*
X91839890Y-61930680D01*
X91846168Y-61930999D01*
X91980499Y-61930999D01*
X91980500Y-61930998D01*
X91980500Y-60956000D01*
X91143001Y-60956000D01*
X83438588Y-60956000D01*
X83938588Y-60456000D01*
X91143000Y-60456000D01*
X91980500Y-60456000D01*
X91980500Y-59481000D01*
X91846171Y-59481000D01*
X91839888Y-59481321D01*
X91740304Y-59491493D01*
X91573877Y-59546642D01*
X91424654Y-59638683D01*
X91300683Y-59762654D01*
X91208642Y-59911877D01*
X91153493Y-60078303D01*
X91143319Y-60177890D01*
X91143000Y-60184168D01*
X91143000Y-60456000D01*
X83938588Y-60456000D01*
X84206580Y-60188008D01*
X84222677Y-60175114D01*
X84224665Y-60172995D01*
X84224669Y-60172994D01*
X84270741Y-60123931D01*
X84273326Y-60121263D01*
X84292912Y-60101679D01*
X84295377Y-60098500D01*
X84302959Y-60089624D01*
X84332854Y-60057790D01*
X84342504Y-60040235D01*
X84353192Y-60023965D01*
X84365463Y-60008146D01*
X84365465Y-60008144D01*
X84382818Y-59968040D01*
X84387949Y-59957570D01*
X84401200Y-59933467D01*
X84408989Y-59919300D01*
X84413967Y-59899907D01*
X84420273Y-59881490D01*
X84421810Y-59877936D01*
X84428230Y-59863104D01*
X84435064Y-59819953D01*
X84437427Y-59808539D01*
X84448292Y-59766227D01*
X84448292Y-59746190D01*
X84449819Y-59726792D01*
X84452952Y-59707012D01*
X84448842Y-59663532D01*
X84448292Y-59651863D01*
X84448292Y-59197669D01*
X84448292Y-58730448D01*
X84466041Y-58670000D01*
X85440000Y-58670000D01*
X85440000Y-58764518D01*
X85440354Y-58771132D01*
X85446400Y-58827371D01*
X85496647Y-58962089D01*
X85582811Y-59077188D01*
X85697910Y-59163352D01*
X85832628Y-59213599D01*
X85888867Y-59219645D01*
X85895482Y-59220000D01*
X86440000Y-59220000D01*
X86440000Y-58670000D01*
X86940000Y-58670000D01*
X86940000Y-59220000D01*
X87484518Y-59220000D01*
X87491132Y-59219645D01*
X87547371Y-59213599D01*
X87682089Y-59163352D01*
X87797188Y-59077188D01*
X87883352Y-58962089D01*
X87933599Y-58827371D01*
X87939645Y-58771132D01*
X87940000Y-58764518D01*
X87940000Y-58670000D01*
X86940000Y-58670000D01*
X86440000Y-58670000D01*
X85440000Y-58670000D01*
X84466041Y-58670000D01*
X84467975Y-58663413D01*
X84484605Y-58642776D01*
X85240616Y-57886765D01*
X85301938Y-57853282D01*
X85371630Y-57858266D01*
X85427563Y-57900138D01*
X85451980Y-57965602D01*
X85447456Y-57997073D01*
X85448066Y-57997139D01*
X85440354Y-58068867D01*
X85440000Y-58075481D01*
X85440000Y-58170000D01*
X87940000Y-58170000D01*
X87940000Y-58075481D01*
X87939645Y-58068867D01*
X87933599Y-58012628D01*
X87883351Y-57877908D01*
X87869740Y-57859726D01*
X87845323Y-57794262D01*
X87860175Y-57725989D01*
X87869736Y-57711111D01*
X87883796Y-57692331D01*
X87934091Y-57557483D01*
X87940500Y-57497873D01*
X87940499Y-56802128D01*
X87934091Y-56742517D01*
X87883796Y-56607669D01*
X87870052Y-56589310D01*
X87845635Y-56523847D01*
X87860486Y-56455574D01*
X87870044Y-56440700D01*
X87883796Y-56422331D01*
X87934091Y-56287483D01*
X87940500Y-56227873D01*
X87940499Y-55532128D01*
X87934091Y-55472517D01*
X87883796Y-55337669D01*
X87870052Y-55319310D01*
X87845635Y-55253847D01*
X87860486Y-55185574D01*
X87870044Y-55170700D01*
X87883796Y-55152331D01*
X87934091Y-55017483D01*
X87940500Y-54957873D01*
X87940499Y-54262128D01*
X87934091Y-54202517D01*
X87883796Y-54067669D01*
X87870052Y-54049310D01*
X87845635Y-53983847D01*
X87860486Y-53915574D01*
X87870044Y-53900700D01*
X87883796Y-53882331D01*
X87934091Y-53747483D01*
X87940500Y-53687873D01*
X87940499Y-52992128D01*
X87934091Y-52932517D01*
X87883796Y-52797669D01*
X87870053Y-52779311D01*
X87845635Y-52713850D01*
X87860485Y-52645576D01*
X87870050Y-52630691D01*
X87883796Y-52612331D01*
X87934091Y-52477483D01*
X87940500Y-52417873D01*
X87940499Y-51722128D01*
X87934091Y-51662517D01*
X87883796Y-51527669D01*
X87870052Y-51509310D01*
X87845635Y-51443847D01*
X87860486Y-51375574D01*
X87870044Y-51360700D01*
X87883796Y-51342331D01*
X87934091Y-51207483D01*
X87940500Y-51147873D01*
X87940499Y-50452128D01*
X87934091Y-50392517D01*
X87883796Y-50257669D01*
X87870052Y-50239309D01*
X87845635Y-50173845D01*
X87860487Y-50105572D01*
X87870045Y-50090699D01*
X87883796Y-50072331D01*
X87934091Y-49937483D01*
X87940500Y-49877873D01*
X87940499Y-49182128D01*
X87934091Y-49122517D01*
X87883796Y-48987669D01*
X87870053Y-48969311D01*
X87845635Y-48903850D01*
X87860485Y-48835576D01*
X87870050Y-48820691D01*
X87883796Y-48802331D01*
X87934091Y-48667483D01*
X87940500Y-48607873D01*
X87940499Y-47912128D01*
X87934091Y-47852517D01*
X87883796Y-47717669D01*
X87869740Y-47698892D01*
X87845323Y-47633430D01*
X87860174Y-47565157D01*
X87869742Y-47550270D01*
X87883353Y-47532088D01*
X87933599Y-47397373D01*
X87939645Y-47341132D01*
X87940000Y-47334518D01*
X87940000Y-47240000D01*
X85440000Y-47240000D01*
X85440000Y-47334518D01*
X85440354Y-47341132D01*
X85446400Y-47397373D01*
X85472432Y-47467167D01*
X85477416Y-47536859D01*
X85443931Y-47598182D01*
X85382607Y-47631666D01*
X85356250Y-47634500D01*
X82632744Y-47634500D01*
X82612236Y-47632235D01*
X82542113Y-47634439D01*
X82538219Y-47634500D01*
X82510650Y-47634500D01*
X82506794Y-47634986D01*
X82506791Y-47634987D01*
X82506735Y-47634994D01*
X82506662Y-47635003D01*
X82495043Y-47635917D01*
X82451372Y-47637289D01*
X82432128Y-47642880D01*
X82413084Y-47646824D01*
X82393208Y-47649335D01*
X82352600Y-47665413D01*
X82341554Y-47669194D01*
X82299610Y-47681382D01*
X82299607Y-47681383D01*
X82282365Y-47691579D01*
X82264904Y-47700133D01*
X82246267Y-47707512D01*
X82210931Y-47733185D01*
X82201174Y-47739595D01*
X82163580Y-47761829D01*
X82149413Y-47775996D01*
X82134624Y-47788626D01*
X82118413Y-47800404D01*
X82090572Y-47834058D01*
X82082711Y-47842697D01*
X78356208Y-51569199D01*
X78340110Y-51582096D01*
X78292096Y-51633225D01*
X78289392Y-51636016D01*
X78272628Y-51652780D01*
X78272621Y-51652787D01*
X78269880Y-51655529D01*
X78267499Y-51658597D01*
X78267490Y-51658608D01*
X78267411Y-51658711D01*
X78259842Y-51667572D01*
X78229935Y-51699420D01*
X78220285Y-51716974D01*
X78209609Y-51733228D01*
X78197326Y-51749063D01*
X78179975Y-51789158D01*
X78174838Y-51799644D01*
X78153802Y-51837907D01*
X78148821Y-51857309D01*
X78142520Y-51875711D01*
X78134561Y-51894102D01*
X78127728Y-51937242D01*
X78125360Y-51948674D01*
X78114499Y-51990977D01*
X78114500Y-52011016D01*
X78112973Y-52030414D01*
X78109840Y-52050194D01*
X78113950Y-52093673D01*
X78114500Y-52105343D01*
X78114500Y-53135500D01*
X78094815Y-53202539D01*
X78042011Y-53248294D01*
X77990501Y-53259500D01*
X77845439Y-53259500D01*
X77845420Y-53259500D01*
X77842128Y-53259501D01*
X77838848Y-53259853D01*
X77838840Y-53259854D01*
X77782515Y-53265909D01*
X77647669Y-53316204D01*
X77532454Y-53402454D01*
X77446204Y-53517668D01*
X77395909Y-53652516D01*
X77390924Y-53698887D01*
X77389500Y-53712127D01*
X77389500Y-53715448D01*
X77389500Y-53715449D01*
X77389500Y-55504560D01*
X77389500Y-55504578D01*
X77389501Y-55507872D01*
X77395909Y-55567483D01*
X77446204Y-55702331D01*
X77532454Y-55817546D01*
X77647669Y-55903796D01*
X77759907Y-55945658D01*
X77779082Y-55952810D01*
X77835016Y-55994681D01*
X77859433Y-56060146D01*
X77844581Y-56128419D01*
X77823431Y-56156673D01*
X77701503Y-56278601D01*
X77565965Y-56472170D01*
X77466097Y-56686336D01*
X77404936Y-56914592D01*
X77384340Y-57150000D01*
X77404936Y-57385407D01*
X77435954Y-57501166D01*
X77466097Y-57613663D01*
X77565965Y-57827830D01*
X77701505Y-58021401D01*
X77868599Y-58188495D01*
X78054160Y-58318426D01*
X78097783Y-58373002D01*
X78104976Y-58442501D01*
X78073454Y-58504855D01*
X78054158Y-58521575D01*
X77881073Y-58642771D01*
X77868595Y-58651508D01*
X77701505Y-58818598D01*
X77565965Y-59012170D01*
X77466097Y-59226336D01*
X77404936Y-59454592D01*
X77384340Y-59689999D01*
X77404936Y-59925407D01*
X77440408Y-60057789D01*
X77466097Y-60153663D01*
X77565965Y-60367830D01*
X77701505Y-60561401D01*
X77868599Y-60728495D01*
X78054160Y-60858426D01*
X78097783Y-60913002D01*
X78104976Y-60982501D01*
X78073454Y-61044855D01*
X78054159Y-61061575D01*
X77868595Y-61191508D01*
X77701505Y-61358598D01*
X77565965Y-61552170D01*
X77466097Y-61766336D01*
X77404936Y-61994592D01*
X77384340Y-62229999D01*
X77404936Y-62465407D01*
X77448097Y-62626485D01*
X77466097Y-62693663D01*
X77565965Y-62907830D01*
X77701505Y-63101401D01*
X77868599Y-63268495D01*
X78054160Y-63398426D01*
X78097783Y-63453002D01*
X78104976Y-63522501D01*
X78073454Y-63584855D01*
X78054158Y-63601575D01*
X77874295Y-63727517D01*
X77868595Y-63731508D01*
X77701505Y-63898598D01*
X77565965Y-64092170D01*
X77466097Y-64306336D01*
X77404936Y-64534592D01*
X77384340Y-64770000D01*
X77404936Y-65005407D01*
X77449709Y-65172501D01*
X77466097Y-65233663D01*
X77565965Y-65447830D01*
X77701505Y-65641401D01*
X77868599Y-65808495D01*
X78054160Y-65938426D01*
X78097783Y-65993002D01*
X78104976Y-66062501D01*
X78073454Y-66124855D01*
X78054158Y-66141575D01*
X77874295Y-66267517D01*
X77868595Y-66271508D01*
X77701505Y-66438598D01*
X77565965Y-66632170D01*
X77466097Y-66846336D01*
X77404936Y-67074592D01*
X77384340Y-67310000D01*
X77404936Y-67545407D01*
X77417914Y-67593840D01*
X77466097Y-67773663D01*
X77565965Y-67987830D01*
X77701505Y-68181401D01*
X77868599Y-68348495D01*
X78054160Y-68478426D01*
X78097783Y-68533002D01*
X78104976Y-68602501D01*
X78073454Y-68664855D01*
X78054158Y-68681575D01*
X77874295Y-68807517D01*
X77868595Y-68811508D01*
X77701505Y-68978598D01*
X77565965Y-69172170D01*
X77466097Y-69386336D01*
X77404936Y-69614592D01*
X77384340Y-69850000D01*
X77404936Y-70085407D01*
X77449709Y-70252502D01*
X77466097Y-70313663D01*
X77565965Y-70527830D01*
X77701505Y-70721401D01*
X77868599Y-70888495D01*
X78054160Y-71018426D01*
X78097783Y-71073002D01*
X78104976Y-71142501D01*
X78073454Y-71204855D01*
X78054158Y-71221575D01*
X77874295Y-71347517D01*
X77868595Y-71351508D01*
X77701505Y-71518598D01*
X77565965Y-71712170D01*
X77466097Y-71926336D01*
X77404936Y-72154592D01*
X77384340Y-72389999D01*
X77404936Y-72625407D01*
X77417914Y-72673840D01*
X77466097Y-72853663D01*
X77565965Y-73067830D01*
X77701505Y-73261401D01*
X77868599Y-73428495D01*
X78054160Y-73558426D01*
X78097783Y-73613002D01*
X78104976Y-73682501D01*
X78073454Y-73744855D01*
X78054159Y-73761575D01*
X77868595Y-73891508D01*
X77701505Y-74058598D01*
X77565965Y-74252170D01*
X77466097Y-74466336D01*
X77404936Y-74694592D01*
X77384340Y-74929999D01*
X77404936Y-75165407D01*
X77449709Y-75332501D01*
X77466097Y-75393663D01*
X77565965Y-75607830D01*
X77701505Y-75801401D01*
X77868599Y-75968495D01*
X78054160Y-76098426D01*
X78097783Y-76153002D01*
X78104976Y-76222501D01*
X78073454Y-76284855D01*
X78054158Y-76301575D01*
X77878601Y-76424502D01*
X77868595Y-76431508D01*
X77701505Y-76598598D01*
X77565965Y-76792170D01*
X77466097Y-77006336D01*
X77404936Y-77234592D01*
X77384340Y-77470000D01*
X77404936Y-77705407D01*
X77448097Y-77866485D01*
X77466097Y-77933663D01*
X77565965Y-78147830D01*
X77701505Y-78341401D01*
X77868599Y-78508495D01*
X78054160Y-78638426D01*
X78097783Y-78693002D01*
X78104976Y-78762501D01*
X78073454Y-78824855D01*
X78054158Y-78841575D01*
X77881073Y-78962771D01*
X77868595Y-78971508D01*
X77701505Y-79138598D01*
X77565965Y-79332170D01*
X77466097Y-79546336D01*
X77404936Y-79774592D01*
X77384340Y-80010000D01*
X77404936Y-80245407D01*
X77449709Y-80412501D01*
X77466097Y-80473663D01*
X77565965Y-80687830D01*
X77701505Y-80881401D01*
X77868599Y-81048495D01*
X78054160Y-81178426D01*
X78097783Y-81233002D01*
X78104976Y-81302501D01*
X78073454Y-81364855D01*
X78054159Y-81381575D01*
X77868595Y-81511508D01*
X77701505Y-81678598D01*
X77565965Y-81872170D01*
X77466097Y-82086336D01*
X77404936Y-82314592D01*
X77393955Y-82440097D01*
X77368502Y-82505165D01*
X77358108Y-82516969D01*
X76665681Y-83209397D01*
X76604358Y-83242882D01*
X76534667Y-83237898D01*
X76478733Y-83196027D01*
X76454316Y-83130562D01*
X76454000Y-83121716D01*
X76454000Y-46740000D01*
X85440000Y-46740000D01*
X86440000Y-46740000D01*
X86440000Y-46190000D01*
X86940000Y-46190000D01*
X86940000Y-46740000D01*
X87940000Y-46740000D01*
X87940000Y-46645481D01*
X87939645Y-46638867D01*
X87933599Y-46582628D01*
X87883352Y-46447910D01*
X87797188Y-46332811D01*
X87682089Y-46246647D01*
X87547371Y-46196400D01*
X87491132Y-46190354D01*
X87484518Y-46190000D01*
X86940000Y-46190000D01*
X86440000Y-46190000D01*
X85895482Y-46190000D01*
X85888867Y-46190354D01*
X85832628Y-46196400D01*
X85697910Y-46246647D01*
X85582811Y-46332811D01*
X85496647Y-46447910D01*
X85446400Y-46582628D01*
X85440354Y-46638867D01*
X85440000Y-46645481D01*
X85440000Y-46740000D01*
X76454000Y-46740000D01*
X76454000Y-45208000D01*
X91164501Y-45208000D01*
X91164501Y-45479829D01*
X91164821Y-45486111D01*
X91174993Y-45585695D01*
X91230142Y-45752122D01*
X91322183Y-45901345D01*
X91446154Y-46025316D01*
X91595377Y-46117357D01*
X91761803Y-46172506D01*
X91861390Y-46182680D01*
X91867668Y-46182999D01*
X92001999Y-46182999D01*
X92002000Y-46182998D01*
X92002000Y-45208000D01*
X91164501Y-45208000D01*
X76454000Y-45208000D01*
X76454000Y-44708000D01*
X91164500Y-44708000D01*
X92002000Y-44708000D01*
X92002000Y-43733000D01*
X91867671Y-43733000D01*
X91861388Y-43733321D01*
X91761804Y-43743493D01*
X91595377Y-43798642D01*
X91446154Y-43890683D01*
X91322183Y-44014654D01*
X91230142Y-44163877D01*
X91174993Y-44330303D01*
X91164819Y-44429890D01*
X91164500Y-44436168D01*
X91164500Y-44708000D01*
X76454000Y-44708000D01*
X76454000Y-43554500D01*
X76473685Y-43487461D01*
X76526489Y-43441706D01*
X76578000Y-43430500D01*
X115830500Y-43430500D01*
X115897539Y-43450185D01*
G37*
%TD.AperFunction*%
%TA.AperFunction,Conductor*%
G36*
X80820507Y-84880156D02*
G01*
X80780000Y-85018111D01*
X80780000Y-85161889D01*
X80820507Y-85299844D01*
X80846314Y-85340000D01*
X79173686Y-85340000D01*
X79199493Y-85299844D01*
X79240000Y-85161889D01*
X79240000Y-85018111D01*
X79199493Y-84880156D01*
X79173686Y-84840000D01*
X80846314Y-84840000D01*
X80820507Y-84880156D01*
G37*
%TD.AperFunction*%
%TD*%
M02*
