%TF.GenerationSoftware,KiCad,Pcbnew,7.0.2-0*%
%TF.CreationDate,2023-06-06T22:34:11+02:00*%
%TF.ProjectId,SCAN2000_driver,5343414e-3230-4303-905f-647269766572,1.0*%
%TF.SameCoordinates,Original*%
%TF.FileFunction,Soldermask,Top*%
%TF.FilePolarity,Negative*%
%FSLAX46Y46*%
G04 Gerber Fmt 4.6, Leading zero omitted, Abs format (unit mm)*
G04 Created by KiCad (PCBNEW 7.0.2-0) date 2023-06-06 22:34:11*
%MOMM*%
%LPD*%
G01*
G04 APERTURE LIST*
G04 Aperture macros list*
%AMRoundRect*
0 Rectangle with rounded corners*
0 $1 Rounding radius*
0 $2 $3 $4 $5 $6 $7 $8 $9 X,Y pos of 4 corners*
0 Add a 4 corners polygon primitive as box body*
4,1,4,$2,$3,$4,$5,$6,$7,$8,$9,$2,$3,0*
0 Add four circle primitives for the rounded corners*
1,1,$1+$1,$2,$3*
1,1,$1+$1,$4,$5*
1,1,$1+$1,$6,$7*
1,1,$1+$1,$8,$9*
0 Add four rect primitives between the rounded corners*
20,1,$1+$1,$2,$3,$4,$5,0*
20,1,$1+$1,$4,$5,$6,$7,0*
20,1,$1+$1,$6,$7,$8,$9,0*
20,1,$1+$1,$8,$9,$2,$3,0*%
G04 Aperture macros list end*
%ADD10R,1.700000X1.700000*%
%ADD11O,1.700000X1.700000*%
%ADD12RoundRect,0.250000X-0.337500X-0.475000X0.337500X-0.475000X0.337500X0.475000X-0.337500X0.475000X0*%
%ADD13RoundRect,0.100000X-0.637500X-0.100000X0.637500X-0.100000X0.637500X0.100000X-0.637500X0.100000X0*%
%ADD14RoundRect,0.237500X-0.300000X-0.237500X0.300000X-0.237500X0.300000X0.237500X-0.300000X0.237500X0*%
%ADD15C,3.200000*%
%ADD16R,0.650000X0.200000*%
%ADD17R,0.800000X0.500000*%
%ADD18R,0.800000X0.400000*%
%ADD19RoundRect,0.250000X-0.400000X-0.625000X0.400000X-0.625000X0.400000X0.625000X-0.400000X0.625000X0*%
%ADD20RoundRect,0.250000X-0.600000X-0.600000X0.600000X-0.600000X0.600000X0.600000X-0.600000X0.600000X0*%
%ADD21C,1.700000*%
G04 APERTURE END LIST*
D10*
%TO.C,J2*%
X84074000Y-54610000D03*
D11*
X86614000Y-54610000D03*
X84074000Y-57150000D03*
X86614000Y-57150000D03*
X84074000Y-59690000D03*
X86614000Y-59690000D03*
X84074000Y-62230000D03*
X86614000Y-62230000D03*
X84074000Y-64770000D03*
X86614000Y-64770000D03*
X84074000Y-67310000D03*
X86614000Y-67310000D03*
X84074000Y-69850000D03*
X86614000Y-69850000D03*
X84074000Y-72390000D03*
X86614000Y-72390000D03*
X84074000Y-74930000D03*
X86614000Y-74930000D03*
X84074000Y-77470000D03*
X86614000Y-77470000D03*
X84074000Y-80010000D03*
X86614000Y-80010000D03*
X84074000Y-82550000D03*
X86614000Y-82550000D03*
X84074000Y-85090000D03*
X86614000Y-85090000D03*
%TD*%
D12*
%TO.C,C4*%
X96858000Y-62611000D03*
X98933000Y-62611000D03*
%TD*%
D13*
%TO.C,U3*%
X92514500Y-76704000D03*
X92514500Y-77354000D03*
X92514500Y-78004000D03*
X92514500Y-78654000D03*
X92514500Y-79304000D03*
X92514500Y-79954000D03*
X92514500Y-80604000D03*
X92514500Y-81254000D03*
X92514500Y-81904000D03*
X92514500Y-82554000D03*
X98239500Y-82554000D03*
X98239500Y-81904000D03*
X98239500Y-81254000D03*
X98239500Y-80604000D03*
X98239500Y-79954000D03*
X98239500Y-79304000D03*
X98239500Y-78654000D03*
X98239500Y-78004000D03*
X98239500Y-77354000D03*
X98239500Y-76704000D03*
%TD*%
%TO.C,U2*%
X92514500Y-65782000D03*
X92514500Y-66432000D03*
X92514500Y-67082000D03*
X92514500Y-67732000D03*
X92514500Y-68382000D03*
X92514500Y-69032000D03*
X92514500Y-69682000D03*
X92514500Y-70332000D03*
X92514500Y-70982000D03*
X92514500Y-71632000D03*
X98239500Y-71632000D03*
X98239500Y-70982000D03*
X98239500Y-70332000D03*
X98239500Y-69682000D03*
X98239500Y-69032000D03*
X98239500Y-68382000D03*
X98239500Y-67732000D03*
X98239500Y-67082000D03*
X98239500Y-66432000D03*
X98239500Y-65782000D03*
%TD*%
%TO.C,U1*%
X92514500Y-51939000D03*
X92514500Y-52589000D03*
X92514500Y-53239000D03*
X92514500Y-53889000D03*
X92514500Y-54539000D03*
X92514500Y-55189000D03*
X92514500Y-55839000D03*
X92514500Y-56489000D03*
X92514500Y-57139000D03*
X92514500Y-57789000D03*
X98239500Y-57789000D03*
X98239500Y-57139000D03*
X98239500Y-56489000D03*
X98239500Y-55839000D03*
X98239500Y-55189000D03*
X98239500Y-54539000D03*
X98239500Y-53889000D03*
X98239500Y-53239000D03*
X98239500Y-52589000D03*
X98239500Y-51939000D03*
%TD*%
D14*
%TO.C,C5*%
X96700000Y-75311000D03*
X98425000Y-75311000D03*
%TD*%
D15*
%TO.C,H1*%
X104140000Y-48260000D03*
%TD*%
D16*
%TO.C,D2*%
X102016000Y-61538000D03*
X102016000Y-62338000D03*
X102016000Y-63138000D03*
X102016000Y-63938000D03*
X102616000Y-61938000D03*
X102616000Y-62738000D03*
X102616000Y-63538000D03*
%TD*%
%TO.C,D3*%
X102016000Y-69850000D03*
X102016000Y-70650000D03*
X102016000Y-71450000D03*
X102016000Y-72250000D03*
X102616000Y-70250000D03*
X102616000Y-71050000D03*
X102616000Y-71850000D03*
%TD*%
D17*
%TO.C,RN1*%
X104626000Y-54610000D03*
D18*
X104626000Y-55410000D03*
X104626000Y-56210000D03*
D17*
X104626000Y-57010000D03*
X106426000Y-57010000D03*
D18*
X106426000Y-56210000D03*
X106426000Y-55410000D03*
D17*
X106426000Y-54610000D03*
%TD*%
D19*
%TO.C,F1*%
X85064000Y-89408000D03*
X88164000Y-89408000D03*
%TD*%
D20*
%TO.C,J1*%
X109220000Y-54610000D03*
D21*
X111760000Y-54610000D03*
X109220000Y-57150000D03*
X111760000Y-57150000D03*
X109220000Y-59690000D03*
X111760000Y-59690000D03*
X109220000Y-62230000D03*
X111760000Y-62230000D03*
X109220000Y-64770000D03*
X111760000Y-64770000D03*
X109220000Y-67310000D03*
X111760000Y-67310000D03*
X109220000Y-69850000D03*
X111760000Y-69850000D03*
X109220000Y-72390000D03*
X111760000Y-72390000D03*
X109220000Y-74930000D03*
X111760000Y-74930000D03*
X109220000Y-77470000D03*
X111760000Y-77470000D03*
X109220000Y-80010000D03*
X111760000Y-80010000D03*
X109220000Y-82550000D03*
X111760000Y-82550000D03*
X109220000Y-85090000D03*
X111760000Y-85090000D03*
%TD*%
D17*
%TO.C,RN5*%
X104626000Y-74930000D03*
D18*
X104626000Y-75730000D03*
X104626000Y-76530000D03*
D17*
X104626000Y-77330000D03*
X106426000Y-77330000D03*
D18*
X106426000Y-76530000D03*
X106426000Y-75730000D03*
D17*
X106426000Y-74930000D03*
%TD*%
%TO.C,RN4*%
X104626000Y-69850000D03*
D18*
X104626000Y-70650000D03*
X104626000Y-71450000D03*
D17*
X104626000Y-72250000D03*
X106426000Y-72250000D03*
D18*
X106426000Y-71450000D03*
X106426000Y-70650000D03*
D17*
X106426000Y-69850000D03*
%TD*%
D16*
%TO.C,D1*%
X102016000Y-54680000D03*
X102016000Y-55480000D03*
X102016000Y-56280000D03*
X102016000Y-57080000D03*
X102616000Y-55080000D03*
X102616000Y-55880000D03*
X102616000Y-56680000D03*
%TD*%
D14*
%TO.C,C1*%
X96700000Y-50546000D03*
X98425000Y-50546000D03*
%TD*%
D17*
%TO.C,RN2*%
X104648000Y-59690000D03*
D18*
X104648000Y-60490000D03*
X104648000Y-61290000D03*
D17*
X104648000Y-62090000D03*
X106448000Y-62090000D03*
D18*
X106448000Y-61290000D03*
X106448000Y-60490000D03*
D17*
X106448000Y-59690000D03*
%TD*%
%TO.C,RN3*%
X104626000Y-64770000D03*
D18*
X104626000Y-65570000D03*
X104626000Y-66370000D03*
D17*
X104626000Y-67170000D03*
X106426000Y-67170000D03*
D18*
X106426000Y-66370000D03*
X106426000Y-65570000D03*
D17*
X106426000Y-64770000D03*
%TD*%
D12*
%TO.C,C6*%
X96774000Y-73533000D03*
X98849000Y-73533000D03*
%TD*%
%TO.C,C2*%
X96731000Y-48768000D03*
X98806000Y-48768000D03*
%TD*%
D17*
%TO.C,RN6*%
X104626000Y-80010000D03*
D18*
X104626000Y-80810000D03*
X104626000Y-81610000D03*
D17*
X104626000Y-82410000D03*
X106426000Y-82410000D03*
D18*
X106426000Y-81610000D03*
X106426000Y-80810000D03*
D17*
X106426000Y-80010000D03*
%TD*%
D15*
%TO.C,H2*%
X104140000Y-91440000D03*
%TD*%
D14*
%TO.C,C3*%
X96800500Y-64389000D03*
X98525500Y-64389000D03*
%TD*%
D16*
%TO.C,D4*%
X101981000Y-78740000D03*
X101981000Y-79540000D03*
X101981000Y-80340000D03*
X101981000Y-81140000D03*
X102581000Y-79140000D03*
X102581000Y-79940000D03*
X102581000Y-80740000D03*
%TD*%
M02*
