%TF.GenerationSoftware,KiCad,Pcbnew,7.0.2-0*%
%TF.CreationDate,2023-06-06T22:34:11+02:00*%
%TF.ProjectId,SCAN2000_driver,5343414e-3230-4303-905f-647269766572,1.0*%
%TF.SameCoordinates,Original*%
%TF.FileFunction,Copper,L2,Bot*%
%TF.FilePolarity,Positive*%
%FSLAX46Y46*%
G04 Gerber Fmt 4.6, Leading zero omitted, Abs format (unit mm)*
G04 Created by KiCad (PCBNEW 7.0.2-0) date 2023-06-06 22:34:11*
%MOMM*%
%LPD*%
G01*
G04 APERTURE LIST*
G04 Aperture macros list*
%AMRoundRect*
0 Rectangle with rounded corners*
0 $1 Rounding radius*
0 $2 $3 $4 $5 $6 $7 $8 $9 X,Y pos of 4 corners*
0 Add a 4 corners polygon primitive as box body*
4,1,4,$2,$3,$4,$5,$6,$7,$8,$9,$2,$3,0*
0 Add four circle primitives for the rounded corners*
1,1,$1+$1,$2,$3*
1,1,$1+$1,$4,$5*
1,1,$1+$1,$6,$7*
1,1,$1+$1,$8,$9*
0 Add four rect primitives between the rounded corners*
20,1,$1+$1,$2,$3,$4,$5,0*
20,1,$1+$1,$4,$5,$6,$7,0*
20,1,$1+$1,$6,$7,$8,$9,0*
20,1,$1+$1,$8,$9,$2,$3,0*%
G04 Aperture macros list end*
%TA.AperFunction,ComponentPad*%
%ADD10R,1.700000X1.700000*%
%TD*%
%TA.AperFunction,ComponentPad*%
%ADD11O,1.700000X1.700000*%
%TD*%
%TA.AperFunction,ComponentPad*%
%ADD12RoundRect,0.250000X-0.600000X-0.600000X0.600000X-0.600000X0.600000X0.600000X-0.600000X0.600000X0*%
%TD*%
%TA.AperFunction,ComponentPad*%
%ADD13C,1.700000*%
%TD*%
%TA.AperFunction,ViaPad*%
%ADD14C,0.800000*%
%TD*%
G04 APERTURE END LIST*
D10*
%TO.P,J2,1,Pin_1*%
%TO.N,Net-(J2-Pin_1)*%
X84074000Y-54610000D03*
D11*
%TO.P,J2,2,Pin_2*%
%TO.N,Net-(J2-Pin_2)*%
X86614000Y-54610000D03*
%TO.P,J2,3,Pin_3*%
%TO.N,Net-(J2-Pin_3)*%
X84074000Y-57150000D03*
%TO.P,J2,4,Pin_4*%
%TO.N,Net-(J2-Pin_4)*%
X86614000Y-57150000D03*
%TO.P,J2,5,Pin_5*%
%TO.N,Net-(J2-Pin_5)*%
X84074000Y-59690000D03*
%TO.P,J2,6,Pin_6*%
%TO.N,Net-(J2-Pin_6)*%
X86614000Y-59690000D03*
%TO.P,J2,7,Pin_7*%
%TO.N,Net-(J2-Pin_7)*%
X84074000Y-62230000D03*
%TO.P,J2,8,Pin_8*%
%TO.N,Net-(J2-Pin_8)*%
X86614000Y-62230000D03*
%TO.P,J2,9,Pin_9*%
%TO.N,Net-(J2-Pin_9)*%
X84074000Y-64770000D03*
%TO.P,J2,10,Pin_10*%
%TO.N,Net-(J2-Pin_10)*%
X86614000Y-64770000D03*
%TO.P,J2,11,Pin_11*%
%TO.N,Net-(J2-Pin_11)*%
X84074000Y-67310000D03*
%TO.P,J2,12,Pin_12*%
%TO.N,Net-(J2-Pin_12)*%
X86614000Y-67310000D03*
%TO.P,J2,13,Pin_13*%
%TO.N,Net-(J2-Pin_13)*%
X84074000Y-69850000D03*
%TO.P,J2,14,Pin_14*%
%TO.N,Net-(J2-Pin_14)*%
X86614000Y-69850000D03*
%TO.P,J2,15,Pin_15*%
%TO.N,Net-(J2-Pin_15)*%
X84074000Y-72390000D03*
%TO.P,J2,16,Pin_16*%
%TO.N,Net-(J2-Pin_16)*%
X86614000Y-72390000D03*
%TO.P,J2,17,Pin_17*%
%TO.N,Net-(J2-Pin_17)*%
X84074000Y-74930000D03*
%TO.P,J2,18,Pin_18*%
%TO.N,Net-(J2-Pin_18)*%
X86614000Y-74930000D03*
%TO.P,J2,19,Pin_19*%
%TO.N,Net-(J2-Pin_19)*%
X84074000Y-77470000D03*
%TO.P,J2,20,Pin_20*%
%TO.N,Net-(J2-Pin_20)*%
X86614000Y-77470000D03*
%TO.P,J2,21,Pin_21*%
%TO.N,Net-(J2-Pin_21)*%
X84074000Y-80010000D03*
%TO.P,J2,22,Pin_22*%
%TO.N,Net-(J2-Pin_22)*%
X86614000Y-80010000D03*
%TO.P,J2,23,Pin_23*%
%TO.N,Net-(J2-Pin_23)*%
X84074000Y-82550000D03*
%TO.P,J2,24,Pin_24*%
X86614000Y-82550000D03*
%TO.P,J2,25,Pin_25*%
%TO.N,GND*%
X84074000Y-85090000D03*
%TO.P,J2,26,Pin_26*%
X86614000Y-85090000D03*
%TD*%
D12*
%TO.P,J1,1,Pin_1*%
%TO.N,Net-(J1-Pin_1)*%
X109220000Y-54610000D03*
D13*
%TO.P,J1,2,Pin_2*%
%TO.N,Net-(J1-Pin_2)*%
X111760000Y-54610000D03*
%TO.P,J1,3,Pin_3*%
%TO.N,Net-(J1-Pin_3)*%
X109220000Y-57150000D03*
%TO.P,J1,4,Pin_4*%
%TO.N,Net-(J1-Pin_4)*%
X111760000Y-57150000D03*
%TO.P,J1,5,Pin_5*%
%TO.N,Net-(J1-Pin_5)*%
X109220000Y-59690000D03*
%TO.P,J1,6,Pin_6*%
%TO.N,Net-(J1-Pin_6)*%
X111760000Y-59690000D03*
%TO.P,J1,7,Pin_7*%
%TO.N,Net-(J1-Pin_7)*%
X109220000Y-62230000D03*
%TO.P,J1,8,Pin_8*%
%TO.N,Net-(J1-Pin_8)*%
X111760000Y-62230000D03*
%TO.P,J1,9,Pin_9*%
%TO.N,Net-(J1-Pin_9)*%
X109220000Y-64770000D03*
%TO.P,J1,10,Pin_10*%
%TO.N,Net-(J1-Pin_10)*%
X111760000Y-64770000D03*
%TO.P,J1,11,Pin_11*%
%TO.N,Net-(J1-Pin_11)*%
X109220000Y-67310000D03*
%TO.P,J1,12,Pin_12*%
%TO.N,Net-(J1-Pin_12)*%
X111760000Y-67310000D03*
%TO.P,J1,13,Pin_13*%
%TO.N,Net-(J1-Pin_13)*%
X109220000Y-69850000D03*
%TO.P,J1,14,Pin_14*%
%TO.N,Net-(J1-Pin_14)*%
X111760000Y-69850000D03*
%TO.P,J1,15,Pin_15*%
%TO.N,Net-(J1-Pin_15)*%
X109220000Y-72390000D03*
%TO.P,J1,16,Pin_16*%
%TO.N,Net-(J1-Pin_16)*%
X111760000Y-72390000D03*
%TO.P,J1,17,Pin_17*%
%TO.N,Net-(J1-Pin_17)*%
X109220000Y-74930000D03*
%TO.P,J1,18,Pin_18*%
%TO.N,Net-(J1-Pin_18)*%
X111760000Y-74930000D03*
%TO.P,J1,19,Pin_19*%
%TO.N,Net-(J1-Pin_19)*%
X109220000Y-77470000D03*
%TO.P,J1,20,Pin_20*%
%TO.N,Net-(J1-Pin_20)*%
X111760000Y-77470000D03*
%TO.P,J1,21,Pin_21*%
%TO.N,Net-(J1-Pin_21)*%
X109220000Y-80010000D03*
%TO.P,J1,22,Pin_22*%
%TO.N,Net-(J1-Pin_22)*%
X111760000Y-80010000D03*
%TO.P,J1,23,Pin_23*%
%TO.N,+3.3V*%
X109220000Y-82550000D03*
%TO.P,J1,24,Pin_24*%
X111760000Y-82550000D03*
%TO.P,J1,25,Pin_25*%
%TO.N,GND*%
X109220000Y-85090000D03*
%TO.P,J1,26,Pin_26*%
X111760000Y-85090000D03*
%TD*%
D14*
%TO.N,GND*%
X98298000Y-63627000D03*
X98298000Y-74549000D03*
X93218000Y-75692000D03*
X103998286Y-79205431D03*
X92583000Y-83566000D03*
X92583000Y-72771000D03*
X100571878Y-55130122D03*
X100711000Y-79502000D03*
X99060000Y-63627000D03*
X99060000Y-49784000D03*
X92964000Y-50800000D03*
X100584000Y-70612000D03*
X100457000Y-62230000D03*
X93218000Y-64516000D03*
X92583000Y-58801000D03*
X98298000Y-49784000D03*
X99314000Y-74549000D03*
%TD*%
%TA.AperFunction,Conductor*%
%TO.N,GND*%
G36*
X110574854Y-83216545D02*
G01*
X110591572Y-83235838D01*
X110721505Y-83421401D01*
X110888599Y-83588495D01*
X111074596Y-83718732D01*
X111118219Y-83773307D01*
X111125412Y-83842806D01*
X111093890Y-83905160D01*
X111074594Y-83921881D01*
X110998626Y-83975073D01*
X111627466Y-84603913D01*
X111617685Y-84605320D01*
X111486900Y-84665048D01*
X111378239Y-84759202D01*
X111300507Y-84880156D01*
X111276923Y-84960475D01*
X110645073Y-84328625D01*
X110645071Y-84328626D01*
X110591574Y-84405030D01*
X110536998Y-84448655D01*
X110467499Y-84455849D01*
X110405144Y-84424326D01*
X110388424Y-84405030D01*
X110334925Y-84328626D01*
X110334925Y-84328625D01*
X109703076Y-84960475D01*
X109679493Y-84880156D01*
X109601761Y-84759202D01*
X109493100Y-84665048D01*
X109362315Y-84605320D01*
X109352533Y-84603913D01*
X109981373Y-83975073D01*
X109981373Y-83975072D01*
X109905405Y-83921880D01*
X109861780Y-83867304D01*
X109854586Y-83797805D01*
X109886108Y-83735451D01*
X109905399Y-83718734D01*
X110091401Y-83588495D01*
X110258495Y-83421401D01*
X110388427Y-83235838D01*
X110443001Y-83192216D01*
X110512499Y-83185022D01*
X110574854Y-83216545D01*
G37*
%TD.AperFunction*%
%TA.AperFunction,Conductor*%
G36*
X86154507Y-84880156D02*
G01*
X86114000Y-85018111D01*
X86114000Y-85161889D01*
X86154507Y-85299844D01*
X86180314Y-85340000D01*
X84507686Y-85340000D01*
X84533493Y-85299844D01*
X84574000Y-85161889D01*
X84574000Y-85018111D01*
X84533493Y-84880156D01*
X84507686Y-84840000D01*
X86180314Y-84840000D01*
X86154507Y-84880156D01*
G37*
%TD.AperFunction*%
%TA.AperFunction,Conductor*%
G36*
X115897539Y-43450185D02*
G01*
X115943294Y-43502989D01*
X115954500Y-43554500D01*
X115954500Y-96145500D01*
X115934815Y-96212539D01*
X115882011Y-96258294D01*
X115830500Y-96269500D01*
X81908500Y-96269500D01*
X81841461Y-96249815D01*
X81795706Y-96197011D01*
X81784500Y-96145500D01*
X81784500Y-91507764D01*
X102285787Y-91507764D01*
X102315413Y-91777016D01*
X102383928Y-92039087D01*
X102489871Y-92288392D01*
X102630982Y-92519611D01*
X102720253Y-92626881D01*
X102804255Y-92727820D01*
X103005998Y-92908582D01*
X103231910Y-93058044D01*
X103338211Y-93107876D01*
X103477177Y-93173021D01*
X103736562Y-93251058D01*
X103736569Y-93251060D01*
X104004561Y-93290500D01*
X104004564Y-93290500D01*
X104205369Y-93290500D01*
X104207631Y-93290500D01*
X104410156Y-93275677D01*
X104674553Y-93216780D01*
X104927558Y-93120014D01*
X105163777Y-92987441D01*
X105378177Y-92821888D01*
X105566186Y-92626881D01*
X105723799Y-92406579D01*
X105847656Y-92165675D01*
X105935118Y-91909305D01*
X105984319Y-91642933D01*
X105994212Y-91372235D01*
X105964586Y-91102982D01*
X105896072Y-90840912D01*
X105790130Y-90591610D01*
X105649018Y-90360390D01*
X105649017Y-90360388D01*
X105475746Y-90152181D01*
X105370759Y-90058112D01*
X105274002Y-89971418D01*
X105048090Y-89821956D01*
X105048086Y-89821954D01*
X104802822Y-89706978D01*
X104543437Y-89628941D01*
X104543431Y-89628940D01*
X104275439Y-89589500D01*
X104072369Y-89589500D01*
X104070120Y-89589664D01*
X104070109Y-89589665D01*
X103869843Y-89604322D01*
X103605449Y-89663219D01*
X103352441Y-89759986D01*
X103116223Y-89892559D01*
X102901825Y-90058109D01*
X102713813Y-90253120D01*
X102556201Y-90473420D01*
X102432342Y-90714329D01*
X102344881Y-90970695D01*
X102295680Y-91237066D01*
X102285787Y-91507764D01*
X81784500Y-91507764D01*
X81784500Y-82549999D01*
X82718340Y-82549999D01*
X82738936Y-82785407D01*
X82783709Y-82952501D01*
X82800097Y-83013663D01*
X82899965Y-83227830D01*
X83035505Y-83421401D01*
X83202599Y-83588495D01*
X83388596Y-83718732D01*
X83432219Y-83773307D01*
X83439412Y-83842806D01*
X83407890Y-83905160D01*
X83388595Y-83921880D01*
X83202919Y-84051892D01*
X83035890Y-84218921D01*
X82900400Y-84412421D01*
X82800569Y-84626507D01*
X82743364Y-84839999D01*
X82743364Y-84840000D01*
X83640314Y-84840000D01*
X83614507Y-84880156D01*
X83574000Y-85018111D01*
X83574000Y-85161889D01*
X83614507Y-85299844D01*
X83640314Y-85340000D01*
X82743364Y-85340000D01*
X82800569Y-85553492D01*
X82900399Y-85767576D01*
X83035893Y-85961081D01*
X83202918Y-86128106D01*
X83396423Y-86263600D01*
X83610509Y-86363430D01*
X83824000Y-86420634D01*
X83824000Y-85525501D01*
X83931685Y-85574680D01*
X84038237Y-85590000D01*
X84109763Y-85590000D01*
X84216315Y-85574680D01*
X84324000Y-85525501D01*
X84324000Y-86420633D01*
X84537490Y-86363430D01*
X84751576Y-86263600D01*
X84945081Y-86128106D01*
X85112106Y-85961081D01*
X85242425Y-85774968D01*
X85297002Y-85731344D01*
X85366501Y-85724151D01*
X85428855Y-85755673D01*
X85445575Y-85774968D01*
X85575893Y-85961081D01*
X85742918Y-86128106D01*
X85936423Y-86263600D01*
X86150509Y-86363430D01*
X86364000Y-86420634D01*
X86364000Y-85525501D01*
X86471685Y-85574680D01*
X86578237Y-85590000D01*
X86649763Y-85590000D01*
X86756315Y-85574680D01*
X86863999Y-85525501D01*
X86863999Y-86420633D01*
X87077490Y-86363430D01*
X87291576Y-86263600D01*
X87485081Y-86128106D01*
X87652106Y-85961081D01*
X87787600Y-85767576D01*
X87887430Y-85553492D01*
X87944636Y-85340000D01*
X87047686Y-85340000D01*
X87073493Y-85299844D01*
X87114000Y-85161889D01*
X87114000Y-85018111D01*
X87073493Y-84880156D01*
X87047686Y-84840000D01*
X87944636Y-84840000D01*
X87944635Y-84839999D01*
X87887430Y-84626507D01*
X87787599Y-84412421D01*
X87652109Y-84218921D01*
X87485081Y-84051893D01*
X87299404Y-83921880D01*
X87255780Y-83867303D01*
X87248587Y-83797804D01*
X87280109Y-83735450D01*
X87299399Y-83718734D01*
X87485401Y-83588495D01*
X87652495Y-83421401D01*
X87788035Y-83227830D01*
X87887903Y-83013663D01*
X87949063Y-82785408D01*
X87969659Y-82550000D01*
X107864340Y-82550000D01*
X107884936Y-82785407D01*
X107929709Y-82952501D01*
X107946097Y-83013663D01*
X108045965Y-83227830D01*
X108181505Y-83421401D01*
X108348599Y-83588495D01*
X108534596Y-83718732D01*
X108578219Y-83773307D01*
X108585412Y-83842806D01*
X108553890Y-83905160D01*
X108534594Y-83921881D01*
X108458626Y-83975073D01*
X109087466Y-84603913D01*
X109077685Y-84605320D01*
X108946900Y-84665048D01*
X108838239Y-84759202D01*
X108760507Y-84880156D01*
X108736923Y-84960476D01*
X108105072Y-84328625D01*
X108046399Y-84412422D01*
X107946569Y-84626507D01*
X107885430Y-84854681D01*
X107864842Y-85090000D01*
X107885430Y-85325318D01*
X107946569Y-85553492D01*
X108046400Y-85767580D01*
X108105073Y-85851373D01*
X108736923Y-85219523D01*
X108760507Y-85299844D01*
X108838239Y-85420798D01*
X108946900Y-85514952D01*
X109077685Y-85574680D01*
X109087466Y-85576086D01*
X108458625Y-86204925D01*
X108542420Y-86263599D01*
X108756507Y-86363430D01*
X108984681Y-86424569D01*
X109219999Y-86445157D01*
X109455318Y-86424569D01*
X109683492Y-86363430D01*
X109897576Y-86263600D01*
X109981373Y-86204925D01*
X109352533Y-85576086D01*
X109362315Y-85574680D01*
X109493100Y-85514952D01*
X109601761Y-85420798D01*
X109679493Y-85299844D01*
X109703076Y-85219524D01*
X110334925Y-85851373D01*
X110388424Y-85774969D01*
X110443001Y-85731344D01*
X110512499Y-85724150D01*
X110574854Y-85755673D01*
X110591574Y-85774969D01*
X110645072Y-85851373D01*
X110645073Y-85851373D01*
X111276923Y-85219523D01*
X111300507Y-85299844D01*
X111378239Y-85420798D01*
X111486900Y-85514952D01*
X111617685Y-85574680D01*
X111627466Y-85576086D01*
X110998625Y-86204925D01*
X111082420Y-86263599D01*
X111296507Y-86363430D01*
X111524681Y-86424569D01*
X111760000Y-86445157D01*
X111995318Y-86424569D01*
X112223492Y-86363430D01*
X112437576Y-86263600D01*
X112521373Y-86204925D01*
X111892533Y-85576086D01*
X111902315Y-85574680D01*
X112033100Y-85514952D01*
X112141761Y-85420798D01*
X112219493Y-85299844D01*
X112243076Y-85219524D01*
X112874925Y-85851373D01*
X112933600Y-85767576D01*
X113033430Y-85553492D01*
X113094569Y-85325318D01*
X113115157Y-85090000D01*
X113094569Y-84854681D01*
X113033430Y-84626507D01*
X112933599Y-84412421D01*
X112874926Y-84328626D01*
X112874925Y-84328625D01*
X112243076Y-84960474D01*
X112219493Y-84880156D01*
X112141761Y-84759202D01*
X112033100Y-84665048D01*
X111902315Y-84605320D01*
X111892533Y-84603913D01*
X112521373Y-83975073D01*
X112521373Y-83975072D01*
X112445405Y-83921880D01*
X112401780Y-83867304D01*
X112394586Y-83797805D01*
X112426108Y-83735451D01*
X112445399Y-83718734D01*
X112631401Y-83588495D01*
X112798495Y-83421401D01*
X112934035Y-83227830D01*
X113033903Y-83013663D01*
X113095063Y-82785408D01*
X113115659Y-82550000D01*
X113095063Y-82314592D01*
X113033903Y-82086337D01*
X112934035Y-81872171D01*
X112798495Y-81678599D01*
X112631401Y-81511505D01*
X112445839Y-81381573D01*
X112402216Y-81326998D01*
X112395022Y-81257500D01*
X112426545Y-81195145D01*
X112445837Y-81178428D01*
X112631401Y-81048495D01*
X112798495Y-80881401D01*
X112934035Y-80687830D01*
X113033903Y-80473663D01*
X113095063Y-80245408D01*
X113115659Y-80010000D01*
X113095063Y-79774592D01*
X113033903Y-79546337D01*
X112934035Y-79332171D01*
X112798495Y-79138599D01*
X112631401Y-78971505D01*
X112445839Y-78841573D01*
X112402216Y-78786998D01*
X112395022Y-78717500D01*
X112426545Y-78655145D01*
X112445837Y-78638428D01*
X112631401Y-78508495D01*
X112798495Y-78341401D01*
X112934035Y-78147830D01*
X113033903Y-77933663D01*
X113095063Y-77705408D01*
X113115659Y-77470000D01*
X113095063Y-77234592D01*
X113033903Y-77006337D01*
X112934035Y-76792171D01*
X112798495Y-76598599D01*
X112631401Y-76431505D01*
X112445839Y-76301573D01*
X112402216Y-76246998D01*
X112395022Y-76177500D01*
X112426545Y-76115145D01*
X112445837Y-76098428D01*
X112631401Y-75968495D01*
X112798495Y-75801401D01*
X112934035Y-75607830D01*
X113033903Y-75393663D01*
X113095063Y-75165408D01*
X113115659Y-74930000D01*
X113095063Y-74694592D01*
X113033903Y-74466337D01*
X112934035Y-74252171D01*
X112798495Y-74058599D01*
X112631401Y-73891505D01*
X112445839Y-73761573D01*
X112402216Y-73706998D01*
X112395022Y-73637500D01*
X112426545Y-73575145D01*
X112445837Y-73558428D01*
X112631401Y-73428495D01*
X112798495Y-73261401D01*
X112934035Y-73067830D01*
X113033903Y-72853663D01*
X113095063Y-72625408D01*
X113115659Y-72390000D01*
X113095063Y-72154592D01*
X113033903Y-71926337D01*
X112934035Y-71712171D01*
X112798495Y-71518599D01*
X112631401Y-71351505D01*
X112445839Y-71221573D01*
X112402216Y-71166998D01*
X112395022Y-71097500D01*
X112426545Y-71035145D01*
X112445837Y-71018428D01*
X112631401Y-70888495D01*
X112798495Y-70721401D01*
X112934035Y-70527830D01*
X113033903Y-70313663D01*
X113095063Y-70085408D01*
X113115659Y-69850000D01*
X113095063Y-69614592D01*
X113033903Y-69386337D01*
X112934035Y-69172171D01*
X112798495Y-68978599D01*
X112631401Y-68811505D01*
X112445839Y-68681573D01*
X112402216Y-68626998D01*
X112395022Y-68557500D01*
X112426545Y-68495145D01*
X112445837Y-68478428D01*
X112631401Y-68348495D01*
X112798495Y-68181401D01*
X112934035Y-67987830D01*
X113033903Y-67773663D01*
X113095063Y-67545408D01*
X113115659Y-67310000D01*
X113095063Y-67074592D01*
X113033903Y-66846337D01*
X112934035Y-66632171D01*
X112798495Y-66438599D01*
X112631401Y-66271505D01*
X112445839Y-66141573D01*
X112402216Y-66086998D01*
X112395022Y-66017500D01*
X112426545Y-65955145D01*
X112445837Y-65938428D01*
X112631401Y-65808495D01*
X112798495Y-65641401D01*
X112934035Y-65447830D01*
X113033903Y-65233663D01*
X113095063Y-65005408D01*
X113115659Y-64770000D01*
X113095063Y-64534592D01*
X113033903Y-64306337D01*
X112934035Y-64092171D01*
X112798495Y-63898599D01*
X112631401Y-63731505D01*
X112445839Y-63601573D01*
X112402216Y-63546998D01*
X112395022Y-63477500D01*
X112426545Y-63415145D01*
X112445837Y-63398428D01*
X112631401Y-63268495D01*
X112798495Y-63101401D01*
X112934035Y-62907830D01*
X113033903Y-62693663D01*
X113095063Y-62465408D01*
X113115659Y-62230000D01*
X113095063Y-61994592D01*
X113033903Y-61766337D01*
X112934035Y-61552171D01*
X112798495Y-61358599D01*
X112631401Y-61191505D01*
X112445839Y-61061573D01*
X112402216Y-61006998D01*
X112395022Y-60937500D01*
X112426545Y-60875145D01*
X112445837Y-60858428D01*
X112631401Y-60728495D01*
X112798495Y-60561401D01*
X112934035Y-60367830D01*
X113033903Y-60153663D01*
X113095063Y-59925408D01*
X113115659Y-59690000D01*
X113095063Y-59454592D01*
X113033903Y-59226337D01*
X112934035Y-59012171D01*
X112798495Y-58818599D01*
X112631401Y-58651505D01*
X112445839Y-58521573D01*
X112402217Y-58466998D01*
X112395024Y-58397499D01*
X112426546Y-58335145D01*
X112445837Y-58318428D01*
X112631401Y-58188495D01*
X112798495Y-58021401D01*
X112934035Y-57827830D01*
X113033903Y-57613663D01*
X113095063Y-57385408D01*
X113115659Y-57150000D01*
X113095063Y-56914592D01*
X113033903Y-56686337D01*
X112934035Y-56472171D01*
X112798495Y-56278599D01*
X112631401Y-56111505D01*
X112445839Y-55981573D01*
X112402216Y-55926998D01*
X112395022Y-55857500D01*
X112426545Y-55795145D01*
X112445837Y-55778428D01*
X112631401Y-55648495D01*
X112798495Y-55481401D01*
X112934035Y-55287830D01*
X113033903Y-55073663D01*
X113095063Y-54845408D01*
X113115659Y-54610000D01*
X113095063Y-54374592D01*
X113033903Y-54146337D01*
X112934035Y-53932171D01*
X112798495Y-53738599D01*
X112631401Y-53571505D01*
X112437830Y-53435965D01*
X112223663Y-53336097D01*
X112162502Y-53319709D01*
X111995407Y-53274936D01*
X111759999Y-53254340D01*
X111524592Y-53274936D01*
X111296336Y-53336097D01*
X111082170Y-53435965D01*
X110888598Y-53571505D01*
X110713834Y-53746270D01*
X110711128Y-53743564D01*
X110672151Y-53774671D01*
X110602647Y-53781809D01*
X110540317Y-53750237D01*
X110507539Y-53698890D01*
X110504814Y-53690666D01*
X110412712Y-53541344D01*
X110412711Y-53541342D01*
X110288657Y-53417288D01*
X110139334Y-53325186D01*
X109972797Y-53270000D01*
X109873141Y-53259819D01*
X109873122Y-53259818D01*
X109870009Y-53259500D01*
X109866860Y-53259500D01*
X108573140Y-53259500D01*
X108573120Y-53259500D01*
X108569992Y-53259501D01*
X108566860Y-53259820D01*
X108566858Y-53259821D01*
X108467203Y-53270000D01*
X108300665Y-53325186D01*
X108151342Y-53417288D01*
X108027288Y-53541342D01*
X107935186Y-53690665D01*
X107880000Y-53857202D01*
X107869819Y-53956858D01*
X107869817Y-53956878D01*
X107869500Y-53959991D01*
X107869500Y-53963138D01*
X107869500Y-53963139D01*
X107869500Y-55256859D01*
X107869500Y-55256878D01*
X107869501Y-55260008D01*
X107869820Y-55263140D01*
X107869821Y-55263141D01*
X107880000Y-55362796D01*
X107935186Y-55529334D01*
X108027288Y-55678657D01*
X108151342Y-55802711D01*
X108151344Y-55802712D01*
X108300666Y-55894814D01*
X108308890Y-55897539D01*
X108366332Y-55937309D01*
X108393157Y-56001824D01*
X108380843Y-56070600D01*
X108354095Y-56101659D01*
X108356270Y-56103834D01*
X108181505Y-56278598D01*
X108045965Y-56472170D01*
X107946097Y-56686336D01*
X107884936Y-56914592D01*
X107864340Y-57150000D01*
X107884936Y-57385407D01*
X107929709Y-57552502D01*
X107946097Y-57613663D01*
X108045965Y-57827830D01*
X108181505Y-58021401D01*
X108348599Y-58188495D01*
X108534160Y-58318426D01*
X108577783Y-58373002D01*
X108584976Y-58442501D01*
X108553454Y-58504855D01*
X108534159Y-58521575D01*
X108348595Y-58651508D01*
X108181505Y-58818598D01*
X108045965Y-59012170D01*
X107946097Y-59226336D01*
X107884936Y-59454592D01*
X107864340Y-59690000D01*
X107884936Y-59925407D01*
X107929709Y-60092502D01*
X107946097Y-60153663D01*
X108045965Y-60367830D01*
X108181505Y-60561401D01*
X108348599Y-60728495D01*
X108534160Y-60858426D01*
X108577783Y-60913002D01*
X108584976Y-60982501D01*
X108553454Y-61044855D01*
X108534159Y-61061575D01*
X108348595Y-61191508D01*
X108181505Y-61358598D01*
X108045965Y-61552170D01*
X107946097Y-61766336D01*
X107884936Y-61994592D01*
X107864340Y-62230000D01*
X107884936Y-62465407D01*
X107929709Y-62632501D01*
X107946097Y-62693663D01*
X108045965Y-62907830D01*
X108181505Y-63101401D01*
X108348599Y-63268495D01*
X108534160Y-63398426D01*
X108577783Y-63453002D01*
X108584976Y-63522501D01*
X108553454Y-63584855D01*
X108534159Y-63601575D01*
X108348595Y-63731508D01*
X108181505Y-63898598D01*
X108045965Y-64092170D01*
X107946097Y-64306336D01*
X107884936Y-64534592D01*
X107864340Y-64769999D01*
X107884936Y-65005407D01*
X107929709Y-65172502D01*
X107946097Y-65233663D01*
X108045965Y-65447830D01*
X108181505Y-65641401D01*
X108348599Y-65808495D01*
X108534160Y-65938426D01*
X108577783Y-65993002D01*
X108584976Y-66062501D01*
X108553454Y-66124855D01*
X108534159Y-66141575D01*
X108348595Y-66271508D01*
X108181505Y-66438598D01*
X108045965Y-66632170D01*
X107946097Y-66846336D01*
X107884936Y-67074592D01*
X107864340Y-67309999D01*
X107884936Y-67545407D01*
X107929709Y-67712502D01*
X107946097Y-67773663D01*
X108045965Y-67987830D01*
X108181505Y-68181401D01*
X108348599Y-68348495D01*
X108534160Y-68478426D01*
X108577783Y-68533002D01*
X108584976Y-68602501D01*
X108553454Y-68664855D01*
X108534159Y-68681575D01*
X108348595Y-68811508D01*
X108181505Y-68978598D01*
X108045965Y-69172170D01*
X107946097Y-69386336D01*
X107884936Y-69614592D01*
X107864340Y-69850000D01*
X107884936Y-70085407D01*
X107929709Y-70252502D01*
X107946097Y-70313663D01*
X108045965Y-70527830D01*
X108181505Y-70721401D01*
X108348599Y-70888495D01*
X108534160Y-71018426D01*
X108577783Y-71073002D01*
X108584976Y-71142501D01*
X108553454Y-71204855D01*
X108534159Y-71221575D01*
X108348595Y-71351508D01*
X108181505Y-71518598D01*
X108045965Y-71712170D01*
X107946097Y-71926336D01*
X107884936Y-72154592D01*
X107864340Y-72390000D01*
X107884936Y-72625407D01*
X107929709Y-72792501D01*
X107946097Y-72853663D01*
X108045965Y-73067830D01*
X108181505Y-73261401D01*
X108348599Y-73428495D01*
X108534160Y-73558426D01*
X108577783Y-73613002D01*
X108584976Y-73682501D01*
X108553454Y-73744855D01*
X108534159Y-73761575D01*
X108348595Y-73891508D01*
X108181505Y-74058598D01*
X108045965Y-74252170D01*
X107946097Y-74466336D01*
X107884936Y-74694592D01*
X107864340Y-74930000D01*
X107884936Y-75165407D01*
X107929709Y-75332501D01*
X107946097Y-75393663D01*
X108045965Y-75607830D01*
X108181505Y-75801401D01*
X108348599Y-75968495D01*
X108534160Y-76098426D01*
X108577783Y-76153002D01*
X108584976Y-76222501D01*
X108553454Y-76284855D01*
X108534159Y-76301575D01*
X108348595Y-76431508D01*
X108181505Y-76598598D01*
X108045965Y-76792170D01*
X107946097Y-77006336D01*
X107884936Y-77234592D01*
X107864340Y-77469999D01*
X107884936Y-77705407D01*
X107929709Y-77872501D01*
X107946097Y-77933663D01*
X108045965Y-78147830D01*
X108181505Y-78341401D01*
X108348599Y-78508495D01*
X108534160Y-78638426D01*
X108577783Y-78693002D01*
X108584976Y-78762501D01*
X108553454Y-78824855D01*
X108534159Y-78841575D01*
X108348595Y-78971508D01*
X108181505Y-79138598D01*
X108045965Y-79332170D01*
X107946097Y-79546336D01*
X107884936Y-79774592D01*
X107864340Y-80009999D01*
X107884936Y-80245407D01*
X107929709Y-80412502D01*
X107946097Y-80473663D01*
X108045965Y-80687830D01*
X108181505Y-80881401D01*
X108348599Y-81048495D01*
X108534160Y-81178426D01*
X108577783Y-81233002D01*
X108584976Y-81302501D01*
X108553454Y-81364855D01*
X108534159Y-81381575D01*
X108348595Y-81511508D01*
X108181505Y-81678598D01*
X108045965Y-81872170D01*
X107946097Y-82086336D01*
X107884936Y-82314592D01*
X107864340Y-82550000D01*
X87969659Y-82550000D01*
X87949063Y-82314592D01*
X87887903Y-82086337D01*
X87788035Y-81872171D01*
X87652495Y-81678599D01*
X87485401Y-81511505D01*
X87299839Y-81381573D01*
X87256216Y-81326998D01*
X87249022Y-81257500D01*
X87280545Y-81195145D01*
X87299837Y-81178428D01*
X87485401Y-81048495D01*
X87652495Y-80881401D01*
X87788035Y-80687830D01*
X87887903Y-80473663D01*
X87949063Y-80245408D01*
X87969659Y-80010000D01*
X87949063Y-79774592D01*
X87887903Y-79546337D01*
X87788035Y-79332171D01*
X87652495Y-79138599D01*
X87485401Y-78971505D01*
X87299839Y-78841573D01*
X87256216Y-78786998D01*
X87249022Y-78717500D01*
X87280545Y-78655145D01*
X87299837Y-78638428D01*
X87485401Y-78508495D01*
X87652495Y-78341401D01*
X87788035Y-78147830D01*
X87887903Y-77933663D01*
X87949063Y-77705408D01*
X87969659Y-77470000D01*
X87949063Y-77234592D01*
X87887903Y-77006337D01*
X87788035Y-76792171D01*
X87652495Y-76598599D01*
X87485401Y-76431505D01*
X87299839Y-76301573D01*
X87256216Y-76246998D01*
X87249022Y-76177500D01*
X87280545Y-76115145D01*
X87299837Y-76098428D01*
X87485401Y-75968495D01*
X87652495Y-75801401D01*
X87788035Y-75607830D01*
X87887903Y-75393663D01*
X87949063Y-75165408D01*
X87969659Y-74930000D01*
X87949063Y-74694592D01*
X87887903Y-74466337D01*
X87788035Y-74252171D01*
X87652495Y-74058599D01*
X87485401Y-73891505D01*
X87299839Y-73761573D01*
X87256216Y-73706998D01*
X87249022Y-73637500D01*
X87280545Y-73575145D01*
X87299837Y-73558428D01*
X87485401Y-73428495D01*
X87652495Y-73261401D01*
X87788035Y-73067830D01*
X87887903Y-72853663D01*
X87949063Y-72625408D01*
X87969659Y-72390000D01*
X87949063Y-72154592D01*
X87887903Y-71926337D01*
X87788035Y-71712171D01*
X87652495Y-71518599D01*
X87485401Y-71351505D01*
X87299839Y-71221573D01*
X87256216Y-71166998D01*
X87249022Y-71097500D01*
X87280545Y-71035145D01*
X87299837Y-71018428D01*
X87485401Y-70888495D01*
X87652495Y-70721401D01*
X87788035Y-70527830D01*
X87887903Y-70313663D01*
X87949063Y-70085408D01*
X87969659Y-69850000D01*
X87949063Y-69614592D01*
X87887903Y-69386337D01*
X87788035Y-69172171D01*
X87652495Y-68978599D01*
X87485401Y-68811505D01*
X87299839Y-68681573D01*
X87256216Y-68626998D01*
X87249022Y-68557500D01*
X87280545Y-68495145D01*
X87299837Y-68478428D01*
X87485401Y-68348495D01*
X87652495Y-68181401D01*
X87788035Y-67987830D01*
X87887903Y-67773663D01*
X87949063Y-67545408D01*
X87969659Y-67310000D01*
X87949063Y-67074592D01*
X87887903Y-66846337D01*
X87788035Y-66632171D01*
X87652495Y-66438599D01*
X87485401Y-66271505D01*
X87299839Y-66141573D01*
X87256216Y-66086998D01*
X87249022Y-66017500D01*
X87280545Y-65955145D01*
X87299837Y-65938428D01*
X87485401Y-65808495D01*
X87652495Y-65641401D01*
X87788035Y-65447830D01*
X87887903Y-65233663D01*
X87949063Y-65005408D01*
X87969659Y-64770000D01*
X87949063Y-64534592D01*
X87887903Y-64306337D01*
X87788035Y-64092171D01*
X87652495Y-63898599D01*
X87485401Y-63731505D01*
X87299839Y-63601573D01*
X87256216Y-63546998D01*
X87249022Y-63477500D01*
X87280545Y-63415145D01*
X87299837Y-63398428D01*
X87485401Y-63268495D01*
X87652495Y-63101401D01*
X87788035Y-62907830D01*
X87887903Y-62693663D01*
X87949063Y-62465408D01*
X87969659Y-62230000D01*
X87949063Y-61994592D01*
X87887903Y-61766337D01*
X87788035Y-61552171D01*
X87652495Y-61358599D01*
X87485401Y-61191505D01*
X87299839Y-61061573D01*
X87256216Y-61006998D01*
X87249022Y-60937500D01*
X87280545Y-60875145D01*
X87299837Y-60858428D01*
X87485401Y-60728495D01*
X87652495Y-60561401D01*
X87788035Y-60367830D01*
X87887903Y-60153663D01*
X87949063Y-59925408D01*
X87969659Y-59690000D01*
X87949063Y-59454592D01*
X87887903Y-59226337D01*
X87788035Y-59012171D01*
X87652495Y-58818599D01*
X87485401Y-58651505D01*
X87299839Y-58521573D01*
X87256217Y-58466998D01*
X87249024Y-58397499D01*
X87280546Y-58335145D01*
X87299837Y-58318428D01*
X87485401Y-58188495D01*
X87652495Y-58021401D01*
X87788035Y-57827830D01*
X87887903Y-57613663D01*
X87949063Y-57385408D01*
X87969659Y-57150000D01*
X87949063Y-56914592D01*
X87887903Y-56686337D01*
X87788035Y-56472171D01*
X87652495Y-56278599D01*
X87485401Y-56111505D01*
X87299839Y-55981573D01*
X87256216Y-55926998D01*
X87249022Y-55857500D01*
X87280545Y-55795145D01*
X87299837Y-55778428D01*
X87485401Y-55648495D01*
X87652495Y-55481401D01*
X87788035Y-55287830D01*
X87887903Y-55073663D01*
X87949063Y-54845408D01*
X87969659Y-54610000D01*
X87949063Y-54374592D01*
X87887903Y-54146337D01*
X87788035Y-53932171D01*
X87652495Y-53738599D01*
X87485401Y-53571505D01*
X87291830Y-53435965D01*
X87077663Y-53336097D01*
X87016502Y-53319709D01*
X86849407Y-53274936D01*
X86614000Y-53254340D01*
X86378592Y-53274936D01*
X86150336Y-53336097D01*
X85936170Y-53435965D01*
X85742601Y-53571503D01*
X85620673Y-53693431D01*
X85559350Y-53726915D01*
X85489658Y-53721931D01*
X85433725Y-53680059D01*
X85416810Y-53649082D01*
X85409658Y-53629907D01*
X85367796Y-53517669D01*
X85281546Y-53402454D01*
X85166331Y-53316204D01*
X85031483Y-53265909D01*
X84971873Y-53259500D01*
X84968550Y-53259500D01*
X83179439Y-53259500D01*
X83179420Y-53259500D01*
X83176128Y-53259501D01*
X83172848Y-53259853D01*
X83172840Y-53259854D01*
X83116515Y-53265909D01*
X82981669Y-53316204D01*
X82866454Y-53402454D01*
X82780204Y-53517668D01*
X82729909Y-53652516D01*
X82724924Y-53698887D01*
X82723500Y-53712127D01*
X82723500Y-53715448D01*
X82723500Y-53715449D01*
X82723500Y-55504560D01*
X82723500Y-55504578D01*
X82723501Y-55507872D01*
X82723853Y-55511152D01*
X82723854Y-55511159D01*
X82729909Y-55567484D01*
X82755056Y-55634906D01*
X82780204Y-55702331D01*
X82866454Y-55817546D01*
X82981669Y-55903796D01*
X83093907Y-55945658D01*
X83113082Y-55952810D01*
X83169016Y-55994681D01*
X83193433Y-56060146D01*
X83178581Y-56128419D01*
X83157431Y-56156673D01*
X83035503Y-56278601D01*
X82899965Y-56472170D01*
X82800097Y-56686336D01*
X82738936Y-56914592D01*
X82718340Y-57150000D01*
X82738936Y-57385407D01*
X82783709Y-57552502D01*
X82800097Y-57613663D01*
X82899965Y-57827830D01*
X83035505Y-58021401D01*
X83202599Y-58188495D01*
X83388160Y-58318426D01*
X83431783Y-58373002D01*
X83438976Y-58442501D01*
X83407454Y-58504855D01*
X83388159Y-58521575D01*
X83202595Y-58651508D01*
X83035505Y-58818598D01*
X82899965Y-59012170D01*
X82800097Y-59226336D01*
X82738936Y-59454592D01*
X82718340Y-59689999D01*
X82738936Y-59925407D01*
X82783709Y-60092501D01*
X82800097Y-60153663D01*
X82899965Y-60367830D01*
X83035505Y-60561401D01*
X83202599Y-60728495D01*
X83388160Y-60858426D01*
X83431783Y-60913002D01*
X83438976Y-60982501D01*
X83407454Y-61044855D01*
X83388159Y-61061575D01*
X83202595Y-61191508D01*
X83035505Y-61358598D01*
X82899965Y-61552170D01*
X82800097Y-61766336D01*
X82738936Y-61994592D01*
X82718340Y-62229999D01*
X82738936Y-62465407D01*
X82783709Y-62632502D01*
X82800097Y-62693663D01*
X82899965Y-62907830D01*
X83035505Y-63101401D01*
X83202599Y-63268495D01*
X83388160Y-63398426D01*
X83431783Y-63453002D01*
X83438976Y-63522501D01*
X83407454Y-63584855D01*
X83388159Y-63601575D01*
X83202595Y-63731508D01*
X83035505Y-63898598D01*
X82899965Y-64092170D01*
X82800097Y-64306336D01*
X82738936Y-64534592D01*
X82718340Y-64770000D01*
X82738936Y-65005407D01*
X82783709Y-65172501D01*
X82800097Y-65233663D01*
X82899965Y-65447830D01*
X83035505Y-65641401D01*
X83202599Y-65808495D01*
X83388160Y-65938426D01*
X83431783Y-65993002D01*
X83438976Y-66062501D01*
X83407454Y-66124855D01*
X83388159Y-66141575D01*
X83202595Y-66271508D01*
X83035505Y-66438598D01*
X82899965Y-66632170D01*
X82800097Y-66846336D01*
X82738936Y-67074592D01*
X82718340Y-67310000D01*
X82738936Y-67545407D01*
X82783709Y-67712502D01*
X82800097Y-67773663D01*
X82899965Y-67987830D01*
X83035505Y-68181401D01*
X83202599Y-68348495D01*
X83388160Y-68478426D01*
X83431783Y-68533002D01*
X83438976Y-68602501D01*
X83407454Y-68664855D01*
X83388159Y-68681575D01*
X83202595Y-68811508D01*
X83035505Y-68978598D01*
X82899965Y-69172170D01*
X82800097Y-69386336D01*
X82738936Y-69614592D01*
X82718340Y-69850000D01*
X82738936Y-70085407D01*
X82783709Y-70252502D01*
X82800097Y-70313663D01*
X82899965Y-70527830D01*
X83035505Y-70721401D01*
X83202599Y-70888495D01*
X83388160Y-71018426D01*
X83431783Y-71073002D01*
X83438976Y-71142501D01*
X83407454Y-71204855D01*
X83388159Y-71221575D01*
X83202595Y-71351508D01*
X83035505Y-71518598D01*
X82899965Y-71712170D01*
X82800097Y-71926336D01*
X82738936Y-72154592D01*
X82718340Y-72389999D01*
X82738936Y-72625407D01*
X82783709Y-72792501D01*
X82800097Y-72853663D01*
X82899965Y-73067830D01*
X83035505Y-73261401D01*
X83202599Y-73428495D01*
X83388160Y-73558426D01*
X83431783Y-73613002D01*
X83438976Y-73682501D01*
X83407454Y-73744855D01*
X83388159Y-73761575D01*
X83202595Y-73891508D01*
X83035505Y-74058598D01*
X82899965Y-74252170D01*
X82800097Y-74466336D01*
X82738936Y-74694592D01*
X82718340Y-74930000D01*
X82738936Y-75165407D01*
X82783709Y-75332501D01*
X82800097Y-75393663D01*
X82899965Y-75607830D01*
X83035505Y-75801401D01*
X83202599Y-75968495D01*
X83388160Y-76098426D01*
X83431783Y-76153002D01*
X83438976Y-76222501D01*
X83407454Y-76284855D01*
X83388159Y-76301575D01*
X83202595Y-76431508D01*
X83035505Y-76598598D01*
X82899965Y-76792170D01*
X82800097Y-77006336D01*
X82738936Y-77234592D01*
X82718340Y-77470000D01*
X82738936Y-77705407D01*
X82783709Y-77872501D01*
X82800097Y-77933663D01*
X82899965Y-78147830D01*
X83035505Y-78341401D01*
X83202599Y-78508495D01*
X83388160Y-78638426D01*
X83431783Y-78693002D01*
X83438976Y-78762501D01*
X83407454Y-78824855D01*
X83388159Y-78841575D01*
X83202595Y-78971508D01*
X83035505Y-79138598D01*
X82899965Y-79332170D01*
X82800097Y-79546336D01*
X82738936Y-79774592D01*
X82718340Y-80010000D01*
X82738936Y-80245407D01*
X82783709Y-80412501D01*
X82800097Y-80473663D01*
X82899965Y-80687830D01*
X83035505Y-80881401D01*
X83202599Y-81048495D01*
X83388160Y-81178426D01*
X83431783Y-81233002D01*
X83438976Y-81302501D01*
X83407454Y-81364855D01*
X83388159Y-81381575D01*
X83202595Y-81511508D01*
X83035505Y-81678598D01*
X82899965Y-81872170D01*
X82800097Y-82086336D01*
X82738936Y-82314592D01*
X82718340Y-82549999D01*
X81784500Y-82549999D01*
X81784500Y-48327764D01*
X102285787Y-48327764D01*
X102315413Y-48597016D01*
X102383928Y-48859087D01*
X102489871Y-49108392D01*
X102630982Y-49339611D01*
X102720253Y-49446881D01*
X102804255Y-49547820D01*
X103005998Y-49728582D01*
X103231910Y-49878044D01*
X103338211Y-49927876D01*
X103477177Y-49993021D01*
X103736562Y-50071058D01*
X103736569Y-50071060D01*
X104004561Y-50110500D01*
X104004564Y-50110500D01*
X104205369Y-50110500D01*
X104207631Y-50110500D01*
X104410156Y-50095677D01*
X104674553Y-50036780D01*
X104927558Y-49940014D01*
X105163777Y-49807441D01*
X105378177Y-49641888D01*
X105566186Y-49446881D01*
X105723799Y-49226579D01*
X105847656Y-48985675D01*
X105935118Y-48729305D01*
X105984319Y-48462933D01*
X105994212Y-48192235D01*
X105964586Y-47922982D01*
X105896072Y-47660912D01*
X105790130Y-47411610D01*
X105649018Y-47180390D01*
X105649017Y-47180388D01*
X105475746Y-46972181D01*
X105370759Y-46878112D01*
X105274002Y-46791418D01*
X105048090Y-46641956D01*
X105048086Y-46641954D01*
X104802822Y-46526978D01*
X104543437Y-46448941D01*
X104543431Y-46448940D01*
X104275439Y-46409500D01*
X104072369Y-46409500D01*
X104070120Y-46409664D01*
X104070109Y-46409665D01*
X103869843Y-46424322D01*
X103605449Y-46483219D01*
X103352441Y-46579986D01*
X103116223Y-46712559D01*
X102901825Y-46878109D01*
X102713813Y-47073120D01*
X102556201Y-47293420D01*
X102432342Y-47534329D01*
X102344881Y-47790695D01*
X102295680Y-48057066D01*
X102285787Y-48327764D01*
X81784500Y-48327764D01*
X81784500Y-43554500D01*
X81804185Y-43487461D01*
X81856989Y-43441706D01*
X81908500Y-43430500D01*
X115830500Y-43430500D01*
X115897539Y-43450185D01*
G37*
%TD.AperFunction*%
%TD*%
M02*
