M48
; DRILL file {KiCad 7.0.2-0} date 2023 June 06, Tuesday 22:34:14
; FORMAT={3:3/ absolute / metric / suppress leading zeros}
; #@! TF.CreationDate,2023-06-06T22:34:14+02:00
; #@! TF.GenerationSoftware,Kicad,Pcbnew,7.0.2-0
; #@! TF.FileFunction,Plated,1,2,PTH
FMAT,2
METRIC,TZ
; #@! TA.AperFunction,Plated,PTH,ViaDrill
T1C0.300
; #@! TA.AperFunction,Plated,PTH,ComponentDrill
T2C1.000
%
G90
G05
T1
X92583Y-58801
X92583Y-72771
X92583Y-83566
X92964Y-50800
X93218Y-64516
X93218Y-75692
X98298Y-49784
X98298Y-63627
X98298Y-74549
X99060Y-49784
X99060Y-63627
X99314Y-74549
X100457Y-62230
X100572Y-55130
X100584Y-70612
X100711Y-79502
X103998Y-79205
T2
X84074Y-54610
X84074Y-57150
X84074Y-59690
X84074Y-62230
X84074Y-64770
X84074Y-67310
X84074Y-69850
X84074Y-72390
X84074Y-74930
X84074Y-77470
X84074Y-80010
X84074Y-82550
X84074Y-85090
X86614Y-54610
X86614Y-57150
X86614Y-59690
X86614Y-62230
X86614Y-64770
X86614Y-67310
X86614Y-69850
X86614Y-72390
X86614Y-74930
X86614Y-77470
X86614Y-80010
X86614Y-82550
X86614Y-85090
X109220Y-54610
X109220Y-57150
X109220Y-59690
X109220Y-62230
X109220Y-64770
X109220Y-67310
X109220Y-69850
X109220Y-72390
X109220Y-74930
X109220Y-77470
X109220Y-80010
X109220Y-82550
X109220Y-85090
X111760Y-54610
X111760Y-57150
X111760Y-59690
X111760Y-62230
X111760Y-64770
X111760Y-67310
X111760Y-69850
X111760Y-72390
X111760Y-74930
X111760Y-77470
X111760Y-80010
X111760Y-82550
X111760Y-85090
T0
M30
