M48
; DRILL file {KiCad 7.0.2-0} date 2023 June 06, Tuesday 17:10:44
; FORMAT={3:3/ absolute / metric / suppress leading zeros}
; #@! TF.CreationDate,2023-06-06T17:10:44+02:00
; #@! TF.GenerationSoftware,Kicad,Pcbnew,7.0.2-0
; #@! TF.FileFunction,Plated,1,2,PTH
FMAT,2
METRIC,TZ
; #@! TA.AperFunction,Plated,PTH,ViaDrill
T1C0.300
; #@! TA.AperFunction,Plated,PTH,ComponentDrill
T2C1.000
%
G90
G05
T1
X99187Y-76200
X99187Y-77216
X99314Y-59944
X99314Y-61214
X100457Y-62230
X100572Y-55130
X100584Y-70612
X100711Y-79502
X103998Y-79205
T2
X78740Y-54610
X78740Y-57150
X78740Y-59690
X78740Y-62230
X78740Y-64770
X78740Y-67310
X78740Y-69850
X78740Y-72390
X78740Y-74930
X78740Y-77470
X78740Y-80010
X78740Y-82550
X78740Y-85090
X81280Y-54610
X81280Y-57150
X81280Y-59690
X81280Y-62230
X81280Y-64770
X81280Y-67310
X81280Y-69850
X81280Y-72390
X81280Y-74930
X81280Y-77470
X81280Y-80010
X81280Y-82550
X81280Y-85090
X109220Y-54610
X109220Y-57150
X109220Y-59690
X109220Y-62230
X109220Y-64770
X109220Y-67310
X109220Y-69850
X109220Y-72390
X109220Y-74930
X109220Y-77470
X109220Y-80010
X109220Y-82550
X109220Y-85090
X111760Y-54610
X111760Y-57150
X111760Y-59690
X111760Y-62230
X111760Y-64770
X111760Y-67310
X111760Y-69850
X111760Y-72390
X111760Y-74930
X111760Y-77470
X111760Y-80010
X111760Y-82550
X111760Y-85090
T0
M30
