%TF.GenerationSoftware,KiCad,Pcbnew,7.0.2-0*%
%TF.CreationDate,2023-06-06T17:10:40+02:00*%
%TF.ProjectId,SCAN2000_driver,5343414e-3230-4303-905f-647269766572,1.0*%
%TF.SameCoordinates,Original*%
%TF.FileFunction,Soldermask,Top*%
%TF.FilePolarity,Negative*%
%FSLAX46Y46*%
G04 Gerber Fmt 4.6, Leading zero omitted, Abs format (unit mm)*
G04 Created by KiCad (PCBNEW 7.0.2-0) date 2023-06-06 17:10:40*
%MOMM*%
%LPD*%
G01*
G04 APERTURE LIST*
G04 Aperture macros list*
%AMRoundRect*
0 Rectangle with rounded corners*
0 $1 Rounding radius*
0 $2 $3 $4 $5 $6 $7 $8 $9 X,Y pos of 4 corners*
0 Add a 4 corners polygon primitive as box body*
4,1,4,$2,$3,$4,$5,$6,$7,$8,$9,$2,$3,0*
0 Add four circle primitives for the rounded corners*
1,1,$1+$1,$2,$3*
1,1,$1+$1,$4,$5*
1,1,$1+$1,$6,$7*
1,1,$1+$1,$8,$9*
0 Add four rect primitives between the rounded corners*
20,1,$1+$1,$2,$3,$4,$5,0*
20,1,$1+$1,$4,$5,$6,$7,0*
20,1,$1+$1,$6,$7,$8,$9,0*
20,1,$1+$1,$8,$9,$2,$3,0*%
G04 Aperture macros list end*
%ADD10RoundRect,0.237500X-0.300000X-0.237500X0.300000X-0.237500X0.300000X0.237500X-0.300000X0.237500X0*%
%ADD11C,3.200000*%
%ADD12R,0.650000X0.200000*%
%ADD13RoundRect,0.250000X0.337500X0.475000X-0.337500X0.475000X-0.337500X-0.475000X0.337500X-0.475000X0*%
%ADD14R,1.500000X0.600000*%
%ADD15R,0.800000X0.500000*%
%ADD16R,0.800000X0.400000*%
%ADD17RoundRect,0.250000X-0.400000X-0.625000X0.400000X-0.625000X0.400000X0.625000X-0.400000X0.625000X0*%
%ADD18RoundRect,0.250000X-0.600000X-0.600000X0.600000X-0.600000X0.600000X0.600000X-0.600000X0.600000X0*%
%ADD19C,1.700000*%
%ADD20R,1.700000X1.700000*%
%ADD21O,1.700000X1.700000*%
G04 APERTURE END LIST*
D10*
%TO.C,C5*%
X95983000Y-76708000D03*
X97708000Y-76708000D03*
%TD*%
D11*
%TO.C,H1*%
X104140000Y-48260000D03*
%TD*%
D12*
%TO.C,D2*%
X102016000Y-61538000D03*
X102016000Y-62338000D03*
X102016000Y-63138000D03*
X102016000Y-63938000D03*
X102616000Y-61938000D03*
X102616000Y-62738000D03*
X102616000Y-63538000D03*
%TD*%
%TO.C,D3*%
X102016000Y-69850000D03*
X102016000Y-70650000D03*
X102016000Y-71450000D03*
X102016000Y-72250000D03*
X102616000Y-70250000D03*
X102616000Y-71050000D03*
X102616000Y-71850000D03*
%TD*%
D13*
%TO.C,C4*%
X94305500Y-60706000D03*
X92230500Y-60706000D03*
%TD*%
D14*
%TO.C,U3*%
X86690000Y-78740000D03*
X86690000Y-80010000D03*
X86690000Y-81280000D03*
X86690000Y-82550000D03*
X86690000Y-83820000D03*
X86690000Y-85090000D03*
X86690000Y-86360000D03*
X86690000Y-87630000D03*
X86690000Y-88900000D03*
X86690000Y-90170000D03*
X96190000Y-90170000D03*
X96190000Y-88900000D03*
X96190000Y-87630000D03*
X96190000Y-86360000D03*
X96190000Y-85090000D03*
X96190000Y-83820000D03*
X96190000Y-82550000D03*
X96190000Y-81280000D03*
X96190000Y-80010000D03*
X96190000Y-78740000D03*
%TD*%
D15*
%TO.C,RN1*%
X104626000Y-54610000D03*
D16*
X104626000Y-55410000D03*
X104626000Y-56210000D03*
D15*
X104626000Y-57010000D03*
X106426000Y-57010000D03*
D16*
X106426000Y-56210000D03*
X106426000Y-55410000D03*
D15*
X106426000Y-54610000D03*
%TD*%
D17*
%TO.C,F1*%
X79730000Y-91440000D03*
X82830000Y-91440000D03*
%TD*%
D18*
%TO.C,J1*%
X109220000Y-54610000D03*
D19*
X111760000Y-54610000D03*
X109220000Y-57150000D03*
X111760000Y-57150000D03*
X109220000Y-59690000D03*
X111760000Y-59690000D03*
X109220000Y-62230000D03*
X111760000Y-62230000D03*
X109220000Y-64770000D03*
X111760000Y-64770000D03*
X109220000Y-67310000D03*
X111760000Y-67310000D03*
X109220000Y-69850000D03*
X111760000Y-69850000D03*
X109220000Y-72390000D03*
X111760000Y-72390000D03*
X109220000Y-74930000D03*
X111760000Y-74930000D03*
X109220000Y-77470000D03*
X111760000Y-77470000D03*
X109220000Y-80010000D03*
X111760000Y-80010000D03*
X109220000Y-82550000D03*
X111760000Y-82550000D03*
X109220000Y-85090000D03*
X111760000Y-85090000D03*
%TD*%
D15*
%TO.C,RN5*%
X104626000Y-74930000D03*
D16*
X104626000Y-75730000D03*
X104626000Y-76530000D03*
D15*
X104626000Y-77330000D03*
X106426000Y-77330000D03*
D16*
X106426000Y-76530000D03*
X106426000Y-75730000D03*
D15*
X106426000Y-74930000D03*
%TD*%
%TO.C,RN4*%
X104626000Y-69850000D03*
D16*
X104626000Y-70650000D03*
X104626000Y-71450000D03*
D15*
X104626000Y-72250000D03*
X106426000Y-72250000D03*
D16*
X106426000Y-71450000D03*
X106426000Y-70650000D03*
D15*
X106426000Y-69850000D03*
%TD*%
D14*
%TO.C,U1*%
X86690000Y-46990000D03*
X86690000Y-48260000D03*
X86690000Y-49530000D03*
X86690000Y-50800000D03*
X86690000Y-52070000D03*
X86690000Y-53340000D03*
X86690000Y-54610000D03*
X86690000Y-55880000D03*
X86690000Y-57150000D03*
X86690000Y-58420000D03*
X96190000Y-58420000D03*
X96190000Y-57150000D03*
X96190000Y-55880000D03*
X96190000Y-54610000D03*
X96190000Y-53340000D03*
X96190000Y-52070000D03*
X96190000Y-50800000D03*
X96190000Y-49530000D03*
X96190000Y-48260000D03*
X96190000Y-46990000D03*
%TD*%
D20*
%TO.C,J2*%
X78740000Y-54610000D03*
D21*
X81280000Y-54610000D03*
X78740000Y-57150000D03*
X81280000Y-57150000D03*
X78740000Y-59690000D03*
X81280000Y-59690000D03*
X78740000Y-62230000D03*
X81280000Y-62230000D03*
X78740000Y-64770000D03*
X81280000Y-64770000D03*
X78740000Y-67310000D03*
X81280000Y-67310000D03*
X78740000Y-69850000D03*
X81280000Y-69850000D03*
X78740000Y-72390000D03*
X81280000Y-72390000D03*
X78740000Y-74930000D03*
X81280000Y-74930000D03*
X78740000Y-77470000D03*
X81280000Y-77470000D03*
X78740000Y-80010000D03*
X81280000Y-80010000D03*
X78740000Y-82550000D03*
X81280000Y-82550000D03*
X78740000Y-85090000D03*
X81280000Y-85090000D03*
%TD*%
D12*
%TO.C,D1*%
X102016000Y-54680000D03*
X102016000Y-55480000D03*
X102016000Y-56280000D03*
X102016000Y-57080000D03*
X102616000Y-55080000D03*
X102616000Y-55880000D03*
X102616000Y-56680000D03*
%TD*%
D10*
%TO.C,C1*%
X95983000Y-44958000D03*
X97708000Y-44958000D03*
%TD*%
D15*
%TO.C,RN2*%
X104648000Y-59690000D03*
D16*
X104648000Y-60490000D03*
X104648000Y-61290000D03*
D15*
X104648000Y-62090000D03*
X106448000Y-62090000D03*
D16*
X106448000Y-61290000D03*
X106448000Y-60490000D03*
D15*
X106448000Y-59690000D03*
%TD*%
%TO.C,RN3*%
X104626000Y-64770000D03*
D16*
X104626000Y-65570000D03*
X104626000Y-66370000D03*
D15*
X104626000Y-67170000D03*
X106426000Y-67170000D03*
D16*
X106426000Y-66370000D03*
X106426000Y-65570000D03*
D15*
X106426000Y-64770000D03*
%TD*%
D13*
%TO.C,C6*%
X94305500Y-76708000D03*
X92230500Y-76708000D03*
%TD*%
%TO.C,C2*%
X94327000Y-44958000D03*
X92252000Y-44958000D03*
%TD*%
D15*
%TO.C,RN6*%
X104626000Y-80010000D03*
D16*
X104626000Y-80810000D03*
X104626000Y-81610000D03*
D15*
X104626000Y-82410000D03*
X106426000Y-82410000D03*
D16*
X106426000Y-81610000D03*
X106426000Y-80810000D03*
D15*
X106426000Y-80010000D03*
%TD*%
D11*
%TO.C,H2*%
X104140000Y-91440000D03*
%TD*%
D14*
%TO.C,U2*%
X86690000Y-62865000D03*
X86690000Y-64135000D03*
X86690000Y-65405000D03*
X86690000Y-66675000D03*
X86690000Y-67945000D03*
X86690000Y-69215000D03*
X86690000Y-70485000D03*
X86690000Y-71755000D03*
X86690000Y-73025000D03*
X86690000Y-74295000D03*
X96190000Y-74295000D03*
X96190000Y-73025000D03*
X96190000Y-71755000D03*
X96190000Y-70485000D03*
X96190000Y-69215000D03*
X96190000Y-67945000D03*
X96190000Y-66675000D03*
X96190000Y-65405000D03*
X96190000Y-64135000D03*
X96190000Y-62865000D03*
%TD*%
D10*
%TO.C,C3*%
X95961500Y-60706000D03*
X97686500Y-60706000D03*
%TD*%
D12*
%TO.C,D4*%
X101981000Y-78740000D03*
X101981000Y-79540000D03*
X101981000Y-80340000D03*
X101981000Y-81140000D03*
X102581000Y-79140000D03*
X102581000Y-79940000D03*
X102581000Y-80740000D03*
%TD*%
M02*
